<?xml version="1.0" standalone="no"?>
<!DOCTYPE svg PUBLIC "-//W3C//DTD SVG 20010904//EN"
 "http://www.w3.org/TR/2001/REC-SVG-20010904/DTD/svg10.dtd">
<svg version="1.0" xmlns="http://www.w3.org/2000/svg"
 width="700.000000pt" height="700.000000pt" viewBox="0 0 700.000000 700.000000"
 preserveAspectRatio="xMidYMid meet">
<metadata>
Created by potrace 1.11, written by Peter Selinger 2001-2013
</metadata>
<g transform="translate(0.000000,700.000000) scale(0.100000,-0.100000)"
fill="#000000" stroke="none">
<path d="M3260 6182 c-19 -1 -93 -12 -165 -23 -696 -109 -1288 -460 -1728
-1024 -26 -33 -52 -66 -58 -73 -6 -8 -45 -66 -86 -130 -93 -146 -197 -357
-258 -526 -47 -131 -109 -372 -120 -463 -3 -27 -8 -60 -10 -73 -9 -46 -19
-256 -19 -400 0 -244 16 -390 69 -610 25 -103 88 -296 132 -400 3 -8 7 -17 7
-20 6 -22 144 -284 191 -359 209 -338 531 -659 875 -873 107 -66 368 -198 392
-198 8 0 18 -4 24 -9 22 -20 398 -130 496 -145 21 -3 57 -10 80 -15 24 -5 50
-9 58 -9 8 0 51 -3 95 -8 95 -9 417 -9 532 -1 98 8 226 27 273 42 10 3 34 8
55 10 20 3 41 8 46 11 5 3 22 7 37 10 30 5 146 40 177 53 11 5 65 25 119 46
233 86 511 245 710 405 80 65 252 231 342 331 83 92 264 336 264 356 0 3 6 14
14 22 15 17 128 239 169 331 62 139 141 390 163 515 4 22 8 49 10 60 7 35 17
89 20 110 11 62 17 194 17 375 0 233 -8 353 -33 475 -6 28 -12 59 -14 70 -23
122 -98 365 -142 463 -13 29 -24 55 -24 58 0 3 -21 49 -47 102 -99 206 -230
406 -378 580 -38 45 -209 214 -274 270 -36 31 -83 73 -106 93 -101 89 -302
217 -469 298 -287 140 -562 221 -899 266 -49 7 -471 12 -537 7z"/>
</g>
</svg>
