<svg xmlns="http://www.w3.org/2000/svg">
<defs>
<font id="GTSectra-Book" horiz-adv-x="620" >
  <font-face 
    font-family="GTSectra"
    font-weight="300"
    font-stretch="normal"
    units-per-em="1000"
    panose-1="2 0 5 3 7 0 0 2 0 3"
    ascent="750"
    descent="-250"
    x-height="467"
    cap-height="701"
    bbox="-160 -267 2001 958"
    underline-thickness="50"
    underline-position="-50"
    unicode-range="U+000D-U+FB04"
  />
<missing-glyph horiz-adv-x="625" 
d="M605 460l-3 -41l-8 -35l-12 -31l-3 -156l-21 -7l-50 70l-27 -7l-19 -140l-32 4l-7 -4l-4 -94l30 -19l16 -14l-3 -15l-30 1l-24 18h-14l-8 8l7 76l-4 47l-61 1l-3 -52l-2 -56v-20l-15 -6l-8 6l-30 -10h-32l-1 11l11 11l50 21l-6 96l-98 -6l-147 140l-4 115l-13 10l-10 36
v26l15 8l-3 78l92 -62l9 47l10 36l22 35l28 35l39 29l40 15l38 14h22l-68 22l4 17h7l79 -20l-4 51l16 12h32l19 -5l29 -25l32 -8l32 -10l15 -13v-20l-20 -31l30 -28l28 -32l18 -34l15 -41zM495 399l-4 7h-205l-66 -3l-7 -9l-6 -44l-48 20l-11 -4l57 -27l1 -45l-5 -73v-91
l18 4l2 40l41 -3l3 9l-44 6v16l48 -6l1 9l-47 7l1 22l43 -3l3 6l-45 9l3 94h74l11 10h-79l2 9h74l8 7h-82l2 22l117 4l140 -4v11zM176 569l29 12l13 -15l-17 -20l-10 -3l17 -3h5l36 24h32l18 -12l8 3l4 14l7 5l10 -4v-18h8l10 22l11 8l-5 6l-3 8l1 21l-30 -10l-10 -8l-8 5
l4 21l14 10l11 11l38 -2l12 13l-4 8h-49l-45 -13l-53 -26l-29 -23zM586 465l-8 37l-19 50l-20 36l-23 28l-34 21h-11l17 -19l25 -10l11 -11l3 -33l-25 13l-15 -29l12 -8v-19l15 3l-12 26l15 -5l10 -20l-5 -12l-8 -7h-23l-3 11l-12 2l1 -22h-14l14 -18l-7 -10l-21 5l-3 -27
l41 6l8 17l22 -2l6 -28l-16 -13v-15l8 -6l18 12h23l6 11l-18 6l-5 9l9 42h7l14 -20zM72 434l57 -32l7 10l-68 38v18l59 -34l43 -28l28 -14l3 10l-103 64l-13 7l-41 33l2 -78l19 -17v-5h-21l19 -14l1 -11l-20 7l18 -18l-4 -7l3 -97l11 -12v180zM481 331l-54 1l-1 -24v-6
l-2 -31l19 -3l-8 -61l-48 3l-8 -6l51 -5l-2 -9h-49l-4 -5l53 -7l-6 -35l27 -1l12 79l4 36l-15 3l-1 8l20 1l5 3l-28 16l2 5l30 -6l-30 15l5 5l21 -5l4 10zM176 331l-66 39v-7l-2 -13l1 -27v-48l64 -44l-1 60zM350 214l-64 4v-51l64 -6v53zM502 306l8 -6l8 2l20 15l13 13

<glyph glyph-name="ff" unicode="ff" horiz-adv-x="638" 
d="M239 621l-19 -25q-5 -6 -9.5 -14.5t-7.5 -20.5t-5 -29.5t-2 -42.5v-29h216v14q0 47 13.5 79t39.5 64l78 93h122v-74h-130l-20 -25q-5 -7 -9.5 -15.5t-7.5 -21.5t-4.5 -31.5t-1.5 -44.5v-38h123v-44h-123v-378l119 -6l-5 -33l-144 3l-95 -3l-5 30l50 9v378h-216v-378
l87 -6l-5 -33l-112 3l-119 -3l-5 30l74 9v378h-90v16l28 33h62q0 50 19 84.5t45 64.5l67 81h168l-54 -74h-122z" />
    <glyph glyph-name="fi" unicode="fi" horiz-adv-x="581" 
d="M481 470v-432l80 -9l-5 -30l-112 3l-88 -3l-5 33l50 6v346l5 39l-34 -7h-176v-378l77 -6l-5 -33l-102 3l-119 -3l-5 30l74 9v378h-90v16l28 33h62v9q0 47 14 79t40 64l77 93h234v-86h-23l-64 12h-153l-21 -25q-5 -7 -9.5 -15.5t-7.5 -21.5t-5 -31.5t-2 -44.5v-38h179
l60 5z" />
    <glyph glyph-name="fl" unicode="fl" horiz-adv-x="587" 
d="M412 460v196l-57 -20h-114l-21 -25q-5 -7 -9.5 -15.5t-7.5 -21.5t-5 -31.5t-2 -44.5v-38h216zM116 474q0 47 14 79t40 64l77 93h138l79 4h28v-676l80 -9l-5 -30l-112 3l-100 -3l-5 30l62 9v378h-216v-378l87 -6l-5 -33l-112 3l-119 -3l-5 30l74 9v378h-90v16l28 33h62v9z
" />
    <glyph glyph-name="ffi" unicode="ffi" horiz-adv-x="876" 
d="M338 29l74 9v378h-216v-378l87 -6l-5 -33l-112 3l-119 -3l-5 30l74 9v378h-90v16l28 33h62q0 50 19 84.5t45 64.5l67 81h168l-54 -74h-122l-19 -25q-5 -6 -9.5 -14.5t-7.5 -20.5t-5 -29.5t-2 -42.5v-29h216v14q0 47 13.5 79t39.5 64l78 93h233v-86h-23l-64 12h-153
l-21 -25q-5 -7 -9.5 -15.5t-7.5 -21.5t-5 -31.5t-2 -44.5v-38h179l60 5l46 5v-432l80 -9l-5 -30l-112 3l-88 -3l-5 33l50 6v346l5 39l-34 -7h-176v-378l77 -6l-5 -33l-102 3l-118 -3z" />
    <glyph glyph-name="ffl" unicode="ffl" horiz-adv-x="882" 
d="M492 38l87 -6l-5 -33l-112 3l-95 -3l-5 30l50 9v378h-216v-378l87 -6l-5 -33l-112 3l-119 -3l-5 30l74 9v378h-90v16l28 33h62q0 50 19 84.5t45 64.5l67 81h168l-54 -74h-122l-19 -25q-5 -6 -9.5 -14.5t-7.5 -20.5t-5 -29.5t-2 -42.5v-29h216v14q0 47 13.5 79t39.5 64
l78 93h137l79 4h28v-676l80 -9l-5 -30l-112 3l-100 -3l-5 30l62 9v378h-215v-378zM707 460v196l-57 -20h-114l-21 -25q-5 -7 -9.5 -15.5t-7.5 -21.5t-4.5 -31.5t-1.5 -44.5v-38h215z" />
    <glyph glyph-name="Th" unicode="Th" horiz-adv-x="1067" 
d="M933 2l-89 -3l-5 31l52 9v290q0 42 -18 61.5t-50 19.5q-23 0 -53 -15t-59 -33l-33 -20v-303l59 -9l-5 -31l-91 3l-100 -3l-5 31l62 9v618l-32 -4l-218 3v-613l118 -13l-5 -31l-157 3l-164 -3l-5 31l124 13v613l-159 -3l-45 -120h-35v169l281 -2l250 2l101 13l26 -1v-327
l145 95q49 0 78 -10t44.5 -32t20 -56t4.5 -82v-263l80 -9l-5 -31z" />
    <glyph glyph-name="fb" unicode="fb" horiz-adv-x="854" 
d="M566 -15q-39 0 -64.5 4t-43 11t-30.5 15t-28 16v625l-57 -20h-104l-20 -28q-11 -14 -17 -38.5t-6 -77.5v-32h124v-44h-124v-377l119 -5l-5 -35l-144 3l-119 -3l-5 31l74 9v377h-90v16l28 33h62v9q0 47 14 79t40 64l77 93h126l79 4h28v-327l123 95q43 0 80.5 -15.5t66 -45
t45 -72t16.5 -96.5q0 -66 -18.5 -113.5t-51.5 -79.5t-78 -50t-97 -25zM588 32q64 0 101.5 52.5t37.5 141.5q0 41 -8 75t-23 58.5t-35.5 38t-45.5 13.5q-20 0 -46.5 -10.5t-55.5 -33.5l-33 -27v-266q17 -20 45 -31t63 -11z" />
    <glyph glyph-name="ffb" unicode="ffb" horiz-adv-x="1149" 
d="M412 460v14q0 47 13.5 79t39.5 64l78 93h125l79 4h28v-327l123 95q43 0 80.5 -15.5t66 -45t45 -72t16.5 -96.5q0 -66 -18.5 -113.5t-51.5 -79.5t-78 -50t-97 -25q-39 0 -64 4t-42.5 11t-31 15t-28.5 16v625l-57 -20h-103l-21 -28q-11 -14 -16.5 -38.5t-5.5 -77.5v-32h123
v-44h-123v-377l119 -5l-5 -35l-144 3l-95 -3l-5 30l50 9v378h-216v-378l87 -6l-5 -33l-112 3l-119 -3l-5 30l74 9v378h-90v16l28 33h62v-2q0 51 19 86t45 65l67 81h168l-54 -74h-122l-19 -25q-5 -6 -9.5 -14.5t-7.5 -20.5t-5 -29.5t-2 -42.5v-29h216zM775 74q17 -20 45 -31
t63 -11q65 0 102 52.5t37 141.5q0 41 -8 75t-23 58.5t-35.5 38t-45.5 13.5q-20 0 -46.5 -10.5t-55.5 -33.5l-33 -27v-266z" />
    <glyph glyph-name="ffh" unicode="ffh" horiz-adv-x="1175" 
d="M412 474q0 47 13.5 79t39.5 64l78 93h137l79 4h28v-327l144 95q49 0 78.5 -10t44.5 -32t19.5 -56t4.5 -82v-263l80 -9l-5 -31l-112 3l-89 -3l-5 31l52 9v290q0 42 -18 61.5t-50 19.5q-23 0 -52.5 -15t-59.5 -33l-32 -20v-303l59 -9l-5 -31l-91 3l-100 -3l-5 31l62 9v617
l-57 -20h-115l-21 -28q-11 -14 -16.5 -38.5t-5.5 -77.5v-32h123v-44h-123v-377l87 -5l-5 -35l-112 3l-95 -3l-5 30l50 9v378h-216v-378l87 -6l-5 -33l-112 3l-119 -3l-5 30l74 9v378h-90v16l28 33h62v-2q0 51 19 86t45 65l67 81h168l-54 -74h-122l-19 -25q-5 -6 -9.5 -14.5
t-7.5 -20.5t-5 -29.5t-2 -42.5v-29h216v14z" />
    <glyph glyph-name="ffj" unicode="ffj" horiz-adv-x="833" 
d="M566 -235v79h93l11 22q7 14 14 36t7 69v413l5 39l-34 -7h-171v-378l89 -6l-5 -33l-119 3l-90 -3l-5 30l50 9v378h-215v-378l87 -6l-5 -33l-112 3l-119 -3l-5 30l74 9v378h-90v16l28 33h62q0 50 19 84.5t45 64.5l67 81h168l-54 -74h-122l-19 -25q-5 -6 -9.5 -14.5
t-7.5 -20.5t-5 -29.5t-2 -42.5v-29h215v14q0 47 14 79t40 64l77 93h230v-86h-24l-64 12h-148l-21 -25q-5 -7 -9.5 -15.5t-7.5 -21.5t-5 -31.5t-2 -44.5v-38h174l60 6l46 4v-485q0 -35 -8.5 -63t-33.5 -59l-84 -98h-79z" />
    <glyph glyph-name="ffk" unicode="ffk" horiz-adv-x="1129" 
d="M787 271l27 11l162 146l-21 9v31l77 -3l69 3l5 -31l-51 -9l-194 -159l19 -11l198 -219l46 -9l-4 -31l-74 3l-58 -3l-192 234l-9 20v-214l60 -9l-5 -31l-89 3l-115 -3l-5 31l74 9v617l-57 -20h-115l-21 -28q-11 -14 -16.5 -38.5t-5.5 -77.5v-32h123v-44h-123v-377l87 -5
l-5 -35l-112 3l-119 -3l-5 31l74 9v377h-216v-378l87 -6l-5 -33l-112 3l-119 -3l-5 30l74 9v378h-90v16l28 33h62v-2q0 51 19 86t45 65l67 81h168l-54 -74h-122l-19 -25q-5 -6 -9.5 -14.5t-7.5 -20.5t-5 -29.5t-2 -42.5v-29h216v14q0 47 13.5 79t39.5 64l78 93h137l107 4
v-443z" />
    <glyph glyph-name="fh" unicode="fh" horiz-adv-x="880" 
d="M746 2l-89 -3l-5 31l52 9v290q0 42 -18 61.5t-50 19.5q-23 0 -52.5 -15t-59.5 -33l-32 -20v-303l59 -9l-5 -31l-91 3l-100 -3l-5 31l62 9v617l-57 -20h-116l-20 -28q-11 -14 -17 -38.5t-6 -77.5v-32h124v-44h-124v-377l87 -5l-5 -35l-112 3l-119 -3l-5 31l74 9v377h-90
v16l28 33h62v9q0 47 14 79t40 64l77 93h138l79 4h28v-327l144 95q49 0 78.5 -10t44.5 -32t19.5 -56t4.5 -82v-263l80 -9l-5 -31z" />
    <glyph glyph-name="fj" unicode="fj" horiz-adv-x="538" 
d="M350 -235h-79v79h93l11 22q7 14 14 36t7 69v413l5 39l-34 -7h-171v-377l89 -6l-5 -34l-120 3l-113 -3l-5 30l74 10v377h-90v16l28 33h62v9q0 47 14 79t40 64l77 93h230v-86h-24l-64 12h-148l-21 -25q-5 -7 -9.5 -15.5t-7.5 -21.5t-5 -31.5t-2 -44.5v-38h174l60 6l46 4
v-485q0 -35 -8.5 -63t-33.5 -59z" />
    <glyph glyph-name="fk" unicode="fk" horiz-adv-x="834" 
d="M751 2l-58 -3l-192 234l-9 20v-214l60 -9l-5 -31l-89 3l-115 -3l-5 31l74 9v617l-57 -20h-116l-20 -28q-11 -14 -17 -38.5t-6 -77.5v-32h124v-44h-124v-377l87 -5l-5 -35l-112 3l-119 -3l-5 31l74 9v377h-90v16l28 33h62v9q0 47 14 79t40 64l77 93h138l107 5v-444l26 11
l163 146l-21 9v31l77 -3l69 3l5 -31l-51 -9l-194 -159l18 -11l199 -219l46 -9l-4 -31z" />
    <glyph glyph-name="ft" unicode="ft" horiz-adv-x="657" 
d="M533 -15q-45 0 -69 8t-34.5 24t-12 39.5t-1.5 55.5v304h-220v-377l107 -5l-5 -35l-132 3l-119 -3l-5 31l74 9v377h-90v16l28 33h62v9q0 47 14 79t40 64l77 93h195l-69 -74h-134l-20 -28q-11 -14 -17 -38.5t-6 -77.5v-32h224v69l56 62h19v-134h156v-42h-155v-301
q0 -10 2 -20.5t8 -19t16.5 -14t27.5 -5.5q22 0 45 8.5t44 19.5l16 -30z" />
    <glyph glyph-name="fu" unicode="fu" horiz-adv-x="867" 
d="M696 76l-146 -91q-51 0 -81 10t-46 30t-20.5 51.5t-4.5 74.5v230l3 40l-32 -5h-173v-377l119 -5l-5 -35l-144 3l-119 -3l-5 31l74 9v377h-90v16l28 33h62v9q0 47 14 79t40 64l77 93h122v-74h-130l-20 -28q-11 -14 -17 -38.5t-6 -77.5v-32h176l105 10v-335q0 -42 18.5 -60
t56.5 -18q26 0 57.5 17.5t62.5 38.5l21 13v284l-63 -5l-5 36l106 25l42 4v-341q0 -34 3.5 -49.5t8.5 -27.5h52l4 -31l-117 -24z" />
    <glyph glyph-name="fy" unicode="fy" horiz-adv-x="810" 
d="M354 -235v89h76l99 156l-24 -7l-169 422h-140v-386l119 -5l-5 -35l-144 3l-119 -3l-5 31l74 9v377h-90v16l28 33h62v9q0 47 14 79t40 64l77 93h122v-74h-130l-20 -28q-11 -14 -17 -39t-6 -78v-24h289l5 -30l-70 -10l116 -304l6 -64l130 368l-46 10l5 31l86 -3l83 3l5 -31
l-66 -10l-162 -413l-115 -249h-108z" />
    <glyph glyph-name="gg" unicode="gg" horiz-adv-x="972" 
d="M239 482q49 0 88.5 -16.5t62.5 -45.5l51 62h40l13 -80h-57l-28 -17q4 -11 6.5 -21.5t2.5 -22.5q0 -60 -43.5 -106.5t-144.5 -72.5h-19q-8 0 -16 1l-62 -71q0 -14 10.5 -23.5t28.5 -9.5h162q63 0 92.5 -29t29.5 -74q0 -28 -16.5 -56.5t-47 -55t-73.5 -49.5t-95 -39
q-107 0 -155 34t-48 104v18l108 87q-29 10 -43.5 22t-21 24.5t-7 26t-0.5 28.5v2l100 71q-48 15 -76.5 48.5t-28.5 79.5q0 61 42.5 108t144.5 73zM161 -9q-22 -24 -34.5 -40t-18.5 -27t-7 -17.5t-1 -10.5q0 -38 36 -63t93 -25q27 0 52.5 10t45 27t31.5 40.5t12 50.5
q0 29 -23.5 42t-79.5 13h-106zM335 301q0 17 -4.5 40.5t-16.5 45.5t-33 37t-55 15q-43 0 -67 -29t-24 -79q0 -15 4.5 -36.5t16.5 -41t33 -33t55 -13.5q42 0 66.5 24.5t24.5 69.5zM703 482q49 0 88.5 -16.5t62.5 -45.5l57 62h56v-80h-60l-34 -17q4 -11 6.5 -21.5t2.5 -22.5
q0 -60 -43.5 -106.5t-144.5 -72.5h-18q-9 0 -17 1l-62 -71q0 -14 11 -23.5t28 -9.5h188q63 0 92.5 -29t29.5 -74q0 -28 -16.5 -56.5t-47.5 -55t-74 -49.5t-96 -39q-107 0 -155 34t-48 104v18l102 87q-37 10 -56 22t-26.5 24.5t-7.5 25.5v29v2l100 71q-48 15 -76.5 48.5
t-28.5 79.5q0 61 43 108t144 73zM643 -9q-21 -24 -32.5 -40t-16.5 -27t-5.5 -17.5t-0.5 -10.5q0 -38 36 -63t94 -25q27 0 52.5 10t45.5 27t32 40.5t12 50.5q0 29 -23.5 42t-79.5 13h-114zM799 301q0 17 -4.5 40.5t-16.5 45.5t-33 37t-55 15q-43 0 -67 -29t-24 -79
q0 -15 4.5 -36.5t16.5 -41t33 -33t55 -13.5q42 0 66.5 24.5t24.5 69.5z" />
    <glyph glyph-name="ky" unicode="ky" horiz-adv-x="974" 
d="M519 -235v89h75l99 156l-24 -7l-169 423l-42 -3l-195 -154l19 -11l198 -218l47 -10l-4 -31l-75 1l-57 -1l-193 234l-9 22v-215l60 -10l-5 -31l-89 3l-115 -3l-5 31l74 10v610l-74 -2l-5 30l113 32l46 4v-444l26 11l164 145l-21 11v30h292l5 -30l-70 -10l115 -304l7 -64
l129 368l-45 10l5 31l86 -3l82 3l5 -31l-65 -10l-167 -413l-111 -249h-107z" />
    <glyph glyph-name="tt" unicode="tt" horiz-adv-x="681" 
d="M536 -15q-45 0 -69 8t-34.5 24t-11.5 39.5t-1 55.5v303h-236v-301q0 -10 2 -20.5t8 -19t16.5 -14t27.5 -5.5q23 0 44 8.5t43 19.5l15 -30l-119 -68q-45 0 -69 8t-34.5 24t-12 39.5t-1.5 55.5v303h-99v17l34 34h69v63l56 62h19v-134h240v72l56 62h20v-134h180v-42h-179
v-301q0 -10 2 -20.5t7.5 -19t16 -14t27.5 -5.5q22 0 45.5 8.5t44.5 19.5l16 -30z" />
    <glyph glyph-name="ty" unicode="ty" horiz-adv-x="819" 
d="M363 -235v89h76l98 156l-23 -7l-170 423h-160v-312q0 -10 2 -20.5t8 -19t16.5 -14t27.5 -5.5q23 0 46.5 9t45.5 20l15 -30l-124 -69q-45 0 -69 8t-34.5 24t-12 39.5t-1.5 55.5v300h-99v16l34 34h69v67l56 62h19v-124h311l5 -30l-70 -10l115 -304l7 -64l130 368l-46 10
l5 31l86 -3l83 3l5 -31l-66 -10l-166 -413l-111 -249h-108z" />
    <glyph glyph-name="www" unicode="www" horiz-adv-x="2006" 
d="M1009 277l-4 65l-121 -325l-70 -31l-106 303l1 58l-117 -330l-71 -31l-101 291l-5 65l-120 -325l-71 -31l-153 441l-66 10l5 31l104 -3l91 3l5 -31l-59 -10l103 -310l8 -53l119 327l-13 36l-42 10l5 31l80 -3l90 3l5 -31l-58 -10l103 -310l8 -53l116 322l-14 41l-67 10
l5 31l104 -3l91 3l5 -31l-58 -10l103 -310l8 -53l118 327l-13 36l-42 10l5 31l80 -3l91 3l5 -31l-59 -10l103 -310l8 -53l116 322l-14 41l-66 10l5 31l104 -3l90 3l5 -31l-58 -10l103 -310l8 -53l119 327l-14 36l-42 10l5 31l80 -3l91 3l5 -31l-58 -10l102 -310l8 -53
l131 363l-46 10l5 31l67 -3l102 3l5 -31l-66 -10l-165 -410l-70 -31l-101 291l-5 65l-120 -325l-71 -31l-106 303l1 58l-117 -330l-71 -31z" />
    <glyph glyph-name=".notdef" horiz-adv-x="625" 
d="M605 460l-3 -41l-8 -35l-12 -31l-3 -156l-21 -7l-50 70l-27 -7l-19 -140l-32 4l-7 -4l-4 -94l30 -19l16 -14l-3 -15l-30 1l-24 18h-14l-8 8l7 76l-4 47l-61 1l-3 -52l-2 -56v-20l-15 -6l-8 6l-30 -10h-32l-1 11l11 11l50 21l-6 96l-98 -6l-147 140l-4 115l-13 10l-10 36
v26l15 8l-3 78l92 -62l9 47l10 36l22 35l28 35l39 29l40 15l38 14h22l-68 22l4 17h7l79 -20l-4 51l16 12h32l19 -5l29 -25l32 -8l32 -10l15 -13v-20l-20 -31l30 -28l28 -32l18 -34l15 -41zM495 399l-4 7h-205l-66 -3l-7 -9l-6 -44l-48 20l-11 -4l57 -27l1 -45l-5 -73v-91
l18 4l2 40l41 -3l3 9l-44 6v16l48 -6l1 9l-47 7l1 22l43 -3l3 6l-45 9l3 94h74l11 10h-79l2 9h74l8 7h-82l2 22l117 4l140 -4v11zM176 569l29 12l13 -15l-17 -20l-10 -3l17 -3h5l36 24h32l18 -12l8 3l4 14l7 5l10 -4v-18h8l10 22l11 8l-5 6l-3 8l1 21l-30 -10l-10 -8l-8 5
l4 21l14 10l11 11l38 -2l12 13l-4 8h-49l-45 -13l-53 -26l-29 -23zM586 465l-8 37l-19 50l-20 36l-23 28l-34 21h-11l17 -19l25 -10l11 -11l3 -33l-25 13l-15 -29l12 -8v-19l15 3l-12 26l15 -5l10 -20l-5 -12l-8 -7h-23l-3 11l-12 2l1 -22h-14l14 -18l-7 -10l-21 5l-3 -27
l41 6l8 17l22 -2l6 -28l-16 -13v-15l8 -6l18 12h23l6 11l-18 6l-5 9l9 42h7l14 -20zM72 434l57 -32l7 10l-68 38v18l59 -34l43 -28l28 -14l3 10l-103 64l-13 7l-41 33l2 -78l19 -17v-5h-21l19 -14l1 -11l-20 7l18 -18l-4 -7l3 -97l11 -12v180zM481 331l-54 1l-1 -24v-6
l-2 -31l19 -3l-8 -61l-48 3l-8 -6l51 -5l-2 -9h-49l-4 -5l53 -7l-6 -35l27 -1l12 79l4 36l-15 3l-1 8l20 1l5 3l-28 16l2 5l30 -6l-30 15l5 5l21 -5l4 10zM176 331l-66 39v-7l-2 -13l1 -27v-48l64 -44l-1 60zM350 214l-64 4v-51l64 -6v53zM502 306l8 -6l8 2l20 15l13 13
l11 18l-7 5h-14l-10 3l-14 7l-17 -3q-2 -13 -3 -24q-2 -9 -2.5 -17t-0.5 -7zM398 585l5 -6l19 11l8 -2l6 -24h13l6 6l-9 18l17 28l-15 9v5l-25 7v-20l-13 -5v-9l-9 -6zM403 336l4 30l-54 5l-3 -35h53zM336 455l-7 -11h-12l-5 7l11 8l-15 2v6l-23 4l3 -17l8 -14l20 -9l13 -1
l18 10l6 9l5 20l-30 2l7 -5zM559 312l-6 -3l-33 -27l39 -48v78zM214 454l1 4l14 2l-13 6l2 7l-20 -1l3 -19l14 -15l12 -6l11 5l16 12l6 12l2 13l-22 -4l6 -10l-12 -13l-14 -1zM364 281l-72 7l-6 -13l78 -4v10zM176 203l-74 50l20 -23l50 -41zM364 312h-73v-10h73v10z
M354 256l-68 4v-10h68v6zM485 359h-48v-13l44 4zM321 520l-4 -12l49 -17l3 4zM184 498l59 12l-4 12zM384 642l-8 -9v-19l12 -6l3 17zM461 530l-8 -4v-9l8 -3l2 7zM534 386l5 7v7l-10 -4v-10h5z" />
    <glyph glyph-name=".null" horiz-adv-x="0" 
 />
    <glyph glyph-name=".null" horiz-adv-x="0" 
 />
    <glyph glyph-name="nonmarkingreturn" unicode="&#xd;" horiz-adv-x="320" 
 />
    <glyph glyph-name="space" unicode=" " horiz-adv-x="241" 
 />
    <glyph glyph-name="exclam" unicode="!" horiz-adv-x="263" 
d="M167 429l-27 -194h-19l-27 193l-3 282h79zM84 96l68 4l28 -4l4 -52l-4 -44l-68 -5l-28 5l-5 52z" />
    <glyph glyph-name="quotedbl" unicode="&#x22;" horiz-adv-x="349" 
d="M204 610l-5 52l5 44l68 4l28 -4l4 -51l-4 -45l-61 -140l-34 13q6 13 12 30.5t11 34.5t8.5 32.5t3.5 25.5zM55 610l-5 52l5 44l67 4l29 -4l4 -51l-4 -45l-62 -140l-33 13q6 13 12 30.5t11 34.5t8.5 32.5t3.5 25.5z" />
    <glyph glyph-name="numbersign" unicode="#" horiz-adv-x="629" 
d="M229 241h149l20 173h-149zM477 655l-24 -195h136l-6 -46h-136l-20 -173h134l-6 -46h-135l-23 -195h-49l23 195h-149l-23 -195h-49l23 195h-133l6 46h134l20 173h-132l6 46h132l24 195h49l-24 -195h149l24 195h49z" />
    <glyph glyph-name="dollar" unicode="$" horiz-adv-x="562" 
d="M145 93q20 -26 56 -42.5t75 -19.5v294l-73 31q-26 10 -49.5 24.5t-41 34t-28 45t-10.5 58.5q0 39 16 70.5t43.5 55t64 40t78.5 27.5v70h48v-64q42 -2 83.5 -17t73.5 -40v-128h-43l-29 91q-15 16 -34.5 27.5t-50.5 16.5v-259l46 -19q25 -11 51.5 -26t47.5 -36.5t34 -52
t13 -70.5q0 -30 -9.5 -60t-31.5 -58t-59 -51.5t-92 -39.5v-75h-48v63q-3 0 -4 -1q-72 0 -119.5 18t-85.5 50l-22 126h65zM432 166q0 27 -8.5 48.5t-23.5 38.5t-34.5 29.5t-41.5 21.5v-270q53 10 80.5 46t27.5 86zM161 553q0 -45 28 -73t71 -46l16 -7v242q-54 -4 -84.5 -34.5
t-30.5 -81.5z" />
    <glyph glyph-name="percent" unicode="%" horiz-adv-x="778" 
d="M185 -5h-59l495 710h59zM189 360q-36 0 -64 13t-46.5 35.5t-28.5 53.5t-10 67q0 35 8.5 64.5t28 52.5t52.5 38.5t82 22.5q36 0 63.5 -13t46.5 -35.5t28.5 -54t9.5 -67.5q0 -35 -8 -64.5t-27.5 -52t-52.5 -38t-82 -22.5zM194 677q-21 0 -36 -11.5t-24.5 -30.5t-14 -44
t-4.5 -52q0 -30 5 -57t15.5 -47.5t28 -32.5t42.5 -12q21 0 36 11.5t24.5 30.5t14 44t4.5 53q0 29 -5 56t-15.5 47.5t-28 32.5t-42.5 12zM568 -7q-36 0 -64 13t-47 35.5t-29 53.5t-10 67t8.5 65.5t28.5 52t52.5 38t81.5 22.5q36 0 64 -13t47 -35.5t28.5 -54t9.5 -67.5
q0 -35 -8 -64.5t-27.5 -52t-52.5 -38t-82 -22.5zM573 310q-21 0 -36.5 -11.5t-25 -30.5t-14 -44t-4.5 -52q0 -30 5 -57t16 -47.5t28 -32.5t42 -12q21 0 36.5 11.5t25 30.5t14 44.5t4.5 52.5q0 29 -5 56t-16 47.5t-28 32.5t-42 12z" />
    <glyph glyph-name="ampersand" unicode="&#x26;" horiz-adv-x="714" 
d="M613 328l-110 -156l121 -131l53 -10l-4 -31l-72 1l-62 -1l-90 99q-20 -22 -62.5 -56t-111.5 -61q-48 0 -90 13.5t-73 37.5t-49 58t-18 76q0 51 17.5 86.5t41.5 60.5t48.5 41.5t38.5 29.5q-42 44 -64 81t-22 79q0 62 42.5 101.5t139.5 71.5q35 0 63.5 -11.5t49 -30.5
t32 -43.5t11.5 -51.5q0 -28 -12 -51.5t-32 -45t-47 -41.5l-57 -42l173 -194l75 122l-42 9l5 29l72 -3l100 3l5 -29zM274 51q24 0 45.5 8.5t39 21t31.5 27t25 27.5l-195 220q-20 -14 -36.5 -29t-28.5 -34t-18.5 -43.5t-6.5 -57.5q0 -28 11 -53t30.5 -44.5t45.5 -31t57 -11.5z
M188 573q0 -17 8 -35.5t20 -37t26 -36.5l26 -33q24 19 40 35t26.5 31t15 31.5t4.5 38.5q0 44 -22 74t-60 30q-35 0 -59.5 -26t-24.5 -72z" />
    <glyph glyph-name="quotesingle" unicode="'" horiz-adv-x="195" 
d="M55 610l-5 52l5 44l67 4l29 -4l4 -51l-4 -45l-62 -140l-33 13q6 13 12 30.5t11 34.5t8.5 32.5t3.5 25.5z" />
    <glyph glyph-name="parenleft" unicode="(" horiz-adv-x="268" 
d="M122 252q0 -62 7 -125t22 -123.5t39.5 -116.5t60.5 -104l-23 -21l-84 126q-35 53 -56.5 106t-31 112.5t-9.5 143.5t9.5 145t31 114t56 103.5t84.5 113.5l23 -21q-36 -48 -60.5 -96t-39.5 -102t-22 -116.5t-7 -138.5z" />
    <glyph glyph-name="parenright" unicode=")" horiz-adv-x="268" 
d="M146 252q0 76 -7 138.5t-22 116.5t-39.5 102t-60.5 96l23 21q50 -63 84.5 -114t56 -103.5t31 -113.5t9.5 -145t-9.5 -143.5t-31 -112t-56.5 -106.5l-84 -126l-23 21q36 48 60.5 104t39.5 116.5t22 123.5t7 125z" />
    <glyph glyph-name="asterisk" unicode="*" horiz-adv-x="403" 
d="M138 415l-52 37l86 97l-127 28l19 60l116 -49l-10 127h63l-9 -127l115 49l19 -60l-123 -28l82 -97l-51 -37l-65 105z" />
    <glyph glyph-name="plus" unicode="+" 
d="M279 0v222h-227v61h227v232h61v-232h227v-61h-227v-222h-61z" />
    <glyph glyph-name="comma" unicode="," horiz-adv-x="201" 
d="M71 0l-5 52l5 43l67 5l29 -5l4 -51l-4 -44l-62 -141l-33 14q6 13 12 30.5t11 34.5t8.5 32.5t3.5 25.5z" />
    <glyph glyph-name="hyphen" unicode="-" horiz-adv-x="385" 
d="M40 303h305v-61h-305v61z" />
    <glyph glyph-name="period" unicode="." horiz-adv-x="217" 
d="M75 96l67 4l29 -4l4 -52l-4 -44l-68 -5l-28 5l-5 52z" />
    <glyph glyph-name="slash" unicode="/" horiz-adv-x="496" 
d="M50 -230h-60l453 948h58z" />
    <glyph glyph-name="zero" unicode="0" horiz-adv-x="586" 
d="M294 482q52 0 97.5 -18t80 -50t54.5 -75.5t20 -93.5q0 -100 -64 -164t-190 -96q-52 0 -98 18t-80 50t-54 75.5t-20 93.5q0 100 64 163.5t190 96.5zM137 248q0 -41 9.5 -79t30.5 -68t53.5 -48t78.5 -18q34 0 60.5 16.5t44.5 42.5t27 59t9 66q0 40 -9.5 78.5t-30.5 68.5
t-54 48t-79 18q-35 0 -61 -16.5t-43.5 -42.5t-26.5 -59t-9 -66z" />
    <glyph glyph-name="one" unicode="1" horiz-adv-x="454" 
d="M200 392l-42 -20l-115 -26l-17 33l225 93h29v-425l159 -17l-5 -31l-197 3l-196 -3l-5 31l159 17v327z" />
    <glyph glyph-name="two" unicode="2" horiz-adv-x="512" 
d="M197 82h285v-26l-24 -56h-419l-19 42l179 135q69 52 103 89t34 73q0 18 -5 34t-16.5 29t-29.5 20.5t-45 7.5q-23 0 -38 -6t-26 -13l-37 -102h-66v103l182 70q78 0 125 -35.5t47 -92.5q0 -36 -11.5 -63.5t-33 -51.5t-53.5 -46t-73 -47l-148 -87z" />
    <glyph glyph-name="three" unicode="3" horiz-adv-x="463" 
d="M234 -148q30 13 49 31.5t30 38.5t15.5 39.5t4.5 35.5q0 52 -49 88.5t-145 36.5l-10 25l49 21q63 26 94 63t31 94q0 50 -27.5 78t-64.5 28q-23 0 -42.5 -6.5t-30.5 -12.5l-37 -103h-65v103l183 70q45 0 77.5 -11t53.5 -30t30.5 -43t9.5 -50q0 -59 -34.5 -105.5
t-97.5 -75.5q38 -3 68.5 -15t52 -31t33 -44t11.5 -52q0 -50 -17 -85t-46 -60t-66.5 -43.5t-78.5 -35.5l-76 -31h-114v82h209z" />
    <glyph glyph-name="four" unicode="4" horiz-adv-x="562" 
d="M403 66h144v-55h-144v-241h-84v241h-276l-33 31l327 425h95v-30l-337 -384l37 13h187v108l59 51h25v-159z" />
    <glyph glyph-name="five" unicode="5" horiz-adv-x="477" 
d="M130 386l-26 -209l111 56q76 0 121.5 -23t70 -53.5t32.5 -62.5t8 -50q0 -55 -18.5 -94t-49 -66.5t-70 -47t-82.5 -36.5l-75 -30h-107v82h202q30 14 50.5 33.5t33.5 40.5t19 41.5t6 38.5q0 27 -9.5 52t-28.5 44.5t-47.5 31.5t-66.5 12q-27 0 -48 -3.5t-46 -13.5l-33 -13
l-28 14l40 337h341v-27l-21 -54h-279z" />
    <glyph glyph-name="six" unicode="6" horiz-adv-x="537" 
d="M492 226q0 -99 -62 -158t-172 -83q-49 0 -87.5 21.5t-65.5 59.5t-41 90t-14 114q0 72 20 137t63 122t110 105t162 87l15 -38q-79 -39 -130 -78t-82 -80.5t-44.5 -87t-16.5 -97.5l145 107q52 0 90 -18.5t62.5 -49t36 -70.5t11.5 -83zM407 211q0 42 -10 72.5t-26.5 50.5
t-38 29.5t-43.5 9.5q-24 0 -46.5 -12t-52.5 -35l-45 -37q0 -47 5.5 -93t20 -82.5t40 -59.5t64.5 -23q30 0 54.5 14t41.5 38t26.5 57t9.5 71z" />
    <glyph glyph-name="seven" unicode="7" horiz-adv-x="493" 
d="M20 467h438l14 -17l-279 -680h-83v24l256 558l37 35h-383v80z" />
    <glyph glyph-name="eight" unicode="8" horiz-adv-x="553" 
d="M397 537q0 26 -7.5 49.5t-22.5 41.5t-38.5 29t-55.5 11q-50 0 -80.5 -29.5t-30.5 -77.5q0 -26 14 -48.5t36 -43t49 -39t53 -34.5q46 30 64.5 63t18.5 78zM140 194q0 -31 9.5 -60.5t27.5 -52t43.5 -36t56.5 -13.5q26 0 51 8.5t44 24.5t30.5 38.5t11.5 51.5q0 37 -20 66.5
t-49 53t-61 41.5l-56 32q-25 -17 -42 -32t-27 -32.5t-14.5 -39t-4.5 -50.5zM501 188q0 -82 -59.5 -131t-176.5 -72q-47 0 -86 14t-67.5 38.5t-44.5 57t-16 70.5q0 57 35.5 110.5t112.5 89.5q-60 35 -92.5 76.5t-32.5 95.5q0 130 213 178q91 0 145 -39.5t54 -103.5
q0 -32 -11 -59.5t-30.5 -52t-46 -45t-56.5 -38.5q31 -19 60 -39t51 -42.5t35 -49t13 -58.5z" />
    <glyph glyph-name="nine" unicode="9" horiz-adv-x="531" 
d="M124 250q0 -35 10 -63.5t26 -48.5t36 -30.5t41 -10.5q14 0 25.5 2.5t23.5 8t25 14.5t30 22l45 35q0 51 -5.5 98t-20 82t-39.5 56t-64 21q-60 0 -96.5 -49t-36.5 -137zM39 239q0 100 58.5 158.5t175.5 84.5q49 0 87.5 -21t65.5 -58.5t41 -90t14 -116.5q0 -69 -19.5 -132.5
t-62 -119t-108.5 -103t-159 -85.5l-15 38q76 39 126 77t80 78t43.5 84t17.5 95l-145 -106q-52 0 -90 18.5t-62.5 49t-36 69.5t-11.5 80z" />
    <glyph glyph-name="colon" unicode=":" horiz-adv-x="230" 
d="M80 96l67 4l29 -4l4 -52l-4 -44l-68 -5l-28 5l-5 52zM80 476l67 4l29 -4l4 -52l-4 -44l-68 -5l-28 5l-5 52z" />
    <glyph glyph-name="semicolon" unicode=";" horiz-adv-x="250" 
d="M80 476l67 4l29 -4l4 -52l-4 -44l-68 -5l-28 5l-5 52zM79 0l-4 52l4 43l68 5l28 -5l5 -51l-5 -44l-61 -141l-34 14q6 13 12 31l12 34q5 17 8.5 32.5t3.5 25.5z" />
    <glyph glyph-name="less" unicode="&#x3c;" 
d="M570 548v-76l-430 -185l430 -185v-77l-520 231v60z" />
    <glyph glyph-name="equal" unicode="=" 
d="M567 312h-515v61h515v-61zM567 117h-515v61h515v-61z" />
    <glyph glyph-name="greater" unicode="&#x3e;" 
d="M570 316v-60l-520 -231v77l430 185l-430 185v76z" />
    <glyph glyph-name="question" unicode="?" horiz-adv-x="393" 
d="M185 328l-7 -104h-52l-6 136l39 22q48 27 70.5 66.5t22.5 77.5q0 27 -5 50.5t-17 41t-31 27.5t-47 10l-19 -81h-68v119l82 11q53 -6 90 -23.5t60.5 -41.5t34.5 -54t11 -62q0 -70 -29.5 -108.5t-82.5 -64.5zM112 90l68 4l28 -4l4 -52l-4 -44l-68 -5l-28 5l-5 52z" />
    <glyph glyph-name="at" unicode="@" horiz-adv-x="915" 
d="M581 430l-83 53q-47 -19 -76.5 -47t-46 -59t-22.5 -61.5t-6 -55.5q0 -41 22 -64t59 -23l117 125zM576 124q33 -1 71.5 16.5t71.5 51.5t54.5 82.5t21.5 108.5q0 136 -72 202t-198 66q-69 0 -139 -23.5t-126 -70t-91 -116t-35 -162.5q0 -83 29 -146t78 -105t114.5 -63.5
t138.5 -21.5q58 0 104 17t75 32l15 -28q-28 -14 -59.5 -27t-63.5 -23.5t-61.5 -17.5t-53.5 -10q-90 0 -163.5 28t-126 77.5t-81.5 118t-29 149.5q0 72 25 137t70.5 119t109 95t141.5 64l91 26q93 0 164.5 -23.5t120 -65t73.5 -97.5t25 -121q0 -62 -26 -117t-68 -96
t-95.5 -65.5t-109.5 -24.5l-59 62l46 125l-34 -43l-48 -58l-74 -88q-28 0 -53.5 10t-44.5 28.5t-30 45t-11 58.5q0 85 47.5 153t128.5 104l109 49l111 -65z" />
    <glyph glyph-name="A" unicode="A" horiz-adv-x="747" 
d="M232 237l-68 -194l90 -13l-5 -31l-124 3l-109 -3l-5 31l83 11l254 654l37 14l270 -668l81 -11l-5 -31l-125 3l-136 -3l-5 31l89 13l-72 194h-250zM366 545l-8 53l-111 -317h218z" />
    <glyph glyph-name="B" unicode="B" horiz-adv-x="641" 
d="M177 2l-142 -3l-5 31l94 13v614l-94 13l5 31l142 -3l179 3q50 0 87 -12.5t61.5 -33.5t36.5 -48t12 -55q0 -29 -11.5 -56.5t-32 -51t-48 -41t-60.5 -26.5q48 -2 84 -16.5t61 -38t37.5 -53.5t12.5 -63q0 -52 -20 -87.5t-56 -59t-86 -37.5t-110 -23zM213 656v-267h89
q35 0 64 12t50 33t32.5 49t11.5 60q0 53 -33.5 84t-96.5 33zM311 40q54 0 90.5 15t58.5 38.5t31.5 52t9.5 56.5q0 31 -11 57.5t-32.5 45.5t-52 29.5t-69.5 10.5h-123v-301z" />
    <glyph glyph-name="C" unicode="C" horiz-adv-x="703" 
d="M664 194l-28 -132q-20 -10 -48.5 -22t-61.5 -23.5t-66.5 -21t-61.5 -13.5q-69 0 -133 23.5t-113.5 69t-79.5 113t-30 155.5q0 87 27.5 152.5t77 111.5t117 73.5t148.5 37.5q40 0 76.5 -8.5t68 -20.5t56.5 -26.5t40 -26.5v-123h-51l-32 92q-10 10 -26.5 21.5t-38 21.5
t-48 16.5t-57.5 6.5q-59 0 -106.5 -19.5t-82 -58.5t-53 -96t-18.5 -132q0 -60 19 -119t56 -106.5t91 -77t124 -29.5q22 0 41 5.5t35 13.5t29 17t22 16l56 109h51z" />
    <glyph glyph-name="D" unicode="D" horiz-adv-x="732" 
d="M173 698l191 3q75 0 135.5 -21.5t103 -63.5t65 -104t22.5 -142q0 -167 -85 -259t-253 -112l-178 3l-139 -3l-5 31l94 13v614l-94 13l5 31zM213 656v-604l132 -10q54 1 99 23t77.5 62.5t50.5 99t18 131.5q0 62 -17 117t-51 96t-85.5 65t-120.5 25z" />
    <glyph glyph-name="E" unicode="E" horiz-adv-x="625" 
d="M562 701l9 -176h-28l-55 130l-275 3v-273l148 4l40 105h30l-10 -121l10 -133h-30l-40 104l-148 4v-306l285 3l67 135h33l-36 -181l-389 3l-138 -3l-5 31l94 13v614l-94 13l5 31l138 -3z" />
    <glyph glyph-name="F" unicode="F" horiz-adv-x="586" 
d="M35 -1l-5 31l94 13v614l-94 13l5 31l138 -3l389 3l9 -174h-28l-55 128l-275 3v-286l148 4l40 104h30l-10 -121l10 -133h-30l-40 105l-148 4v-292l120 -13l-5 -31l-155 3z" />
    <glyph glyph-name="G" unicode="G" horiz-adv-x="742" 
d="M647 60l-49 -17l-68 -23q-37 -12 -74.5 -22.5t-67.5 -15.5q-69 0 -131.5 23t-110 69t-76 113.5t-28.5 156.5q0 86 26 150.5t73.5 110t113.5 73.5t147 40q40 0 78.5 -8.5t71 -20.5t58 -26t39.5 -26v-124h-44l-32 88q-11 10 -28 22.5t-40.5 23t-52.5 17.5t-63 7
q-56 0 -102 -20.5t-78.5 -60t-50.5 -96.5t-18 -129q0 -62 20 -122t56 -106.5t87.5 -75t114.5 -28.5q24 0 46 6t40 15t31.5 19t22.5 19v192l-90 13l5 30l130 -3l108 3l4 -30l-68 -13v-224z" />
    <glyph glyph-name="H" unicode="H" horiz-adv-x="756" 
d="M30 670l5 31l134 -3l129 3l5 -31l-90 -13v-271h336v271l-96 13l5 31l136 -3l127 3l5 -31l-88 -13v-614l88 -13l-5 -31l-127 3l-136 -3l-5 31l96 13v297h-336v-297l90 -13l-5 -31l-129 3l-134 -3l-5 31l94 13v614z" />
    <glyph glyph-name="I" unicode="I" horiz-adv-x="337" 
d="M169 2l-134 -3l-5 32l94 13v613l-94 13l5 31l134 -3l133 3l5 -31l-94 -13v-613l94 -13l-5 -32z" />
    <glyph glyph-name="J" unicode="J" horiz-adv-x="330" 
d="M216 87q0 -29 1 -50t-0.5 -37.5t-7 -29.5t-17.5 -27l-106 -118h-87v80h102l9 21q6 13 9.5 27t5 32.5t2 45t0.5 64.5v562l-110 13l5 31l150 -3l128 3l5 -31l-89 -13v-570z" />
    <glyph glyph-name="K" unicode="K" horiz-adv-x="692" 
d="M240 387l281 270l-73 13l5 31l104 -3l94 3l5 -31l-78 -16l-281 -277l19 -13l312 -325l53 -9l-5 -31l-85 3l-66 -3l-298 329l-14 26v-311l77 -13l-5 -31l-116 3l-134 -3l-5 31l94 13v614l-94 13l5 31l134 -3l116 3l5 -31l-77 -13v-285z" />
    <glyph glyph-name="L" unicode="L" horiz-adv-x="584" 
d="M173 2l-138 -3l-5 31l94 13v614l-94 13l5 31l138 -3l129 3l5 -31l-94 -13v-615l259 3l63 133h35l-34 -179z" />
    <glyph glyph-name="M" unicode="M" horiz-adv-x="931" 
d="M707 701l102 -3l87 3l5 -31l-88 -13v-614l82 -13l-5 -31l-113 3l-144 -3l-5 31l94 13v456l13 116l-261 -615h-51l-204 503l-40 114v-574l92 -13l-9 -31l-106 3l-115 -3l-5 31l82 13v611l-88 16l5 31l106 -3l92 3l218 -539l11 -48z" />
    <glyph glyph-name="N" unicode="N" horiz-adv-x="744" 
d="M185 43l89 -13l-6 -31l-106 3l-127 -3l-5 31l94 13v605l-89 22l5 31l96 -3l65 3l359 -523l19 -50v529l-88 13l5 31l107 -3l126 3l5 -31l-94 -13v-659h-59l-381 563l-15 61v-579z" />
    <glyph glyph-name="O" unicode="O" horiz-adv-x="771" 
d="M395 718q74 0 135.5 -27t105.5 -74t68.5 -112t24.5 -141q0 -165 -87.5 -259.5t-265.5 -122.5q-74 0 -135.5 27t-105.5 74t-68.5 112t-24.5 141q0 165 87 259t266 123zM140 368q0 -56 13.5 -115t44.5 -108t81 -80.5t122 -31.5q60 0 103.5 24t71.5 65t41.5 95.5t13.5 114.5
q0 54 -13.5 113.5t-44 108.5t-80 81t-122.5 32q-60 0 -104 -24t-72 -65t-41.5 -95t-13.5 -115z" />
    <glyph glyph-name="P" unicode="P" horiz-adv-x="583" 
d="M30 670l5 31l131 -3l184 3q48 0 88.5 -11t70 -33t46.5 -55.5t17 -76.5q0 -50 -21 -88t-55 -65.5t-78 -44.5t-89 -25h-116v-259l120 -13l-5 -31l-159 3l-134 -3l-5 31l94 13v614zM213 348h91q38 0 69.5 12t53.5 34t34 51.5t12 65.5q0 32 -8.5 59.5t-27 47.5t-48 31.5
t-71.5 11.5l-105 -5v-308z" />
    <glyph glyph-name="Q" unicode="Q" horiz-adv-x="771" 
d="M395 718q74 0 135.5 -27t105.5 -74t68.5 -112t24.5 -141q0 -154 -74.5 -245.5t-227.5 -126.5l100 -41l107 -77l53 -16l-4 -29h-142l-165 153q-74 0 -135.5 27t-105.5 74t-68.5 112t-24.5 141q0 165 87 259t266 123zM140 368q0 -56 13.5 -115t44.5 -108t81 -80.5
t122 -31.5q60 0 103.5 24t71.5 65t41.5 95.5t13.5 114.5q0 54 -13.5 113.5t-44 108.5t-80 81t-122.5 32q-60 0 -104 -24t-72 -65t-41.5 -95t-13.5 -115z" />
    <glyph glyph-name="R" unicode="R" horiz-adv-x="670" 
d="M213 322v-279l88 -13l-5 -31l-127 3l-134 -3l-5 31l94 13v614l-94 13l5 31l135 -3l168 3q50 0 93.5 -10t75 -31t49.5 -54t18 -79q0 -44 -18 -77t-46.5 -56.5t-65 -39.5t-72.5 -26l58 -38l179 -248l56 -14l-4 -29l-73 3l-66 -3l-218 312l-11 11h-80zM213 363h72
q43 0 78 12t59.5 33t37.5 50t13 62q0 36 -12 62t-32.5 43.5t-48 26.5t-59.5 9l-108 -5v-293z" />
    <glyph glyph-name="S" unicode="S" horiz-adv-x="563" 
d="M143 93q23 -28 62.5 -45t81.5 -17q69 0 106 39t37 96q0 28 -8.5 49.5t-23.5 38.5t-35 29.5t-42 21.5l-120 51q-26 10 -49.5 24.5t-41 34t-28 45t-10.5 58.5q0 43 19 76t51 57.5t74 41t88 25.5q45 0 92 -15t83 -43v-128h-43l-29 91q-19 20 -45 33.5t-73 13.5
q-61 0 -95.5 -31t-34.5 -86q0 -45 28 -73t71 -46l110 -45q25 -11 51.5 -26t47.5 -36.5t34 -52t13 -70.5q0 -33 -11.5 -66.5t-39.5 -63.5t-75 -54t-118 -38q-72 0 -119.5 18t-85.5 50l-22 126h65z" />
    <glyph glyph-name="T" unicode="T" horiz-adv-x="597" 
d="M456 -1l-157 3l-164 -3l-5 31l124 13v613l-159 -1l-45 -123h-35v169l281 -3l286 3v-169h-35l-45 123l-159 1v-613l118 -13z" />
    <glyph glyph-name="U" unicode="U" horiz-adv-x="717" 
d="M446 670l5 31l128 -3l118 3l5 -31l-87 -13v-414q0 -49 -11.5 -89.5t-40 -72.5t-77 -57t-123.5 -42q-70 0 -118.5 19t-78.5 54t-43.5 83.5t-13.5 108.5v410l-94 13l5 31l139 -3l129 3l5 -31l-89 -13v-430q0 -95 41 -146t129 -51q79 0 121.5 51t42.5 149v427z" />
    <glyph glyph-name="V" unicode="V" horiz-adv-x="742" 
d="M361 -14l-274 673l-82 11l5 31l130 -3l137 3l5 -31l-89 -13l186 -498l7 -47l202 545l-90 13l5 31l120 -3l109 3l5 -31l-83 -11l-260 -656z" />
    <glyph glyph-name="W" unicode="W" horiz-adv-x="969" 
d="M632 -14l-139 422l-3 56l-142 -454l-61 -24l-219 673l-57 11l5 31l107 -3l123 3l5 -31l-89 -13l155 -512l3 -51l133 445l-40 120l-67 11l5 31l116 -3l124 3l5 -31l-89 -13l155 -512l2 -50l172 564l-88 11l5 31l119 -3l81 3l5 -31l-56 -11l-209 -649z" />
    <glyph glyph-name="X" unicode="X" horiz-adv-x="697" 
d="M687 31l-5 -32l-141 3l-132 -3l-5 32l89 13l-135 222l-18 40l-179 -263l86 -12l-5 -32l-113 3l-114 -3l-5 32l78 11l219 302l-208 316l-82 11l5 31l149 -4l130 4l5 -31l-89 -13l124 -211l13 -37l168 247l-91 13l5 31l113 -3l123 3l5 -31l-80 -11l-209 -287l222 -330z" />
    <glyph glyph-name="Y" unicode="Y" horiz-adv-x="707" 
d="M400 270l2 -227l117 -13l-5 -31l-156 3l-163 -3l-5 31l123 13v232l-226 385l-82 11l5 30l135 -3l127 3l5 -30l-89 -13l176 -297l10 -35l172 332l-91 13l5 30l122 -3l115 3l5 -29l-82 -10z" />
    <glyph glyph-name="Z" unicode="Z" horiz-adv-x="570" 
d="M511 178h44l-34 -178h-491l-9 49l390 575l37 35l-308 -5l-45 -124h-40v170h468l10 -44l-392 -578l-37 -37l343 5z" />
    <glyph glyph-name="bracketleft" unicode="[" horiz-adv-x="333" 
d="M298 -200v-31l-126 3l-83 -3v946l83 -3l126 3v-31l-137 -10q-1 -101 -2 -183q0 -35 -0.5 -69.5t-1 -62.5t-1 -47.5t-0.5 -24.5q0 -9 0.5 -34.5t1 -60.5t1 -77.5t0.5 -84.5q1 -99 2 -220z" />
    <glyph glyph-name="backslash" unicode="\" horiz-adv-x="431" 
d="M-40 718h58l453 -948h-60z" />
    <glyph glyph-name="bracketright" unicode="]" horiz-adv-x="333" 
d="M172 -190q1 123 2 225q0 43 0.5 85t1 77t1 59t0.5 31t-0.5 27t-1 48.5t-1 62.5t-0.5 69q-1 81 -2 180l-137 10v31l126 -3l83 3v-946l-83 3l-126 -3v31z" />
    <glyph glyph-name="asciicircum" unicode="^" horiz-adv-x="391" 
d="M125 460h-75l123 245h45l123 -245h-75l-70 169z" />
    <glyph glyph-name="underscore" unicode="_" horiz-adv-x="655" 
d="M50 -77h555v-51h-555v51z" />
    <glyph glyph-name="grave" unicode="`" horiz-adv-x="500" 
d="M256 537l-120 172h102l48 -172h-30z" />
    <glyph glyph-name="a" unicode="a" horiz-adv-x="444" 
d="M288 238l-159 -66q-11 -11 -15 -24t-4 -29q0 -39 19 -54t42 -15t41 10.5t28 17.5l48 33v127zM218 482q46 0 75 -6.5t45.5 -24.5t22.5 -49.5t6 -80.5v-196q0 -33 5 -48.5t13 -26.5h51l3 -31l-115 -22l-30 76l-121 -88q-63 0 -103 33t-40 93q0 26 8 45.5t24 43.5l226 76v48
q0 22 -1.5 40.5t-7.5 32t-18.5 21t-34.5 7.5t-46.5 -6t-42.5 -13l-18 -72h-73v70z" />
    <glyph glyph-name="b" unicode="b" horiz-adv-x="543" 
d="M500 253q0 -66 -18.5 -113.5t-51.5 -79.5t-78 -50t-97 -25q-39 0 -64 4t-42.5 11t-31 15t-28.5 16v619l-74 -2l-5 30l113 32l46 4v-327l123 95q43 0 81 -15.5t66 -45t44.5 -72t16.5 -96.5zM416 226q0 41 -8 75t-23 58.5t-35.5 38t-44.5 13.5q-21 0 -47.5 -10.5
t-55.5 -33.5l-33 -27v-266q17 -20 45 -31t63 -11q65 0 102 52.5t37 141.5z" />
    <glyph glyph-name="c" unicode="c" horiz-adv-x="441" 
d="M323 415q-14 10 -28 14t-37 4q-28 0 -51.5 -14.5t-41 -40t-27.5 -60.5t-10 -77q0 -41 10.5 -75.5t31 -60t49.5 -40t67 -14.5q29 0 59 13t59 31l12 -35q-34 -23 -71.5 -41.5t-84.5 -33.5q-47 0 -86.5 15t-68.5 45t-45.5 74.5t-16.5 103.5t20 103t52.5 75t74 50.5
t85.5 30.5q15 0 33.5 -4t36.5 -11t34.5 -16t27.5 -19v-91h-60z" />
    <glyph glyph-name="d" unicode="d" horiz-adv-x="550" 
d="M447 129q0 -29 5 -46.5t13 -28.5h60l4 -33l-124 -24l-31 75l-131 -87q-47 0 -85.5 17t-65.5 47.5t-41.5 73t-14.5 94.5q0 60 18 106.5t50 79.5t77.5 52.5t101.5 26.5q15 0 40.5 -9.5t43.5 -17.5v196l-74 -2l-5 30l116 31l43 4v-585zM229 57q21 0 48 10.5t57 34.5l33 27
v266q-37 43 -107 43q-64 0 -102 -52.5t-38 -143.5q0 -86 30.5 -135.5t78.5 -49.5z" />
    <glyph glyph-name="e" unicode="e" horiz-adv-x="469" 
d="M120 257q0 -45 11.5 -83t33.5 -65.5t54.5 -42.5t74.5 -15q28 0 61.5 12.5t63.5 30.5l14 -36q-35 -22 -80.5 -41.5t-89.5 -31.5q-44 0 -84.5 15.5t-72 46t-50.5 76.5t-19 106q0 59 17.5 102.5t47.5 74t70.5 49t85.5 27.5q49 0 82 -14.5t53 -39.5t28.5 -59.5t8.5 -73.5v-38
h-310zM338 305q0 29 -3.5 53t-14.5 41.5t-30.5 27t-51.5 9.5q-49 0 -79 -39t-38 -102z" />
    <glyph glyph-name="f" unicode="f" horiz-adv-x="342" 
d="M196 460h124v-44h-124v-377l119 -5l-5 -35l-144 3l-119 -3l-5 31l74 9v377h-90v16l28 33h62v9q0 47 14 79t40 64l77 93h122v-74h-130l-20 -28q-11 -14 -17 -38.5t-6 -77.5v-32z" />
    <glyph glyph-name="g" unicode="g" horiz-adv-x="503" 
d="M335 300q0 17 -4.5 41t-16.5 45.5t-33 37t-55 15.5q-43 0 -67 -28.5t-24 -78.5q0 -15 4.5 -36.5t16.5 -41t33.5 -33.5t55.5 -14q42 0 66 24.5t24 68.5zM160 -10q-22 -24 -34 -40.5t-18 -27t-7.5 -17.5t-1.5 -12q0 -18 10.5 -33.5t29.5 -27t44 -17.5t55 -6t59 10t51.5 27
t36 41t13.5 52q0 29 -23.5 40t-78.5 11h-136zM240 482q42 0 81.5 -14t62.5 -40l57 54h57v-73h-53l-38 -18q11 -24 11 -50q0 -60 -43.5 -107t-144.5 -72h-17q-8 0 -16 1l-61 -69q0 -15 9 -25t26 -10h183q69 0 99 -27t30 -72q0 -29 -18 -58.5t-50.5 -56.5t-78 -50.5
t-101.5 -39.5q-112 0 -163 35.5t-51 106.5v15l106 88q-26 10 -40 21t-20.5 23.5t-7.5 26t-1 30.5v2l98 70q-47 16 -75.5 49t-28.5 79q0 61 43 108t145 73z" />
    <glyph glyph-name="h" unicode="h" horiz-adv-x="578" 
d="M189 39l59 -9l-5 -31l-91 3l-112 -3l-5 31l74 9v612l-73 -2l-5 29l112 32l46 4v-327l145 95q49 0 78 -10t44.5 -32t20 -56t4.5 -82v-263l80 -9l-5 -31l-112 3l-89 -3l-5 31l52 9v290q0 42 -18 61.5t-50 19.5q-23 0 -53 -15t-59 -33l-33 -20v-303z" />
    <glyph glyph-name="i" unicode="i" horiz-adv-x="289" 
d="M152 2l-112 -3l-5 31l74 9v370l-74 -6l-5 31l113 32l46 4v-431l80 -9l-5 -31zM105 688l65 5l26 -5l4 -52l-10 -45l-63 -6l-25 6l-6 52z" />
    <glyph glyph-name="j" unicode="j" horiz-adv-x="261" 
d="M104 688l65 5l26 -5l5 -52l-10 -45l-64 -6l-25 6l-6 52zM87 -134q7 14 14 36t7 69v438l-74 -6l-5 31l113 32l46 4v-485q0 -35 -8.5 -63t-33.5 -59l-84 -98h-79v79h93z" />
    <glyph glyph-name="k" unicode="k" horiz-adv-x="531" 
d="M447 2l-57 -3l-192 234l-10 20v-214l60 -9l-5 -31l-88 3l-116 -3l-5 31l74 9v610l-73 -2l-5 31l112 32l46 4v-443l27 11l163 146l-21 9v31l76 -3l70 3l5 -31l-52 -9l-193 -159l18 -11l199 -219l46 -9l-4 -31z" />
    <glyph glyph-name="l" unicode="l" horiz-adv-x="284" 
d="M152 2l-112 -3l-5 31l74 9v610l-73 -2l-5 31l112 32l46 4v-675l80 -9l-5 -31z" />
    <glyph glyph-name="m" unicode="m" horiz-adv-x="848" 
d="M712 2l-89 -3l-5 31l54 9v290q0 42 -16.5 61t-45.5 19q-23 0 -51.5 -14t-56.5 -34l-32 -22v-300l47 -9l-5 -31l-78 3l-86 -3l-5 31l48 9v290q0 42 -16.5 61t-45.5 19q-23 0 -51.5 -14t-56.5 -34l-33 -22v-300l54 -9l-5 -31l-83 3l-115 -3l-5 31l74 9v371l-73 -7l-5 31
l114 32l38 3l4 -84l139 97q36 0 61 -6t41 -18t25 -31t13 -44l140 99q49 0 78 -10t44 -32t19.5 -56t4.5 -82v-263l80 -9l-5 -31z" />
    <glyph glyph-name="n" unicode="n" horiz-adv-x="578" 
d="M151 2l-112 -3l-5 31l74 9v371l-73 -7l-5 31l112 32l38 3l6 -85l147 98q49 0 78 -9t44.5 -29t20 -51.5t4.5 -76.5v-277l81 -9l-5 -31l-112 3l-91 -3l-5 31l53 9v290q0 42 -18 61.5t-53 19.5q-28 0 -55 -15t-54 -33l-33 -21v-302l59 -9l-5 -31z" />
    <glyph glyph-name="o" unicode="o" horiz-adv-x="536" 
d="M277 482q50 0 91 -18.5t70 -51t45 -76t16 -93.5q0 -109 -60.5 -175t-178.5 -83q-51 0 -92 18.5t-70 50.5t-45 75.5t-16 93.5q0 109 60.5 174.5t179.5 84.5zM121 236q0 -38 11 -75t32 -66t51 -46.5t68 -17.5q33 0 58 16t41.5 43t25 63t8.5 76q0 44 -11.5 82t-33 65.5
t-51.5 43.5t-66 16q-34 0 -59 -16t-41.5 -43.5t-24.5 -64t-8 -76.5z" />
    <glyph glyph-name="p" unicode="p" horiz-adv-x="543" 
d="M259 -15q-47 0 -85 24v-199l109 -10l-5 -31l-140 3l-113 -3l-5 31l74 10v601l-74 -7l-5 30l114 32l38 3l5 -83l126 96q105 0 156 -62.5t51 -173.5q0 -64 -19 -110t-52 -77t-78 -49t-97 -25zM421 219q0 43 -8 79.5t-22 62.5t-34.5 40.5t-44.5 14.5q-22 0 -48 -13.5
t-57 -36.5l-33 -25v-249q18 -28 50 -44t69 -16q58 0 93 50.5t35 136.5z" />
    <glyph glyph-name="q" unicode="q" horiz-adv-x="527" 
d="M244 51q22 0 38 7.5t22 11.5l64 45v249q-11 33 -35 53t-67 20q-69 0 -107.5 -51t-38.5 -139q0 -46 10 -82.5t27 -61.5t39.5 -38.5t47.5 -13.5zM436 477h12v-667l74 -10l-5 -31l-113 3l-140 -3l-5 31l109 10v256l-119 -81q-48 0 -87.5 16.5t-67.5 47.5t-43 75t-15 99
q0 116 67.5 180.5t186.5 78.5q24 0 56 -14t56 -29z" />
    <glyph glyph-name="r" unicode="r" horiz-adv-x="389" 
d="M181 344l116 133h76v-88h-65q-9 -1 -21.5 -7.5t-27 -16.5t-28.5 -22.5t-24 -25.5l-22 -27v-247l104 -9l-5 -35l-136 3l-108 -3l-5 31l74 9v371l-74 -7l-5 31l116 32l36 3z" />
    <glyph glyph-name="s" unicode="s" horiz-adv-x="419" 
d="M293 418q-6 2 -27.5 10.5t-48.5 8.5q-14 0 -28 -4t-25 -12t-18 -19.5t-7 -27.5q0 -25 18.5 -42t50.5 -34l78 -40q52 -26 72.5 -56t20.5 -72q0 -33 -13 -56.5t-37 -40t-57.5 -28t-74.5 -20.5q-25 0 -48.5 5.5t-43.5 13t-35 15.5t-22 13l-19 103h63l37 -85q15 -8 35 -13.5
t44 -5.5q43 0 63.5 24.5t20.5 57.5q0 31 -18 49t-58 39l-81 42q-14 7 -28.5 17.5t-25.5 25t-18 31.5t-7 38q0 52 48 81.5t126 45.5q16 0 35.5 -4.5t38.5 -11t35.5 -15t28.5 -17.5v-91h-52z" />
    <glyph glyph-name="t" unicode="t" horiz-adv-x="341" 
d="M5 415v17l34 33h69v64l56 62h19v-134h156v-42h-155v-301q0 -10 2 -20.5t8 -19t16.5 -14t27.5 -5.5q22 0 40 6.5t39 16.5l15 -30l-111 -63q-45 0 -69 8t-34.5 24t-12 39.5t-1.5 55.5v303h-99z" />
    <glyph glyph-name="u" unicode="u" horiz-adv-x="558" 
d="M464 129q0 -34 3 -49.5t8 -27.5h53l4 -31l-117 -24l-28 79l-147 -91q-51 0 -80.5 10t-45.5 30t-20.5 51.5t-4.5 74.5v259l-75 -5l-5 36l116 25l43 4v-335q0 -42 18 -60t56 -18q26 0 57.5 17.5t63.5 38.5l21 13v284l-63 -5l-5 36l105 25l43 4v-341z" />
    <glyph glyph-name="v" unicode="v" horiz-adv-x="543" 
d="M278 58l125 369l-46 10l5 31l86 -3l85 3l5 -31l-66 -10l-167 -411l-62 -31l-172 442l-66 10l5 31l109 -3l102 3l5 -31l-70 -10l114 -304z" />
    <glyph glyph-name="w" unicode="w" horiz-adv-x="827" 
d="M420 277l-5 65l-120 -325l-71 -31l-153 441l-66 10l5 31l104 -3l91 3l5 -31l-59 -10l103 -310l8 -53l119 327l-13 36l-42 10l5 31l80 -3l90 3l5 -31l-58 -10l103 -310l8 -53l130 363l-46 10l5 31l67 -3l102 3l5 -31l-66 -10l-164 -410l-71 -31z" />
    <glyph glyph-name="x" unicode="x" horiz-adv-x="529" 
d="M199 30l-5 -31l-70 3l-109 -3l-5 31l75 10l147 187l-145 199l-64 10l5 32l114 -3l81 3l5 -32l-38 -10l78 -118l8 -23l93 141l-53 10l5 32l74 -3l108 3l5 -32l-76 -10l-130 -162l156 -224l66 -10l-5 -31l-118 3l-80 -3l-5 31l41 10l-93 139l-6 19l-106 -158z" />
    <glyph glyph-name="y" unicode="y" horiz-adv-x="534" 
d="M84 -235v89h76l98 156l-23 -7l-164 424l-66 10l5 31l109 -3l102 3l5 -31l-70 -10l109 -304l7 -64l124 368l-46 10l5 31l86 -3l83 3l5 -31l-66 -10l-160 -413l-111 -249h-108z" />
    <glyph glyph-name="z" unicode="z" horiz-adv-x="462" 
d="M49 0l-11 29l268 371l37 30l-209 -4l-32 -87h-36v128h349l14 -29l-272 -377l-32 -24l218 3l55 93h39l-28 -133h-360z" />
    <glyph glyph-name="braceleft" unicode="{" horiz-adv-x="348" 
d="M52 269q24 8 37.5 19.5t20 26t7.5 32.5t1 38l-1 190q0 64 38.5 102t102.5 38h48v-31h-52q-13 0 -26.5 -5t-24 -17.5t-16.5 -32.5t-5 -50l6 -194q1 -35 -15 -66.5t-68 -56.5l83 -52l-6 -304q-1 -30 5.5 -50t17 -32.5t23.5 -17.5t26 -5h52v-31h-46q-64 0 -103.5 38
t-39.5 102l1 285l-66 60v14z" />
    <glyph glyph-name="bar" unicode="|" horiz-adv-x="276" 
d="M110 718h56v-963h-56v963z" />
    <glyph glyph-name="braceright" unicode="}" horiz-adv-x="343" 
d="M161 -95l-1 15q0 16 -1 40.5t-1.5 53t-1 53.5t-0.5 42l-1 17q0 17 3 34t12 32.5t25.5 30t42.5 26.5l-83 52l6 278q1 30 -5.5 50t-17 32.5t-23.5 17.5t-26 5h-52v31h48q64 0 102.5 -38t38.5 -102l-1 -259l66 -60v-14q-24 -8 -37.5 -19.5t-20 -26t-7.5 -32.5t-1 -38l1 -216
q0 -64 -39.5 -102t-103.5 -38h-46v31h52q13 0 26 5t23.5 17t17 32t5.5 50z" />
    <glyph glyph-name="asciitilde" unicode="~" horiz-adv-x="669" 
d="M588 321h31l-39 -103l-93 -18l-363 56l-43 -63h-31l37 98l98 23l360 -56z" />
    <glyph glyph-name="nonbreakingspace" unicode="&#xa0;" horiz-adv-x="0" 
 />
    <glyph glyph-name="exclamdown" unicode="&#xa1;" horiz-adv-x="253" 
d="M91 39l27 194h19l27 -193l3 -282h-79zM174 372l-68 -4l-28 4l-4 52l4 44l68 5l28 -5l5 -52z" />
    <glyph glyph-name="cent" unicode="&#xa2;" horiz-adv-x="456" 
d="M431 60q-59 -41 -136 -68v-72h-42v66q-46 3 -85 19.5t-67.5 46.5t-44.5 72.5t-16 98.5q0 55 18.5 97t50 73t72 52t85.5 33v72h42v-69q13 -2 29 -7t32 -11.5t30 -14t23 -16.5v-91h-60l-24 74q-25 18 -70 18q-31 0 -57.5 -14.5t-45.5 -40t-29.5 -60.5t-10.5 -77
q0 -41 12 -75.5t34.5 -60t54.5 -40t73 -14.5q29 0 60 13t60 31z" />
    <glyph glyph-name="sterling" unicode="&#xa3;" horiz-adv-x="578" 
d="M409 642q-17 17 -33.5 24.5t-40.5 7.5q-25 0 -46 -11t-36 -29t-23.5 -40.5t-8.5 -44.5v-181h198v-49l-198 1v-140q0 -38 -5.5 -63.5t-12.5 -42.5q-8 -19 -17 -31l261 3l47 109h44l-25 -155l-332 3l-138 -3l-5 35l104 45v240h-88v17l23 31h65v116q0 50 5.5 85.5t27 62
t64 46t115.5 37.5q50 0 81.5 -13t48.5 -36v-87h-60z" />
    <glyph glyph-name="currency" unicode="&#xa4;" 
d="M142 350q0 -35 13.5 -66t36.5 -54t54 -36.5t66 -13.5t66 13.5t54 36.5t36.5 54t13.5 66t-13.5 66t-36.5 54t-54 36.5t-66 13.5t-66 -13.5t-54 -36.5t-36.5 -54t-13.5 -66zM92 350q0 38 12 72.5t35 63.5l-60 60l46 46l61 -62q27 19 59 29.5t67 10.5t66.5 -10.5t58.5 -28.5
l59 59l47 -47l-58 -58q22 -28 34.5 -62.5t12.5 -72.5q0 -35 -10.5 -67t-29.5 -59l53 -52l-46 -46l-51 51q-29 -23 -63.5 -35t-72.5 -12t-72.5 12t-63.5 34l-54 -54l-47 47l56 56q-19 26 -29 58t-10 67z" />
    <glyph glyph-name="yen" unicode="&#xa5;" horiz-adv-x="663" 
d="M296 268l-194 391l-82 11l5 31l135 -3l127 3l5 -31l-89 -13l142 -317l9 -32l133 348l-91 14l5 31l122 -3l115 4l5 -31l-82 -11l-176 -392h153v-43h-152v-50h152v-43h-152v-89l117 -13l-5 -31l-157 3l-164 -3l-5 31l123 13v89h-154v43h154v50h-154v43h155z" />
    <glyph glyph-name="brokenbar" unicode="&#xa6;" horiz-adv-x="275" 
d="M110 718h55v-430h-55v430zM110 185h55v-430h-55v430z" />
    <glyph glyph-name="section" unicode="&#xa7;" horiz-adv-x="528" 
d="M40 264q0 33 11.5 58.5t29 44t38 32t39.5 23.5q-11 13 -23 25t-22 25t-16.5 29.5t-6.5 40.5q0 64 53 109.5t147 62.5q51 0 87.5 -13t53.5 -36v-105h-52l-13 69q-14 19 -34.5 31t-52.5 12q-21 0 -43 -4.5t-40 -14.5t-29 -27.5t-11 -42.5q0 -26 10 -47.5t30.5 -43
t52.5 -45.5l73 -55l166 -121v-32q0 -46 -11 -80t-29 -58.5t-40.5 -40.5t-44.5 -27l29 -23q13 -12 23 -25.5t16 -31.5t6 -43q0 -57 -46.5 -98t-144.5 -57q-27 0 -52.5 6t-47.5 16t-38.5 21.5t-25.5 23.5v103h52l16 -69q6 -8 16.5 -18t24.5 -19t32.5 -15.5t41.5 -6.5
q53 0 78.5 20t25.5 57q0 27 -16.5 52t-40.5 46t-50 38.5t-44 31.5l-69 53q-32 26 -56.5 53.5t-38.5 56t-14 59.5zM275 323l-24 18l-22 17l-24 18q-12 10 -27 24q-30 -12 -49.5 -31.5t-19.5 -57.5q0 -28 10 -50.5t29 -43.5t46 -44l64 -51l84 -69q14 10 28 22t25 29.5t18 40.5
t7 54v15z" />
    <glyph glyph-name="dieresis" unicode="&#xa8;" horiz-adv-x="500" 
d="M120 676l56 4l23 -4l5 -45l-9 -38l-55 -5l-24 5l-4 45zM296 676l56 4l23 -4l5 -45l-10 -38l-54 -5l-24 5l-4 45z" />
    <glyph glyph-name="copyright" unicode="&#xa9;" horiz-adv-x="832" 
d="M415 21q61 0 117 22t99 63.5t68.5 101.5t25.5 136q0 57 -14 104.5t-38 84.5t-55.5 64.5t-65.5 45.5t-69 27t-66 9q-61 0 -117 -22t-99 -63.5t-68.5 -101.5t-25.5 -136q0 -86 30.5 -149.5t77 -104.5t100 -61t100.5 -20zM417 -15q-74 1 -140.5 26t-116.5 72.5t-80 116
t-30 156.5q0 79 26 140.5t74 106t115.5 72.5t149.5 40q73 -1 140 -26t117 -72.5t80 -116t30 -156.5q0 -79 -26 -140.5t-74 -106t-115.5 -72.5t-149.5 -40zM582 265l-16 -79l-29 -12l-36 -13q-19 -7 -38.5 -12.5t-36.5 -7.5q-40 0 -77.5 13.5t-66 39.5t-46 64t-17.5 87
q0 50 16 87t44.5 63.5t67.5 42t85 21.5q24 0 46 -5t41 -12t33.5 -15t22.5 -14v-73h-34l-18 50q-11 13 -35.5 25.5t-59.5 12.5q-64 0 -103.5 -42t-39.5 -127q0 -34 10.5 -67t30.5 -59.5t49.5 -42.5t67.5 -16q26 0 44.5 10t28.5 18l32 63h34z" />
    <glyph glyph-name="ordfeminine" unicode="&#xaa;" horiz-adv-x="411" 
d="M251 516l-129 -54q-16 -16 -16 -42q0 -33 15.5 -45t34.5 -12t34 8.5t23 13.5l38 28v103zM195 716q37 0 60.5 -5.5t37 -20t18.5 -40t5 -65.5v-161q0 -27 4.5 -39.5t10.5 -21.5h42l3 -27l-95 -17l-25 63l-99 -73q-51 0 -84 27.5t-33 76.5q0 20 7 36.5t19 36.5l185 62v39
q0 18 -1 33.5t-5.5 26.5t-15 17t-28.5 6t-38 -5t-35 -10l-14 -61h-61v58z" />
    <glyph glyph-name="guillemotleft" unicode="&#xab;" horiz-adv-x="435" 
d="M368 15l-181 220l182 220h36l-127 -221l127 -219h-37zM196 15l-181 220l182 220h36l-127 -221l127 -219h-37z" />
    <glyph glyph-name="logicalnot" unicode="&#xac;" 
d="M567 180h-61v134h-454v61h515v-195z" />
    <glyph glyph-name="softhyphen" unicode="&#xad;" horiz-adv-x="365" 
d="M42 303h281v-64h-281v64z" />
    <glyph glyph-name="registered" unicode="&#xae;" horiz-adv-x="590" 
d="M294 211q42 0 80 15t67 43t46.5 69t17.5 93q0 59 -21 102t-52 71t-68 41.5t-68 13.5q-42 0 -80 -15t-67 -43t-46.5 -69t-17.5 -93q0 -59 21 -101.5t52 -71t67.5 -42t68.5 -13.5zM255 424v-98l33 -5l-2 -20l-62 1l-64 -1l-2 20l35 5v222l-35 4l2 20l63 -1l93 1
q40 0 66.5 -17.5t26.5 -49.5q0 -30 -27 -47t-65 -25l44 -19l65 -87l20 -6l-1 -20l-46 1l-34 -1l-83 119l-6 4h-21zM296 185q-50 0 -95.5 17.5t-80 50t-55 79.5t-20.5 107q0 54 18 96t50.5 72.5t78.5 50t102 27.5q50 0 95.5 -17.5t80 -49.5t55 -79.5t20.5 -107.5
q0 -54 -18 -96t-50.5 -72.5t-78.5 -50t-102 -27.5zM255 448h28q26 0 43 14t17 40q0 25 -15.5 37.5t-38.5 12.5l-34 -3v-101z" />
    <glyph glyph-name="macron" unicode="&#xaf;" horiz-adv-x="500" 
d="M112 686h276v-50h-276v50z" />
    <glyph glyph-name="degree" unicode="&#xb0;" horiz-adv-x="404" 
d="M102 602q0 -19 8 -37t22 -31.5t32 -21.5t39 -8q20 0 38 8t31.5 21.5t21.5 31.5t8 37t-8 36.5t-21.5 30.5t-31.5 21t-38 8q-21 0 -39 -8t-32 -21t-22 -30.5t-8 -36.5zM203 449q-30 0 -58 12t-49 33t-33.5 48.5t-12.5 58.5t10.5 54.5t30.5 41.5t48 31t64 25q30 0 57.5 -12
t48 -32.5t33 -48.5t12.5 -59q0 -63 -35 -98.5t-116 -53.5z" />
    <glyph glyph-name="plusminus" unicode="&#xb1;" 
d="M273 143v222h-227v61h227v232h61v-232h227v-61h-227v-222h-61zM46 61h529v-61h-529v61z" />
    <glyph glyph-name="twosuperior" unicode="&#xb2;" horiz-adv-x="358" 
d="M78 445l55 20h185v-24l-18 -41h-266l-14 26l111 112q46 47 67.5 82t21.5 70q0 31 -14.5 49t-40.5 18q-22 0 -36 -8l-20 -68h-60v71l128 41q58 0 93 -27.5t35 -72.5q0 -26 -8.5 -48.5t-24.5 -43.5t-39 -41t-53 -42z" />
    <glyph glyph-name="threesuperior" unicode="&#xb3;" horiz-adv-x="313" 
d="M168 469q21 13 28.5 29t7.5 29q0 28 -24 46t-73 18l-6 21l24 10q32 12 47.5 30t15.5 49q0 26 -12.5 40.5t-32.5 14.5q-18 0 -34 -7l-19 -68h-60v71l127 41q60 0 84.5 -22.5t24.5 -51.5q0 -62 -88 -91q55 -4 82.5 -29t27.5 -55q0 -26 -12.5 -44t-32 -31.5t-43.5 -24.5
l-49 -20l-51 -24h-71v69h139z" />
    <glyph glyph-name="acute" unicode="&#xb4;" horiz-adv-x="500" 
d="M136 537l48 172h102l-120 -172h-30z" />
    <glyph glyph-name="uni00B5" unicode="&#xb5;" 
d="M465 467v-365q0 -26 16.5 -45.5t61.5 -30.5l-4 -26h-112l-41 74l-120 -89q-16 0 -37 1.5t-41.5 7.5t-36.5 18t-22 33v-73l43 -202h-96v697h80v-295q0 -61 26 -88t65 -27q25 0 55 18l62 38l21 13v341h80z" />
    <glyph glyph-name="paragraph" unicode="&#xb6;" horiz-adv-x="479" 
d="M169 420q-29 0 -54.5 8.5t-44 24.5t-29.5 39t-11 52q0 24 11 44.5t30 39t44.5 36.5t54.5 36h269v-48l-50 -10v-801h-52v801h-115v-801h-53v579z" />
    <glyph glyph-name="periodcentered" unicode="&#xb7;" horiz-adv-x="217" 
d="M60 452l69 4l29 -4l4 -53l-4 -45l-70 -5l-28 5l-5 53z" />
    <glyph glyph-name="cedilla" unicode="&#xb8;" horiz-adv-x="500" 
d="M289 13l21 -16l-29 -44q14 0 28.5 -4.5t26 -12.5t19 -21t7.5 -29q0 -23 -8.5 -41t-21.5 -31.5t-28.5 -22.5t-28.5 -13l-51 -16h-57l29 38h76q16 10 23.5 26.5t7.5 33.5t-8 28.5t-20 18.5t-27 10t-29 3z" />
    <glyph glyph-name="onesuperior" unicode="&#xb9;" horiz-adv-x="307" 
d="M129 732l-27 -16l-59 -9l-13 25l135 56h39v-352l88 -9l-3 -28l-124 2l-126 -2l-3 28l88 9v281z" />
    <glyph glyph-name="ordmasculine" unicode="&#xba;" horiz-adv-x="439" 
d="M227 715q40 0 73 -15t56 -40.5t35.5 -60.5t12.5 -75q0 -88 -48 -140.5t-142 -66.5q-41 0 -74 15t-56 40.5t-36 60t-13 74.5q0 178 192 208zM209 678q-27 0 -47.5 -13t-33.5 -34.5t-19.5 -50.5t-6.5 -61q0 -31 9 -60.5t26 -53t41 -37.5t54 -14q27 0 46.5 12.5t33 34.5
t20 50.5t6.5 60.5q0 36 -9.5 66.5t-26.5 52.5t-40.5 34.5t-52.5 12.5z" />
    <glyph glyph-name="guillemotright" unicode="&#xbb;" horiz-adv-x="435" 
d="M30 15l127 219l-127 221h36l182 -220l-181 -220h-37zM202 15l127 219l-127 221h36l182 -220l-181 -220h-37z" />
    <glyph glyph-name="onequarter" unicode="&#xbc;" horiz-adv-x="807" 
d="M245 -50h-54l387 760h52zM139 647l-27 -16l-59 -9l-13 25l135 56h39v-352l88 -9l-3 -28l-124 2l-126 -2l-3 28l88 9v281zM690 151h77v-54h-77v-97h-71v97h-155l-23 37l196 251h68v-31l-209 -213l30 10h93v62l54 48h17v-110z" />
    <glyph glyph-name="onehalf" unicode="&#xbd;" horiz-adv-x="840" 
d="M245 -50h-54l387 760h52zM139 647l-27 -16l-59 -9l-13 25l135 56h39v-352l88 -9l-3 -28l-124 2l-126 -2l-3 28l88 9v281zM560 45l56 20h184v-24l-18 -41h-266l-14 26l111 112q46 47 67.5 82t21.5 70q0 31 -14 49t-40 18q-23 0 -36 -8l-21 -68h-60v71l128 41
q58 0 93 -27.5t35 -72.5q0 -26 -8.5 -48.5t-24.5 -43.5t-39 -41t-53 -42z" />
    <glyph glyph-name="threequarters" unicode="&#xbe;" horiz-adv-x="773" 
d="M211 -50h-54l387 760h52zM656 151h77v-54h-77v-97h-71v97h-155l-23 37l196 251h68v-31l-209 -213l30 10h93v62l54 48h17v-110zM178 384q21 13 28.5 29t7.5 29q0 28 -24 46t-73 18l-6 21l24 10q32 12 47.5 30t15.5 49q0 26 -12.5 40.5t-32.5 14.5q-18 0 -34 -7l-19 -68
h-60v71l127 41q60 0 84.5 -22.5t24.5 -51.5q0 -62 -88 -91q55 -4 82.5 -29t27.5 -55q0 -26 -12.5 -44t-32 -31.5t-43.5 -23.5l-49 -21l-51 -24h-71v69h139z" />
    <glyph glyph-name="questiondown" unicode="&#xbf;" horiz-adv-x="358" 
d="M178 132l7 104h52l6 -136l-39 -22q-48 -28 -70.5 -67t-22.5 -77q0 -27 5 -50.5t17 -41t31 -27.5t47 -10l19 81h68v-119l-82 -11q-53 6 -90 23t-60.5 41.5t-34.5 54.5t-11 62q0 35 7.5 61.5t22 47t35.5 36t47 28.5zM251 370l-68 -4l-28 4l-4 51l4 45l68 5l28 -5l5 -52z
" />
    <glyph glyph-name="Agrave" unicode="&#xc0;" horiz-adv-x="747" 
d="M328 766l-120 132h100l72 -132h-52zM232 237l-68 -194l90 -13l-5 -31l-124 3l-109 -3l-5 31l83 11l254 654l37 14l270 -668l81 -11l-5 -31l-125 3l-136 -3l-5 31l89 13l-72 194h-250zM366 545l-8 53l-111 -317h218z" />
    <glyph glyph-name="Aacute" unicode="&#xc1;" horiz-adv-x="747" 
d="M358 766l73 132h100l-121 -132h-52zM232 237l-68 -194l90 -13l-5 -31l-124 3l-109 -3l-5 31l83 11l254 654l37 14l270 -668l81 -11l-5 -31l-125 3l-136 -3l-5 31l89 13l-72 194h-250zM366 545l-8 53l-111 -317h218z" />
    <glyph glyph-name="Acircumflex" unicode="&#xc2;" horiz-adv-x="747" 
d="M222 766l105 132h78l105 -132h-50l-83 67l-12 12l-10 -12l-83 -67h-50zM232 237l-68 -194l90 -13l-5 -31l-124 3l-109 -3l-5 31l83 11l254 654l37 14l270 -668l81 -11l-5 -31l-125 3l-136 -3l-5 31l89 13l-72 194h-250zM366 545l-8 53l-111 -317h218z" />
    <glyph glyph-name="Atilde" unicode="&#xc3;" horiz-adv-x="747" 
d="M247 860l75 22l149 -50l37 54h22l-22 -89l-76 -23l-148 50l-38 -54h-22zM232 237l-68 -194l90 -13l-5 -31l-124 3l-109 -3l-5 31l83 11l254 654l37 14l270 -668l81 -11l-5 -31l-125 3l-136 -3l-5 31l89 13l-72 194h-250zM366 545l-8 53l-111 -317h218z" />
    <glyph glyph-name="Adieresis" unicode="&#xc4;" horiz-adv-x="747" 
d="M218 867l56 5l24 -5l4 -44l-9 -39l-55 -4l-23 4l-5 46zM434 867l56 5l23 -5l5 -44l-9 -39l-55 -4l-24 4l-4 46zM232 237l-68 -194l90 -13l-5 -31l-124 3l-109 -3l-5 31l83 11l254 654l37 14l270 -668l81 -11l-5 -31l-125 3l-136 -3l-5 31l89 13l-72 194h-250zM366 545
l-8 53l-111 -317h218z" />
    <glyph glyph-name="Aring" unicode="&#xc5;" horiz-adv-x="747" 
d="M460 819q0 -22 -8.5 -37t-23 -25.5t-32.5 -16.5l-36 -13q-18 0 -35.5 5t-31.5 15.5t-22.5 27t-8.5 39.5q0 22 8.5 37.5t22.5 25.5t31.5 16.5t36.5 11.5q17 0 34.5 -5t32 -15.5t23.5 -27t9 -38.5zM303 816q0 -26 15.5 -41.5t41.5 -15.5t42 15.5t16 41.5t-16 41.5t-42 15.5
t-41.5 -15.5t-15.5 -41.5zM232 237l-68 -194l90 -13l-5 -31l-124 3l-109 -3l-5 31l83 11l254 654l37 14l270 -668l81 -11l-5 -31l-125 3l-136 -3l-5 31l89 13l-72 194h-250zM366 545l-8 53l-111 -317h218z" />
    <glyph glyph-name="AE" unicode="&#xc6;" horiz-adv-x="1002" 
d="M523 354v298l-177 -298h177zM157 43l79 -13l-5 -31l-112 3l-109 -3l-5 31l82 11l426 660l57 -3l371 3l10 -179h-31l-54 133l-252 3v-303l123 4l40 105h32l-10 -121l10 -133h-32l-40 104l-123 4v-276l262 3l66 138h35l-35 -184l-370 3l-138 -3l-5 31l94 13v273h-199z" />
    <glyph glyph-name="Ccedilla" unicode="&#xc7;" horiz-adv-x="703" 
d="M351 -15q-62 7 -118 34t-98.5 72t-67.5 108.5t-25 143.5q0 87 27.5 152.5t77 111.5t117 73.5t148.5 37.5q40 0 76.5 -8.5t68 -20.5t56.5 -26.5t40 -26.5l-1 -123h-50l-32 92q-10 10 -26.5 21.5t-38 21.5t-48 16.5t-57.5 6.5q-59 0 -106.5 -19.5t-82 -58.5t-53 -96
t-18.5 -132q0 -60 19 -119t56 -106.5t91 -77t124 -29.5q22 0 41 5.5t35 13.5t29 17t22 16l56 109h51l-28 -132q-20 -10 -48.5 -22t-61.5 -23.5t-66.5 -21t-61.5 -13.5h-15l-20 -29q13 0 27.5 -4.5t26.5 -12.5t19.5 -21t7.5 -29q0 -23 -8.5 -41t-21.5 -31.5t-28.5 -22.5
t-28.5 -13l-51 -16h-57l29 38h76q15 10 23 26.5t8 33.5t-8 28.5t-20 18.5t-27 10t-29 3z" />
    <glyph glyph-name="Egrave" unicode="&#xc8;" horiz-adv-x="625" 
d="M313 766l-120 132h100l72 -132h-52zM562 701l9 -176h-28l-55 130l-275 3v-273l148 4l40 105h30l-10 -121l10 -133h-30l-40 104l-148 4v-306l285 3l67 135h33l-36 -181l-389 3l-138 -3l-5 31l94 13v614l-94 13l5 31l138 -3z" />
    <glyph glyph-name="Eacute" unicode="&#xc9;" horiz-adv-x="625" 
d="M303 766l73 132h100l-121 -132h-52zM562 701l9 -176h-28l-55 130l-275 3v-273l148 4l40 105h30l-10 -121l10 -133h-30l-40 104l-148 4v-306l285 3l67 135h33l-36 -181l-389 3l-138 -3l-5 31l94 13v614l-94 13l5 31l138 -3z" />
    <glyph glyph-name="Ecircumflex" unicode="&#xca;" horiz-adv-x="625" 
d="M203 766l104 132h79l104 -132h-50l-83 67l-11 12l-10 -12l-83 -67h-50zM562 701l9 -176h-28l-55 130l-275 3v-273l148 4l40 105h30l-10 -121l10 -133h-30l-40 104l-148 4v-306l285 3l67 135h33l-36 -181l-389 3l-138 -3l-5 31l94 13v614l-94 13l5 31l138 -3z" />
    <glyph glyph-name="Edieresis" unicode="&#xcb;" horiz-adv-x="625" 
d="M202 867l56 5l23 -5l4 -44l-9 -39l-55 -4l-23 4l-5 46zM418 867l56 5l23 -5l4 -44l-9 -39l-55 -4l-23 4l-5 46zM562 701l9 -176h-28l-55 130l-275 3v-273l148 4l40 105h30l-10 -121l10 -133h-30l-40 104l-148 4v-306l285 3l67 135h33l-36 -181l-389 3l-138 -3l-5 31
l94 13v614l-94 13l5 31l138 -3z" />
    <glyph glyph-name="Igrave" unicode="&#xcc;" horiz-adv-x="337" 
d="M164 766l-121 132h100l73 -132h-52zM175 2l-134 -3l-5 32l94 13v613l-94 13l5 31l134 -3l133 3l5 -31l-94 -13v-613l94 -13l-5 -32z" />
    <glyph glyph-name="Iacute" unicode="&#xcd;" horiz-adv-x="337" 
d="M148 766l73 132h100l-121 -132h-52zM175 2l-134 -3l-5 32l94 13v613l-94 13l5 31l134 -3l133 3l5 -31l-94 -13v-613l94 -13l-5 -32z" />
    <glyph glyph-name="Icircumflex" unicode="&#xce;" horiz-adv-x="337" 
d="M31 766l104 132h79l104 -132h-50l-83 67l-11 12l-10 -12l-83 -67h-50zM175 2l-134 -3l-5 32l94 13v613l-94 13l5 31l134 -3l133 3l5 -31l-94 -13v-613l94 -13l-5 -32z" />
    <glyph glyph-name="Idieresis" unicode="&#xcf;" horiz-adv-x="337" 
d="M33 867l56 5l23 -5l5 -44l-10 -39l-55 -4l-23 4l-4 46zM233 867l56 5l23 -5l5 -44l-10 -39l-55 -4l-23 4l-4 46zM175 2l-134 -3l-5 32l94 13v613l-94 13l5 31l134 -3l133 3l5 -31l-94 -13v-613l94 -13l-5 -32z" />
    <glyph glyph-name="Eth" unicode="&#xd0;" horiz-adv-x="732" 
d="M173 698l191 3q75 0 135.5 -21.5t103 -63.5t65 -104t22.5 -142q0 -167 -85 -259t-253 -112l-178 3l-139 -3l-5 31l94 13v302h-83v36h83v276l-94 13l5 31zM213 656v-275h130v-36h-130v-293l132 -10q54 1 99 23t77.5 62.5t50.5 99t18 131.5q0 62 -17 117t-51 96t-85.5 65
t-120.5 25z" />
    <glyph glyph-name="Ntilde" unicode="&#xd1;" horiz-adv-x="744" 
d="M256 860l75 22l149 -50l37 54h22l-22 -89l-75 -23l-149 50l-37 -54h-22zM185 43l89 -13l-6 -31l-106 3l-127 -3l-5 31l94 13v605l-89 22l5 31l96 -3l65 3l359 -523l19 -50v529l-88 13l5 31l107 -3l126 3l5 -31l-94 -13v-659h-59l-381 563l-15 61v-579z" />
    <glyph glyph-name="Ograve" unicode="&#xd2;" horiz-adv-x="771" 
d="M376 766l-120 132h100l72 -132h-52zM395 718q74 0 135.5 -27t105.5 -74t68.5 -112t24.5 -141q0 -165 -87.5 -259.5t-265.5 -122.5q-74 0 -135.5 27t-105.5 74t-68.5 112t-24.5 141q0 165 87 259t266 123zM140 368q0 -56 13.5 -115t44.5 -108t81 -80.5t122 -31.5
q60 0 103.5 24t71.5 65t41.5 95.5t13.5 114.5q0 54 -13.5 113.5t-44 108.5t-80 81t-122.5 32q-60 0 -104 -24t-72 -65t-41.5 -95t-13.5 -115z" />
    <glyph glyph-name="Oacute" unicode="&#xd3;" horiz-adv-x="771" 
d="M350 766l73 132h100l-121 -132h-52zM395 718q74 0 135.5 -27t105.5 -74t68.5 -112t24.5 -141q0 -165 -87.5 -259.5t-265.5 -122.5q-74 0 -135.5 27t-105.5 74t-68.5 112t-24.5 141q0 165 87 259t266 123zM140 368q0 -56 13.5 -115t44.5 -108t81 -80.5t122 -31.5
q60 0 103.5 24t71.5 65t41.5 95.5t13.5 114.5q0 54 -13.5 113.5t-44 108.5t-80 81t-122.5 32q-60 0 -104 -24t-72 -65t-41.5 -95t-13.5 -115z" />
    <glyph glyph-name="Ocircumflex" unicode="&#xd4;" horiz-adv-x="771" 
d="M250 766l104 132h79l104 -132h-50l-83 67l-11 12l-10 -12l-83 -67h-50zM395 718q74 0 135.5 -27t105.5 -74t68.5 -112t24.5 -141q0 -165 -87.5 -259.5t-265.5 -122.5q-74 0 -135.5 27t-105.5 74t-68.5 112t-24.5 141q0 165 87 259t266 123zM140 368q0 -56 13.5 -115
t44.5 -108t81 -80.5t122 -31.5q60 0 103.5 24t71.5 65t41.5 95.5t13.5 114.5q0 54 -13.5 113.5t-44 108.5t-80 81t-122.5 32q-60 0 -104 -24t-72 -65t-41.5 -95t-13.5 -115z" />
    <glyph glyph-name="Otilde" unicode="&#xd5;" horiz-adv-x="771" 
d="M279 860l75 22l149 -50l37 54h22l-22 -89l-75 -23l-149 50l-37 -54h-22zM395 718q74 0 135.5 -27t105.5 -74t68.5 -112t24.5 -141q0 -165 -87.5 -259.5t-265.5 -122.5q-74 0 -135.5 27t-105.5 74t-68.5 112t-24.5 141q0 165 87 259t266 123zM140 368q0 -56 13.5 -115
t44.5 -108t81 -80.5t122 -31.5q60 0 103.5 24t71.5 65t41.5 95.5t13.5 114.5q0 54 -13.5 113.5t-44 108.5t-80 81t-122.5 32q-60 0 -104 -24t-72 -65t-41.5 -95t-13.5 -115z" />
    <glyph glyph-name="Odieresis" unicode="&#xd6;" horiz-adv-x="771" 
d="M248 867l56 5l23 -5l4 -44l-9 -39l-55 -4l-23 4l-5 46zM464 867l56 5l23 -5l4 -44l-9 -39l-55 -4l-23 4l-5 46zM395 718q74 0 135.5 -27t105.5 -74t68.5 -112t24.5 -141q0 -165 -87.5 -259.5t-265.5 -122.5q-74 0 -135.5 27t-105.5 74t-68.5 112t-24.5 141q0 165 87 259
t266 123zM140 368q0 -56 13.5 -115t44.5 -108t81 -80.5t122 -31.5q60 0 103.5 24t71.5 65t41.5 95.5t13.5 114.5q0 54 -13.5 113.5t-44 108.5t-80 81t-122.5 32q-60 0 -104 -24t-72 -65t-41.5 -95t-13.5 -115z" />
    <glyph glyph-name="multiply" unicode="&#xd7;" 
d="M479 19l-170 171l-169 -170l-43 43l170 169l-170 169l43 43l169 -169l170 170l43 -43l-170 -170l170 -170z" />
    <glyph glyph-name="Oslash" unicode="&#xd8;" horiz-adv-x="771" 
d="M395 718q57 0 107 -16.5t91 -46.5l45 60h50l-65 -85q51 -48 78.5 -116.5t27.5 -149.5q0 -165 -87.5 -259.5t-265.5 -122.5q-57 0 -106.5 16t-90.5 45l-44 -58h-52l64 85q-50 48 -77.5 116t-27.5 150q0 165 87 259t266 123zM140 368q0 -57 14 -117.5t47 -110.5l344 452
q-31 34 -74 54.5t-100 20.5q-60 0 -104 -24t-72 -65t-41.5 -95t-13.5 -115zM631 332q0 56 -14.5 116.5t-46.5 110.5l-343 -452q31 -34 73.5 -54t100.5 -20q60 0 103.5 24t71.5 65t41.5 95.5t13.5 114.5z" />
    <glyph glyph-name="Ugrave" unicode="&#xd9;" horiz-adv-x="717" 
d="M355 766l-120 132h100l72 -132h-52zM446 670l5 31l128 -3l118 3l5 -31l-87 -13v-414q0 -49 -11.5 -89.5t-40 -72.5t-77 -57t-123.5 -42q-70 0 -118.5 19t-78.5 54t-43.5 83.5t-13.5 108.5v410l-94 13l5 31l139 -3l129 3l5 -31l-89 -13v-430q0 -95 41 -146t129 -51
q79 0 121.5 51t42.5 149v427z" />
    <glyph glyph-name="Uacute" unicode="&#xda;" horiz-adv-x="717" 
d="M329 766l73 132h100l-121 -132h-52zM446 670l5 31l128 -3l118 3l5 -31l-87 -13v-414q0 -49 -11.5 -89.5t-40 -72.5t-77 -57t-123.5 -42q-70 0 -118.5 19t-78.5 54t-43.5 83.5t-13.5 108.5v410l-94 13l5 31l139 -3l129 3l5 -31l-89 -13v-430q0 -95 41 -146t129 -51
q79 0 121.5 51t42.5 149v427z" />
    <glyph glyph-name="Ucircumflex" unicode="&#xdb;" horiz-adv-x="717" 
d="M468 766l-83 67l-11 12l-10 -12l-83 -67h-50l104 132h79l104 -132h-50zM446 670l5 31l128 -3l118 3l5 -31l-87 -13v-414q0 -49 -11.5 -89.5t-40 -72.5t-77 -57t-123.5 -42q-70 0 -118.5 19t-78.5 54t-43.5 83.5t-13.5 108.5v410l-94 13l5 31l139 -3l129 3l5 -31l-89 -13
v-430q0 -95 41 -146t129 -51q79 0 121.5 51t42.5 149v427z" />
    <glyph glyph-name="Udieresis" unicode="&#xdc;" horiz-adv-x="717" 
d="M229 867l55 5l24 -5l4 -44l-9 -39l-55 -4l-23 4l-5 46zM444 867l56 5l24 -5l4 -44l-9 -39l-55 -4l-23 4l-5 46zM446 670l5 31l128 -3l118 3l5 -31l-87 -13v-414q0 -49 -11.5 -89.5t-40 -72.5t-77 -57t-123.5 -42q-70 0 -118.5 19t-78.5 54t-43.5 83.5t-13.5 108.5v410
l-94 13l5 31l139 -3l129 3l5 -31l-89 -13v-430q0 -95 41 -146t129 -51q79 0 121.5 51t42.5 149v427z" />
    <glyph glyph-name="Yacute" unicode="&#xdd;" horiz-adv-x="707" 
d="M340 766l72 132h100l-120 -132h-52zM400 270l2 -227l117 -13l-5 -31l-156 3l-163 -3l-5 31l123 13v232l-226 385l-82 11l5 30l135 -3l127 3l5 -30l-89 -13l176 -297l10 -35l172 332l-91 13l5 30l122 -3l115 3l5 -29l-82 -10z" />
    <glyph glyph-name="Thorn" unicode="&#xde;" horiz-adv-x="598" 
d="M35 670l5 31l134 -3l117 3l5 -31l-78 -13v-102l137 2q48 0 88.5 -11t70 -33.5t46.5 -56t17 -76.5q0 -50 -21 -88t-55 -65.5t-78 -44.5t-89 -25h-116v-113l114 -13l-5 -32l-153 3l-134 -3l-5 32l94 13v613zM218 203h91q38 0 69.5 12t53.5 34t34 51.5t12 65.5q0 32 -8.5 60
t-27 48.5t-48 32t-71.5 11.5l-105 -6v-309z" />
    <glyph glyph-name="germandbls" unicode="&#xdf;" horiz-adv-x="587" 
d="M347 406q0 -26 12.5 -52t56.5 -50l63 -35q52 -28 70 -60t18 -68q0 -30 -14.5 -56t-38.5 -46t-55 -34.5t-64 -22.5q-23 0 -45 5.5t-40 13.5t-31 16.5t-19 14.5l-6 97h50l24 -74q16 -10 34 -18.5t47 -8.5q16 0 30.5 6.5t24.5 17.5t16 25t6 28q0 31 -16.5 55.5t-54.5 47.5
l-59 35q-42 25 -60.5 65.5t-18.5 88.5l64 41q27 18 49.5 51.5t22.5 87.5q0 15 -6 32.5t-19 32.5t-33 25t-47 10q-58 0 -85.5 -45.5t-27.5 -130.5v-501l-29 2l-119 -3l-5 25l74 10v382h-90v16l28 33h62v49q0 48 32 94.5t95 78.5l61 31q43 0 78.5 -8.5t61 -25t40 -41
t14.5 -55.5q0 -33 -10.5 -57t-30 -44.5t-47.5 -39.5z" />
    <glyph glyph-name="agrave" unicode="&#xe0;" horiz-adv-x="444" 
d="M251 537l-121 172h102l49 -172h-30zM288 238l-159 -66q-11 -11 -15 -24t-4 -29q0 -39 19 -54t42 -15t41 10.5t28 17.5l48 33v127zM218 482q46 0 75 -6.5t45.5 -24.5t22.5 -49.5t6 -80.5v-196q0 -33 5 -48.5t13 -26.5h51l3 -31l-115 -22l-30 76l-121 -88q-63 0 -103 33
t-40 93q0 26 8 45.5t24 43.5l226 76v48q0 22 -1.5 40.5t-7.5 32t-18.5 21t-34.5 7.5t-46.5 -6t-42.5 -13l-18 -72h-73v70z" />
    <glyph glyph-name="aacute" unicode="&#xe1;" horiz-adv-x="444" 
d="M213 537l48 172h102l-120 -172h-30zM288 238l-159 -66q-11 -11 -15 -24t-4 -29q0 -39 19 -54t42 -15t41 10.5t28 17.5l48 33v127zM218 482q46 0 75 -6.5t45.5 -24.5t22.5 -49.5t6 -80.5v-196q0 -33 5 -48.5t13 -26.5h51l3 -31l-115 -22l-30 76l-121 -88q-63 0 -103 33
t-40 93q0 26 8 45.5t24 43.5l226 76v48q0 22 -1.5 40.5t-7.5 32t-18.5 21t-34.5 7.5t-46.5 -6t-42.5 -13l-18 -72h-73v70z" />
    <glyph glyph-name="acircumflex" unicode="&#xe2;" horiz-adv-x="444" 
d="M80 537l106 172h67l105 -172h-30l-91 93l-18 20l-18 -20l-91 -93h-30zM288 238l-159 -66q-11 -11 -15 -24t-4 -29q0 -39 19 -54t42 -15t41 10.5t28 17.5l48 33v127zM218 482q46 0 75 -6.5t45.5 -24.5t22.5 -49.5t6 -80.5v-196q0 -33 5 -48.5t13 -26.5h51l3 -31l-115 -22
l-30 76l-121 -88q-63 0 -103 33t-40 93q0 26 8 45.5t24 43.5l226 76v48q0 22 -1.5 40.5t-7.5 32t-18.5 21t-34.5 7.5t-46.5 -6t-42.5 -13l-18 -72h-73v70z" />
    <glyph glyph-name="atilde" unicode="&#xe3;" horiz-adv-x="444" 
d="M89 675l75 22l151 -57l29 55h28l-23 -95l-74 -17l-152 57l-28 -55h-28zM288 238l-159 -66q-11 -11 -15 -24t-4 -29q0 -39 19 -54t42 -15t41 10.5t28 17.5l48 33v127zM218 482q46 0 75 -6.5t45.5 -24.5t22.5 -49.5t6 -80.5v-196q0 -33 5 -48.5t13 -26.5h51l3 -31l-115 -22
l-30 76l-121 -88q-63 0 -103 33t-40 93q0 26 8 45.5t24 43.5l226 76v48q0 22 -1.5 40.5t-7.5 32t-18.5 21t-34.5 7.5t-46.5 -6t-42.5 -13l-18 -72h-73v70z" />
    <glyph glyph-name="adieresis" unicode="&#xe4;" horiz-adv-x="444" 
d="M93 676l56 4l23 -4l5 -45l-9 -38l-55 -5l-24 5l-4 45zM269 676l56 4l23 -4l5 -45l-10 -38l-54 -5l-24 5l-4 45zM288 238l-159 -66q-11 -11 -15 -24t-4 -29q0 -39 19 -54t42 -15t41 10.5t28 17.5l48 33v127zM218 482q46 0 75 -6.5t45.5 -24.5t22.5 -49.5t6 -80.5v-196
q0 -33 5 -48.5t13 -26.5h51l3 -31l-115 -22l-30 76l-121 -88q-63 0 -103 33t-40 93q0 26 8 45.5t24 43.5l226 76v48q0 22 -1.5 40.5t-7.5 32t-18.5 21t-34.5 7.5t-46.5 -6t-42.5 -13l-18 -72h-73v70z" />
    <glyph glyph-name="aring" unicode="&#xe5;" horiz-adv-x="444" 
d="M323 629q0 -22 -8.5 -37t-22.5 -25.5t-32 -16.5l-36 -13q-18 0 -35.5 5t-31.5 15.5t-23 27t-9 39.5q0 22 8.5 37.5t22.5 25.5t32 16.5t36 11.5q17 0 34.5 -5t32 -15.5t23.5 -27t9 -38.5zM167 626q0 -26 15.5 -41.5t41.5 -15.5t42 15.5t16 41.5t-16 41.5t-42 15.5
t-41.5 -15.5t-15.5 -41.5zM288 238l-159 -66q-11 -11 -15 -24t-4 -29q0 -39 19 -54t42 -15t41 10.5t28 17.5l48 33v127zM218 482q46 0 75 -6.5t45.5 -24.5t22.5 -49.5t6 -80.5v-196q0 -33 5 -48.5t13 -26.5h51l3 -31l-115 -22l-30 76l-121 -88q-63 0 -103 33t-40 93
q0 26 8 45.5t24 43.5l226 76v48q0 22 -1.5 40.5t-7.5 32t-18.5 21t-34.5 7.5t-46.5 -6t-42.5 -13l-18 -72h-73v70z" />
    <glyph glyph-name="ae" unicode="&#xe6;" horiz-adv-x="696" 
d="M357 257q0 -45 12 -82.5t34.5 -64.5t55 -42.5t73.5 -15.5q26 0 55.5 12.5t58.5 31.5l13 -36q-36 -23 -82 -42.5t-91 -32.5q-54 0 -103 24t-81 72l-127 -96q-31 0 -57.5 8.5t-46 24.5t-30.5 38.5t-11 49.5q0 30 8 50t24 44l217 76v48q0 21 -1.5 39.5t-6.5 32t-16.5 21.5
t-30.5 8q-25 0 -47 -5.5t-39 -13.5l-18 -76h-75v74l172 78q57 0 86.5 -13t43.5 -46q28 21 62 35.5t75 23.5q48 0 81.5 -14t53.5 -38.5t29 -58.5t9 -73v-41h-300zM562 304q0 29 -3.5 53.5t-13 42t-27.5 27.5t-48 10q-49 0 -76.5 -39t-35.5 -104zM280 240l-151 -66
q-11 -11 -15 -25t-4 -34q0 -36 19.5 -51.5t42.5 -15.5q20 0 38.5 11.5t26.5 17.5l43 32v131z" />
    <glyph glyph-name="ccedilla" unicode="&#xe7;" horiz-adv-x="441" 
d="M323 415q-14 10 -28 14t-37 4q-28 0 -51.5 -14.5t-41 -40t-27.5 -60.5t-10 -77q0 -41 10.5 -75.5t31 -60t49.5 -40t67 -14.5q29 0 59 13t59 31l12 -35q-34 -23 -71.5 -41.5t-84.5 -33.5h-7l-21 -32q13 0 27.5 -4.5t26.5 -12.5t19.5 -21t7.5 -29q0 -23 -8.5 -41t-21 -31.5
t-28 -22.5t-29.5 -13l-51 -16h-57l29 38h76q16 10 23.5 26.5t7.5 33.5t-8 28.5t-20 18.5t-27 10t-29 3l51 68q-79 11 -128.5 70.5t-49.5 164.5q0 59 20 103t52.5 75t74 50.5t85.5 30.5q15 0 33.5 -4t36.5 -11t34.5 -16t27.5 -19v-91h-60z" />
    <glyph glyph-name="egrave" unicode="&#xe8;" horiz-adv-x="469" 
d="M251 537l-120 172h102l48 -172h-30zM120 257q0 -45 11.5 -83t33.5 -65.5t54.5 -42.5t74.5 -15q28 0 61.5 12.5t63.5 30.5l14 -36q-35 -22 -80.5 -41.5t-89.5 -31.5q-44 0 -84.5 15.5t-72 46t-50.5 76.5t-19 106q0 59 17.5 102.5t47.5 74t70.5 49t85.5 27.5q49 0 82 -14.5
t53 -39.5t28.5 -59.5t8.5 -73.5v-38h-310zM338 305q0 29 -3.5 53t-14.5 41.5t-30.5 27t-51.5 9.5q-49 0 -79 -39t-38 -102z" />
    <glyph glyph-name="eacute" unicode="&#xe9;" horiz-adv-x="469" 
d="M263 537l48 172h102l-120 -172h-30zM120 257q0 -45 11.5 -83t33.5 -65.5t54.5 -42.5t74.5 -15q28 0 61.5 12.5t63.5 30.5l14 -36q-35 -22 -80.5 -41.5t-89.5 -31.5q-44 0 -84.5 15.5t-72 46t-50.5 76.5t-19 106q0 59 17.5 102.5t47.5 74t70.5 49t85.5 27.5q49 0 82 -14.5
t53 -39.5t28.5 -59.5t8.5 -73.5v-38h-310zM338 305q0 29 -3.5 53t-14.5 41.5t-30.5 27t-51.5 9.5q-49 0 -79 -39t-38 -102z" />
    <glyph glyph-name="ecircumflex" unicode="&#xea;" horiz-adv-x="469" 
d="M125 537l105 172h67l106 -172h-30l-91 93l-18 20l-18 -20l-91 -93h-30zM120 257q0 -45 11.5 -83t33.5 -65.5t54.5 -42.5t74.5 -15q28 0 61.5 12.5t63.5 30.5l14 -36q-35 -22 -80.5 -41.5t-89.5 -31.5q-44 0 -84.5 15.5t-72 46t-50.5 76.5t-19 106q0 59 17.5 102.5
t47.5 74t70.5 49t85.5 27.5q49 0 82 -14.5t53 -39.5t28.5 -59.5t8.5 -73.5v-38h-310zM338 305q0 29 -3.5 53t-14.5 41.5t-30.5 27t-51.5 9.5q-49 0 -79 -39t-38 -102z" />
    <glyph glyph-name="edieresis" unicode="&#xeb;" horiz-adv-x="469" 
d="M125 676l55 4l24 -4l4 -45l-9 -38l-55 -5l-23 5l-5 45zM300 676l56 4l24 -4l4 -45l-9 -38l-55 -5l-23 5l-5 45zM120 257q0 -45 11.5 -83t33.5 -65.5t54.5 -42.5t74.5 -15q28 0 61.5 12.5t63.5 30.5l14 -36q-35 -22 -80.5 -41.5t-89.5 -31.5q-44 0 -84.5 15.5t-72 46
t-50.5 76.5t-19 106q0 59 17.5 102.5t47.5 74t70.5 49t85.5 27.5q49 0 82 -14.5t53 -39.5t28.5 -59.5t8.5 -73.5v-38h-310zM338 305q0 29 -3.5 53t-14.5 41.5t-30.5 27t-51.5 9.5q-49 0 -79 -39t-38 -102z" />
    <glyph glyph-name="igrave" unicode="&#xec;" horiz-adv-x="289" 
d="M152 537l-121 172h102l49 -172h-30zM152 2l-112 -3l-5 31l74 9v370l-74 -7l-5 31l113 33l46 4v-431l80 -9l-5 -31z" />
    <glyph glyph-name="iacute" unicode="&#xed;" horiz-adv-x="289" 
d="M125 537l48 172h102l-120 -172h-30zM152 2l-112 -3l-5 31l74 9v370l-74 -7l-5 31l113 33l46 4v-431l80 -9l-5 -31z" />
    <glyph glyph-name="icircumflex" unicode="&#xee;" horiz-adv-x="289" 
d="M4 537l105 172h67l106 -172h-30l-91 93l-18 20l-18 -20l-91 -93h-30zM152 2l-112 -3l-5 31l74 9v370l-74 -7l-5 31l113 33l46 4v-431l80 -9l-5 -31z" />
    <glyph glyph-name="idieresis" unicode="&#xef;" horiz-adv-x="289" 
d="M19 676l55 4l24 -4l4 -45l-9 -38l-55 -5l-23 5l-5 45zM194 676l56 4l24 -4l4 -45l-9 -38l-55 -5l-23 5l-5 45zM153 2l-112 -3l-5 31l74 9v370l-74 -7l-5 31l113 33l46 4v-431l80 -9l-5 -31z" />
    <glyph glyph-name="eth" unicode="&#xf0;" horiz-adv-x="528" 
d="M400 663l-70 -35q89 -70 126 -167.5t37 -214.5q0 -58 -17.5 -103.5t-49.5 -78t-77.5 -52.5t-101.5 -27q-49 0 -88.5 17t-67 48t-42 73.5t-14.5 93.5q0 59 17.5 102.5t49.5 73.5t77.5 47t101.5 25l106 -48q-14 53 -45 101t-69 83l-125 -61v55l80 39q1 0 -12 7l-28 16
l-29 17q-14 8 -17 10l20 36q34 -15 54 -25l34 -16q12 -6 19 -10t13 -8l118 57v-55zM120 245q0 -44 10 -82.5t30 -67.5t49 -46t67 -17q30 0 55 12.5t42 35.5t26.5 54.5t9.5 70.5q0 44 -10.5 82.5t-30.5 67.5t-49 46t-67 17q-30 0 -54.5 -12.5t-42 -35.5t-26.5 -54.5t-9 -70.5
z" />
    <glyph glyph-name="ntilde" unicode="&#xf1;" horiz-adv-x="578" 
d="M161 675l75 22l151 -57l29 55h28l-24 -95l-74 -17l-152 57l-28 -55h-28zM151 2l-112 -3l-5 31l74 9v371l-73 -7l-5 31l112 32l38 3l6 -85l147 98q49 0 78 -9t44.5 -29t20 -51.5t4.5 -76.5v-277l81 -9l-5 -31l-112 3l-91 -3l-5 31l53 9v290q0 42 -18 61.5t-53 19.5
q-28 0 -55 -15t-54 -33l-33 -21v-302l59 -9l-5 -31z" />
    <glyph glyph-name="ograve" unicode="&#xf2;" horiz-adv-x="536" 
d="M288 537l-121 172h102l49 -172h-30zM277 482q50 0 91 -18.5t70 -51t45 -76t16 -93.5q0 -109 -60.5 -175t-178.5 -83q-51 0 -92 18.5t-70 50.5t-45 75.5t-16 93.5q0 109 60.5 174.5t179.5 84.5zM121 236q0 -38 11 -75t32 -66t51 -46.5t68 -17.5q33 0 58 16t41.5 43t25 63
t8.5 76q0 44 -11.5 82t-33 65.5t-51.5 43.5t-66 16q-34 0 -59 -16t-41.5 -43.5t-24.5 -64t-8 -76.5z" />
    <glyph glyph-name="oacute" unicode="&#xf3;" horiz-adv-x="536" 
d="M265 537l48 172h102l-120 -172h-30zM277 482q50 0 91 -18.5t70 -51t45 -76t16 -93.5q0 -109 -60.5 -175t-178.5 -83q-51 0 -92 18.5t-70 50.5t-45 75.5t-16 93.5q0 109 60.5 174.5t179.5 84.5zM121 236q0 -38 11 -75t32 -66t51 -46.5t68 -17.5q33 0 58 16t41.5 43t25 63
t8.5 76q0 44 -11.5 82t-33 65.5t-51.5 43.5t-66 16q-34 0 -59 -16t-41.5 -43.5t-24.5 -64t-8 -76.5z" />
    <glyph glyph-name="ocircumflex" unicode="&#xf4;" horiz-adv-x="536" 
d="M137 537l105 172h67l105 -172h-30l-90 93l-18 20l-19 -20l-90 -93h-30zM277 482q50 0 91 -18.5t70 -51t45 -76t16 -93.5q0 -109 -60.5 -175t-178.5 -83q-51 0 -92 18.5t-70 50.5t-45 75.5t-16 93.5q0 109 60.5 174.5t179.5 84.5zM121 236q0 -38 11 -75t32 -66t51 -46.5
t68 -17.5q33 0 58 16t41.5 43t25 63t8.5 76q0 44 -11.5 82t-33 65.5t-51.5 43.5t-66 16q-34 0 -59 -16t-41.5 -43.5t-24.5 -64t-8 -76.5z" />
    <glyph glyph-name="otilde" unicode="&#xf5;" horiz-adv-x="536" 
d="M150 675l75 22l151 -57l29 55h28l-24 -95l-74 -17l-152 57l-28 -55h-28zM277 482q50 0 91 -18.5t70 -51t45 -76t16 -93.5q0 -109 -60.5 -175t-178.5 -83q-51 0 -92 18.5t-70 50.5t-45 75.5t-16 93.5q0 109 60.5 174.5t179.5 84.5zM121 236q0 -38 11 -75t32 -66t51 -46.5
t68 -17.5q33 0 58 16t41.5 43t25 63t8.5 76q0 44 -11.5 82t-33 65.5t-51.5 43.5t-66 16q-34 0 -59 -16t-41.5 -43.5t-24.5 -64t-8 -76.5z" />
    <glyph glyph-name="odieresis" unicode="&#xf6;" horiz-adv-x="536" 
d="M145 676l55 4l24 -4l4 -45l-9 -38l-55 -5l-23 5l-5 45zM320 676l56 4l24 -4l4 -45l-9 -38l-55 -5l-23 5l-5 45zM277 482q50 0 91 -18.5t70 -51t45 -76t16 -93.5q0 -109 -60.5 -175t-178.5 -83q-51 0 -92 18.5t-70 50.5t-45 75.5t-16 93.5q0 109 60.5 174.5t179.5 84.5z
M121 236q0 -38 11 -75t32 -66t51 -46.5t68 -17.5q33 0 58 16t41.5 43t25 63t8.5 76q0 44 -11.5 82t-33 65.5t-51.5 43.5t-66 16q-34 0 -59 -16t-41.5 -43.5t-24.5 -64t-8 -76.5z" />
    <glyph glyph-name="divide" unicode="&#xf7;" 
d="M263 98l70 4l28 -4l4 -52l-4 -46l-70 -5l-28 5l-5 53zM263 467l70 4l28 -4l4 -52l-4 -46l-70 -5l-28 5l-5 53zM47 271h525v-61h-525v61z" />
    <glyph glyph-name="oslash" unicode="&#xf8;" horiz-adv-x="536" 
d="M277 482q38 0 71.5 -11.5t59.5 -31.5l32 39h47l-52 -63q31 -32 47.5 -76.5t16.5 -95.5q0 -109 -60.5 -175t-178.5 -83q-42 0 -76.5 12t-61.5 34l-34 -41h-49l55 67q-57 66 -57 166q0 109 60.5 174.5t179.5 84.5zM416 229q0 36 -8 67.5t-22 57.5l-217 -265
q21 -26 49.5 -42t64.5 -16q33 0 58 16t41.5 43t25 63t8.5 76zM121 236q0 -30 6.5 -59t20.5 -55l216 263q-21 24 -49 37.5t-61 13.5q-34 0 -59 -16t-41.5 -43.5t-24.5 -64t-8 -76.5z" />
    <glyph glyph-name="ugrave" unicode="&#xf9;" horiz-adv-x="558" 
d="M263 537l-121 172h102l49 -172h-30zM464 129q0 -34 3 -49.5t8 -27.5h53l4 -31l-117 -24l-28 79l-147 -91q-51 0 -80.5 10t-45.5 30t-20.5 51.5t-4.5 74.5v259l-75 -5l-5 36l116 25l43 4v-335q0 -42 18 -60t56 -18q26 0 57.5 17.5t63.5 38.5l21 13v284l-63 -5l-5 36
l105 25l43 4v-341z" />
    <glyph glyph-name="uacute" unicode="&#xfa;" horiz-adv-x="558" 
d="M251 537l49 172h102l-121 -172h-30zM464 129q0 -34 3 -49.5t8 -27.5h53l4 -31l-117 -24l-28 79l-147 -91q-51 0 -80.5 10t-45.5 30t-20.5 51.5t-4.5 74.5v259l-75 -5l-5 36l116 25l43 4v-335q0 -42 18 -60t56 -18q26 0 57.5 17.5t63.5 38.5l21 13v284l-63 -5l-5 36
l105 25l43 4v-341z" />
    <glyph glyph-name="ucircumflex" unicode="&#xfb;" horiz-adv-x="558" 
d="M383 537l-91 93l-18 20l-18 -20l-91 -93h-30l106 172h67l105 -172h-30zM464 129q0 -34 3 -49.5t8 -27.5h53l4 -31l-117 -24l-28 79l-147 -91q-51 0 -80.5 10t-45.5 30t-20.5 51.5t-4.5 74.5v259l-75 -5l-5 36l116 25l43 4v-335q0 -42 18 -60t56 -18q26 0 57.5 17.5
t63.5 38.5l21 13v284l-63 -5l-5 36l105 25l43 4v-341z" />
    <glyph glyph-name="udieresis" unicode="&#xfc;" horiz-adv-x="558" 
d="M147 676l55 4l24 -4l4 -45l-9 -38l-55 -5l-23 5l-5 45zM322 676l56 4l24 -4l4 -45l-9 -38l-55 -5l-23 5l-5 45zM464 129q0 -34 3 -49.5t8 -27.5h53l4 -31l-117 -24l-28 79l-147 -91q-51 0 -80.5 10t-45.5 30t-20.5 51.5t-4.5 74.5v259l-75 -5l-5 36l116 25l43 4v-335
q0 -42 18 -60t56 -18q26 0 57.5 17.5t63.5 38.5l21 13v284l-63 -5l-5 36l105 25l43 4v-341z" />
    <glyph glyph-name="yacute" unicode="&#xfd;" horiz-adv-x="534" 
d="M280 537l48 172h102l-120 -172h-30zM84 -235v89h76l98 156l-23 -7l-164 424l-66 10l5 31l109 -3l102 3l5 -31l-70 -10l109 -304l7 -64l124 368l-46 10l5 31l86 -3l83 3l5 -31l-66 -10l-160 -413l-111 -249h-108z" />
    <glyph glyph-name="thorn" unicode="&#xfe;" horiz-adv-x="549" 
d="M259 -15q-47 0 -85 24v-199l109 -10l-5 -31l-140 3l-113 -3l-5 31l74 10v844l-74 -6l-5 30l113 32l46 4v-327l124 95q105 0 156 -62.5t51 -173.5q0 -64 -19 -110t-52 -77t-78 -49t-97 -25zM421 219q0 43 -8 79.5t-22 62.5t-34.5 40.5t-44.5 14.5q-22 0 -48 -13.5
t-57 -36.5l-33 -25v-249q18 -28 50 -44t69 -16q58 0 93 50.5t35 136.5z" />
    <glyph glyph-name="ydieresis" unicode="&#xff;" horiz-adv-x="534" 
d="M153 676l55 4l24 -4l4 -45l-9 -38l-55 -5l-23 5l-5 45zM328 676l56 4l24 -4l4 -45l-9 -38l-55 -5l-23 5l-5 45zM84 -235v89h76l98 156l-23 -7l-164 424l-66 10l5 31l109 -3l102 3l5 -31l-70 -10l109 -304l7 -64l124 368l-46 10l5 31l86 -3l83 3l5 -31l-66 -10l-160 -413
l-111 -249h-108z" />
    <glyph glyph-name="Amacron" unicode="&#x100;" horiz-adv-x="747" 
d="M233 852h276v-50h-276v50zM232 237l-68 -194l90 -13l-5 -31l-124 3l-109 -3l-5 31l83 11l254 654l37 14l270 -668l81 -11l-5 -31l-125 3l-136 -3l-5 31l89 13l-72 194h-250zM366 545l-8 53l-111 -317h218z" />
    <glyph glyph-name="amacron" unicode="&#x101;" horiz-adv-x="444" 
d="M78 686h276v-50h-276v50zM288 238l-159 -66q-11 -11 -15 -24t-4 -29q0 -39 19 -54t42 -15t41 10.5t28 17.5l48 33v127zM218 482q46 0 75 -6.5t45.5 -24.5t22.5 -49.5t6 -80.5v-196q0 -33 5 -48.5t13 -26.5h51l3 -31l-115 -22l-30 76l-121 -88q-63 0 -103 33t-40 93
q0 26 8 45.5t24 43.5l226 76v48q0 22 -1.5 40.5t-7.5 32t-18.5 21t-34.5 7.5t-46.5 -6t-42.5 -13l-18 -72h-73v70z" />
    <glyph glyph-name="Abreve" unicode="&#x102;" horiz-adv-x="747" 
d="M368 810q22 0 40 7.5t31.5 18t23.5 23t17 22.5l21 -18q-6 -8 -12.5 -21.5t-19 -29t-33 -31.5t-53.5 -29q-32 0 -55.5 11.5t-41 28.5t-29.5 36l-22 35l25 18l17 -23q9 -12 21.5 -22.5t29.5 -18t40 -7.5zM232 237l-68 -194l90 -13l-5 -31l-124 3l-109 -3l-5 31l83 11
l254 654l37 14l270 -668l81 -11l-5 -31l-125 3l-136 -3l-5 31l89 13l-72 194h-250zM366 545l-8 53l-111 -317h218z" />
    <glyph glyph-name="abreve" unicode="&#x103;" horiz-adv-x="444" 
d="M220 603q20 0 36 7.5t28 19.5t21.5 26.5t16.5 29.5l27 -18q-16 -31 -41 -61t-75 -62q-32 0 -57.5 12.5t-44.5 31.5t-31 40.5t-17 38.5l27 18q7 -15 16.5 -29.5t23 -26.5t30.5 -19.5t40 -7.5zM288 238l-159 -66q-11 -11 -15 -24t-4 -29q0 -39 19 -54t42 -15t41 10.5
t28 17.5l48 33v127zM218 482q46 0 75 -6.5t45.5 -24.5t22.5 -49.5t6 -80.5v-196q0 -33 5 -48.5t13 -26.5h51l3 -31l-115 -22l-30 76l-121 -88q-63 0 -103 33t-40 93q0 26 8 45.5t24 43.5l226 76v48q0 22 -1.5 40.5t-7.5 32t-18.5 21t-34.5 7.5t-46.5 -6t-42.5 -13l-18 -72
h-73v70z" />
    <glyph glyph-name="Aogonek" unicode="&#x104;" horiz-adv-x="747" 
d="M232 237l-68 -194l90 -13l-5 -31l-124 3l-109 -3l-5 31l83 11l254 654l37 14l270 -668l81 -11l-5 -31l-147 3l-48 -114v-33q0 -20 7.5 -32t20.5 -19t29 -9.5t34 -2.5v-30q-94 0 -133.5 25t-39.5 76v50l107 109l-79 215h-250zM366 545l-8 53l-111 -317h218z" />
    <glyph glyph-name="aogonek" unicode="&#x105;" horiz-adv-x="444" 
d="M218 482q46 0 75 -6.5t45.5 -24.5t22.5 -49.5t6 -80.5v-196q0 -33 5 -48.5t13 -26.5h51l3 -31l-80 -16l-68 -127v-21q0 -20 7.5 -32t20.5 -19t29 -9.5t34 -2.5v-30q-94 0 -133.5 25t-39.5 76v38l115 97l-30 75l-121 -88q-63 0 -103 33t-40 93q0 26 8 45.5t24 43.5l226 76
v48q0 22 -1.5 40.5t-7.5 32t-18.5 21t-34.5 7.5t-46.5 -6t-42.5 -13l-18 -72h-73v70zM288 238l-159 -66q-11 -11 -15 -24t-4 -29q0 -39 19 -54t42 -15t41 10.5t28 17.5l48 33v127z" />
    <glyph glyph-name="Cacute" unicode="&#x106;" horiz-adv-x="703" 
d="M373 766l72 132h100l-120 -132h-52zM664 194l-28 -132q-20 -10 -48.5 -22t-61.5 -23.5t-66.5 -21t-61.5 -13.5q-69 0 -133 23.5t-113.5 69t-79.5 113t-30 155.5q0 87 27.5 152.5t77 111.5t117 73.5t148.5 37.5q40 0 76.5 -8.5t68 -20.5t56.5 -26.5t40 -26.5v-123h-51
l-32 92q-10 10 -26.5 21.5t-38 21.5t-48 16.5t-57.5 6.5q-59 0 -106.5 -19.5t-82 -58.5t-53 -96t-18.5 -132q0 -60 19 -119t56 -106.5t91 -77t124 -29.5q22 0 41 5.5t35 13.5t29 17t22 16l56 109h51z" />
    <glyph glyph-name="cacute" unicode="&#x107;" horiz-adv-x="441" 
d="M235 537l48 172h102l-120 -172h-30zM323 415q-14 10 -28 14t-37 4q-28 0 -51.5 -14.5t-41 -40t-27.5 -60.5t-10 -77q0 -41 10.5 -75.5t31 -60t49.5 -40t67 -14.5q29 0 59 13t59 31l12 -35q-34 -23 -71.5 -41.5t-84.5 -33.5q-47 0 -86.5 15t-68.5 45t-45.5 74.5
t-16.5 103.5t20 103t52.5 75t74 50.5t85.5 30.5q15 0 33.5 -4t36.5 -11t34.5 -16t27.5 -19v-91h-60z" />
    <glyph glyph-name="Ccircumflex" unicode="&#x108;" horiz-adv-x="703" 
d="M265 766l104 132h79l104 -132h-50l-83 67l-11 12l-10 -12l-83 -67h-50zM664 194l-28 -132q-20 -10 -48.5 -22t-61.5 -23.5t-66.5 -21t-61.5 -13.5q-69 0 -133 23.5t-113.5 69t-79.5 113t-30 155.5q0 87 27.5 152.5t77 111.5t117 73.5t148.5 37.5q40 0 76.5 -8.5t68 -20.5
t56.5 -26.5t40 -26.5v-123h-51l-32 92q-10 10 -26.5 21.5t-38 21.5t-48 16.5t-57.5 6.5q-59 0 -106.5 -19.5t-82 -58.5t-53 -96t-18.5 -132q0 -60 19 -119t56 -106.5t91 -77t124 -29.5q22 0 41 5.5t35 13.5t29 17t22 16l56 109h51z" />
    <glyph glyph-name="ccircumflex" unicode="&#x109;" horiz-adv-x="441" 
d="M125 537l106 172h66l106 -172h-30l-91 93l-18 20l-18 -20l-91 -93h-30zM323 415q-14 10 -28 14t-37 4q-28 0 -51.5 -14.5t-41 -40t-27.5 -60.5t-10 -77q0 -41 10.5 -75.5t31 -60t49.5 -40t67 -14.5q29 0 59 13t59 31l12 -35q-34 -23 -71.5 -41.5t-84.5 -33.5
q-47 0 -86.5 15t-68.5 45t-45.5 74.5t-16.5 103.5t20 103t52.5 75t74 50.5t85.5 30.5q15 0 33.5 -4t36.5 -11t34.5 -16t27.5 -19v-91h-60z" />
    <glyph glyph-name="Cdotaccent" unicode="&#x10a;" horiz-adv-x="703" 
d="M355 874l72 5l23 -5l5 -53l-11 -46l-72 -5l-21 5l-5 53zM664 194l-28 -132q-20 -10 -48.5 -22t-61.5 -23.5t-66.5 -21t-61.5 -13.5q-69 0 -133 23.5t-113.5 69t-79.5 113t-30 155.5q0 87 27.5 152.5t77 111.5t117 73.5t148.5 37.5q40 0 76.5 -8.5t68 -20.5t56.5 -26.5
t40 -26.5v-123h-51l-32 92q-10 10 -26.5 21.5t-38 21.5t-48 16.5t-57.5 6.5q-59 0 -106.5 -19.5t-82 -58.5t-53 -96t-18.5 -132q0 -60 19 -119t56 -106.5t91 -77t124 -29.5q22 0 41 5.5t35 13.5t29 17t22 16l56 109h51z" />
    <glyph glyph-name="cdotaccent" unicode="&#x10b;" horiz-adv-x="441" 
d="M220 701l73 5l22 -5l5 -53l-11 -45l-72 -6l-20 6l-6 53zM323 415q-14 10 -28 14t-37 4q-28 0 -51.5 -14.5t-41 -40t-27.5 -60.5t-10 -77q0 -41 10.5 -75.5t31 -60t49.5 -40t67 -14.5q29 0 59 13t59 31l12 -35q-34 -23 -71.5 -41.5t-84.5 -33.5q-47 0 -86.5 15t-68.5 45
t-45.5 74.5t-16.5 103.5t20 103t52.5 75t74 50.5t85.5 30.5q15 0 33.5 -4t36.5 -11t34.5 -16t27.5 -19v-91h-60z" />
    <glyph glyph-name="Ccaron" unicode="&#x10c;" horiz-adv-x="703" 
d="M303 898l83 -66l10 -13l11 13l83 66h50l-104 -132h-79l-104 132h50zM664 194l-28 -132q-20 -10 -48.5 -22t-61.5 -23.5t-66.5 -21t-61.5 -13.5q-69 0 -133 23.5t-113.5 69t-79.5 113t-30 155.5q0 87 27.5 152.5t77 111.5t117 73.5t148.5 37.5q40 0 76.5 -8.5t68 -20.5
t56.5 -26.5t40 -26.5v-123h-51l-32 92q-10 10 -26.5 21.5t-38 21.5t-48 16.5t-57.5 6.5q-59 0 -106.5 -19.5t-82 -58.5t-53 -96t-18.5 -132q0 -60 19 -119t56 -106.5t91 -77t124 -29.5q22 0 41 5.5t35 13.5t29 17t22 16l56 109h51z" />
    <glyph glyph-name="ccaron" unicode="&#x10d;" horiz-adv-x="441" 
d="M155 721l91 -93l18 -20l18 20l91 93h30l-106 -172h-66l-106 172h30zM323 415q-14 10 -28 14t-37 4q-28 0 -51.5 -14.5t-41 -40t-27.5 -60.5t-10 -77q0 -41 10.5 -75.5t31 -60t49.5 -40t67 -14.5q29 0 59 13t59 31l12 -35q-34 -23 -71.5 -41.5t-84.5 -33.5q-47 0 -86.5 15
t-68.5 45t-45.5 74.5t-16.5 103.5t20 103t52.5 75t74 50.5t85.5 30.5q15 0 33.5 -4t36.5 -11t34.5 -16t27.5 -19v-91h-60z" />
    <glyph glyph-name="Dcaron" unicode="&#x10e;" horiz-adv-x="732" 
d="M494 898l-104 -132h-79l-104 132h50l83 -66l10 -13l11 13l83 66h50zM173 698l191 3q75 0 135.5 -21.5t103 -63.5t65 -104t22.5 -142q0 -167 -85 -259t-253 -112l-178 3l-139 -3l-5 31l94 13v614l-94 13l5 31zM213 656v-604l132 -10q54 1 99 23t77.5 62.5t50.5 99
t18 131.5q0 62 -17 117t-51 96t-85.5 65t-120.5 25z" />
    <glyph glyph-name="dcaron" unicode="&#x10f;" horiz-adv-x="550" 
d="M509 635l-23 35v40h92v-80l-59 -106l-33 10zM447 129q0 -29 5 -46.5t13 -28.5h60l4 -33l-124 -24l-31 75l-131 -87q-47 0 -85.5 17t-65.5 47.5t-41.5 73t-14.5 94.5q0 60 18 106.5t50 79.5t77.5 52.5t101.5 26.5q15 0 40.5 -9.5t43.5 -17.5v196l-74 -2l-5 30l116 31l43 4
v-585zM229 57q21 0 48 10.5t57 34.5l33 27v266q-37 43 -107 43q-64 0 -102 -52.5t-38 -143.5q0 -86 30.5 -135.5t78.5 -49.5z" />
    <glyph glyph-name="Dcroat" unicode="&#x110;" horiz-adv-x="732" 
d="M173 698l191 3q75 0 135.5 -21.5t103 -63.5t65 -104t22.5 -142q0 -167 -85 -259t-253 -112l-178 3l-139 -3l-5 31l94 13v296h-83v48h83v270l-94 13l5 31zM213 656v-269h130v-48h-130v-287l132 -10q54 1 99 23t77.5 62.5t50.5 99t18 131.5q0 62 -17 117t-51 96t-85.5 65
t-120.5 25z" />
    <glyph glyph-name="dcroat" unicode="&#x111;" horiz-adv-x="550" 
d="M447 598h81v-38h-81v-431q0 -29 5 -46.5t13 -28.5h60l4 -33l-124 -24l-31 75l-131 -87q-47 0 -85.5 17t-65.5 47.5t-41.5 73t-14.5 94.5q0 60 18 106.5t50 79.5t77.5 52.5t101.5 26.5q15 0 40.5 -9.5t43.5 -17.5v105h-138v38h138v53l-74 -2l-5 30l116 31l43 4v-116z
M229 57q21 0 48 10.5t57 34.5l33 27v266q-37 43 -107 43q-64 0 -102 -52.5t-38 -143.5q0 -86 30.5 -135.5t78.5 -49.5z" />
    <glyph glyph-name="Emacron" unicode="&#x112;" horiz-adv-x="625" 
d="M201 852h276v-50h-276v50zM562 701l9 -176h-28l-55 130l-275 3v-273l148 4l40 105h30l-10 -121l10 -133h-30l-40 104l-148 4v-306l285 3l67 135h33l-36 -181l-389 3l-138 -3l-5 31l94 13v614l-94 13l5 31l138 -3z" />
    <glyph glyph-name="emacron" unicode="&#x113;" horiz-adv-x="469" 
d="M112 686h276v-50h-276v50zM120 257q0 -45 11.5 -83t33.5 -65.5t54.5 -42.5t74.5 -15q28 0 61.5 12.5t63.5 30.5l14 -36q-35 -22 -80.5 -41.5t-89.5 -31.5q-44 0 -84.5 15.5t-72 46t-50.5 76.5t-19 106q0 59 17.5 102.5t47.5 74t70.5 49t85.5 27.5q49 0 82 -14.5t53 -39.5
t28.5 -59.5t8.5 -73.5v-38h-310zM338 305q0 29 -3.5 53t-14.5 41.5t-30.5 27t-51.5 9.5q-49 0 -79 -39t-38 -102z" />
    <glyph glyph-name="Ebreve" unicode="&#x114;" horiz-adv-x="625" 
d="M331 810q22 0 40 7.5t31.5 18t23.5 23t17 22.5l21 -18q-6 -8 -12.5 -21.5t-19 -29t-33 -31.5t-53.5 -29q-32 0 -55.5 11.5t-41 28.5t-29.5 36l-22 35l24 18l16 -23q10 -12 23 -22.5t30 -18t40 -7.5zM562 701l9 -176h-28l-55 130l-275 3v-273l148 4l40 105h30l-10 -121
l10 -133h-30l-40 104l-148 4v-306l285 3l67 135h33l-36 -181l-389 3l-138 -3l-5 31l94 13v614l-94 13l5 31l138 -3z" />
    <glyph glyph-name="ebreve" unicode="&#x115;" horiz-adv-x="469" 
d="M254 604q20 0 36 7.5t28 19.5t21.5 26.5t16.5 29.5l27 -18q-16 -31 -40.5 -61t-74.5 -62q-32 0 -57.5 12.5t-44.5 31.5t-31.5 40.5t-17.5 38.5l27 18q7 -15 16.5 -29.5t23 -26.5t30.5 -19.5t40 -7.5zM120 257q0 -45 11.5 -83t33.5 -65.5t54.5 -42.5t74.5 -15
q28 0 61.5 12.5t63.5 30.5l14 -36q-35 -22 -80.5 -41.5t-89.5 -31.5q-44 0 -84.5 15.5t-72 46t-50.5 76.5t-19 106q0 59 17.5 102.5t47.5 74t70.5 49t85.5 27.5q49 0 82 -14.5t53 -39.5t28.5 -59.5t8.5 -73.5v-38h-310zM338 305q0 29 -3.5 53t-14.5 41.5t-30.5 27t-51.5 9.5
q-49 0 -79 -39t-38 -102z" />
    <glyph glyph-name="Edotaccent" unicode="&#x116;" horiz-adv-x="625" 
d="M296 878l72 5l23 -5l4 -53l-10 -46l-72 -5l-21 5l-6 53zM562 701l9 -176h-28l-55 130l-275 3v-273l148 4l40 105h30l-10 -121l10 -133h-30l-40 104l-148 4v-306l285 3l67 135h33l-36 -181l-389 3l-138 -3l-5 31l94 13v614l-94 13l5 31l138 -3z" />
    <glyph glyph-name="edotaccent" unicode="&#x117;" horiz-adv-x="469" 
d="M204 701l73 5l22 -5l5 -53l-10 -45l-73 -6l-20 6l-6 53zM120 257q0 -45 11.5 -83t33.5 -65.5t54.5 -42.5t74.5 -15q28 0 61.5 12.5t63.5 30.5l14 -36q-35 -22 -80.5 -41.5t-89.5 -31.5q-44 0 -84.5 15.5t-72 46t-50.5 76.5t-19 106q0 59 17.5 102.5t47.5 74t70.5 49
t85.5 27.5q49 0 82 -14.5t53 -39.5t28.5 -59.5t8.5 -73.5v-38h-310zM338 305q0 29 -3.5 53t-14.5 41.5t-30.5 27t-51.5 9.5q-49 0 -79 -39t-38 -102z" />
    <glyph glyph-name="Eogonek" unicode="&#x118;" horiz-adv-x="625" 
d="M562 701l9 -176h-28l-55 130l-275 3v-273l148 4l40 105h30l-10 -121l10 -133h-30l-40 104l-148 4v-306l285 3l67 135h33l-36 -181l-57 1l-47 -124v-21q0 -20 7.5 -32t20.5 -19t29 -9.5t34 -2.5v-30q-93 0 -133 25.5t-40 75.5v38l98 99l-301 2l-138 -3l-5 31l94 13v614
l-94 13l5 31l138 -3z" />
    <glyph glyph-name="eogonek" unicode="&#x119;" horiz-adv-x="469" 
d="M120 257q0 -45 11.5 -83t33.5 -65.5t54.5 -42.5t74.5 -15q28 0 61.5 12.5t63.5 30.5l14 -36q-50 -31 -115 -56l-67 -102v-45q0 -20 8.5 -32t23 -19t33 -9.5t38.5 -2.5v-30q-101 0 -143 25t-42 76v38l94 84q-44 0 -84.5 15.5t-72 46t-50.5 76.5t-19 106q0 59 17.5 102.5
t47.5 74t70.5 49t85.5 27.5q49 0 82 -14.5t53 -39.5t28.5 -59.5t8.5 -73.5v-38h-310zM338 305q0 29 -3.5 53t-14.5 41.5t-30.5 27t-51.5 9.5q-49 0 -79 -39t-38 -102z" />
    <glyph glyph-name="Ecaron" unicode="&#x11a;" horiz-adv-x="625" 
d="M241 898l83 -66l10 -13l11 13l83 66h50l-104 -132h-79l-104 132h50zM562 701l9 -176h-28l-55 130l-275 3v-273l148 4l40 105h30l-10 -121l10 -133h-30l-40 104l-148 4v-306l285 3l67 135h33l-36 -181l-389 3l-138 -3l-5 31l94 13v614l-94 13l5 31l138 -3z" />
    <glyph glyph-name="ecaron" unicode="&#x11b;" horiz-adv-x="469" 
d="M143 721l91 -93l18 -20l18 20l91 93h30l-106 -172h-67l-105 172h30zM120 257q0 -45 11.5 -83t33.5 -65.5t54.5 -42.5t74.5 -15q28 0 61.5 12.5t63.5 30.5l14 -36q-35 -22 -80.5 -41.5t-89.5 -31.5q-44 0 -84.5 15.5t-72 46t-50.5 76.5t-19 106q0 59 17.5 102.5t47.5 74
t70.5 49t85.5 27.5q49 0 82 -14.5t53 -39.5t28.5 -59.5t8.5 -73.5v-38h-310zM338 305q0 29 -3.5 53t-14.5 41.5t-30.5 27t-51.5 9.5q-49 0 -79 -39t-38 -102z" />
    <glyph glyph-name="Gcircumflex" unicode="&#x11c;" horiz-adv-x="742" 
d="M265 766l104 132h79l104 -132h-50l-83 67l-11 12l-10 -12l-83 -67h-50zM647 60l-49 -17l-68 -23q-37 -12 -74.5 -22.5t-67.5 -15.5q-69 0 -131.5 23t-110 69t-76 113.5t-28.5 156.5q0 86 26 150.5t73.5 110t113.5 73.5t147 40q40 0 78.5 -8.5t71 -20.5t58 -26t39.5 -26
v-124h-44l-32 88q-11 10 -28 22.5t-40.5 23t-52.5 17.5t-63 7q-56 0 -102 -20.5t-78.5 -60t-50.5 -96.5t-18 -129q0 -62 20 -122t56 -106.5t87.5 -75t114.5 -28.5q24 0 46 6t40 15t31.5 19t22.5 19v192l-90 13l5 30l130 -3l108 3l4 -30l-68 -13v-224z" />
    <glyph glyph-name="gcircumflex" unicode="&#x11d;" horiz-adv-x="503" 
d="M122 537l105 172h67l105 -172h-30l-90 93l-18 20l-19 -20l-90 -93h-30zM335 300q0 17 -4.5 41t-16.5 45.5t-33 37t-55 15.5q-43 0 -67 -28.5t-24 -78.5q0 -15 4.5 -36.5t16.5 -41t33.5 -33.5t55.5 -14q42 0 66 24.5t24 68.5zM160 -10q-22 -24 -34 -40.5t-18 -27
t-7.5 -17.5t-1.5 -12q0 -18 10.5 -33.5t29.5 -27t44 -17.5t55 -6t59 10t51.5 27t36 41t13.5 52q0 29 -23.5 40t-78.5 11h-136zM240 482q42 0 81.5 -14t62.5 -40l57 54h57v-73h-53l-38 -18q11 -24 11 -50q0 -60 -43.5 -107t-144.5 -72h-17q-8 0 -16 1l-61 -69q0 -15 9 -25
t26 -10h183q69 0 99 -27t30 -72q0 -29 -18 -58.5t-50.5 -56.5t-78 -50.5t-101.5 -39.5q-112 0 -163 35.5t-51 106.5v15l106 88q-26 10 -40 21t-20.5 23.5t-7.5 26t-1 30.5v2l98 70q-47 16 -75.5 49t-28.5 79q0 61 43 108t145 73z" />
    <glyph glyph-name="Gbreve" unicode="&#x11e;" horiz-adv-x="742" 
d="M404 810q22 0 40 7.5t31.5 18t23.5 23t17 22.5l21 -18q-6 -8 -12.5 -21.5t-19 -29t-33 -31.5t-53.5 -29q-32 0 -55.5 11.5t-41 28.5t-30.5 36l-21 35l24 18l17 -23q9 -12 22 -22.5t30 -18t40 -7.5zM647 60l-50 -17l-68 -23q-36 -12 -73.5 -22.5t-67.5 -15.5
q-69 0 -131.5 23t-110 69t-76 113.5t-28.5 156.5q0 86 26 150.5t73.5 110t113.5 73.5t147 40q40 0 78.5 -8.5t71 -20.5t58 -26t39.5 -26v-124h-44l-32 88q-11 10 -28 22.5t-40.5 23t-52.5 17.5t-63 7q-56 0 -102 -20.5t-78.5 -60t-50.5 -96.5t-18 -129q0 -62 20 -122
t56 -106.5t87.5 -75t114.5 -28.5q24 0 46 6t40 15t31.5 19t22.5 19v192l-90 13l5 30l130 -3l108 3l4 -30l-68 -13v-224z" />
    <glyph glyph-name="gbreve" unicode="&#x11f;" horiz-adv-x="503" 
d="M251 604q20 0 36 7.5t28.5 19.5t22 26.5t16.5 29.5l27 -18q-16 -31 -41 -61t-75 -62q-32 0 -57.5 12.5t-44.5 31.5t-31.5 40.5t-16.5 38.5l27 18q7 -15 16.5 -29.5t22.5 -26.5t30 -19.5t40 -7.5zM335 300q0 17 -4.5 41t-16.5 45.5t-33 37t-55 15.5q-43 0 -67 -28.5
t-24 -78.5q0 -15 4.5 -36.5t16.5 -41t33.5 -33.5t55.5 -14q42 0 66 24.5t24 68.5zM160 -10q-22 -24 -34 -40.5t-18 -27t-7.5 -17.5t-1.5 -12q0 -18 10.5 -33.5t29.5 -27t44 -17.5t55 -6t59 10t51.5 27t36 41t13.5 52q0 29 -23.5 40t-78.5 11h-136zM240 482q42 0 81.5 -14
t62.5 -40l57 54h57v-73h-53l-38 -18q11 -24 11 -50q0 -60 -43.5 -107t-144.5 -72h-17q-8 0 -16 1l-61 -69q0 -15 9 -25t26 -10h183q69 0 99 -27t30 -72q0 -29 -18 -58.5t-50.5 -56.5t-78 -50.5t-101.5 -39.5q-112 0 -163 35.5t-51 106.5v15l106 88q-26 10 -40 21t-20.5 23.5
t-7.5 26t-1 30.5v2l98 70q-47 16 -75.5 49t-28.5 79q0 61 43 108t145 73z" />
    <glyph glyph-name="Gdotaccent" unicode="&#x120;" horiz-adv-x="742" 
d="M367 876l72 5l23 -5l4 -53l-10 -46l-72 -5l-21 5l-6 53zM647 60l-49 -17l-68 -23q-37 -12 -74.5 -22.5t-67.5 -15.5q-69 0 -131.5 23t-110 69t-76 113.5t-28.5 156.5q0 86 26 150.5t73.5 110t113.5 73.5t147 40q40 0 78.5 -8.5t71 -20.5t58 -26t39.5 -26v-124h-44l-32 88
q-11 10 -28 22.5t-40.5 23t-52.5 17.5t-63 7q-56 0 -102 -20.5t-78.5 -60t-50.5 -96.5t-18 -129q0 -62 20 -122t56 -106.5t87.5 -75t114.5 -28.5q24 0 46 6t40 15t31.5 19t22.5 19v192l-90 13l5 30l130 -3l108 3l4 -30l-68 -13v-224z" />
    <glyph glyph-name="gdotaccent" unicode="&#x121;" horiz-adv-x="503" 
d="M206 701l72 5l23 -5l5 -53l-11 -45l-72 -6l-21 6l-5 53zM335 300q0 17 -4.5 41t-16.5 45.5t-33 37t-55 15.5q-43 0 -67 -28.5t-24 -78.5q0 -15 4.5 -36.5t16.5 -41t33.5 -33.5t55.5 -14q42 0 66 24.5t24 68.5zM160 -10q-22 -24 -34 -40.5t-18 -27t-7.5 -17.5t-1.5 -12
q0 -18 10.5 -33.5t29.5 -27t44 -17.5t55 -6t59 10t51.5 27t36 41t13.5 52q0 29 -23.5 40t-78.5 11h-136zM240 482q42 0 81.5 -14t62.5 -40l57 54h57v-73h-53l-38 -18q11 -24 11 -50q0 -60 -43.5 -107t-144.5 -72h-17q-8 0 -16 1l-61 -69q0 -15 9 -25t26 -10h183q69 0 99 -27
t30 -72q0 -29 -18 -58.5t-50.5 -56.5t-78 -50.5t-101.5 -39.5q-112 0 -163 35.5t-51 106.5v15l106 88q-26 10 -40 21t-20.5 23.5t-7.5 26t-1 30.5v2l98 70q-47 16 -75.5 49t-28.5 79q0 61 43 108t145 73z" />
    <glyph glyph-name="Gcommaaccent" unicode="&#x122;" horiz-adv-x="742" 
d="M362 -125l-23 35v40h92v-80l-59 -106l-33 10zM647 60l-49 -17l-68 -23q-37 -12 -74.5 -22.5t-67.5 -15.5q-69 0 -131.5 23t-110 69t-76 113.5t-28.5 156.5q0 86 26 150.5t73.5 110t113.5 73.5t147 40q40 0 78.5 -8.5t71 -20.5t58 -26t39.5 -26v-124h-44l-32 88
q-11 10 -28 22.5t-40.5 23t-52.5 17.5t-63 7q-56 0 -102 -20.5t-78.5 -60t-50.5 -96.5t-18 -129q0 -62 20 -122t56 -106.5t87.5 -75t114.5 -28.5q24 0 46 6t40 15t31.5 19t22.5 19v192l-90 13l5 30l130 -3l108 3l4 -30l-68 -13v-224z" />
    <glyph glyph-name="gcommaaccent" unicode="&#x123;" horiz-adv-x="503" 
d="M279 616l23 -35v-40h-92v80l59 102l33 -10zM335 300q0 17 -4.5 41t-16.5 45.5t-33 37t-55 15.5q-43 0 -67 -28.5t-24 -78.5q0 -15 4.5 -36.5t16.5 -41t33.5 -33.5t55.5 -14q42 0 66 24.5t24 68.5zM160 -10q-22 -24 -34 -40.5t-18 -27t-7.5 -17.5t-1.5 -12
q0 -18 10.5 -33.5t29.5 -27t44 -17.5t55 -6t59 10t51.5 27t36 41t13.5 52q0 29 -23.5 40t-78.5 11h-136zM240 482q42 0 81.5 -14t62.5 -40l57 54h57v-73h-53l-38 -18q11 -24 11 -50q0 -60 -43.5 -107t-144.5 -72h-17q-8 0 -16 1l-61 -69q0 -15 9 -25t26 -10h183q69 0 99 -27
t30 -72q0 -29 -18 -58.5t-50.5 -56.5t-78 -50.5t-101.5 -39.5q-112 0 -163 35.5t-51 106.5v15l106 88q-26 10 -40 21t-20.5 23.5t-7.5 26t-1 30.5v2l98 70q-47 16 -75.5 49t-28.5 79q0 61 43 108t145 73z" />
    <glyph glyph-name="Hcircumflex" unicode="&#x124;" horiz-adv-x="756" 
d="M235 766l105 132h79l104 -132h-50l-83 67l-11 12l-11 -12l-83 -67h-50zM30 670l5 31l134 -3l129 3l5 -31l-90 -13v-271h336v271l-96 13l5 31l136 -3l127 3l5 -31l-88 -13v-614l88 -13l-5 -31l-127 3l-136 -3l-5 31l96 13v297h-336v-297l90 -13l-5 -31l-129 3l-134 -3
l-5 31l94 13v614z" />
    <glyph glyph-name="hcircumflex" unicode="&#x125;" horiz-adv-x="578" 
d="M-1 766l105 132h79l104 -132h-50l-83 67l-11 12l-11 -12l-83 -67h-50zM189 39l59 -9l-5 -31l-91 3l-112 -3l-5 31l74 9v612l-73 -2l-5 29l112 32l46 4v-327l145 95q49 0 78 -10t44.5 -32t20 -56t4.5 -82v-263l80 -9l-5 -31l-112 3l-89 -3l-5 31l52 9v290q0 42 -18 61.5
t-50 19.5q-23 0 -53 -15t-59 -33l-33 -20v-303z" />
    <glyph glyph-name="Hbar" unicode="&#x126;" horiz-adv-x="756" 
d="M30 670l5 31l134 -3l129 3l5 -31l-90 -13v-149h336v149l-96 13l5 31l136 -3l127 3l5 -31l-88 -13v-614l88 -13l-5 -31l-127 3l-136 -3l-5 31l96 13v297h-336v-297l90 -13l-5 -31l-129 3l-134 -3l-5 31l94 13v614zM549 386v84h-336v-84h336z" />
    <glyph glyph-name="hbar" unicode="&#x127;" horiz-adv-x="578" 
d="M189 39l59 -9l-5 -31l-91 3l-112 -3l-5 31l74 9v522h-81v38h81v52l-73 -2l-5 29l112 32l46 4v-115h144v-38h-144v-174l145 95q49 0 78 -10t44.5 -32t20 -56t4.5 -82v-263l80 -9l-5 -31l-112 3l-89 -3l-5 31l52 9v290q0 42 -18 61.5t-50 19.5q-23 0 -53 -15t-59 -33
l-33 -20v-303z" />
    <glyph glyph-name="Itilde" unicode="&#x128;" horiz-adv-x="337" 
d="M46 860l75 22l149 -50l37 54h22l-22 -89l-76 -23l-148 50l-38 -54h-22zM175 2l-134 -3l-5 32l94 13v613l-94 13l5 31l134 -3l133 3l5 -31l-94 -13v-613l94 -13l-5 -32z" />
    <glyph glyph-name="itilde" unicode="&#x129;" horiz-adv-x="289" 
d="M12 675l75 22l151 -57l29 55h28l-24 -95l-74 -17l-152 57l-28 -55h-28zM152 2l-112 -3l-5 31l74 9v370l-74 -7l-5 31l113 33l46 4v-431l80 -9l-5 -31z" />
    <glyph glyph-name="Imacron" unicode="&#x12a;" horiz-adv-x="337" 
d="M36 852h276v-50h-276v50zM175 2l-134 -3l-5 32l94 13v613l-94 13l5 31l134 -3l133 3l5 -31l-94 -13v-613l94 -13l-5 -32z" />
    <glyph glyph-name="imacron" unicode="&#x12b;" horiz-adv-x="289" 
d="M6 686h276v-50h-276v50zM152 2l-112 -3l-5 31l74 9v370l-74 -7l-5 31l113 33l46 4v-431l80 -9l-5 -31z" />
    <glyph glyph-name="Ibreve" unicode="&#x12c;" horiz-adv-x="337" 
d="M171 810q22 0 40 7.5t31.5 18t23.5 23t17 22.5l21 -18q-6 -8 -12.5 -21.5t-19 -29t-33 -31.5t-53.5 -29q-32 0 -55.5 11.5t-41 28.5t-29.5 36l-22 35l24 18l17 -23q9 -12 22 -22.5t30 -18t40 -7.5zM175 2l-134 -3l-5 32l94 13v613l-94 13l5 31l134 -3l133 3l5 -31
l-94 -13v-613l94 -13l-5 -32z" />
    <glyph glyph-name="ibreve" unicode="&#x12d;" horiz-adv-x="289" 
d="M144 604q20 0 36 7.5t28.5 19.5t22 26.5t16.5 29.5l27 -18q-16 -31 -41 -61t-75 -62q-32 0 -57.5 12.5t-44.5 31.5t-31.5 40.5t-16.5 38.5l27 18q7 -15 16.5 -29.5t22.5 -26.5t30 -19.5t40 -7.5zM152 2l-112 -3l-5 31l74 9v370l-74 -7l-5 31l113 33l46 4v-431l80 -9
l-5 -31z" />
    <glyph glyph-name="Iogonek" unicode="&#x12e;" horiz-adv-x="337" 
d="M182 1l-47 -125v-21q0 -20 7.5 -32t20.5 -19t29.5 -9.5t33.5 -2.5v-30q-93 0 -133 25.5t-40 75.5v40l98 98l-116 -2l-5 32l94 13v613l-94 13l5 31l134 -3l127 3l5 -31l-88 -13v-613l88 -13l-5 -32z" />
    <glyph glyph-name="iogonek" unicode="&#x12f;" horiz-adv-x="289" 
d="M167 1l-46 -125v-21q0 -20 7.5 -32t20.5 -19t29 -9.5t34 -2.5v-30q-94 0 -133.5 25t-39.5 76v40l97 99l-96 -3l-5 31l74 9v370l-74 -7l-5 31l113 33l46 4v-431l80 -9l-5 -31zM105 688l65 5l26 -5l4 -52l-10 -45l-63 -6l-25 6l-6 52z" />
    <glyph glyph-name="Idotaccent" unicode="&#x130;" horiz-adv-x="337" 
d="M127 876l72 5l23 -5l4 -53l-10 -46l-72 -5l-21 5l-6 53zM175 2l-134 -3l-5 32l94 13v613l-94 13l5 31l134 -3l133 3l5 -31l-94 -13v-613l94 -13l-5 -32z" />
    <glyph glyph-name="dotlessi" unicode="&#x131;" horiz-adv-x="289" 
d="M152 2l-112 -3l-5 31l74 9v370l-74 -7l-5 31l113 33l46 4v-431l80 -9l-5 -31z" />
    <glyph glyph-name="IJ" unicode="&#x132;" horiz-adv-x="590" 
d="M476 87q0 -28 0.5 -49t-1 -37.5t-7 -30t-17.5 -27.5l-107 -118h-85v84h91l15 21q8 12 12.5 25.5t6.5 32.5t2.5 45.5t0.5 63.5v560l-60 14l5 30l100 -3l128 3l5 -31l-89 -13v-570zM175 3l-134 -3l-5 31l94 13v613l-94 13l5 31l134 -3l95 3l5 -31l-56 -13v-613l92 -13
l-5 -31z" />
    <glyph glyph-name="ij" unicode="&#x133;" horiz-adv-x="463" 
d="M103 688l65 5l26 -5l4 -52l-10 -45l-63 -6l-25 6l-6 52zM306 688l65 5l26 -5l5 -52l-11 -45l-63 -6l-25 6l-6 52zM289 -133q7 14 14 36t7 69v437l-74 -6l-5 31l113 32l46 4v-484q0 -35 -8.5 -62.5t-34.5 -59.5l-83 -98h-79v79h93zM151 2l-112 -3l-5 31l74 9v370l-74 -7
l-5 31l113 33l46 4v-431l80 -9l-5 -31z" />
    <glyph glyph-name="Jcircumflex" unicode="&#x134;" horiz-adv-x="330" 
d="M18 766l104 132h79l104 -132h-50l-83 67l-11 12l-10 -12l-83 -67h-50zM216 87q0 -29 1 -50t-0.5 -37.5t-7 -29.5t-17.5 -27l-106 -118h-87v80h102l9 21q6 13 9.5 27t5 32.5t2 45t0.5 64.5v562l-110 13l5 31l150 -3l128 3l5 -31l-89 -13v-570z" />
    <glyph glyph-name="jcircumflex" unicode="&#x135;" horiz-adv-x="261" 
d="M-3 537l105 172h67l105 -172h-30l-90 93l-19 20l-18 -20l-90 -93h-30zM88 -133q7 14 13.5 37t6.5 68v438l-74 -7l-5 31l113 32l46 4v-484q0 -35 -8 -62.5t-34 -58.5l-85 -99h-78v80h95z" />
    <glyph glyph-name="Kcommaaccent" unicode="&#x136;" horiz-adv-x="692" 
d="M308 -125l-23 35v40h92v-80l-59 -106l-33 10zM240 387l281 270l-73 13l5 31l104 -3l94 3l5 -31l-78 -16l-281 -277l19 -13l312 -325l53 -9l-5 -31l-85 3l-66 -3l-298 329l-14 26v-311l77 -13l-5 -31l-116 3l-134 -3l-5 31l94 13v614l-94 13l5 31l134 -3l116 3l5 -31
l-77 -13v-285z" />
    <glyph glyph-name="kcommaaccent" unicode="&#x137;" horiz-adv-x="531" 
d="M250 -125l-23 35v40h92v-80l-59 -106l-33 10zM447 2l-57 -3l-192 234l-10 20v-214l60 -9l-5 -31l-88 3l-116 -3l-5 31l74 9v610l-73 -2l-5 31l112 32l46 4v-443l27 11l163 146l-21 9v31l76 -3l70 3l5 -31l-52 -9l-193 -159l18 -11l199 -219l46 -9l-4 -31z" />
    <glyph glyph-name="kgreenlandic" unicode="&#x138;" horiz-adv-x="531" 
d="M447 2l-57 -3l-192 234l-10 20v-214l60 -9l-5 -31l-88 3l-116 -3l-5 31l74 9v371l-73 -7l-5 31l112 32l46 4v-199l27 11l163 146l-21 9v31l76 -3l70 3l5 -31l-52 -9l-193 -159l18 -11l199 -219l46 -9l-4 -31z" />
    <glyph glyph-name="Lacute" unicode="&#x139;" horiz-adv-x="584" 
d="M148 766l73 132h100l-121 -132h-52zM173 2l-138 -3l-5 31l94 13v614l-94 13l5 31l138 -3l129 3l5 -31l-94 -13v-615l259 3l63 133h35l-34 -179z" />
    <glyph glyph-name="lacute" unicode="&#x13a;" horiz-adv-x="284" 
d="M139 742l49 180h100l-121 -180h-28zM152 2l-112 -3l-5 31l74 9v610l-73 -2l-5 31l112 32l46 4v-675l80 -9l-5 -31z" />
    <glyph glyph-name="Lcommaaccent" unicode="&#x13b;" horiz-adv-x="584" 
d="M291 -125l-23 35v40h92v-80l-59 -106l-33 10zM173 2l-138 -3l-5 31l94 13v614l-94 13l5 31l138 -3l129 3l5 -31l-94 -13v-615l259 3l63 133h35l-34 -179z" />
    <glyph glyph-name="lcommaaccent" unicode="&#x13c;" horiz-adv-x="284" 
d="M126 -125l-23 35v40h92v-80l-59 -106l-33 10zM152 2l-112 -3l-5 31l74 9v610l-73 -2l-5 31l112 32l46 4v-675l80 -9l-5 -31z" />
    <glyph glyph-name="Lcaron" unicode="&#x13d;" horiz-adv-x="591" 
d="M475 608l-4 53l4 45l70 4l28 -4l4 -53l-4 -45l-62 -140l-34 13q6 13 12 31l11 34q6 17 9.5 32.5t3.5 25.5zM173 2l-138 -3l-5 31l94 13v614l-94 13l5 31l138 -3l129 3l5 -31l-94 -13v-615l259 3l63 133h35l-34 -179z" />
    <glyph glyph-name="lcaron" unicode="&#x13e;" horiz-adv-x="325" 
d="M256 635l-23 35v40h92v-80l-59 -106l-33 10zM152 2l-112 -3l-5 31l74 9v610l-73 -2l-5 31l112 32l46 4v-675l80 -9l-5 -31z" />
    <glyph glyph-name="Ldot" unicode="&#x13f;" horiz-adv-x="584" 
d="M306 452l66 4l26 -4l4 -53l-11 -44l-65 -6l-25 6l-6 52zM173 2l-138 -3l-5 31l94 13v614l-94 13l5 31l138 -3l129 3l5 -31l-94 -13v-615l259 3l63 133h35l-34 -179z" />
    <glyph glyph-name="ldot" unicode="&#x140;" horiz-adv-x="369" 
d="M272 452l67 4l25 -4l5 -53l-12 -44l-65 -6l-24 6l-6 52zM152 2l-112 -3l-5 31l74 9v610l-73 -2l-5 31l112 32l46 4v-675l80 -9l-5 -31z" />
    <glyph glyph-name="Lslash" unicode="&#x141;" horiz-adv-x="584" 
d="M173 2l-138 -3l-5 31l94 13v299l-94 -46v44l94 46v271l-94 13l5 31l138 -3l129 3l5 -31l-94 -13v-227l91 45v-44l-91 -45v-344l259 3l63 133h35l-34 -179z" />
    <glyph glyph-name="lslash" unicode="&#x142;" horiz-adv-x="284" 
d="M152 2l-112 -3l-5 31l74 9v317l-72 -35v38l72 35v255l-73 -2l-5 31l112 32l46 4v-281l76 37v-38l-76 -37v-356l80 -9l-5 -31z" />
    <glyph glyph-name="Nacute" unicode="&#x143;" horiz-adv-x="744" 
d="M343 766l73 132h100l-121 -132h-52zM185 43l89 -13l-6 -31l-106 3l-127 -3l-5 31l94 13v605l-89 22l5 31l96 -3l65 3l359 -523l19 -50v529l-88 13l5 31l107 -3l126 3l5 -31l-94 -13v-659h-59l-381 563l-15 61v-579z" />
    <glyph glyph-name="nacute" unicode="&#x144;" horiz-adv-x="578" 
d="M267 537l48 172h102l-120 -172h-30zM151 2l-112 -3l-5 31l74 9v371l-73 -7l-5 31l112 32l38 3l6 -85l147 98q49 0 78 -9t44.5 -29t20 -51.5t4.5 -76.5v-277l81 -9l-5 -31l-112 3l-91 -3l-5 31l53 9v290q0 42 -18 61.5t-53 19.5q-28 0 -55 -15t-54 -33l-33 -21v-302l59 -9
l-5 -31z" />
    <glyph glyph-name="Ncommaaccent" unicode="&#x145;" horiz-adv-x="744" 
d="M361 -125l-23 35v40h92v-80l-59 -106l-33 10zM185 43l89 -13l-6 -31l-106 3l-127 -3l-5 31l94 13v605l-89 22l5 31l96 -3l65 3l359 -523l19 -50v529l-88 13l5 31l107 -3l126 3l5 -31l-94 -13v-659h-59l-381 563l-15 61v-579z" />
    <glyph glyph-name="ncommaaccent" unicode="&#x146;" horiz-adv-x="578" 
d="M262 -125l-23 35v40h92v-80l-59 -106l-33 10zM151 2l-112 -3l-5 31l74 9v371l-73 -7l-5 31l112 32l38 3l6 -85l147 98q49 0 78 -9t44.5 -29t20 -51.5t4.5 -76.5v-277l81 -9l-5 -31l-112 3l-91 -3l-5 31l53 9v290q0 42 -18 61.5t-53 19.5q-28 0 -55 -15t-54 -33l-33 -21
v-302l59 -9l-5 -31z" />
    <glyph glyph-name="Ncaron" unicode="&#x147;" horiz-adv-x="744" 
d="M279 898l83 -66l10 -13l11 13l83 66h50l-104 -132h-79l-104 132h50zM185 43l89 -13l-6 -31l-106 3l-127 -3l-5 31l94 13v605l-89 22l5 31l96 -3l65 3l359 -523l19 -50v529l-88 13l5 31l107 -3l126 3l5 -31l-94 -13v-659h-59l-381 563l-15 61v-579z" />
    <glyph glyph-name="ncaron" unicode="&#x148;" horiz-adv-x="578" 
d="M176 721l91 -93l18 -20l18 20l91 93h30l-105 -172h-67l-106 172h30zM151 2l-112 -3l-5 31l74 9v371l-73 -7l-5 31l112 32l38 3l6 -85l147 98q49 0 78 -9t44.5 -29t20 -51.5t4.5 -76.5v-277l81 -9l-5 -31l-112 3l-91 -3l-5 31l53 9v290q0 42 -18 61.5t-53 19.5
q-28 0 -55 -15t-54 -33l-33 -21v-302l59 -9l-5 -31z" />
    <glyph glyph-name="napostrophe" unicode="&#x149;" horiz-adv-x="578" 
d="M117 635l-23 35v40h92v-80l-59 -106l-33 10zM151 2l-112 -3l-5 31l74 9v371l-73 -7l-5 31l112 32l38 3l6 -85l147 98q49 0 78 -9t44.5 -29t20 -51.5t4.5 -76.5v-277l81 -9l-5 -31l-112 3l-91 -3l-5 31l53 9v290q0 42 -18 61.5t-53 19.5q-28 0 -55 -15t-54 -33l-33 -21
v-302l59 -9l-5 -31z" />
    <glyph glyph-name="Eng" unicode="&#x14a;" horiz-adv-x="744" 
d="M185 43l85 -13l-5 -31l-105 3l-125 -3l-5 31l94 13v605l-90 22l5 31l97 -3l67 3l357 -523l19 -55v534l-89 13l5 31l109 -3l125 3l5 -31l-94 -13v-659l-94 -233h-120v79h71l67 131l32 23h-17l-379 563l-15 67v-585z" />
    <glyph glyph-name="eng" unicode="&#x14b;" horiz-adv-x="497" 
d="M276 -235v79h93l11 22q7 14 14 36t7 69v358q0 42 -18 61.5t-53 19.5q-28 0 -55.5 -14.5t-53.5 -32.5l-33 -22v-302l59 -9l-5 -31l-91 3l-112 -3l-5 31l74 9v371l-73 -7l-5 31l112 32l38 3l6 -85l147 98q49 0 78 -9t44.5 -29t20 -51.5t4.5 -76.5v-331q0 -35 -8.5 -62.5
t-34.5 -59.5l-83 -98h-78z" />
    <glyph glyph-name="Omacron" unicode="&#x14c;" horiz-adv-x="771" 
d="M249 852h276v-50h-276v50zM395 718q74 0 135.5 -27t105.5 -74t68.5 -112t24.5 -141q0 -165 -87.5 -259.5t-265.5 -122.5q-74 0 -135.5 27t-105.5 74t-68.5 112t-24.5 141q0 165 87 259t266 123zM140 368q0 -56 13.5 -115t44.5 -108t81 -80.5t122 -31.5q60 0 103.5 24
t71.5 65t41.5 95.5t13.5 114.5q0 54 -13.5 113.5t-44 108.5t-80 81t-122.5 32q-60 0 -104 -24t-72 -65t-41.5 -95t-13.5 -115z" />
    <glyph glyph-name="omacron" unicode="&#x14d;" horiz-adv-x="536" 
d="M126 686h276v-50h-276v50zM277 482q50 0 91 -18.5t70 -51t45 -76t16 -93.5q0 -109 -60.5 -175t-178.5 -83q-51 0 -92 18.5t-70 50.5t-45 75.5t-16 93.5q0 109 60.5 174.5t179.5 84.5zM121 236q0 -38 11 -75t32 -66t51 -46.5t68 -17.5q33 0 58 16t41.5 43t25 63t8.5 76
q0 44 -11.5 82t-33 65.5t-51.5 43.5t-66 16q-34 0 -59 -16t-41.5 -43.5t-24.5 -64t-8 -76.5z" />
    <glyph glyph-name="Obreve" unicode="&#x14e;" horiz-adv-x="771" 
d="M404 822q22 0 40 6t31.5 15t23.5 19.5t17 18.5l21 -18q-6 -8 -12.5 -21.5t-19 -29t-33 -31.5t-53.5 -29q-32 0 -55.5 11.5t-41 28.5t-30.5 36l-21 35l25 18l16 -19q10 -10 22.5 -19t29.5 -15t40 -6zM395 718q74 0 135.5 -27t105.5 -74t68.5 -112t24.5 -141
q0 -165 -87.5 -259.5t-265.5 -122.5q-74 0 -135.5 27t-105.5 74t-68.5 112t-24.5 141q0 165 87 259t266 123zM140 368q0 -56 13.5 -115t44.5 -108t81 -80.5t122 -31.5q60 0 103.5 24t71.5 65t41.5 95.5t13.5 114.5q0 54 -13.5 113.5t-44 108.5t-80 81t-122.5 32
q-60 0 -104 -24t-72 -65t-41.5 -95t-13.5 -115z" />
    <glyph glyph-name="obreve" unicode="&#x14f;" horiz-adv-x="536" 
d="M265 604q20 0 36 7.5t28 19.5t21.5 26.5t16.5 29.5l27 -18q-16 -31 -40.5 -61t-74.5 -62q-32 0 -57.5 12.5t-44.5 31.5t-31.5 40.5t-17.5 38.5l27 18q7 -15 16.5 -29.5t23 -26.5t30.5 -19.5t40 -7.5zM277 482q50 0 91 -18.5t70 -51t45 -76t16 -93.5q0 -109 -60.5 -175
t-178.5 -83q-51 0 -92 18.5t-70 50.5t-45 75.5t-16 93.5q0 109 60.5 174.5t179.5 84.5zM121 236q0 -38 11 -75t32 -66t51 -46.5t68 -17.5q33 0 58 16t41.5 43t25 63t8.5 76q0 44 -11.5 82t-33 65.5t-51.5 43.5t-66 16q-34 0 -59 -16t-41.5 -43.5t-24.5 -64t-8 -76.5z" />
    <glyph glyph-name="Ohungarumlaut" unicode="&#x150;" horiz-adv-x="771" 
d="M294 766l72 132h100l-120 -132h-52zM447 766l73 132h100l-121 -132h-52zM395 718q74 0 135.5 -27t105.5 -74t68.5 -112t24.5 -141q0 -165 -87.5 -259.5t-265.5 -122.5q-74 0 -135.5 27t-105.5 74t-68.5 112t-24.5 141q0 165 87 259t266 123zM140 368q0 -56 13.5 -115
t44.5 -108t81 -80.5t122 -31.5q60 0 103.5 24t71.5 65t41.5 95.5t13.5 114.5q0 54 -13.5 113.5t-44 108.5t-80 81t-122.5 32q-60 0 -104 -24t-72 -65t-41.5 -95t-13.5 -115z" />
    <glyph glyph-name="ohungarumlaut" unicode="&#x151;" horiz-adv-x="536" 
d="M177 537l48 174h102l-120 -174h-30zM338 537l48 174h102l-120 -174h-30zM277 482q50 0 91 -18.5t70 -51t45 -76t16 -93.5q0 -109 -60.5 -175t-178.5 -83q-51 0 -92 18.5t-70 50.5t-45 75.5t-16 93.5q0 109 60.5 174.5t179.5 84.5zM121 236q0 -38 11 -75t32 -66t51 -46.5
t68 -17.5q33 0 58 16t41.5 43t25 63t8.5 76q0 44 -11.5 82t-33 65.5t-51.5 43.5t-66 16q-34 0 -59 -16t-41.5 -43.5t-24.5 -64t-8 -76.5z" />
    <glyph glyph-name="OE" unicode="&#x152;" horiz-adv-x="945" 
d="M466 39v614l-101 3q-56 0 -98 -21t-70 -59.5t-42 -92t-14 -117.5q0 -66 20 -124.5t56 -102.5t85 -69.5t106 -25.5zM377 -8q-74 0 -135.5 26t-106 71.5t-69 108.5t-24.5 138q0 81 18.5 142.5t60.5 106.5t109.5 75t165.5 48l125 -9l367 2l9 -179h-30l-55 133l-257 3v-273
l123 4l40 105h32l-10 -121l10 -133h-32l-40 104l-123 4v-306l262 3l66 139h35l-35 -185l-368 2z" />
    <glyph glyph-name="oe" unicode="&#x153;" horiz-adv-x="836" 
d="M497 257q0 -45 12 -82.5t34.5 -64.5t55 -42.5t73.5 -15.5q26 0 56 12.5t58 31.5l13 -36q-36 -23 -82 -42.5t-91 -32.5q-54 0 -101.5 23t-79.5 68q-62 -71 -185 -91q-51 0 -92 18.5t-70 50t-45 74.5t-16 93q0 110 60.5 175t179.5 85q57 0 102.5 -24t74.5 -64
q31 35 74 56.5t96 32.5q49 0 82 -14t53 -38.5t29 -58.5t9 -73v-41h-300zM122 236q0 -38 11 -75t32 -66t51 -46.5t67 -17.5q33 0 57.5 16t41 43t25 63t8.5 76q0 44 -11.5 82t-32.5 65.5t-51 43t-66 15.5q-34 0 -58.5 -16t-41 -43t-24.5 -63.5t-8 -76.5zM702 304
q0 29 -3.5 53.5t-13 42t-27.5 27.5t-48 10q-49 0 -76.5 -39t-35.5 -104z" />
    <glyph glyph-name="Racute" unicode="&#x154;" horiz-adv-x="670" 
d="M272 766l73 132h100l-121 -132h-52zM213 322v-279l88 -13l-5 -31l-127 3l-134 -3l-5 31l94 13v614l-94 13l5 31l135 -3l168 3q50 0 93.5 -10t75 -31t49.5 -54t18 -79q0 -44 -18 -77t-46.5 -56.5t-65 -39.5t-72.5 -26l58 -38l179 -248l56 -14l-4 -29l-73 3l-66 -3
l-218 312l-11 11h-80zM213 363h72q43 0 78 12t59.5 33t37.5 50t13 62q0 36 -12 62t-32.5 43.5t-48 26.5t-59.5 9l-108 -5v-293z" />
    <glyph glyph-name="racute" unicode="&#x155;" horiz-adv-x="389" 
d="M221 537l48 172h102l-120 -172h-30zM181 344l116 133h76v-88h-65q-9 -1 -21.5 -7.5t-27 -16.5t-28.5 -22.5t-24 -25.5l-22 -27v-247l104 -9l-5 -35l-136 3l-108 -3l-5 31l74 9v371l-74 -7l-5 31l116 32l36 3z" />
    <glyph glyph-name="Rcommaaccent" unicode="&#x156;" horiz-adv-x="670" 
d="M332 -125l-23 35v40h92v-80l-59 -106l-33 10zM213 322v-279l88 -13l-5 -31l-127 3l-134 -3l-5 31l94 13v614l-94 13l5 31l135 -3l168 3q50 0 93.5 -10t75 -31t49.5 -54t18 -79q0 -44 -18 -77t-46.5 -56.5t-65 -39.5t-72.5 -26l58 -38l179 -248l56 -14l-4 -29l-73 3
l-66 -3l-218 312l-11 11h-80zM213 363h72q43 0 78 12t59.5 33t37.5 50t13 62q0 36 -12 62t-32.5 43.5t-48 26.5t-59.5 9l-108 -5v-293z" />
    <glyph glyph-name="rcommaaccent" unicode="&#x157;" horiz-adv-x="389" 
d="M128 -125l-23 35v40h92v-80l-59 -106l-33 10zM181 344l116 133h76v-88h-65q-9 -1 -21.5 -7.5t-27 -16.5t-28.5 -22.5t-24 -25.5l-22 -27v-247l104 -9l-5 -35l-136 3l-108 -3l-5 31l74 9v371l-74 -7l-5 31l116 32l36 3z" />
    <glyph glyph-name="Rcaron" unicode="&#x158;" horiz-adv-x="670" 
d="M211 898l83 -66l10 -13l11 13l83 66h50l-104 -132h-79l-104 132h50zM213 322v-279l88 -13l-5 -31l-127 3l-134 -3l-5 31l94 13v614l-94 13l5 31l135 -3l168 3q50 0 93.5 -10t75 -31t49.5 -54t18 -79q0 -44 -18 -77t-46.5 -56.5t-65 -39.5t-72.5 -26l58 -38l179 -248
l56 -14l-4 -29l-73 3l-66 -3l-218 312l-11 11h-80zM213 363h72q43 0 78 12t59.5 33t37.5 50t13 62q0 36 -12 62t-32.5 43.5t-48 26.5t-59.5 9l-108 -5v-293z" />
    <glyph glyph-name="rcaron" unicode="&#x159;" horiz-adv-x="389" 
d="M101 721l91 -93l18 -20l18 20l91 93h30l-105 -172h-67l-106 172h30zM181 344l116 133h76v-88h-65q-9 -1 -21.5 -7.5t-27 -16.5t-28.5 -22.5t-24 -25.5l-22 -27v-247l104 -9l-5 -35l-136 3l-108 -3l-5 31l74 9v371l-74 -7l-5 31l116 32l36 3z" />
    <glyph glyph-name="Sacute" unicode="&#x15a;" horiz-adv-x="563" 
d="M267 766l73 132h100l-121 -132h-52zM143 93q23 -28 62.5 -45t81.5 -17q69 0 106 39t37 96q0 28 -8.5 49.5t-23.5 38.5t-35 29.5t-42 21.5l-120 51q-26 10 -49.5 24.5t-41 34t-28 45t-10.5 58.5q0 43 19 76t51 57.5t74 41t88 25.5q45 0 92 -15t83 -43v-128h-43l-29 91
q-19 20 -45 33.5t-73 13.5q-61 0 -95.5 -31t-34.5 -86q0 -45 28 -73t71 -46l110 -45q25 -11 51.5 -26t47.5 -36.5t34 -52t13 -70.5q0 -33 -11.5 -66.5t-39.5 -63.5t-75 -54t-118 -38q-72 0 -119.5 18t-85.5 50l-22 126h65z" />
    <glyph glyph-name="sacute" unicode="&#x15b;" horiz-adv-x="419" 
d="M191 537l48 172h102l-120 -172h-30zM293 418q-6 2 -27.5 10.5t-48.5 8.5q-14 0 -28 -4t-25 -12t-18 -19.5t-7 -27.5q0 -25 18.5 -42t50.5 -34l78 -40q52 -26 72.5 -56t20.5 -72q0 -33 -13 -56.5t-37 -40t-57.5 -28t-74.5 -20.5q-25 0 -48.5 5.5t-43.5 13t-35 15.5t-22 13
l-19 103h63l37 -85q15 -8 35 -13.5t44 -5.5q43 0 63.5 24.5t20.5 57.5q0 31 -18 49t-58 39l-81 42q-14 7 -28.5 17.5t-25.5 25t-18 31.5t-7 38q0 52 48 81.5t126 45.5q16 0 35.5 -4.5t38.5 -11t35.5 -15t28.5 -17.5v-91h-52z" />
    <glyph glyph-name="Scircumflex" unicode="&#x15c;" horiz-adv-x="563" 
d="M166 766l105 132h78l105 -132h-50l-83 67l-12 12l-10 -12l-83 -67h-50zM143 93q23 -28 62.5 -45t81.5 -17q69 0 106 39t37 96q0 28 -8.5 49.5t-23.5 38.5t-35 29.5t-42 21.5l-120 51q-26 10 -49.5 24.5t-41 34t-28 45t-10.5 58.5q0 43 19 76t51 57.5t74 41t88 25.5
q45 0 92 -15t83 -43v-128h-43l-29 91q-19 20 -45 33.5t-73 13.5q-61 0 -95.5 -31t-34.5 -86q0 -45 28 -73t71 -46l110 -45q25 -11 51.5 -26t47.5 -36.5t34 -52t13 -70.5q0 -33 -11.5 -66.5t-39.5 -63.5t-75 -54t-118 -38q-72 0 -119.5 18t-85.5 50l-22 126h65z" />
    <glyph glyph-name="scircumflex" unicode="&#x15d;" horiz-adv-x="419" 
d="M86 537l105 172h67l105 -172h-30l-90 93l-18 20l-19 -20l-90 -93h-30zM293 418q-6 2 -27.5 10.5t-48.5 8.5q-14 0 -28 -4t-25 -12t-18 -19.5t-7 -27.5q0 -25 18.5 -42t50.5 -34l78 -40q52 -26 72.5 -56t20.5 -72q0 -33 -13 -56.5t-37 -40t-57.5 -28t-74.5 -20.5
q-25 0 -48.5 5.5t-43.5 13t-35 15.5t-22 13l-19 103h63l37 -85q15 -8 35 -13.5t44 -5.5q43 0 63.5 24.5t20.5 57.5q0 31 -18 49t-58 39l-81 42q-14 7 -28.5 17.5t-25.5 25t-18 31.5t-7 38q0 52 48 81.5t126 45.5q16 0 35.5 -4.5t38.5 -11t35.5 -15t28.5 -17.5v-91h-52z" />
    <glyph glyph-name="Scedilla" unicode="&#x15e;" horiz-adv-x="563" 
d="M143 93q23 -28 62.5 -45t81.5 -17q69 0 106 39t37 96q0 28 -8.5 49.5t-23.5 38.5t-35 29.5t-42 21.5l-120 51q-26 10 -49.5 24.5t-41 34t-28 45t-10.5 58.5q0 43 19 76t51 57.5t74 41t88 25.5q45 0 92 -15t83 -43v-128h-43l-29 91q-19 20 -45 33.5t-73 13.5
q-61 0 -95.5 -31t-34.5 -86q0 -45 28 -73t71 -46l110 -45q25 -11 51.5 -26t47.5 -36.5t34 -52t13 -70.5q0 -32 -11 -64.5t-37 -61.5t-69.5 -53t-108.5 -39l-25 -33q14 0 28.5 -4.5t26 -12.5t19 -21t7.5 -29q0 -23 -8.5 -41t-21 -31.5t-28 -22.5t-29.5 -13l-51 -16h-57l29 38
h76q16 10 23.5 26.5t7.5 33.5t-8 28.5t-20 18.5t-27 10t-29 3l50 63q-63 2 -106.5 19.5t-79.5 47.5l-22 126h65z" />
    <glyph glyph-name="scedilla" unicode="&#x15f;" horiz-adv-x="419" 
d="M293 418q-6 2 -27.5 10.5t-48.5 8.5q-14 0 -28 -4t-25 -12t-18 -19.5t-7 -27.5q0 -25 18.5 -42t50.5 -34l78 -40q52 -26 72.5 -56t20.5 -72q0 -58 -39.5 -88.5t-104.5 -47.5l-27 -41q13 0 27.5 -4.5t26.5 -12.5t19.5 -21t7.5 -29q0 -23 -8.5 -41t-21.5 -31.5t-28.5 -22.5
t-28.5 -13l-51 -16h-57l29 38h76q15 10 23 26.5t8 33.5t-8 28.5t-20 18.5t-27 10t-29 3l48 65q-23 1 -46 6.5t-42.5 12.5t-34.5 15t-23 13l-19 103h63l37 -85q15 -8 35 -13.5t44 -5.5q43 0 63.5 24.5t20.5 57.5q0 31 -18 49t-58 39l-81 42q-14 7 -28.5 17.5t-25.5 25
t-18 31.5t-7 38q0 52 48 81.5t126 45.5q16 0 35.5 -4.5t38.5 -11t35.5 -15t28.5 -17.5v-91h-52z" />
    <glyph glyph-name="Scaron" unicode="&#x160;" horiz-adv-x="563" 
d="M216 898l83 -66l10 -13l11 13l83 66h50l-104 -132h-79l-104 132h50zM143 93q23 -28 62.5 -45t81.5 -17q69 0 106 39t37 96q0 28 -8.5 49.5t-23.5 38.5t-35 29.5t-42 21.5l-120 51q-26 10 -49.5 24.5t-41 34t-28 45t-10.5 58.5q0 43 19 76t51 57.5t74 41t88 25.5
q45 0 92 -15t83 -43v-128h-43l-29 91q-19 20 -45 33.5t-73 13.5q-61 0 -95.5 -31t-34.5 -86q0 -45 28 -73t71 -46l110 -45q25 -11 51.5 -26t47.5 -36.5t34 -52t13 -70.5q0 -33 -11.5 -66.5t-39.5 -63.5t-75 -54t-118 -38q-72 0 -119.5 18t-85.5 50l-22 126h65z" />
    <glyph glyph-name="scaron" unicode="&#x161;" horiz-adv-x="419" 
d="M113 721l91 -93l18 -20l18 20l91 93h30l-106 -172h-66l-106 172h30zM293 418q-6 2 -27.5 10.5t-48.5 8.5q-14 0 -28 -4t-25 -12t-18 -19.5t-7 -27.5q0 -25 18.5 -42t50.5 -34l78 -40q52 -26 72.5 -56t20.5 -72q0 -33 -13 -56.5t-37 -40t-57.5 -28t-74.5 -20.5
q-25 0 -48.5 5.5t-43.5 13t-35 15.5t-22 13l-19 103h63l37 -85q15 -8 35 -13.5t44 -5.5q43 0 63.5 24.5t20.5 57.5q0 31 -18 49t-58 39l-81 42q-14 7 -28.5 17.5t-25.5 25t-18 31.5t-7 38q0 52 48 81.5t126 45.5q16 0 35.5 -4.5t38.5 -11t35.5 -15t28.5 -17.5v-91h-52z" />
    <glyph glyph-name="Tcommaaccent" unicode="&#x162;" horiz-adv-x="597" 
d="M275 -125l-23 35v40h92v-80l-59 -106l-33 10zM456 -1l-157 3l-164 -3l-5 31l124 13v613l-159 -1l-45 -123h-35v169l281 -3l286 3v-169h-35l-45 123l-159 1v-613l118 -13z" />
    <glyph glyph-name="tcommaaccent" unicode="&#x163;" horiz-adv-x="341" 
d="M154 -125l-23 35v40h92v-80l-59 -106l-33 10zM5 415v17l34 33h69v64l56 62h19v-134h156v-42h-155v-301q0 -10 2 -20.5t8 -19t16.5 -14t27.5 -5.5q22 0 40 6.5t39 16.5l15 -30l-111 -63q-45 0 -69 8t-34.5 24t-12 39.5t-1.5 55.5v303h-99z" />
    <glyph glyph-name="Tcaron" unicode="&#x164;" horiz-adv-x="597" 
d="M203 898l83 -66l11 -13l11 13l83 66h50l-104 -132h-79l-105 132h50zM456 -1l-157 3l-164 -3l-5 31l124 13v613l-159 -1l-45 -123h-35v169l281 -3l286 3v-169h-35l-45 123l-159 1v-613l118 -13z" />
    <glyph glyph-name="tcaron" unicode="&#x165;" horiz-adv-x="341" 
d="M258 635l-23 35v40h92v-80l-59 -106l-33 10zM5 415v17l34 33h69v64l56 62h19v-134h156v-42h-155v-301q0 -10 2 -20.5t8 -19t16.5 -14t27.5 -5.5q22 0 40 6.5t39 16.5l15 -30l-111 -63q-45 0 -69 8t-34.5 24t-12 39.5t-1.5 55.5v303h-99z" />
    <glyph glyph-name="Tbar" unicode="&#x166;" horiz-adv-x="597" 
d="M456 -1l-157 3l-164 -3l-5 31l124 13v393h-104v36h104v184l-159 -1l-45 -123h-35v169l281 -3l286 3v-169h-35l-45 123l-159 1v-184h103v-36h-103v-393l118 -13z" />
    <glyph glyph-name="tbar" unicode="&#x167;" horiz-adv-x="341" 
d="M5 415v17l34 33h69v64l56 62h19v-134h156v-42h-155v-85h128v-37h-128v-179q0 -10 2 -20.5t8 -19t16.5 -14t27.5 -5.5q22 0 40 6.5t39 16.5l15 -30l-111 -63q-45 0 -69 8t-34.5 24t-12 39.5t-1.5 55.5v181h-91v37h91v85h-99z" />
    <glyph glyph-name="Utilde" unicode="&#x168;" horiz-adv-x="717" 
d="M248 860l75 22l149 -50l37 54h22l-22 -89l-75 -23l-149 50l-37 -54h-22zM446 670l5 31l128 -3l118 3l5 -31l-87 -13v-414q0 -49 -11.5 -89.5t-40 -72.5t-77 -57t-123.5 -42q-70 0 -118.5 19t-78.5 54t-43.5 83.5t-13.5 108.5v410l-94 13l5 31l139 -3l129 3l5 -31l-89 -13
v-430q0 -95 41 -146t129 -51q79 0 121.5 51t42.5 149v427z" />
    <glyph glyph-name="utilde" unicode="&#x169;" horiz-adv-x="558" 
d="M151 675l75 22l151 -57l29 55h28l-23 -95l-74 -17l-152 57l-28 -55h-28zM464 129q0 -34 3 -49.5t8 -27.5h53l4 -31l-117 -24l-28 79l-147 -91q-51 0 -80.5 10t-45.5 30t-20.5 51.5t-4.5 74.5v259l-75 -5l-5 36l116 25l43 4v-335q0 -42 18 -60t56 -18q26 0 57.5 17.5
t63.5 38.5l21 13v284l-63 -5l-5 36l105 25l43 4v-341z" />
    <glyph glyph-name="Umacron" unicode="&#x16a;" horiz-adv-x="717" 
d="M228 852h276v-50h-276v50zM446 670l5 31l128 -3l118 3l5 -31l-87 -13v-414q0 -49 -11.5 -89.5t-40 -72.5t-77 -57t-123.5 -42q-70 0 -118.5 19t-78.5 54t-43.5 83.5t-13.5 108.5v410l-94 13l5 31l139 -3l129 3l5 -31l-89 -13v-430q0 -95 41 -146t129 -51q79 0 121.5 51
t42.5 149v427z" />
    <glyph glyph-name="umacron" unicode="&#x16b;" horiz-adv-x="558" 
d="M136 686h276v-50h-276v50zM464 129q0 -34 3 -49.5t8 -27.5h53l4 -31l-117 -24l-28 79l-147 -91q-51 0 -80.5 10t-45.5 30t-20.5 51.5t-4.5 74.5v259l-75 -5l-5 36l116 25l43 4v-335q0 -42 18 -60t56 -18q26 0 57.5 17.5t63.5 38.5l21 13v284l-63 -5l-5 36l105 25l43 4
v-341z" />
    <glyph glyph-name="Ubreve" unicode="&#x16c;" horiz-adv-x="717" 
d="M364 810q22 0 40 7.5t31.5 18t23.5 23t17 22.5l21 -18q-6 -8 -12.5 -21.5t-19 -29t-33 -31.5t-53.5 -29q-32 0 -55.5 11.5t-41 28.5t-29.5 36l-22 35l25 18l17 -23q9 -12 21.5 -22.5t29.5 -18t40 -7.5zM446 670l5 31l128 -3l118 3l5 -31l-87 -13v-414q0 -49 -11.5 -89.5
t-40 -72.5t-77 -57t-123.5 -42q-70 0 -118.5 19t-78.5 54t-43.5 83.5t-13.5 108.5v410l-94 13l5 31l139 -3l129 3l5 -31l-89 -13v-430q0 -95 41 -146t129 -51q79 0 121.5 51t42.5 149v427z" />
    <glyph glyph-name="ubreve" unicode="&#x16d;" horiz-adv-x="558" 
d="M273 604q20 0 36 7.5t28.5 19.5t22 26.5t16.5 29.5l27 -18q-16 -31 -41 -61t-75 -62q-32 0 -57.5 12.5t-44.5 31.5t-31.5 40.5t-16.5 38.5l27 18q7 -15 16.5 -29.5t22.5 -26.5t30 -19.5t40 -7.5zM464 129q0 -34 3 -49.5t8 -27.5h53l4 -31l-117 -24l-28 79l-147 -91
q-51 0 -80.5 10t-45.5 30t-20.5 51.5t-4.5 74.5v259l-75 -5l-5 36l116 25l43 4v-335q0 -42 18 -60t56 -18q26 0 57.5 17.5t63.5 38.5l21 13v284l-63 -5l-5 36l105 25l43 4v-341z" />
    <glyph glyph-name="Uring" unicode="&#x16e;" horiz-adv-x="717" 
d="M467 837q0 -22 -8.5 -37t-22.5 -25.5t-32 -16.5l-36 -13q-18 0 -35.5 5t-31.5 15.5t-23 27t-9 39.5q0 22 8.5 37.5t22.5 25.5t32 16.5t36 11.5q17 0 34.5 -5t32 -15.5t23.5 -27t9 -38.5zM311 834q0 -26 15.5 -41.5t41.5 -15.5t42 15.5t16 41.5t-16 41.5t-42 15.5
t-41.5 -15.5t-15.5 -41.5zM446 670l5 31l128 -3l118 3l5 -31l-87 -13v-414q0 -49 -11.5 -89.5t-40 -72.5t-77 -57t-123.5 -42q-70 0 -118.5 19t-78.5 54t-43.5 83.5t-13.5 108.5v410l-94 13l5 31l139 -3l129 3l5 -31l-89 -13v-430q0 -95 41 -146t129 -51q79 0 121.5 51
t42.5 149v427z" />
    <glyph glyph-name="uring" unicode="&#x16f;" horiz-adv-x="558" 
d="M373 624q0 -24 -7.5 -37.5t-20.5 -22t-30.5 -14t-37.5 -13.5q-18 0 -36 4t-32.5 14t-23 27t-8.5 42q0 22 8.5 37.5t22 25.5t31 16.5t35.5 11.5q42 0 70.5 -19.5t28.5 -71.5zM220 624q0 -23 16 -37t39 -14t39.5 14t16.5 37t-16.5 39t-39.5 16t-39 -16t-16 -39zM464 129
q0 -34 3 -49.5t8 -27.5h53l4 -31l-117 -24l-28 79l-147 -91q-51 0 -80.5 10t-45.5 30t-20.5 51.5t-4.5 74.5v259l-75 -5l-5 36l116 25l43 4v-335q0 -42 18 -60t56 -18q26 0 57.5 17.5t63.5 38.5l21 13v284l-63 -5l-5 36l105 25l43 4v-341z" />
    <glyph glyph-name="Uhungarumlaut" unicode="&#x170;" horiz-adv-x="717" 
d="M265 766l72 132h100l-120 -132h-52zM418 766l73 132h100l-121 -132h-52zM446 670l5 31l128 -3l118 3l5 -31l-87 -13v-414q0 -49 -11.5 -89.5t-40 -72.5t-77 -57t-123.5 -42q-70 0 -118.5 19t-78.5 54t-43.5 83.5t-13.5 108.5v410l-94 13l5 31l139 -3l129 3l5 -31l-89 -13
v-430q0 -95 41 -146t129 -51q79 0 121.5 51t42.5 149v427z" />
    <glyph glyph-name="uhungarumlaut" unicode="&#x171;" horiz-adv-x="558" 
d="M174 537l49 174h102l-121 -174h-30zM335 537l49 174h102l-121 -174h-30zM464 129q0 -34 3 -49.5t8 -27.5h53l4 -31l-117 -24l-28 79l-147 -91q-51 0 -80.5 10t-45.5 30t-20.5 51.5t-4.5 74.5v259l-75 -5l-5 36l116 25l43 4v-335q0 -42 18 -60t56 -18q26 0 57.5 17.5
t63.5 38.5l21 13v284l-63 -5l-5 36l105 25l43 4v-341z" />
    <glyph glyph-name="Uogonek" unicode="&#x172;" horiz-adv-x="717" 
d="M446 670l5 31l128 -3l118 3l5 -31l-87 -13v-414q0 -40 -8 -74.5t-26.5 -64t-50 -53t-79.5 -41.5l-75 -134v-21q0 -20 6.5 -32t17 -19t24 -9.5t28.5 -2.5v-30q-85 0 -121.5 25t-36.5 76v40l92 87q1 1 -3 0t-9 -2t-9 -1.5t-2 -0.5q-70 0 -118.5 19t-78.5 53t-43.5 82
t-13.5 107v410l-94 13l5 31l139 -3l129 3l5 -31l-89 -13v-430q0 -92 41 -142.5t129 -50.5q79 0 121.5 50t42.5 146v427z" />
    <glyph glyph-name="uogonek" unicode="&#x173;" horiz-adv-x="558" 
d="M380 -145q0 -20 7.5 -32t20.5 -19t29 -9.5t34 -2.5v-30q-94 0 -133.5 25t-39.5 76v38l116 97l-27 78l-147 -91q-51 0 -80.5 10t-45.5 30t-20.5 51.5t-4.5 74.5v259l-75 -5l-5 36l116 25l43 4v-335q0 -42 18 -60t56 -18q26 0 57.5 17.5t63.5 38.5l21 13v284l-63 -5l-5 36
l105 25l43 4v-341q0 -34 3 -49.5t8 -27.5h53l4 -31l-84 -17l-68 -128v-21z" />
    <glyph glyph-name="Wcircumflex" unicode="&#x174;" horiz-adv-x="969" 
d="M571 766l-83 67l-12 12l-10 -12l-83 -67h-50l105 132h78l105 -132h-50zM632 -14l-139 422l-3 56l-142 -454l-61 -24l-219 673l-57 11l5 31l107 -3l123 3l5 -31l-89 -13l155 -512l3 -51l133 445l-40 120l-67 11l5 31l116 -3l124 3l5 -31l-89 -13l155 -512l2 -50l172 564
l-88 11l5 31l119 -3l81 3l5 -31l-56 -11l-209 -649z" />
    <glyph glyph-name="wcircumflex" unicode="&#x175;" horiz-adv-x="827" 
d="M275 537l105 172h67l106 -172h-30l-91 93l-18 20l-18 -20l-91 -93h-30zM420 277l-5 65l-120 -325l-71 -31l-153 441l-66 10l5 31l104 -3l91 3l5 -31l-59 -10l103 -310l8 -53l119 327l-13 36l-42 10l5 31l80 -3l90 3l5 -31l-58 -10l103 -310l8 -53l130 363l-46 10l5 31
l67 -3l102 3l5 -31l-66 -10l-164 -410l-71 -31z" />
    <glyph glyph-name="Ycircumflex" unicode="&#x176;" horiz-adv-x="707" 
d="M462 766l-83 67l-11 12l-11 -12l-83 -67h-50l105 132h79l104 -132h-50zM400 270l2 -227l117 -13l-5 -31l-156 3l-163 -3l-5 31l123 13v232l-226 385l-82 11l5 30l135 -3l127 3l5 -30l-89 -13l176 -297l10 -35l172 332l-91 13l5 30l122 -3l115 3l5 -29l-82 -10z" />
    <glyph glyph-name="ycircumflex" unicode="&#x177;" horiz-adv-x="534" 
d="M137 537l106 172h66l106 -172h-30l-91 93l-18 20l-18 -20l-91 -93h-30zM84 -235v89h76l98 156l-23 -7l-164 424l-66 10l5 31l109 -3l102 3l5 -31l-70 -10l109 -304l7 -64l124 368l-46 10l5 31l86 -3l83 3l5 -31l-66 -10l-160 -413l-111 -249h-108z" />
    <glyph glyph-name="Ydieresis" unicode="&#x178;" horiz-adv-x="707" 
d="M240 867l56 5l23 -5l5 -44l-10 -39l-55 -4l-23 4l-4 46zM456 867l56 5l23 -5l5 -44l-10 -39l-55 -4l-23 4l-4 46zM400 270l2 -227l117 -13l-5 -31l-156 3l-163 -3l-5 31l123 13v232l-226 385l-82 11l5 30l135 -3l127 3l5 -30l-89 -13l176 -297l10 -35l172 332l-91 13
l5 30l122 -3l115 3l5 -29l-82 -10z" />
    <glyph glyph-name="Zacute" unicode="&#x179;" horiz-adv-x="570" 
d="M250 766l72 132h100l-120 -132h-52zM511 178h44l-34 -178h-491l-9 49l390 575l37 35l-308 -5l-45 -124h-40v170h468l10 -44l-392 -578l-37 -37l343 5z" />
    <glyph glyph-name="zacute" unicode="&#x17a;" horiz-adv-x="462" 
d="M215 537l49 172h102l-121 -172h-30zM49 0l-11 29l268 371l37 30l-209 -4l-32 -87h-36v128h349l14 -29l-272 -377l-32 -24l218 3l55 93h39l-28 -133h-360z" />
    <glyph glyph-name="Zdotaccent" unicode="&#x17b;" horiz-adv-x="570" 
d="M247 878l72 5l23 -5l4 -53l-10 -46l-72 -5l-21 5l-6 53zM511 178h44l-34 -178h-491l-9 49l390 575l37 35l-308 -5l-45 -124h-40v170h468l10 -44l-392 -578l-37 -37l343 5z" />
    <glyph glyph-name="zdotaccent" unicode="&#x17c;" horiz-adv-x="462" 
d="M211 701l73 5l22 -5l5 -53l-10 -45l-73 -6l-20 6l-6 53zM49 0l-11 29l268 371l37 30l-209 -4l-32 -87h-36v128h349l14 -29l-272 -377l-32 -24l218 3l55 93h39l-28 -133h-360z" />
    <glyph glyph-name="Zcaron" unicode="&#x17d;" horiz-adv-x="570" 
d="M438 898l-104 -132h-79l-105 132h50l83 -66l11 -13l11 13l83 66h50zM511 178h44l-34 -178h-491l-9 49l390 575l37 35l-308 -5l-45 -124h-40v170h468l10 -44l-392 -578l-37 -37l343 5z" />
    <glyph glyph-name="zcaron" unicode="&#x17e;" horiz-adv-x="462" 
d="M131 723l90 -93l18 -20l19 20l90 93h30l-105 -172h-67l-105 172h30zM49 0l-11 29l268 371l37 30l-209 -4l-32 -87h-36v128h349l14 -29l-272 -377l-32 -24l218 3l55 93h39l-28 -133h-360z" />
    <glyph glyph-name="longs" unicode="&#x17f;" horiz-adv-x="348" 
d="M196 39l119 -5l-5 -35l-144 3l-119 -3l-5 31l74 9v377h-90v16l28 33h62v9q0 47 14 79t40 64l77 93h122v-74h-130l-20 -28q-11 -14 -17 -38.5t-6 -77.5v-453z" />
    <glyph glyph-name="florin" unicode="&#x192;" horiz-adv-x="312" 
d="M86 416h-90v16l28 33h62v9q0 47 13.5 79t39.5 64l78 93h122v-68h-125l-24 -31q-5 -7 -9.5 -15.5t-7.5 -21.5t-5 -31.5t-2 -44.5v-38h124v-44h-124v-431q0 -35 -8.5 -63t-33.5 -59l-85 -98h-60v73h66l17 22q11 13 17.5 36.5t6.5 68.5v451z" />
    <glyph glyph-name="Aringacute" unicode="&#x1fa;" horiz-adv-x="747" 
d="M360 726q-18 0 -35.5 4.5t-31.5 15t-22.5 26t-8.5 38.5q0 22 8.5 37t22 25t31.5 16.5t36 11.5l52 58h66l-86 -61q27 -7 47.5 -27t20.5 -55q0 -21 -8.5 -36t-23 -25t-32.5 -16.5t-36 -11.5zM298 813q0 -25 18 -42.5t44 -17.5t44 17.5t18 42.5q0 26 -18 42t-44 16t-44 -16
t-18 -42zM232 237l-68 -194l90 -13l-5 -31l-124 3l-109 -3l-5 31l83 11l254 654l37 14l270 -668l81 -11l-5 -31l-125 3l-136 -3l-5 31l89 13l-72 194h-250zM366 545l-8 53l-111 -317h218z" />
    <glyph glyph-name="aringacute" unicode="&#x1fb;" horiz-adv-x="444" 
d="M323 629q0 -22 -8.5 -37t-22.5 -25.5t-32 -16.5l-36 -13q-18 0 -35.5 5t-31.5 15.5t-23 27t-9 39.5q0 22 8.5 37.5t22.5 25.5t31.5 16.5t35.5 11.5l22 43h100l-70 -54q20 -9 34 -27.5t14 -47.5zM167 626q0 -26 15.5 -41.5t41.5 -15.5t42 15.5t16 41.5t-16 41.5t-42 15.5
t-41.5 -15.5t-15.5 -41.5zM288 238l-159 -66q-11 -11 -15 -24t-4 -29q0 -39 19 -54t42 -15t41 10.5t28 17.5l48 33v127zM218 482q46 0 75 -6.5t45.5 -24.5t22.5 -49.5t6 -80.5v-196q0 -33 5 -48.5t13 -26.5h51l3 -31l-115 -22l-30 76l-121 -88q-63 0 -103 33t-40 93
q0 26 8 45.5t24 43.5l226 76v48q0 22 -1.5 40.5t-7.5 32t-18.5 21t-34.5 7.5t-46.5 -6t-42.5 -13l-18 -72h-73v70z" />
    <glyph glyph-name="AEacute" unicode="&#x1fc;" horiz-adv-x="1002" 
d="M544 766l73 132h100l-121 -132h-52zM523 354v298l-177 -298h177zM157 43l79 -13l-5 -31l-112 3l-109 -3l-5 31l82 11l426 660l57 -3l371 3l10 -179h-31l-54 133l-252 3v-303l123 4l40 105h32l-10 -121l10 -133h-32l-40 104l-123 4v-276l262 3l66 138h35l-35 -184l-370 3
l-138 -3l-5 31l94 13v273h-199z" />
    <glyph glyph-name="aeacute" unicode="&#x1fd;" horiz-adv-x="696" 
d="M348 537l48 172h102l-120 -172h-30zM357 257q0 -45 12 -82.5t34.5 -64.5t55 -42.5t73.5 -15.5q26 0 55.5 12.5t58.5 31.5l13 -36q-36 -23 -82 -42.5t-91 -32.5q-54 0 -103 24t-81 72l-127 -96q-31 0 -57.5 8.5t-46 24.5t-30.5 38.5t-11 49.5q0 30 8 50t24 44l217 76v48
q0 21 -1.5 39.5t-6.5 32t-16.5 21.5t-30.5 8q-25 0 -47 -5.5t-39 -13.5l-18 -76h-75v74l172 78q57 0 86.5 -13t43.5 -46q28 21 62 35.5t75 23.5q48 0 81.5 -14t53.5 -38.5t29 -58.5t9 -73v-41h-300zM562 304q0 29 -3.5 53.5t-13 42t-27.5 27.5t-48 10q-49 0 -76.5 -39
t-35.5 -104zM280 240l-151 -66q-11 -11 -15 -25t-4 -34q0 -36 19.5 -51.5t42.5 -15.5q20 0 38.5 11.5t26.5 17.5l43 32v131z" />
    <glyph glyph-name="Oslashacute" unicode="&#x1fe;" horiz-adv-x="771" 
d="M395 718q57 0 107 -16.5t91 -46.5l45 60h50l-65 -85q51 -48 78.5 -116.5t27.5 -149.5q0 -165 -87.5 -259.5t-265.5 -122.5q-57 0 -106.5 16t-90.5 45l-44 -58h-52l64 85q-50 48 -77.5 116t-27.5 150q0 165 87 259t266 123zM140 368q0 -57 14 -117.5t47 -110.5l344 452
q-31 34 -74 54.5t-100 20.5q-60 0 -104 -24t-72 -65t-41.5 -95t-13.5 -115zM631 332q0 56 -14.5 116.5t-46.5 110.5l-343 -452q31 -34 73.5 -54t100.5 -20q60 0 103.5 24t71.5 65t41.5 95.5t13.5 114.5zM350 766l73 132h100l-121 -132h-52z" />
    <glyph glyph-name="oslashacute" unicode="&#x1ff;" horiz-adv-x="536" 
d="M277 482q38 0 71.5 -11.5t59.5 -31.5l32 39h47l-52 -63q31 -32 47.5 -76.5t16.5 -95.5q0 -109 -60.5 -175t-178.5 -83q-42 0 -76.5 12t-61.5 34l-34 -41h-49l55 67q-57 66 -57 166q0 109 60.5 174.5t179.5 84.5zM416 229q0 36 -8 67.5t-22 57.5l-217 -265
q21 -26 49.5 -42t64.5 -16q33 0 58 16t41.5 43t25 63t8.5 76zM121 236q0 -30 6.5 -59t20.5 -55l216 263q-21 24 -49 37.5t-61 13.5q-34 0 -59 -16t-41.5 -43.5t-24.5 -64t-8 -76.5zM282 537l48 172h102l-120 -172h-30z" />
    <glyph glyph-name="Scommaaccent" unicode="&#x218;" horiz-adv-x="563" 
d="M261 -125l-23 35v40h92v-80l-59 -106l-33 10zM143 93q23 -28 62.5 -45t81.5 -17q69 0 106 39t37 96q0 28 -8.5 49.5t-23.5 38.5t-35 29.5t-42 21.5l-120 51q-26 10 -49.5 24.5t-41 34t-28 45t-10.5 58.5q0 43 19 76t51 57.5t74 41t88 25.5q45 0 92 -15t83 -43v-128h-43
l-29 91q-19 20 -45 33.5t-73 13.5q-61 0 -95.5 -31t-34.5 -86q0 -45 28 -73t71 -46l110 -45q25 -11 51.5 -26t47.5 -36.5t34 -52t13 -70.5q0 -33 -11.5 -66.5t-39.5 -63.5t-75 -54t-118 -38q-72 0 -119.5 18t-85.5 50l-22 126h65z" />
    <glyph glyph-name="scommaaccent" unicode="&#x219;" horiz-adv-x="419" 
d="M190 -125l-23 35v40h92v-80l-59 -106l-33 10zM293 418q-6 2 -27.5 10.5t-48.5 8.5q-14 0 -28 -4t-25 -12t-18 -19.5t-7 -27.5q0 -25 18.5 -42t50.5 -34l78 -40q52 -26 72.5 -56t20.5 -72q0 -33 -13 -56.5t-37 -40t-57.5 -28t-74.5 -20.5q-25 0 -48.5 5.5t-43.5 13
t-35 15.5t-22 13l-19 103h63l37 -85q15 -8 35 -13.5t44 -5.5q43 0 63.5 24.5t20.5 57.5q0 31 -18 49t-58 39l-81 42q-14 7 -28.5 17.5t-25.5 25t-18 31.5t-7 38q0 52 48 81.5t126 45.5q16 0 35.5 -4.5t38.5 -11t35.5 -15t28.5 -17.5v-91h-52z" />
    <glyph glyph-name="uni021A" unicode="&#x21a;" horiz-adv-x="597" 
d="M275 -125l-23 35v40h92v-80l-59 -106l-33 10zM456 -1l-157 3l-164 -3l-5 31l124 13v613l-159 -1l-45 -123h-35v169l281 -3l286 3v-169h-35l-45 123l-159 1v-613l118 -13z" />
    <glyph glyph-name="uni021B" unicode="&#x21b;" horiz-adv-x="341" 
d="M154 -125l-23 35v40h92v-80l-59 -106l-33 10zM5 415v17l34 33h69v64l56 62h19v-134h156v-42h-155v-301q0 -10 2 -20.5t8 -19t16.5 -14t27.5 -5.5q22 0 40 6.5t39 16.5l15 -30l-111 -63q-45 0 -69 8t-34.5 24t-12 39.5t-1.5 55.5v303h-99z" />
    <glyph glyph-name="hsuperior" unicode="&#x2b0;" horiz-adv-x="395" 
d="M153 433l28 -6l-3 -28l-63 2l-72 -2l-3 28l35 6v316l-37 -1l-3 28l83 15l35 1v-171l90 51q54 0 73 -18t19 -67v-154l38 -6l-3 -28l-72 2l-64 -2l-3 28l25 6v150q0 31 -32 31q-14 0 -28 -6t-28 -14l-15 -8v-153z" />
    <glyph glyph-name="jsuperior" unicode="&#x2b2;" horiz-adv-x="180" 
d="M64 783l54 3l18 -3l4 -38l-8 -33l-52 -3l-18 3l-4 38zM51 348q3 9 6 25t3 46v205l-37 -1l-3 27l82 14l35 2v-238q0 -43 -16.5 -69t-33.5 -42l-51 -46h-51v66h62z" />
    <glyph glyph-name="wsuperior" unicode="&#x2b7;" horiz-adv-x="521" 
d="M268 535l-4 39l-67 -167l-61 -15l-99 239l-32 7l3 27l74 -2l62 2l3 -27l-30 -7l55 -139l4 -44l65 155l-12 28l-24 7l3 27l67 -2l62 2l3 -27l-30 -7l54 -139l5 -44l70 183l-28 7l3 27l48 -2l51 2l3 -27l-36 -7l-91 -224l-61 -15z" />
    <glyph glyph-name="ysuperior" unicode="&#x2b8;" horiz-adv-x="340" 
d="M54 271v77h66l60 72l-46 -16l-97 228l-32 6l3 27l77 -2l67 2l3 -27l-34 -6l59 -140l7 -48l65 187l-29 6l3 28l55 -2l51 2l3 -28l-35 -6l-91 -216l-67 -144h-88z" />
    <glyph glyph-name="apostrophemod" unicode="&#x2bc;" horiz-adv-x="178" 
d="M51 610l-5 52l5 44l67 4l29 -4l4 -51l-4 -45l-62 -140l-33 13q6 13 12 30.5t11 34.5t8.5 32.5t3.5 25.5z" />
    <glyph glyph-name="circumflex" unicode="&#x2c6;" horiz-adv-x="500" 
d="M103 537l108 172h61l108 -172h-30l-108 91l-109 -91h-30z" />
    <glyph glyph-name="caron" unicode="&#x2c7;" horiz-adv-x="500" 
d="M133 723l109 -93l108 93h30l-108 -174h-61l-108 174h30z" />
    <glyph glyph-name="breve" unicode="&#x2d8;" horiz-adv-x="500" 
d="M248 619q22 0 39 7.5t29.5 19t21.5 24.5l16 25l27 -18q-6 -9 -12.5 -24.5t-19 -34t-33 -37.5t-53.5 -35q-32 0 -55.5 13.5t-41 34t-30 43t-21.5 40.5l27 18l16 -25q9 -13 21.5 -24.5t29 -19t39.5 -7.5z" />
    <glyph glyph-name="dotaccent" unicode="&#x2d9;" horiz-adv-x="500" 
d="M209 695l65 5l19 -5l5 -47l-9 -40l-65 -5l-18 5l-5 48z" />
    <glyph glyph-name="ring" unicode="&#x2da;" horiz-adv-x="500" 
d="M348 624q0 -24 -7.5 -38t-20.5 -22t-30 -14l-38 -13q-18 0 -36.5 4t-32.5 14t-23 27t-9 42q0 22 8.5 37.5t22 25.5t31 16.5t36.5 11.5q42 0 70.5 -19.5t28.5 -71.5zM195 624q0 -23 16 -37t39 -14t39 14t16 37t-16 39t-39 16t-39 -16t-16 -39z" />
    <glyph glyph-name="ogonek" unicode="&#x2db;" horiz-adv-x="500" 
d="M258 -112v-33q0 -20 7.5 -32t20.5 -19t29 -9.5t34 -2.5v-30q-94 0 -133.5 25t-39.5 76v50l106 109h33z" />
    <glyph glyph-name="tilde" unicode="&#x2dc;" horiz-adv-x="500" 
d="M119 675l75 22l151 -57l29 55h28l-23 -95l-74 -17l-152 57l-28 -55h-28z" />
    <glyph glyph-name="hungarumlaut" unicode="&#x2dd;" horiz-adv-x="500" 
d="M43 537l49 174h102l-121 -174h-30zM204 537l49 174h102l-121 -174h-30z" />
    <glyph glyph-name="xsuperior" unicode="&#x2e3;" horiz-adv-x="357" 
d="M133 427l-3 -28l-58 2l-54 -2l-3 28l36 5l89 91l-87 109l-34 5l3 28l69 -2l76 2l3 -28l-24 -5l39 -48l6 -19l59 67l-24 5l3 28l52 -2l54 2l3 -28l-37 -5l-81 -83l96 -117l31 -5l-4 -28l-65 2l-77 -2l-3 28l25 5l-48 52l-8 20l-63 -72z" />
    <glyph glyph-name="Delta" unicode="&#x394;" horiz-adv-x="676" 
d="M20 0v46l303 649l45 20l288 -668v-47h-636zM84 46h477l-217 517l-7 55z" />
    <glyph glyph-name="Omega" unicode="&#x3a9;" horiz-adv-x="720" 
d="M30 0v156h30l24 -68l180 -36v59q-39 9 -79 31.5t-72.5 59t-52.5 87.5t-20 116q0 59 18.5 107t58.5 86t102.5 67t150.5 50q69 0 126 -24t98 -64t63.5 -93t22.5 -111q0 -61 -16.5 -110.5t-45.5 -87t-70 -63t-90 -38.5v-72l178 36l24 68h30v-156h-286v156q28 4 60 17.5
t59 41.5t45 73t18 113q0 58 -17.5 106.5t-48 82.5t-71.5 53t-89 19t-89 -16t-71.5 -46t-48 -74t-17.5 -101q0 -61 16.5 -109t42.5 -82.5t58.5 -54t64.5 -23.5v-156h-286z" />
    <glyph glyph-name="mu" unicode="&#x3bc;" 
d="M465 467v-365q0 -26 16.5 -45.5t61.5 -30.5l-4 -26h-112l-41 74l-120 -89q-16 0 -37 1.5t-41.5 7.5t-36.5 18t-22 33v-73l43 -202h-96v697h80v-295q0 -61 26 -88t65 -27q25 0 55 18l62 38l21 13v341h80z" />
    <glyph glyph-name="pi" unicode="&#x3c0;" 
d="M464 110q0 -13 2.5 -25.5t10.5 -23.5t23.5 -20t41.5 -15l-4 -26h-112l-43 74v345h-146v-419h-81v419h-58l-38 -99h-28v141h556v-42h-124v-309z" />
    <glyph glyph-name="Wgrave" unicode="&#x1e80;" horiz-adv-x="969" 
d="M458 766l-120 132h100l72 -132h-52zM632 -14l-139 422l-3 56l-142 -454l-61 -24l-219 673l-57 11l5 31l107 -3l123 3l5 -31l-89 -13l155 -512l3 -51l133 445l-40 120l-67 11l5 31l116 -3l124 3l5 -31l-89 -13l155 -512l2 -50l172 564l-88 11l5 31l119 -3l81 3l5 -31
l-56 -11l-209 -649z" />
    <glyph glyph-name="wgrave" unicode="&#x1e81;" horiz-adv-x="827" 
d="M412 537l-121 172h102l49 -172h-30zM420 277l-5 65l-120 -325l-71 -31l-153 441l-66 10l5 31l104 -3l91 3l5 -31l-59 -10l103 -310l8 -53l119 327l-13 36l-42 10l5 31l80 -3l90 3l5 -31l-58 -10l103 -310l8 -53l130 363l-46 10l5 31l67 -3l102 3l5 -31l-66 -10l-164 -410
l-71 -31z" />
    <glyph glyph-name="Wacute" unicode="&#x1e82;" horiz-adv-x="969" 
d="M446 766l73 132h100l-121 -132h-52zM632 -14l-139 422l-3 56l-142 -454l-61 -24l-219 673l-57 11l5 31l107 -3l123 3l5 -31l-89 -13l155 -512l3 -51l133 445l-40 120l-67 11l5 31l116 -3l124 3l5 -31l-89 -13l155 -512l2 -50l172 564l-88 11l5 31l119 -3l81 3l5 -31
l-56 -11l-209 -649z" />
    <glyph glyph-name="wacute" unicode="&#x1e83;" horiz-adv-x="827" 
d="M403 537l49 172h102l-121 -172h-30zM420 277l-5 65l-120 -325l-71 -31l-153 441l-66 10l5 31l104 -3l91 3l5 -31l-59 -10l103 -310l8 -53l119 327l-13 36l-42 10l5 31l80 -3l90 3l5 -31l-58 -10l103 -310l8 -53l130 363l-46 10l5 31l67 -3l102 3l5 -31l-66 -10l-164 -410
l-71 -31z" />
    <glyph glyph-name="Wdieresis" unicode="&#x1e84;" horiz-adv-x="969" 
d="M333 867l56 5l24 -5l4 -44l-9 -39l-55 -4l-23 4l-5 46zM549 867l56 5l23 -5l5 -44l-9 -39l-55 -4l-24 4l-4 46zM632 -14l-139 422l-3 56l-142 -454l-61 -24l-219 673l-57 11l5 31l107 -3l123 3l5 -31l-89 -13l155 -512l3 -51l133 445l-40 120l-67 11l5 31l116 -3l124 3
l5 -31l-89 -13l155 -512l2 -50l172 564l-88 11l5 31l119 -3l81 3l5 -31l-56 -11l-209 -649z" />
    <glyph glyph-name="wdieresis" unicode="&#x1e85;" horiz-adv-x="827" 
d="M286 676l56 4l24 -4l4 -45l-9 -38l-55 -5l-23 5l-5 45zM462 676l56 4l23 -4l5 -45l-9 -38l-55 -5l-24 5l-4 45zM420 277l-5 65l-120 -325l-71 -31l-153 441l-66 10l5 31l104 -3l91 3l5 -31l-59 -10l103 -310l8 -53l119 327l-13 36l-42 10l5 31l80 -3l90 3l5 -31l-58 -10
l103 -310l8 -53l130 363l-46 10l5 31l67 -3l102 3l5 -31l-66 -10l-164 -410l-71 -31z" />
    <glyph glyph-name="Ygrave" unicode="&#x1ef2;" horiz-adv-x="707" 
d="M342 766l-121 132h100l73 -132h-52zM400 270l2 -227l117 -13l-5 -31l-156 3l-163 -3l-5 31l123 13v232l-226 385l-82 11l5 30l135 -3l127 3l5 -30l-89 -13l176 -297l10 -35l172 332l-91 13l5 30l122 -3l115 3l5 -29l-82 -10z" />
    <glyph glyph-name="ygrave" unicode="&#x1ef3;" horiz-adv-x="534" 
d="M276 537l-121 172h102l49 -172h-30zM84 -235v89h76l98 156l-23 -7l-164 424l-66 10l5 31l109 -3l102 3l5 -31l-70 -10l109 -304l7 -64l124 368l-46 10l5 31l86 -3l83 3l5 -31l-66 -10l-160 -413l-111 -249h-108z" />
    <glyph glyph-name="endash" unicode="&#x2013;" horiz-adv-x="535" 
d="M40 300h455v-46h-455v46z" />
    <glyph glyph-name="emdash" unicode="&#x2014;" horiz-adv-x="990" 
d="M-142 314h1274v-74h-1274v74z" />
    <glyph glyph-name="quoteleft" unicode="&#x2018;" horiz-adv-x="177" 
d="M140 580l5 -52l-5 -44l-68 -4l-28 4l-4 52l4 44l62 140l33 -13q-6 -13 -12 -30.5t-11 -34.5t-8.5 -32.5t-3.5 -25.5z" />
    <glyph glyph-name="quoteright" unicode="&#x2019;" horiz-adv-x="178" 
d="M51 610l-5 52l5 44l67 4l29 -4l4 -51l-4 -45l-62 -140l-33 13q6 13 12 30.5t11 34.5t8.5 32.5t3.5 25.5z" />
    <glyph glyph-name="quotesinglbase" unicode="&#x201a;" horiz-adv-x="197" 
d="M53 -2l-5 53l5 43l67 4l29 -4l4 -51l-4 -45l-62 -140l-33 14q6 13 12 30.5t11 34.5t8.5 32.5t3.5 25.5z" />
    <glyph glyph-name="quotedblleft" unicode="&#x201c;" horiz-adv-x="326" 
d="M140 580l5 -52l-5 -44l-68 -4l-28 4l-4 52l4 44l62 140l33 -13q-6 -13 -12 -30.5t-11 -34.5t-8.5 -32.5t-3.5 -25.5zM290 580l4 -52l-4 -44l-68 -4l-28 4l-5 52l5 44l61 140l34 -13q-6 -13 -12 -30l-12 -35q-5 -17 -8.5 -32.5t-3.5 -25.5z" />
    <glyph glyph-name="quotedblright" unicode="&#x201d;" horiz-adv-x="327" 
d="M198 610l-5 52l5 44l68 4l28 -4l4 -51l-4 -45l-61 -140l-34 13q6 13 12 30.5t11 34.5t8.5 32.5t3.5 25.5zM49 610l-5 52l5 44l67 4l29 -4l4 -51l-4 -45l-62 -140l-33 13q6 13 12 30.5t11 34.5t8.5 32.5t3.5 25.5z" />
    <glyph glyph-name="quotedblbase" unicode="&#x201e;" horiz-adv-x="346" 
d="M202 -2l-5 53l5 43l68 4l28 -4l4 -51l-4 -45l-61 -140l-34 14q6 13 12 30.5t11 34.5t8.5 32.5t3.5 25.5zM53 -2l-5 53l5 43l67 4l29 -4l4 -51l-4 -45l-62 -140l-33 14q6 13 12 30.5t11 34.5t8.5 32.5t3.5 25.5z" />
    <glyph glyph-name="dagger" unicode="&#x2020;" horiz-adv-x="430" 
d="M27 548l166 -30l-30 192h98l-30 -192l172 30v-101l-172 30l14 -107l26 -41l-26 -103l-21 -286h-23l-21 286l-26 103l26 41l14 107l-167 -30v101z" />
    <glyph glyph-name="daggerdbl" unicode="&#x2021;" horiz-adv-x="436" 
d="M183 370l14 107l-167 -30v101l166 -30l-30 192h98l-30 -192l172 30v-101l-172 30l14 -107l26 -41l-26 -41l-14 -107l172 30v-101l-172 30l30 -192h-98l30 192l-166 -30v101l167 -30l-14 107l-26 41z" />
    <glyph glyph-name="bullet" unicode="&#x2022;" horiz-adv-x="229" 
d="M55 363l81 5l38 -5l5 -63l-5 -56l-81 -5l-38 5l-5 64z" />
    <glyph glyph-name="ellipsis" unicode="&#x2026;" horiz-adv-x="741" 
d="M80 98l69 4l29 -4l4 -53l-4 -45l-70 -5l-28 5l-5 53zM322 98l70 4l28 -4l4 -53l-4 -45l-70 -5l-28 5l-5 53zM564 98l69 4l29 -4l4 -53l-4 -45l-70 -5l-28 5l-5 53z" />
    <glyph glyph-name="perthousand" unicode="&#x2030;" horiz-adv-x="1139" 
d="M185 -5h-59l495 710h59zM189 360q-36 0 -64 13t-46.5 35.5t-28.5 53.5t-10 67q0 35 8.5 64.5t28 52.5t52.5 38.5t82 22.5q36 0 63.5 -13t46.5 -35.5t28.5 -54t9.5 -67.5q0 -35 -8 -64.5t-27.5 -52t-52.5 -38t-82 -22.5zM194 677q-21 0 -36 -11.5t-24.5 -30.5t-14 -44
t-4.5 -52q0 -30 5 -57t15.5 -47.5t28 -32.5t42.5 -12q21 0 36 11.5t24.5 30.5t14 44t4.5 53q0 29 -5 56t-15.5 47.5t-28 32.5t-42.5 12zM929 -7q-36 0 -64 13t-46.5 35.5t-28.5 53.5t-10 67t8.5 65.5t28 52t52 38t81.5 22.5q36 0 64 -13t47 -35.5t28.5 -54t9.5 -67.5
q0 -35 -8 -64.5t-27.5 -52t-52.5 -38t-82 -22.5zM568 -7q-36 0 -64 13t-47 35.5t-29 53.5t-10 67t8.5 65.5t28.5 52t52.5 38t81.5 22.5q36 0 64 -13t47 -35.5t28.5 -54t9.5 -67.5q0 -35 -8 -64.5t-27.5 -52t-52.5 -38t-82 -22.5zM934 310q-21 0 -36 -11.5t-24.5 -30.5
t-14 -44t-4.5 -52q0 -30 5 -57t15.5 -47.5t28 -32.5t42.5 -12q21 0 36 11.5t24.5 30.5t14 44.5t4.5 52.5q0 29 -5 56t-15.5 47.5t-28 32.5t-42.5 12zM573 310q-21 0 -36.5 -11.5t-25 -30.5t-14 -44t-4.5 -52q0 -30 5 -57t16 -47.5t28 -32.5t42 -12q21 0 36.5 11.5t25 30.5
t14 44.5t4.5 52.5q0 29 -5 56t-16 47.5t-28 32.5t-42 12z" />
    <glyph glyph-name="guilsinglleft" unicode="&#x2039;" horiz-adv-x="263" 
d="M196 15l-181 220l182 220h36l-127 -221l127 -219h-37z" />
    <glyph glyph-name="guilsinglright" unicode="&#x203a;" horiz-adv-x="263" 
d="M30 15l127 219l-127 221h36l182 -220l-181 -220h-37z" />
    <glyph glyph-name="fraction" unicode="&#x2044;" horiz-adv-x="119" 
d="M-106 -50h-54l387 760h52z" />
    <glyph glyph-name="zerosuperior" unicode="&#x2070;" horiz-adv-x="410" 
d="M365 598q0 -86 -39.5 -138t-132.5 -68q-35 0 -62.5 14.5t-46.5 40.5t-29 61.5t-10 78.5q0 86 39.5 137.5t132.5 68.5q35 0 62.5 -14.5t46.5 -40.5t29 -61.5t10 -78.5zM211 428q18 0 30.5 12t20.5 33t12 49t4 60q0 37 -4.5 69t-14 55.5t-24.5 37t-36 13.5q-18 0 -30.5 -12
t-21 -32.5t-12.5 -48.5t-4 -60q0 -37 4.5 -69t14.5 -56t25 -37.5t36 -13.5z" />
    <glyph glyph-name="foursuperior" unicode="&#x2074;" horiz-adv-x="356" 
d="M264 551h77v-54h-77v-97h-71v97h-155l-23 37l196 251h68v-31l-209 -213l30 10h93v62l54 48h17v-110z" />
    <glyph glyph-name="fivesuperior" unicode="&#x2075;" horiz-adv-x="339" 
d="M96 720l-14 -103l83 41q69 0 101.5 -28.5t32.5 -70.5q0 -26 -10.5 -45.5t-28.5 -34.5t-41.5 -27t-49.5 -24l-56 -28h-68v69h130q22 14 31 32.5t9 34.5q0 27 -18 47t-56 20q-17 0 -30 -4t-29 -10l-20 -8l-16 13l25 191h221v-24l-17 -41h-179z" />
    <glyph glyph-name="sixsuperior" unicode="&#x2076;" horiz-adv-x="364" 
d="M329 531q0 -33 -11.5 -57t-32.5 -40t-49.5 -26t-62.5 -16q-63 0 -98 41.5t-35 113.5q0 77 54 142t181 108l9 -29q-47 -17 -76 -36.5t-46.5 -42t-24.5 -47.5t-8 -53l76 59q32 0 55.5 -10.5t38.5 -27t22.5 -37.5t7.5 -42zM247 512q0 35 -14 55.5t-33 20.5q-16 0 -27 -6
t-25 -15l-22 -15q0 -27 3 -50t10.5 -40t19.5 -27t30 -10q26 0 42 21t16 66z" />
    <glyph glyph-name="sevensuperior" unicode="&#x2077;" horiz-adv-x="323" 
d="M20 785h267l16 -19l-177 -366h-67v33l172 288l-5 -4h-206v68z" />
    <glyph glyph-name="eightsuperior" unicode="&#x2078;" horiz-adv-x="356" 
d="M321 505q0 -45 -37.5 -70.5t-111.5 -42.5q-30 0 -55 8t-43.5 21.5t-28.5 31.5t-10 39q0 31 19.5 55.5t70.5 44.5q-40 20 -59.5 45.5t-19.5 52.5q0 38 35 63t103 40q60 0 95.5 -23t35.5 -58t-25.5 -56.5t-66.5 -40.5q43 -19 70.5 -47t27.5 -63zM232 694q0 25 -13.5 45
t-42.5 20q-20 0 -33.5 -14.5t-13.5 -37.5q0 -28 20 -44t47 -30q17 11 26.5 26t9.5 35zM117 508q0 -32 17.5 -57t44.5 -25q23 0 41 16.5t18 45.5q0 19 -8 32.5t-20.5 23t-27.5 17.5l-30 14q-17 -11 -26 -28.5t-9 -38.5z" />
    <glyph glyph-name="ninesuperior" unicode="&#x2079;" horiz-adv-x="339" 
d="M102 677q0 -36 14 -56t32 -20q17 0 28 5.5t25 13.5l21 15q0 54 -13.5 89.5t-48.5 35.5q-26 0 -42 -20t-16 -63zM20 657q0 33 11.5 56t32.5 39t49.5 25.5t61.5 15.5q63 0 98.5 -41t35.5 -111q0 -39 -13 -75t-41 -67.5t-72.5 -58.5t-107.5 -48l-9 30q46 17 75 36.5t46 41.5
t24 47t9 52l-76 -58q-32 0 -55.5 10t-38.5 26.5t-22.5 37.5t-7.5 42z" />
    <glyph glyph-name="plussuperior" unicode="&#x207a;" horiz-adv-x="409" 
d="M183 426v117h-133v44h133v122h44v-122h132v-44h-132v-117h-44z" />
    <glyph glyph-name="minussuperior" unicode="&#x207b;" horiz-adv-x="415" 
d="M50 602h315v-44h-315v44z" />
    <glyph glyph-name="equalsuperior" unicode="&#x207c;" horiz-adv-x="409" 
d="M359 593h-309v43h309v-43zM359 486h-309v42h309v-42z" />
    <glyph glyph-name="parenleftsuperior" unicode="&#x207d;" horiz-adv-x="213" 
d="M115 561q0 -76 17.5 -134.5t60.5 -115.5l-18 -16q-34 35 -57.5 64.5t-38.5 59.5t-22 64t-7 78t7 78.5t22 64.5t38.5 59t57.5 62l18 -16q-21 -28 -36 -55t-24.5 -56.5t-13.5 -63t-4 -73.5z" />
    <glyph glyph-name="parenrightsuperior" unicode="&#x207e;" horiz-adv-x="183" 
d="M98 561q0 40 -4.5 73.5t-13.5 63t-24 56.5t-36 55l18 16q34 -33 57.5 -61.5t38.5 -59t22 -65t7 -78.5t-7 -78.5t-22 -64.5t-38.5 -59.5t-57.5 -63.5l-18 16q42 57 60 115.5t18 134.5z" />
    <glyph glyph-name="nsuperior" unicode="&#x207f;" horiz-adv-x="389" 
d="M110 401l-73 -2l-3 28l36 6v189l-37 -1l-3 28l83 15l33 2l2 -46l90 52q27 0 44.5 -4t28 -13.5t15 -25.5t4.5 -41v-155l39 -6l-3 -28l-73 2l-65 -2l-3 28l26 6v150q0 31 -34 31q-14 0 -27.5 -6t-26.5 -14l-15 -8v-153l28 -6l-3 -28z" />
    <glyph glyph-name="zeroinferior" unicode="&#x2080;" horiz-adv-x="410" 
d="M365 48q0 -86 -39.5 -138t-132.5 -68q-35 0 -62.5 14.5t-46.5 40.5t-29 61.5t-10 78.5q0 86 39.5 137.5t132.5 68.5q35 0 62.5 -14.5t46.5 -40.5t29 -61.5t10 -78.5zM211 -122q18 0 30.5 12t20.5 33t12 49t4 60q0 37 -4.5 69t-14 55.5t-24.5 37t-36 13.5q-18 0 -30.5 -12
t-21 -32.5t-12.5 -48.5t-4 -60q0 -37 4.5 -69t14.5 -56t25 -37.5t36 -13.5z" />
    <glyph glyph-name="oneinferior" unicode="&#x2081;" horiz-adv-x="307" 
d="M129 182l-27 -16l-59 -9l-13 25l135 56h39v-352l88 -10l-3 -27l-124 2l-126 -2l-3 27l88 10v281z" />
    <glyph glyph-name="twoinferior" unicode="&#x2082;" horiz-adv-x="358" 
d="M78 -105l55 20h185v-24l-18 -41h-266l-14 26l111 111q46 48 67.5 83t21.5 70q0 31 -14.5 49t-40.5 18q-22 0 -36 -8l-20 -68h-60v71l128 41q58 0 93 -27.5t35 -72.5q0 -26 -8.5 -48.5t-24.5 -43.5t-39 -41t-53 -42z" />
    <glyph glyph-name="threeinferior" unicode="&#x2083;" horiz-adv-x="313" 
d="M168 -82q21 14 28.5 30t7.5 29q0 28 -24 46t-73 18l-6 21l24 10q32 12 47.5 30t15.5 49q0 26 -12.5 40.5t-32.5 14.5q-18 0 -34 -7l-19 -68h-60v71l127 41q60 0 84.5 -22.5t24.5 -51.5q0 -62 -88 -91q55 -4 82.5 -29t27.5 -55q0 -26 -12.5 -44t-32 -31.5t-43.5 -24.5
l-49 -20l-51 -24h-71v68h139z" />
    <glyph glyph-name="fourinferior" unicode="&#x2084;" horiz-adv-x="356" 
d="M264 1h77v-54h-77v-97h-71v97h-155l-23 37l196 251h68v-31l-209 -213l30 10h93v62l54 48h17v-110z" />
    <glyph glyph-name="fiveinferior" unicode="&#x2085;" horiz-adv-x="339" 
d="M96 170l-14 -103l83 41q69 0 101.5 -28.5t32.5 -70.5q0 -26 -10.5 -45.5t-28.5 -34.5t-41.5 -27t-49.5 -24l-56 -28h-68v68h130q22 15 31 33.5t9 34.5q0 27 -18 47t-56 20q-17 0 -30 -4t-29 -10l-20 -8l-16 13l25 191h221v-24l-17 -41h-179z" />
    <glyph glyph-name="sixinferior" unicode="&#x2086;" horiz-adv-x="364" 
d="M247 -38q0 35 -14 55.5t-33 20.5q-16 0 -27 -6t-25 -15l-22 -15q0 -27 3 -50t10.5 -40t19.5 -27t30 -10q26 0 42 21t16 66zM329 -19q0 -33 -11.5 -57t-32.5 -40t-49.5 -26t-62.5 -16q-63 0 -98 41.5t-35 113.5q0 77 54 142t181 108l9 -29q-47 -17 -76 -36.5t-46.5 -42
t-24.5 -47.5t-8 -53l76 59q32 0 55.5 -10.5t38.5 -27t22.5 -37.5t7.5 -42z" />
    <glyph glyph-name="seveninferior" unicode="&#x2087;" horiz-adv-x="323" 
d="M20 235h267l16 -19l-177 -366h-67v33l172 288l-5 -4h-206v68z" />
    <glyph glyph-name="eightinferior" unicode="&#x2088;" horiz-adv-x="356" 
d="M117 -42q0 -32 17.5 -57t44.5 -25q23 0 41 16.5t18 45.5q0 19 -8 32.5t-20.5 23t-27.5 16.5l-30 15q-17 -11 -26 -28.5t-9 -38.5zM321 -45q0 -45 -37.5 -70.5t-111.5 -42.5q-30 0 -55 8t-43.5 21.5t-28.5 31.5t-10 39q0 31 19.5 55.5t70.5 44.5q-40 20 -59.5 45.5
t-19.5 52.5q0 38 35 63t103 40q60 0 95.5 -23t35.5 -58t-25.5 -56.5t-66.5 -40.5q43 -19 70.5 -47t27.5 -63zM232 144q0 25 -13.5 45t-42.5 20q-20 0 -33.5 -14.5t-13.5 -37.5q0 -28 20 -44t47 -30q17 11 26.5 26t9.5 35z" />
    <glyph glyph-name="nineinferior" unicode="&#x2089;" horiz-adv-x="339" 
d="M102 127q0 -36 14 -56t32 -20q17 0 28 5.5t25 13.5l21 15q0 54 -13.5 89.5t-48.5 35.5q-26 0 -42 -20t-16 -63zM20 107q0 33 11.5 56t32.5 39t49.5 25.5t61.5 15.5q63 0 98.5 -41t35.5 -111q0 -39 -13 -75t-41 -67.5t-72.5 -58.5t-107.5 -48l-9 30q46 17 75 36.5t46 41.5
t24 47t9 52l-76 -58q-32 0 -55.5 10t-38.5 26.5t-22.5 37.5t-7.5 42z" />
    <glyph glyph-name="parenleftinferior" unicode="&#x208d;" horiz-adv-x="213" 
d="M115 -1q0 -76 17.5 -134.5t60.5 -115.5l-18 -16q-34 35 -57.5 64.5t-38.5 59.5t-22 64t-7 78t7 78.5t22 64.5t38.5 59t57.5 62l18 -16q-21 -28 -36 -55t-24.5 -56.5t-13.5 -63t-4 -73.5z" />
    <glyph glyph-name="parenrightinferior" unicode="&#x208e;" horiz-adv-x="183" 
d="M98 -1q0 40 -4.5 73.5t-13.5 63t-24 56.5t-36 55l18 16q34 -33 57.5 -61.5t38.5 -59t22 -65t7 -78.5t-7 -78.5t-22 -64.5t-38.5 -59.5t-57.5 -63.5l-18 16q42 57 60 115.5t18 134.5z" />
    <glyph glyph-name="Euro" unicode="&#x20ac;" horiz-adv-x="673" 
d="M218 257q9 -44 28 -81t47 -63.5t65.5 -41.5t84.5 -15q35 0 60.5 5.5t44 13.5t31.5 17l24 16l19 -38q-11 -8 -32 -19t-47.5 -23t-57 -23.5t-61.5 -19.5q-129 0 -206 70t-99 202h-74v51h69q-1 9 -1 15v16v27q0 13 2 26h-70v51h76q11 60 35.5 104.5t62 77t87 54.5t111.5 36
q46 0 81 -7.5t61 -19t44 -24t30 -22.5v-131h-45l-25 93q-9 11 -23 23t-33.5 21.5t-45 16t-59.5 6.5q-32 0 -62.5 -16t-56.5 -46t-45 -72t-27 -94h329l-26 -51h-308v-27q0 -29 3 -57h275l-26 -51h-240z" />
    <glyph glyph-name="afii61289" unicode="&#x2113;" horiz-adv-x="428" 
d="M145 6v229l-51 -22l-54 -23v42q27 12 51 21.5t54 23.5v346l123 97q33 -1 56 -17.5t37.5 -42t20.5 -56.5t6 -59q0 -47 -13 -86.5t-35.5 -73.5t-54.5 -62t-69 -51v-220l136 52l22 -28l-157 -92zM216 325q42 33 67.5 78t25.5 117q0 11 -2 31.5t-8 41t-16 36t-25 15.5
l-42 -10v-309z" />
    <glyph glyph-name="afii61352" unicode="&#x2116;" horiz-adv-x="1009" 
d="M621 674q4 1 -8 -4.5t-29.5 -10.5t-33 -6t-16.5 10v-663h-69l-258 532l-27 114v-646h-147l-5 26q3 1 18 6.5t33 9.5t33 4t17 -10v613l-88 20l5 31l95 -3l88 3l226 -470l28 -116v586h133zM809 485q35 0 63.5 -12.5t48.5 -35.5t31 -55t11 -70q0 -46 -14 -78t-39 -54
t-60.5 -35t-77.5 -20q-38 0 -68 12.5t-51.5 35.5t-33 55t-11.5 70q0 46 14.5 78.5t41 54t63.5 34.5t82 20zM779 439q-39 0 -61.5 -29t-22.5 -81q0 -34 7 -63t20.5 -50t33.5 -33t46 -12q35 0 54.5 29t19.5 81q0 34 -6.5 63t-18.5 50t-30 33t-42 12zM608 61h356v-61h-356v61z
" />
    <glyph glyph-name="trademark" unicode="&#x2122;" horiz-adv-x="1025" 
d="M829 701l79 -2l64 2l3 -26l-46 -7v-320l44 -7l-3 -27l-82 2l-87 -2l-3 27l47 7v257l9 66l-141 -356h-51l-118 285l-17 67v-319l46 -7l-3 -27l-65 2l-66 -2l-3 27l46 7v320l-47 7l3 26l57 -2l91 2l115 -276l1 -45zM329 314l-103 2l-105 -2l-3 27l66 7v321l-77 -2l-28 -77
h-29v111l178 -2l173 2v-111h-28l-29 77l-76 2v-321l64 -7z" />
    <glyph glyph-name="uni2126" unicode="&#x2126;" horiz-adv-x="720" 
d="M30 0v156h30l24 -68l180 -36v59q-39 9 -79 31.5t-72.5 59t-52.5 87.5t-20 116q0 59 18.5 107t58.5 86t102.5 67t150.5 50q69 0 126 -24t98 -64t63.5 -93t22.5 -111q0 -61 -16.5 -110.5t-45.5 -87t-70 -63t-90 -38.5v-72l178 36l24 68h30v-156h-286v156q28 4 60 17.5
t59 41.5t45 73t18 113q0 58 -17.5 106.5t-48 82.5t-71.5 53t-89 19t-89 -16t-71.5 -46t-48 -74t-17.5 -101q0 -61 16.5 -109t42.5 -82.5t58.5 -54t64.5 -23.5v-156h-286z" />
    <glyph glyph-name="estimated" unicode="&#x212e;" horiz-adv-x="830" 
d="M756 220q-18 -51 -48 -87.5t-73 -63.5t-100 -47t-130 -37q-79 0 -144.5 26.5t-112 73.5t-72.5 111t-26 139q0 82 20 141t64.5 102.5t116 76t174.5 60.5q77 0 141 -25.5t110.5 -70.5t73.5 -106t30 -133v-48h-621v-87q17 -45 43.5 -83.5t62 -66.5t78.5 -43.5t93 -15.5
q94 0 150 49t82 135h88zM159 376h509v58q-14 52 -40.5 94.5t-62 72.5t-79 46.5t-92.5 16.5q-47 0 -83.5 -12t-65 -33.5t-50 -52t-36.5 -66.5v-124z" />
    <glyph glyph-name="arrowleft" unicode="&#x2190;" horiz-adv-x="610" 
d="M560 321v-52h-427l33 -19l154 -151v-74l-270 270l270 270v-74l-154 -150l-33 -20h427z" />
    <glyph glyph-name="arrowup" unicode="&#x2191;" horiz-adv-x="640" 
d="M294 467l-19 -33l-151 -154h-74l270 270l270 -270h-74l-150 154l-20 33v-427h-52v427z" />
    <glyph glyph-name="arrowright" unicode="&#x2192;" horiz-adv-x="610" 
d="M477 321l-33 20l-154 150v74l270 -270l-270 -270v74l154 151l33 19h-427v52h427z" />
    <glyph glyph-name="arrowdown" unicode="&#x2193;" horiz-adv-x="640" 
d="M294 550h52v-427l20 33l150 154h74l-270 -270l-270 270h74l151 -154l19 -33v427z" />
    <glyph glyph-name="uni2196" unicode="&#x2196;" horiz-adv-x="482" 
d="M90 399l10 -37l2 -216l-52 -53v382h382l-53 -52l-215 3l-38 9l303 -302l-37 -37z" />
    <glyph glyph-name="uni2197" unicode="&#x2197;" horiz-adv-x="482" 
d="M90 96l-37 37l303 302l-38 -9l-215 -3l-53 52h382v-382l-52 53l2 216l10 37z" />
    <glyph glyph-name="uni2198" unicode="&#x2198;" horiz-adv-x="482" 
d="M392 172l-10 37l-2 216l52 53v-382h-382l53 52l215 -4l38 -8l-303 302l37 37z" />
    <glyph glyph-name="uni2199" unicode="&#x2199;" horiz-adv-x="482" 
d="M392 475l37 -37l-303 -302l38 8l215 4l53 -52h-382v382l52 -53l-2 -216l-10 -37z" />
    <glyph glyph-name="partialdiff" unicode="&#x2202;" 
d="M538 225q0 -58 -17 -100t-49 -70.5t-77.5 -45.5t-102.5 -24q-49 0 -88 17t-66.5 48t-42 73.5t-14.5 93.5q0 59 17 102.5t49 73.5t77.5 47t102.5 25l96 -31q-8 27 -21.5 55.5t-32.5 55.5t-44.5 51t-56.5 42l-81 46l20 36l66 -29q73 -32 124 -79t82 -106.5t45 -130.5
t14 -150zM165 245q0 -44 10.5 -82.5t30.5 -67.5t49 -46t67 -17q30 0 54.5 12.5t42 35.5t26.5 54.5t9 70.5q0 44 -10 82.5t-30 67.5t-49 46t-67 17q-30 0 -55 -12.5t-42 -35.5t-26.5 -54.5t-9.5 -70.5z" />
    <glyph glyph-name="uni2206" unicode="&#x2206;" horiz-adv-x="676" 
d="M20 0v46l303 649l45 20l288 -668v-47h-636zM84 46h477l-217 517l-7 55z" />
    <glyph glyph-name="product" unicode="&#x220f;" horiz-adv-x="747" 
d="M20 669l5 31l142 -3h427l128 3l5 -31l-89 -13v-772l89 -13l-5 -31l-128 3l-138 -3l-5 31l98 13v767h-346v-767l93 -13l-5 -31l-132 3l-134 -3l-5 31l94 13v772z" />
    <glyph glyph-name="summation" unicode="&#x2211;" 
d="M70 -160l-22 40l306 375l-296 405l22 40h465v-180h-30l-46 134l-295 5l265 -353v-30l-308 -373l357 15l49 101h34l-35 -179h-466z" />
    <glyph glyph-name="minus" unicode="&#x2212;" 
d="M47 303h525v-61h-525v61z" />
    <glyph glyph-name="radical" unicode="&#x221a;" 
d="M210 -14l-159 448l-61 10l5 26h128l114 -327l7 -67l261 810h244l-20 -52h-169l-278 -819z" />
    <glyph glyph-name="infinity" unicode="&#x221e;" horiz-adv-x="825" 
d="M360 200q-14 -15 -32 -28t-37.5 -22.5t-39 -15t-37.5 -5.5q-36 0 -64.5 12.5t-48.5 34t-30.5 51t-10.5 63.5q0 26 8.5 52t27.5 49.5t50 43.5t76 35q33 0 61.5 -12.5t53.5 -30.5t47 -40l42 -39l40 45q29 32 68 54.5t75 22.5q37 0 66.5 -13t49 -35t30 -52t10.5 -64
q0 -62 -36 -104.5t-126 -72.5q-32 0 -60 11.5t-53.5 28.5t-47.5 37l-40 39zM225 197q24 0 52.5 12t51.5 35l40 42q-16 20 -35.5 39.5t-41 34.5t-43.5 24.5t-44 9.5q-14 0 -30 -5t-30 -16.5t-23.5 -30t-9.5 -45.5q0 -43 29.5 -71.5t83.5 -28.5zM461 305l37 -33
q21 -17 42.5 -32t43.5 -25t41 -10q15 0 30.5 5t28 16t21 30t8.5 46q0 43 -25.5 68.5t-79.5 25.5q-26 0 -57.5 -10.5t-53.5 -36.5z" />
    <glyph glyph-name="integral" unicode="&#x222b;" 
d="M316 -15q0 -35 -8.5 -62.5t-34.5 -59.5l-84 -98h-60v73h65l18 22q11 13 17.5 36.5t6.5 68.5v503q0 47 11 78.5t36 63.5l79 100h128v-68h-126l-25 -32q-11 -14 -17 -39t-6 -77v-509z" />
    <glyph glyph-name="approxequal" unicode="&#x2248;" 
d="M564 407h31l-39 -103l-93 -18l-363 56l-43 -63h-31l37 98l98 23l360 -56zM563 216h31l-39 -103l-93 -18l-363 56l-43 -63h-31l37 98l98 23l360 -56z" />
    <glyph glyph-name="notequal" unicode="&#x2260;" 
d="M254 117l-97 -117h-69l98 117h-134v61h185l113 134h-298v61h349l91 107h67l-90 -107h98v-61h-150l-112 -134h262v-61h-313z" />
    <glyph glyph-name="lessequal" unicode="&#x2264;" 
d="M48 61h523v-61h-523v61zM570 618v-76l-430 -185l430 -185v-77l-520 231v60z" />
    <glyph glyph-name="greaterequal" unicode="&#x2265;" 
d="M49 61h523v-61h-523v61zM570 386v-60l-520 -231v77l430 185l-430 185v76z" />
    <glyph glyph-name="lozenge" unicode="&#x25ca;" 
d="M289 695l45 20l239 -346l-242 -365l-45 -20l-239 346zM320 616l-7 35l-189 -293l175 -280l7 -35l193 295z" />
    <glyph glyph-name="commaaccent" unicode="&#xf6c3;" horiz-adv-x="500" 
d="M227 -125l-23 35v40h92v-80l-59 -106l-33 10z" />
    <glyph glyph-name="asuperior" unicode="&#xf6e9;" horiz-adv-x="320" 
d="M189 536l-69 -21q-7 -7 -9.5 -17.5t-2.5 -20.5q0 -20 10 -29t21 -9q10 0 18.5 4t13.5 7l18 9v77zM160 672q61 0 84.5 -18t23.5 -66v-107q0 -17 2 -25.5t7 -14.5h29l4 -27l-98 -20l-19 43l-70 -45q-42 0 -67.5 20t-25.5 55q0 18 7 31.5t19 24.5l133 39v32q0 25 -6.5 33.5
t-24.5 8.5q-11 0 -21.5 -2t-18.5 -6l-10 -59h-69v57z" />
    <glyph glyph-name="bsuperior" unicode="&#xf6ea;" horiz-adv-x="349" 
d="M329 550q0 -66 -41 -106.5t-118 -51.5q-41 0 -68 7t-47 16v335l-37 -1l-3 27l82 15l35 1v-172l79 52q23 0 44 -8.5t37.5 -24.5t26.5 -38.5t10 -50.5zM247 524q0 48 -15.5 68t-37.5 20q-11 0 -23.5 -5t-25.5 -12l-13 -8v-144q19 -19 47 -19q31 0 49.5 25.5t18.5 74.5z" />
    <glyph glyph-name="dsuperior" unicode="&#xf6eb;" horiz-adv-x="359" 
d="M294 473q0 -17 2.5 -24t7.5 -13h28l2 -27l-94 -15l-19 46l-75 -48q-57 0 -91.5 36t-34.5 95q0 68 40 103t105 46q9 0 26 -4.5t26 -9.5v90l-37 -1l-3 26l77 18l40 2v-320zM157 451q12 0 23 4.5t22 9.5l15 9v143q-8 7 -20.5 12t-27.5 5q-31 0 -49 -25.5t-18 -70.5
q0 -42 16 -64.5t39 -22.5z" />
    <glyph glyph-name="esuperior" unicode="&#xf6ec;" horiz-adv-x="297" 
d="M100 536q1 -37 24 -62t65 -25q20 0 40.5 7.5t34.5 15.5l12 -26q-23 -19 -50 -31t-62 -23q-30 0 -56 9.5t-45.5 26.5t-31 41t-11.5 54q0 48 32.5 88.5t110.5 60.5q31 0 52.5 -8.5t35 -23t20 -33.5t6.5 -41v-30h-177zM198 568q0 32 -9 50.5t-36 18.5q-23 0 -37.5 -20
t-16.5 -54z" />
    <glyph glyph-name="isuperior" unicode="&#xf6ed;" horiz-adv-x="215" 
d="M114 401l-73 -2l-3 28l37 6v191l-37 -1l-3 27l82 14l35 2v-233l38 -6l-3 -28zM80 783l54 3l18 -3l4 -38l-8 -33l-53 -3l-18 3l-4 38z" />
    <glyph glyph-name="lsuperior" unicode="&#xf6ee;" horiz-adv-x="211" 
d="M115 401l-72 -2l-3 28l35 6v316l-37 -1l-3 28l83 15l35 1v-359l38 -6l-3 -28z" />
    <glyph glyph-name="msuperior" unicode="&#xf6ef;" horiz-adv-x="559" 
d="M465 401l-65 -2l-4 28l25 6v150q0 31 -30 31q-11 0 -25 -5.5t-28 -13.5l-14 -8v-154l24 -6l-3 -28l-62 2l-58 -2l-3 28l23 6v150q0 31 -29 31q-14 0 -26.5 -5.5t-26.5 -13.5l-15 -8v-154l24 -6l-3 -28l-63 2l-69 -2l-3 28l36 6v189l-37 -1l-3 28l79 15l34 2l4 -45l82 51
q44 0 65.5 -11t26.5 -41l85 52q27 0 45.5 -4t29 -14t15 -26t4.5 -41v-154l39 -6l-3 -28z" />
    <glyph glyph-name="osuperior" unicode="&#xf6f0;" horiz-adv-x="332" 
d="M176 672q30 0 55 -9.5t43 -27t28 -42t10 -54.5q0 -35 -12 -60t-33 -42t-49.5 -28t-62.5 -17q-59 0 -97 36t-38 97q0 35 12 60t33 42.5t49.5 28t61.5 16.5zM102 551q0 -63 20 -94.5t51 -31.5q26 0 41 20.5t15 67.5q0 66 -21 96t-50 30q-26 0 -41 -20t-15 -68z" />
    <glyph glyph-name="rsuperior" unicode="&#xf6f1;" horiz-adv-x="281" 
d="M143 579l64 91h54v-79h-57q-11 -5 -24 -14.5t-24 -21.5l-9 -8v-113l63 -7l-3 -28l-98 2l-73 -2l-3 28l38 6v189l-38 -1l-3 28l77 15l30 2z" />
    <glyph glyph-name="ssuperior" unicode="&#xf6f2;" horiz-adv-x="292" 
d="M205 619q-6 7 -17.5 13t-27.5 6q-20 0 -32 -7.5t-12 -18.5t10.5 -19t34.5 -20l44 -19q28 -12 42.5 -29.5t14.5 -43.5q0 -40 -31 -58.5t-91 -30.5q-23 0 -49 6t-45 15l-11 83h40l17 -44q10 -11 23.5 -18t28.5 -7q42 0 42 30q0 12 -8.5 20t-29.5 17l-46 21q-24 11 -40.5 28
t-16.5 43q0 30 26.5 50t91.5 36q35 0 57 -7t33 -12v-74h-35z" />
    <glyph glyph-name="tsuperior" unicode="&#xf6f3;" horiz-adv-x="245" 
d="M10 623v10l22 22h34v39l51 41h25v-81h84v-31h-84v-146q0 -15 7.5 -24.5t24.5 -9.5q13 0 24 3.5t23 10.5l12 -26l-78 -39q-42 0 -66 15.5t-24 60.5v155h-55z" />
    <glyph glyph-name="apple" unicode="&#xf8ff;" horiz-adv-x="685" 
d="M635 460l-3 -41l-8 -35l-12 -31l-3 -156l-21 -7l-50 70l-27 -7l-19 -140l-32 4l-7 -4l-4 -94l30 -19l16 -14l-3 -15l-30 1l-24 18h-14l-8 8l7 76l-4 47l-61 1l-3 -52l-2 -56v-20l-15 -6l-8 6l-30 -10h-32l-1 11l11 11l50 21l-6 96l-98 -6l-147 140l-4 115l-13 10l-10 36
v26l15 8l-3 78l92 -62l9 47l10 36l22 35l28 35l39 29l40 15l38 14h22l-68 22l4 17h7l79 -20l-4 51l16 12h32l19 -5l29 -25l32 -8l32 -10l15 -13v-20l-20 -31l30 -28l28 -32l18 -34l15 -41zM525 399l-4 7h-205l-66 -3l-7 -9l-6 -44l-48 20l-11 -4l57 -27l1 -45l-5 -73v-91
l18 4l2 40l41 -3l3 9l-44 6v16l48 -6l1 9l-47 7l1 22l43 -3l3 6l-45 9l3 94h74l11 10h-79l2 9h74l8 7h-82l2 22l117 4l140 -4v11zM206 569l29 12l13 -15l-17 -20l-10 -3l17 -3h5l36 24h32l18 -12l8 3l4 14l7 5l10 -4v-18h8l10 22l11 8l-5 6l-3 8l1 21l-30 -10l-10 -8l-8 5
l4 21l14 10l11 11l38 -2l12 13l-4 8h-49l-45 -13l-53 -26l-29 -23zM616 465l-8 37l-19 50l-20 36l-23 28l-34 21h-11l17 -19l25 -10l11 -11l3 -33l-25 13l-15 -29l12 -8v-19l15 3l-12 26l15 -5l10 -20l-5 -12l-8 -7h-23l-3 11l-12 2l1 -22h-14l14 -18l-7 -10l-21 5l-3 -27
l41 6l8 17l22 -2l6 -28l-16 -13v-15l8 -6l18 12h23l6 11l-18 6l-5 9l9 42h7l14 -20zM102 434l57 -32l7 10l-68 38v18l59 -34l43 -28l28 -14l3 10l-103 64l-13 7l-41 33l2 -78l19 -17v-5h-21l19 -14l1 -11l-20 7l18 -18l-4 -7l3 -97l11 -12v180zM511 331l-54 1l-1 -24v-6
l-2 -31l19 -3l-8 -61l-48 3l-8 -6l51 -5l-2 -9h-49l-4 -5l53 -7l-6 -35l27 -1l12 79l4 36l-15 3l-1 8l20 1l5 3l-28 16l2 5l30 -6l-30 15l5 5l21 -5l4 10zM206 331l-66 39v-7l-2 -13l1 -27v-48l64 -44l-1 60zM380 214l-64 4v-51l64 -6v53zM532 306l8 -6l8 2l20 15l13 13
l11 18l-7 5h-14l-10 3l-14 7l-17 -3q-2 -13 -3 -24q-2 -9 -2.5 -17t-0.5 -7zM428 585l5 -6l19 11l8 -2l6 -24h13l6 6l-9 18l17 28l-15 9v5l-25 7v-20l-13 -5v-9l-9 -6zM433 336l4 30l-54 5l-3 -35h53zM366 455l-7 -11h-12l-5 7l11 8l-15 2v6l-23 4l3 -17l8 -14l20 -9l13 -1
l18 10l6 9l5 20l-30 2l7 -5zM589 312l-6 -3l-33 -27l39 -48v78zM244 454l1 4l14 2l-13 6l2 7l-20 -1l3 -19l14 -15l12 -6l11 5l16 12l6 12l2 13l-22 -4l6 -10l-12 -13l-14 -1zM394 281l-72 7l-6 -13l78 -4v10zM206 203l-74 50l20 -23l50 -41zM394 312h-73v-10h73v10z
M384 256l-68 4v-10h68v6zM515 359h-48v-13l44 4zM351 520l-4 -12l49 -17l3 4zM214 498l59 12l-4 12zM414 642l-8 -9v-19l12 -6l3 17zM491 530l-8 -4v-9l8 -3l2 7zM564 386l5 7v7l-10 -4v-10h5z" />
    <glyph glyph-name="AE.sc" horiz-adv-x="819" 
d="M426 263v206l-140 -206h140zM138 41l60 -8l-3 -33l-88 2l-86 -2l-4 33l63 8l331 467l59 -1l291 2l8 -133h-25l-44 89l-196 2v-203l96 3l31 77h27l-8 -98l8 -102h-27l-31 77l-96 3v-183l204 2l52 93h29l-27 -137l-296 2l-109 -2l-4 33l73 10v183h-159z" />
    <glyph glyph-name="AEacute.002" horiz-adv-x="1002" 
d="M513 752l72 98h100l-120 -98h-52zM523 354v298l-177 -298h177zM157 43l79 -13l-5 -31l-112 3l-109 -3l-5 31l82 11l426 660l57 -3l371 3l10 -179h-31l-54 133l-252 3v-303l123 4l40 105h32l-10 -121l10 -133h-32l-40 104l-123 4v-276l262 3l66 138h35l-35 -184l-370 3
l-138 -3l-5 31l94 13v273h-199z" />
    <glyph glyph-name="AEacute.sc" horiz-adv-x="819" 
d="M426 263v206l-140 -206h140zM138 41l60 -8l-3 -33l-88 2l-86 -2l-4 33l63 8l331 467l59 -1l291 2l8 -133h-25l-44 89l-196 2v-202l96 3l31 77h27l-8 -98l8 -102h-27l-31 77l-96 3v-184l204 2l52 93h29l-27 -137l-296 2l-109 -2l-4 33l73 10v183h-159zM446 558l54 98h85
l-95 -98h-44z" />
    <glyph glyph-name="Aacute.002" horiz-adv-x="747" 
d="M352 752l73 98h100l-121 -98h-52zM232 237l-68 -194l90 -13l-5 -31l-124 3l-109 -3l-5 31l83 11l254 654l37 14l270 -668l81 -11l-5 -31l-125 3l-136 -3l-5 31l89 13l-72 194h-250zM366 545l-8 53l-111 -317h218z" />
    <glyph glyph-name="Aacute.sc" horiz-adv-x="607" 
d="M287 558l55 98h84l-95 -98h-44zM188 165l-52 -123l70 -10l-4 -33l-95 2l-86 -2l-4 33l63 9l198 457l41 20l208 -478l63 -8l-4 -33l-106 2l-106 -2l-3 33l67 10l-54 123h-196zM294 395l-6 41l-87 -232h169z" />
    <glyph glyph-name="Abreve.002" horiz-adv-x="747" 
d="M368 783q22 0 40 7.5t31.5 18t23.5 23t17 22.5l21 -16q-6 -7 -12.5 -20t-19 -28t-33 -31t-53.5 -29q-32 0 -55.5 11t-41 27.5t-30 35.5t-21.5 34l25 16l17 -22q9 -13 21.5 -23.5t29.5 -18t40 -7.5zM232 237l-68 -194l90 -13l-5 -31l-124 3l-109 -3l-5 31l83 11l254 654
l37 14l270 -668l81 -11l-5 -31l-125 3l-136 -3l-5 31l89 13l-72 194h-250zM366 545l-8 53l-111 -317h218z" />
    <glyph glyph-name="Abreve.sc" horiz-adv-x="607" 
d="M299 604q36 0 57 16.5t32 29.5l19 -19q-5 -11 -10.5 -21.5t-16 -20t-27 -19.5t-42.5 -19q-25 0 -43.5 7.5t-33 19t-24.5 25.5t-17 28l20 19q11 -13 31 -29.5t55 -16.5zM188 165l-52 -123l70 -10l-4 -33l-95 2l-86 -2l-4 33l63 9l198 457l41 20l208 -478l63 -8l-4 -33
l-106 2l-106 -2l-3 33l67 10l-54 123h-196zM294 395l-6 41l-87 -232h169z" />
    <glyph glyph-name="Acircumflex.002" horiz-adv-x="747" 
d="M222 752l105 98h78l105 -98h-50l-83 55l-12 10l-10 -10l-83 -55h-50zM232 237l-68 -194l90 -13l-5 -31l-124 3l-109 -3l-5 31l83 11l254 654l37 14l270 -668l81 -11l-5 -31l-125 3l-136 -3l-5 31l89 13l-72 194h-250zM366 545l-8 53l-111 -317h218z" />
    <glyph glyph-name="Acircumflex.sc" horiz-adv-x="607" 
d="M182 558l83 98h65l84 -98h-44l-63 39l-9 16l-10 -16l-62 -39h-44zM188 165l-52 -123l70 -10l-4 -33l-95 2l-86 -2l-4 33l63 9l198 457l41 20l208 -478l63 -8l-4 -33l-106 2l-106 -2l-3 33l67 10l-54 123h-196zM294 395l-6 41l-87 -232h169z" />
    <glyph glyph-name="Adieresis.002" horiz-adv-x="747" 
d="M218 846l57 5l24 -5l5 -45l-10 -39l-56 -5l-24 5l-4 46zM438 846l57 5l24 -5l4 -45l-9 -39l-56 -5l-24 5l-5 46zM232 237l-68 -194l90 -13l-5 -31l-124 3l-109 -3l-5 31l83 11l254 654l37 14l270 -668l81 -11l-5 -31l-125 3l-136 -3l-5 31l89 13l-72 194h-250zM366 545
l-8 53l-111 -317h218z" />
    <glyph glyph-name="Adieresis.sc" horiz-adv-x="607" 
d="M180 639l47 4l19 -4l3 -41l-7 -36l-46 -3l-20 3l-3 42zM353 639l45 4l21 -4l3 -41l-8 -36l-46 -3l-19 3l-3 42zM188 165l-52 -123l70 -10l-4 -33l-95 2l-86 -2l-4 33l63 9l198 457l41 20l208 -478l63 -8l-4 -33l-106 2l-106 -2l-3 33l67 10l-54 123h-196zM294 395l-6 41
l-87 -232h169z" />
    <glyph glyph-name="Agrave.002" horiz-adv-x="747" 
d="M338 752l-120 98h100l72 -98h-52zM232 237l-68 -194l90 -13l-5 -31l-124 3l-109 -3l-5 31l83 11l254 654l37 14l270 -668l81 -11l-5 -31l-125 3l-136 -3l-5 31l89 13l-72 194h-250zM366 545l-8 53l-111 -317h218z" />
    <glyph glyph-name="Agrave.sc" horiz-adv-x="607" 
d="M268 558l-95 98h84l55 -98h-44zM188 165l-52 -123l70 -10l-4 -33l-95 2l-86 -2l-4 33l63 9l198 457l41 20l208 -478l63 -8l-4 -33l-106 2l-106 -2l-3 33l67 10l-54 123h-196zM294 395l-6 41l-87 -232h169z" />
    <glyph glyph-name="Amacron.002" horiz-adv-x="747" 
d="M233 827h276v-50h-276v50zM232 237l-68 -194l90 -13l-5 -31l-124 3l-109 -3l-5 31l83 11l254 654l37 14l270 -668l81 -11l-5 -31l-125 3l-136 -3l-5 31l89 13l-72 194h-250zM366 545l-8 53l-111 -317h218z" />
    <glyph glyph-name="Amacron.sc" horiz-adv-x="607" 
d="M190 626h220v-50h-220v50zM188 165l-52 -123l70 -10l-4 -33l-95 2l-86 -2l-4 33l63 9l198 457l41 20l208 -478l63 -8l-4 -33l-106 2l-106 -2l-3 33l67 10l-54 123h-196zM294 395l-6 41l-87 -232h169z" />
    <glyph glyph-name="Aogonek.001" horiz-adv-x="747" 
d="M366 545l-8 53l-111 -317h218zM385 709l270 -668l81 -11l-5 -31l-153 3l-46 -77v-12q0 -20 7.5 -33t20 -21t28.5 -11.5t34 -3.5v-24q-47 0 -79 6.5t-51.5 19t-28 31.5t-8.5 44v11l105 80l-78 225h-250l-68 -194l90 -13l-5 -31l-124 3l-109 -3l-5 31l83 11l254 654z" />
    <glyph glyph-name="Aogonek.sc" horiz-adv-x="607" 
d="M188 165l-52 -123l70 -10l-4 -33l-95 2l-86 -2l-4 33l63 9l198 457l41 20l208 -478l63 -8l-4 -33l-122 2l-38 -76v-24q0 -20 21 -34.5t53 -14.5v-30q-77 0 -109 18t-32 55v47l85 85l-60 138h-196zM294 395l-6 41l-87 -232h169z" />
    <glyph glyph-name="Aring.002" horiz-adv-x="747" 
d="M443 787q0 -16 -6.5 -27t-17.5 -18.5t-25 -12.5t-29 -9q-14 0 -27.5 3.5t-25 11.5t-18.5 20t-7 29q0 16 7 27t18 18.5t25 12.5t28 9q13 0 27 -4t25 -11.5t18.5 -20t7.5 -28.5zM323 787q0 -18 12 -29.5t30 -11.5q19 0 30.5 11.5t11.5 29.5q0 17 -11.5 27.5t-30.5 10.5
q-18 0 -30 -10.5t-12 -27.5zM232 237l-68 -194l90 -13l-5 -31l-124 3l-109 -3l-5 31l83 11l254 654l37 14l270 -668l81 -11l-5 -31l-125 3l-136 -3l-5 31l89 13l-72 194h-250zM366 545l-8 53l-111 -317h218z" />
    <glyph glyph-name="Aring.sc" horiz-adv-x="607" 
d="M248 607q0 -17 13 -28.5t33 -11.5t33 11.5t13 28.5t-13 29.5t-33 12.5t-33 -12.5t-13 -29.5zM374 608q0 -20 -7 -32.5t-18 -20.5t-26 -13t-30 -9q-14 0 -28 4t-25.5 12.5t-18.5 22.5t-7 35q0 18 7 30.5t18 21t25.5 14t29.5 10.5q14 0 28.5 -4t26 -13t18.5 -23t7 -35z
M188 165l-52 -123l70 -10l-4 -33l-95 2l-86 -2l-4 33l63 9l198 457l41 20l208 -478l63 -8l-4 -33l-106 2l-106 -2l-3 33l67 10l-54 123h-196zM294 395l-6 41l-87 -232h169z" />
    <glyph glyph-name="Aringacute.002" horiz-adv-x="747" 
d="M444 787q0 -16 -6.5 -27t-18 -18.5t-25.5 -12.5t-29 -9q-14 0 -27.5 4t-25 12t-18.5 20t-7 29q0 16 7 27t18 18t25 12t28 9q9 0 18.5 -1t18.5 -5l28 27h54l-67 -36q12 -8 19.5 -20t7.5 -29zM323 787q0 -18 12 -29t30 -11q20 0 31.5 11t11.5 29q0 17 -11.5 28t-31.5 11
q-18 0 -30 -11t-12 -28zM232 237l-68 -194l90 -13l-5 -31l-124 3l-109 -3l-5 31l83 11l254 654l37 14l270 -668l81 -11l-5 -31l-125 3l-136 -3l-5 31l89 13l-72 194h-250zM366 545l-8 53l-111 -317h218z" />
    <glyph glyph-name="Aringacute.sc" horiz-adv-x="607" 
d="M245 607q0 -17 14 -29t35 -12q20 0 34 12t14 29t-14 30t-34 13q-21 0 -35 -13t-14 -30zM293 535q-14 0 -28 4t-25.5 12t-18.5 21.5t-7 33.5q0 18 7 30.5t18 21t25.5 14t29.5 9.5l38 36h58l-68 -44q22 -8 37 -24t15 -42q0 -19 -7 -31t-18 -20t-26 -12.5t-30 -8.5zM188 165
l-52 -123l70 -10l-4 -33l-95 2l-86 -2l-4 33l63 9l198 457l41 20l208 -478l63 -8l-4 -33l-106 2l-106 -2l-3 33l67 10l-54 123h-196zM294 395l-6 41l-87 -232h169z" />
    <glyph glyph-name="Atilde.002" horiz-adv-x="747" 
d="M251 827l75 18l148 -40l38 44h22l-23 -73l-75 -19l-148 40l-38 -44h-22zM232 237l-68 -194l90 -13l-5 -31l-124 3l-109 -3l-5 31l83 11l254 654l37 14l270 -668l81 -11l-5 -31l-125 3l-136 -3l-5 31l89 13l-72 194h-250zM366 545l-8 53l-111 -317h218z" />
    <glyph glyph-name="Atilde.sc" horiz-adv-x="607" 
d="M201 636l59 16l121 -36l29 37h19l-19 -80l-59 -14l-121 37l-28 -37h-19zM188 165l-52 -123l70 -10l-4 -33l-95 2l-86 -2l-4 33l63 9l198 457l41 20l208 -478l63 -8l-4 -33l-106 2l-106 -2l-3 33l67 10l-54 123h-196zM294 395l-6 41l-87 -232h169z" />
    <glyph glyph-name="B.sc" horiz-adv-x="523" 
d="M149 1l-110 -2l-4 33l72 10v425l-72 9l4 32l110 -2l151 2q39 0 68 -9.5t48 -25t28.5 -36t9.5 -41.5q0 -45 -35 -78.5t-89 -45.5q77 -3 116.5 -37.5t39.5 -87.5q0 -35 -15.5 -60t-44 -42.5t-67.5 -28.5t-85 -17zM186 468v-183h68q53 0 85.5 29.5t32.5 71.5q0 38 -25.5 62
t-74.5 25zM259 35q41 0 69 10.5t44.5 26.5t23.5 35.5t7 37.5q0 45 -33 75t-93 30h-91v-210z" />
    <glyph glyph-name="C.sc" horiz-adv-x="579" 
d="M538 171l-22 -132q-13 -7 -35.5 -14.5t-48.5 -14.5l-54 -13q-28 -6 -52 -10q-55 0 -106 16.5t-90.5 48.5t-63 80t-23.5 110q0 64 22 112t62 82t96 54.5t123 30.5q30 0 57.5 -4.5t51.5 -12t42.5 -16.5t30.5 -17v-124h-43l-24 74q-17 19 -50.5 36.5t-81.5 17.5
q-45 0 -81.5 -14t-63 -41t-41 -66.5t-14.5 -89.5q0 -46 14.5 -88t43 -73.5t69.5 -50t94 -18.5q35 0 60.5 15t41.5 34l43 88h43z" />
    <glyph glyph-name="Cacute.002" horiz-adv-x="703" 
d="M371 752l73 98h100l-121 -98h-52zM664 194l-28 -132q-20 -10 -48.5 -22t-61.5 -23.5t-66.5 -21t-61.5 -13.5q-69 0 -133 23.5t-113.5 69t-79.5 113t-30 155.5q0 87 27.5 152.5t77 111.5t117 73.5t148.5 37.5q40 0 76.5 -8.5t68 -20.5t56.5 -26.5t40 -26.5v-123h-51
l-32 92q-10 10 -26.5 21.5t-38 21.5t-48 16.5t-57.5 6.5q-59 0 -106.5 -19.5t-82 -58.5t-53 -96t-18.5 -132q0 -60 19 -119t56 -106.5t91 -77t124 -29.5q22 0 41 5.5t35 13.5t29 17t22 16l56 109h51z" />
    <glyph glyph-name="Cacute.sc" horiz-adv-x="579" 
d="M538 171l-22 -132q-13 -7 -35.5 -14.5t-48.5 -14.5l-54 -13q-28 -6 -52 -10q-55 0 -106 16.5t-90.5 48.5t-63 80t-23.5 110q0 64 22 112t62 82t96 54.5t123 30.5q30 0 57.5 -4.5t51.5 -12t42.5 -16.5t30.5 -17v-124h-43l-24 74q-17 19 -50.5 36.5t-81.5 17.5
q-45 0 -81.5 -14t-63 -41t-41 -66.5t-14.5 -89.5q0 -46 14.5 -88t43 -73.5t69.5 -50t94 -18.5q35 0 60.5 15t41.5 34l43 88h43zM305 558l55 98h84l-94 -98h-45z" />
    <glyph glyph-name="Ccaron.002" horiz-adv-x="703" 
d="M386 795l10 -10l11 10l83 55h50l-104 -98h-79l-104 98h50zM664 194l-28 -132q-20 -10 -48.5 -22t-61.5 -23.5t-66.5 -21t-61.5 -13.5q-69 0 -133 23.5t-113.5 69t-79.5 113t-30 155.5q0 87 27.5 152.5t77 111.5t117 73.5t148.5 37.5q40 0 76.5 -8.5t68 -20.5t56.5 -26.5
t40 -26.5v-123h-51l-32 92q-10 10 -26.5 21.5t-38 21.5t-48 16.5t-57.5 6.5q-59 0 -106.5 -19.5t-82 -58.5t-53 -96t-18.5 -132q0 -60 19 -119t56 -106.5t91 -77t124 -29.5q22 0 41 5.5t35 13.5t29 17t22 16l56 109h51z" />
    <glyph glyph-name="Ccaron.sc" horiz-adv-x="579" 
d="M538 171l-22 -132q-13 -7 -35.5 -14.5t-48.5 -14.5l-54 -13q-28 -6 -52 -10q-55 0 -106 16.5t-90.5 48.5t-63 80t-23.5 110q0 64 22 112t62 82t96 54.5t123 30.5q30 0 57.5 -4.5t51.5 -12t42.5 -16.5t30.5 -17v-124h-43l-24 74q-17 19 -50.5 36.5t-81.5 17.5
q-45 0 -81.5 -14t-63 -41t-41 -66.5t-14.5 -89.5q0 -46 14.5 -88t43 -73.5t69.5 -50t94 -18.5q35 0 60.5 15t41.5 34l43 88h43zM255 656l63 -39l9 -15l9 15l63 39h44l-84 -98h-65l-83 98h44z" />
    <glyph glyph-name="Ccedilla.001" horiz-adv-x="703" 
d="M367 -16q-64 5 -122.5 30.5t-103.5 71t-72 110t-27 147.5q0 87 27.5 152.5t77 111.5t117 73.5t148.5 37.5q40 0 76.5 -8.5t68 -20.5t56.5 -26.5t40 -26.5l-1 -123h-50l-32 92q-10 10 -26.5 21.5t-38 21.5t-48 16.5t-57.5 6.5q-59 0 -106.5 -19.5t-82 -58.5t-53 -96
t-18.5 -132q0 -60 19 -119t56 -106.5t91 -77t124 -29.5q22 0 41 5.5t35 13.5t29 17t22 16l56 109h51l-28 -132q-20 -10 -48.5 -22t-61 -23.5t-66 -21t-61.5 -13.5l-15 -13q9 -2 19.5 -6t20 -10t15.5 -15t6 -22q0 -16 -7.5 -28t-18.5 -21t-24 -15t-25 -10l-48 -17h-59l25 37
h81q12 6 19 16t7 20t-8 17t-20.5 11t-27.5 6t-29 2z" />
    <glyph glyph-name="Ccedilla.sc" horiz-adv-x="579" 
d="M287 -145q11 8 17.5 20t6.5 24q0 24 -21.5 33.5t-42.5 9.5l41 47q-50 6 -94 25t-78 50.5t-53.5 76t-19.5 101.5q0 64 22 112t62 82t96 54.5t123 30.5q30 0 57.5 -4.5t51.5 -12t42.5 -16.5t30.5 -17v-124h-43l-24 74q-17 19 -50.5 36.5t-81.5 17.5q-45 0 -81.5 -14
t-63 -41t-41 -66.5t-14.5 -89.5q0 -46 14.5 -88t43 -73.5t69.5 -50t94 -18.5q35 0 60.5 15t41.5 34l43 88h43l-22 -132q-13 -7 -35.5 -14.5t-48.5 -14.5l-54 -12q-28 -7 -52 -11h-11l-18 -21q23 0 43.5 -12.5t20.5 -36.5q0 -18 -7 -31t-17.5 -23t-23 -16.5t-23.5 -10.5
l-39 -13h-46l23 32h59z" />
    <glyph glyph-name="Ccircumflex.002" horiz-adv-x="703" 
d="M265 752l104 98h79l104 -98h-50l-83 55l-11 10l-10 -10l-83 -55h-50zM664 194l-28 -132q-20 -10 -48.5 -22t-61.5 -23.5t-66.5 -21t-61.5 -13.5q-69 0 -133 23.5t-113.5 69t-79.5 113t-30 155.5q0 87 27.5 152.5t77 111.5t117 73.5t148.5 37.5q40 0 76.5 -8.5t68 -20.5
t56.5 -26.5t40 -26.5v-123h-51l-32 92q-10 10 -26.5 21.5t-38 21.5t-48 16.5t-57.5 6.5q-59 0 -106.5 -19.5t-82 -58.5t-53 -96t-18.5 -132q0 -60 19 -119t56 -106.5t91 -77t124 -29.5q22 0 41 5.5t35 13.5t29 17t22 16l56 109h51z" />
    <glyph glyph-name="Ccircumflex.sc" horiz-adv-x="579" 
d="M538 171l-22 -132q-13 -7 -35.5 -14.5t-48.5 -14.5l-54 -13q-28 -6 -52 -10q-55 0 -106 16.5t-90.5 48.5t-63 80t-23.5 110q0 64 22 112t62 82t96 54.5t123 30.5q30 0 57.5 -4.5t51.5 -12t42.5 -16.5t30.5 -17v-124h-43l-24 74q-17 19 -50.5 36.5t-81.5 17.5
q-45 0 -81.5 -14t-63 -41t-41 -66.5t-14.5 -89.5q0 -46 14.5 -88t43 -73.5t69.5 -50t94 -18.5q35 0 60.5 15t41.5 34l43 88h43zM220 558l83 98h64l85 -98h-44l-63 39l-11 16l-8 -16l-62 -39h-44z" />
    <glyph glyph-name="Cdotaccent.002" horiz-adv-x="703" 
d="M355 850l67 5l21 -5l4 -49l-9 -43l-67 -5l-20 5l-5 50zM664 194l-28 -132q-20 -10 -48.5 -22t-61.5 -23.5t-66.5 -21t-61.5 -13.5q-69 0 -133 23.5t-113.5 69t-79.5 113t-30 155.5q0 87 27.5 152.5t77 111.5t117 73.5t148.5 37.5q40 0 76.5 -8.5t68 -20.5t56.5 -26.5
t40 -26.5v-123h-51l-32 92q-10 10 -26.5 21.5t-38 21.5t-48 16.5t-57.5 6.5q-59 0 -106.5 -19.5t-82 -58.5t-53 -96t-18.5 -132q0 -60 19 -119t56 -106.5t91 -77t124 -29.5q22 0 41 5.5t35 13.5t29 17t22 16l56 109h51z" />
    <glyph glyph-name="Cdotaccent.sc" horiz-adv-x="579" 
d="M538 171l-22 -132q-13 -7 -35.5 -14.5t-48.5 -14.5l-54 -13q-28 -6 -52 -10q-55 0 -106 16.5t-90.5 48.5t-63 80t-23.5 110q0 64 22 112t62 82t96 54.5t123 30.5q30 0 57.5 -4.5t51.5 -12t42.5 -16.5t30.5 -17v-124h-43l-24 74q-17 19 -50.5 36.5t-81.5 17.5
q-45 0 -81.5 -14t-63 -41t-41 -66.5t-14.5 -89.5q0 -46 14.5 -88t43 -73.5t69.5 -50t94 -18.5q35 0 60.5 15t41.5 34l43 88h43zM292 651l58 3l20 -4l4 -47l-9 -38l-56 -5l-20 5l-4 45z" />
    <glyph glyph-name="D.sc" horiz-adv-x="604" 
d="M146 506l156 2q120 1 189.5 -61t69.5 -180q0 -54 -17 -100.5t-50.5 -81.5t-83.5 -57t-117 -29l-147 2l-107 -2l-4 33l72 10v425l-72 9l4 32zM186 468v-426l101 -6q41 -2 75.5 15t59 48t38 72t13.5 87q0 47 -13 87t-39 69t-65 44.5t-92 13.5z" />
    <glyph glyph-name="Dcaron.002" horiz-adv-x="732" 
d="M334 795l10 -10l11 10l83 55h50l-104 -98h-79l-104 98h50zM173 698l191 3q75 0 135.5 -21.5t103 -63.5t65 -104t22.5 -142q0 -167 -85 -259t-253 -112l-178 3l-139 -3l-5 31l94 13v614l-94 13l5 31zM213 656v-604l132 -10q54 1 99 23t77.5 62.5t50.5 99t18 131.5
q0 62 -17 117t-51 96t-85.5 65t-120.5 25z" />
    <glyph glyph-name="Dcaron.sc" horiz-adv-x="604" 
d="M186 468v-426l101 -6q41 -2 75.5 15t59 48t38 72t13.5 87q0 47 -13 87t-39 69t-65 44.5t-92 13.5zM146 506l156 2q120 1 189.5 -61t69.5 -180q0 -54 -17 -100.5t-50.5 -81.5t-83.5 -57t-117 -29l-147 2l-107 -2l-4 33l72 10v425l-72 9l4 32zM405 656l-84 -98h-64l-84 98
h43l63 -39l10 -15l10 15l63 39h43z" />
    <glyph glyph-name="Dcroat.sc" horiz-adv-x="604" 
d="M107 283v184l-72 9l4 32l107 -2l156 2q120 1 189.5 -61t69.5 -180q0 -54 -17 -100.5t-50.5 -81.5t-83.5 -57t-117 -29l-147 2l-107 -2l-4 33l72 10v201h-64v40h64zM186 468v-185h100v-40h-100v-201l101 -6q41 -2 75.5 15t59 48t38 72t13.5 87q0 47 -13 87t-39 69
t-65 44.5t-92 13.5z" />
    <glyph glyph-name="E.sc" horiz-adv-x="517" 
d="M459 508l8 -138h-25l-44 95l-212 2v-180l113 3l31 77h26l-8 -98l8 -102h-26l-31 77l-113 3v-206l219 2l53 98h29l-28 -142l-312 2l-108 -2l-4 33l72 10v425l-72 9l4 32l108 -2z" />
    <glyph glyph-name="Eacute.002" horiz-adv-x="625" 
d="M283 752l72 98h100l-120 -98h-52zM562 701l9 -176h-28l-55 130l-275 3v-273l148 4l40 105h30l-10 -121l10 -133h-30l-40 104l-148 4v-306l285 3l67 135h33l-36 -181l-389 3l-138 -3l-5 31l94 13v614l-94 13l5 31l138 -3z" />
    <glyph glyph-name="Eacute.sc" horiz-adv-x="517" 
d="M248 558l55 98h84l-94 -98h-45zM459 508l8 -138h-25l-44 95l-212 2v-180l113 3l31 77h26l-8 -98l8 -102h-26l-31 77l-113 3v-206l219 2l53 98h29l-28 -142l-312 2l-108 -2l-4 33l72 10v425l-72 9l4 32l108 -2z" />
    <glyph glyph-name="Ebreve.002" horiz-adv-x="625" 
d="M325 783q22 0 40 7.5t31.5 18t23.5 23t17 22.5l21 -16q-6 -7 -12.5 -20t-19 -28t-33 -31t-53.5 -29q-32 0 -55.5 11t-41 27.5t-30 35.5t-21.5 34l24 16l16 -22q10 -13 23 -23.5t30 -18t40 -7.5zM562 701l9 -176h-28l-55 130l-275 3v-273l148 4l40 105h30l-10 -121
l10 -133h-30l-40 104l-148 4v-306l285 3l67 135h33l-36 -181l-389 3l-138 -3l-5 31l94 13v614l-94 13l5 31l138 -3z" />
    <glyph glyph-name="Ebreve.sc" horiz-adv-x="517" 
d="M273 604q35 0 56 16.5t32 29.5l18 -19q-5 -11 -10.5 -21.5t-16 -20t-26.5 -19.5t-42 -19q-25 0 -43.5 7.5t-33 19t-24.5 25.5t-17 28l20 19l14 -14q7 -8 17.5 -15t24 -12t31.5 -5zM459 508l8 -138h-25l-44 95l-212 2v-180l113 3l31 77h26l-8 -98l8 -102h-26l-31 77
l-113 3v-206l219 2l53 98h29l-28 -142l-312 2l-108 -2l-4 33l72 10v425l-72 9l4 32l108 -2z" />
    <glyph glyph-name="Ecaron.002" horiz-adv-x="625" 
d="M330 795l10 -10l11 10l83 55h50l-104 -98h-79l-104 98h50zM562 701l9 -176h-28l-55 130l-275 3v-273l148 4l40 105h30l-10 -121l10 -133h-30l-40 104l-148 4v-306l285 3l67 135h33l-36 -181l-389 3l-138 -3l-5 31l94 13v614l-94 13l5 31l138 -3z" />
    <glyph glyph-name="Ecaron.sc" horiz-adv-x="517" 
d="M203 656l63 -39l9 -15l9 15l63 39h44l-84 -98h-65l-83 98h44zM459 508l8 -138h-25l-44 95l-212 2v-180l113 3l31 77h26l-8 -98l8 -102h-26l-31 77l-113 3v-206l219 2l53 98h29l-28 -142l-312 2l-108 -2l-4 33l72 10v425l-72 9l4 32l108 -2z" />
    <glyph glyph-name="Ecircumflex.002" horiz-adv-x="625" 
d="M197 752l104 98h79l104 -98h-50l-83 55l-11 10l-10 -10l-83 -55h-50zM562 701l9 -176h-28l-55 130l-275 3v-273l148 4l40 105h30l-10 -121l10 -133h-30l-40 104l-148 4v-306l285 3l67 135h33l-36 -181l-389 3l-138 -3l-5 31l94 13v614l-94 13l5 31l138 -3z" />
    <glyph glyph-name="Ecircumflex.sc" horiz-adv-x="517" 
d="M168 558l83 98h64l85 -98h-44l-63 39l-11 16l-8 -16l-62 -39h-44zM459 508l8 -138h-25l-44 95l-212 2v-180l113 3l31 77h26l-8 -98l8 -102h-26l-31 77l-113 3v-206l219 2l53 98h29l-28 -142l-312 2l-108 -2l-4 33l72 10v425l-72 9l4 32l108 -2z" />
    <glyph glyph-name="Edieresis.002" horiz-adv-x="625" 
d="M193 846l57 5l24 -5l5 -45l-10 -39l-56 -5l-24 5l-4 46zM413 846l57 5l24 -5l4 -45l-9 -39l-56 -5l-24 5l-5 46zM562 701l9 -176h-28l-55 130l-275 3v-273l148 4l40 105h30l-10 -121l10 -133h-30l-40 104l-148 4v-306l285 3l67 135h33l-36 -181l-389 3l-138 -3l-5 31
l94 13v614l-94 13l5 31l138 -3z" />
    <glyph glyph-name="Edieresis.sc" horiz-adv-x="517" 
d="M167 639l46 4l19 -4l5 -41l-8 -36l-46 -3l-19 3l-4 42zM339 639l47 4l19 -4l4 -41l-8 -36l-45 -3l-19 3l-5 42zM459 508l8 -138h-25l-44 95l-212 2v-180l113 3l31 77h26l-8 -98l8 -102h-26l-31 77l-113 3v-206l219 2l53 98h29l-28 -142l-312 2l-108 -2l-4 33l72 10v425
l-72 9l4 32l108 -2z" />
    <glyph glyph-name="Edotaccent.002" horiz-adv-x="625" 
d="M292 850l67 5l21 -5l4 -49l-9 -43l-67 -5l-20 5l-5 50zM562 701l9 -176h-28l-55 130l-275 3v-273l148 4l40 105h30l-10 -121l10 -133h-30l-40 104l-148 4v-306l285 3l67 135h33l-36 -181l-389 3l-138 -3l-5 31l94 13v614l-94 13l5 31l138 -3z" />
    <glyph glyph-name="Edotaccent.sc" horiz-adv-x="517" 
d="M243 643l57 4l21 -5l4 -46l-9 -40l-56 -5l-20 5l-5 47zM459 508l8 -138h-25l-44 95l-212 2v-180l113 3l31 77h26l-8 -98l8 -102h-26l-31 77l-113 3v-206l219 2l53 98h29l-28 -142l-312 2l-108 -2l-4 33l72 10v425l-72 9l4 32l108 -2z" />
    <glyph glyph-name="Egrave.002" horiz-adv-x="625" 
d="M326 752l-120 98h100l72 -98h-52zM562 701l9 -176h-28l-55 130l-275 3v-273l148 4l40 105h30l-10 -121l10 -133h-30l-40 104l-148 4v-306l285 3l67 135h33l-36 -181l-389 3l-138 -3l-5 31l94 13v614l-94 13l5 31l138 -3z" />
    <glyph glyph-name="Egrave.sc" horiz-adv-x="517" 
d="M258 558l-95 98h85l54 -98h-44zM459 508l8 -138h-25l-44 95l-212 2v-180l113 3l31 77h26l-8 -98l8 -102h-26l-31 77l-113 3v-206l219 2l53 98h29l-28 -142l-312 2l-108 -2l-4 33l72 10v425l-72 9l4 32l108 -2z" />
    <glyph glyph-name="Emacron.002" horiz-adv-x="625" 
d="M195 827h276v-50h-276v50zM562 701l9 -176h-28l-55 130l-275 3v-273l148 4l40 105h30l-10 -121l10 -133h-30l-40 104l-148 4v-306l285 3l67 135h33l-36 -181l-389 3l-138 -3l-5 31l94 13v614l-94 13l5 31l138 -3z" />
    <glyph glyph-name="Emacron.sc" horiz-adv-x="517" 
d="M169 626h219v-50h-219v50zM459 508l8 -138h-25l-44 95l-212 2v-180l113 3l31 77h26l-8 -98l8 -102h-26l-31 77l-113 3v-206l219 2l53 98h29l-28 -142l-312 2l-108 -2l-4 33l72 10v425l-72 9l4 32l108 -2z" />
    <glyph glyph-name="Eng.001" horiz-adv-x="744" 
d="M185 43l85 -13l-5 -31l-105 3l-125 -3l-5 31l94 13v605l-90 22l5 31l97 -3l67 3l357 -523l19 -55v534l-89 13l5 31l109 -3l125 3l5 -31l-94 -13v-659l-94 -173h-120v79h67l67 65l54 29h-35l-379 563l-15 67v-585z" />
    <glyph glyph-name="Eng.sc" horiz-adv-x="619" 
d="M469 -2l-299 388l-13 65v-409l69 -10l-5 -33l-84 2l-98 -2l-4 33l72 10v422l-68 12l4 32l74 -2l56 2l278 -331l16 -59v349l-67 9l3 32l86 -2l97 2l3 -32l-71 -9v-469l-74 -168h-98v68h57l52 79l28 21h-14z" />
    <glyph glyph-name="Eogonek.001" horiz-adv-x="625" 
d="M548 -180q-47 0 -79 6.5t-51.5 19t-28 31.5t-8.5 44v11l114 68l-322 2l-138 -3l-5 31l94 13v614l-94 13l5 31l138 -3l389 3l9 -176h-28l-55 130l-275 3v-273l148 4l40 105h30l-10 -121l10 -133h-30l-40 104l-148 4v-306l285 3l67 135h33l-36 -181l-57 1l-47 -87
q0 -20 7.5 -33t20 -21t28.5 -11.5t34 -3.5v-24z" />
    <glyph glyph-name="Eogonek.sc" horiz-adv-x="517" 
d="M459 508l8 -138h-25l-44 95l-212 2v-180l113 3l31 77h26l-8 -98l8 -102h-26l-31 77l-113 3v-206l219 2l53 98h29l-28 -142l-47 1l-35 -79v-20q0 -20 20.5 -34.5t52.5 -14.5v-30q-76 0 -108 18t-32 55v44l75 61l-238 1l-108 -2l-4 33l72 10v425l-72 9l4 32l108 -2z" />
    <glyph glyph-name="Euro.sc" horiz-adv-x="573" 
d="M198 181q16 -57 59 -92.5t115 -35.5q27 0 47 3.5t35 8.5t25 10l20 9l16 -33q-9 -6 -26 -14t-38 -17t-45 -17t-49 -14q-102 0 -164.5 47.5t-80.5 144.5h-57v47h53q-1 3 -1 10v11v15q0 7 1 15h-53v48h59q17 82 78 126.5t161 65.5q35 0 62 -5.5t47.5 -14t35 -19t25.5 -20.5
v-105h-39l-19 72q-15 16 -42.5 28.5t-80.5 12.5q-25 0 -48.5 -9t-43.5 -26.5t-35 -44t-21 -61.5h252l-23 -48h-233v-15v-18q0 -9 2 -18h207l-23 -47h-178z" />
    <glyph glyph-name="Euro.tlf" 
d="M168 257q10 -44 29 -81t47.5 -63.5t67 -41.5t86.5 -15q33 0 57 5.5t42.5 13.5t31.5 17l24 16l19 -38q-11 -8 -32 -19t-47.5 -23t-57 -23.5t-61.5 -19.5q-128 0 -205.5 70t-99.5 202h-74v51h69q-1 9 -1 15v16v27q0 13 2 26h-70v51h76q11 60 35.5 104.5t62 77t87 54.5
t111.5 36q46 0 81 -7.5t61 -19t44 -24t30 -22.5v-131h-45l-24 93q-10 11 -23.5 23t-33 21.5t-45.5 16t-60 6.5q-32 0 -63 -16t-56.5 -46t-44 -72t-26.5 -94h328l-26 -51h-308v-27q0 -29 3 -57h275l-26 -51h-240z" />
    <glyph glyph-name="Euro.tlf.sc" 
d="M220 181q17 -57 58 -92.5t112 -35.5q55 0 84 11.5t47 19.5l16 -33q-9 -6 -26 -14t-38 -17t-45 -17t-49 -14q-102 0 -164.5 47.5t-80.5 144.5h-57v47h53q-2 3 -2 10v11v15q0 7 1 15h-52v48h59q17 82 77.5 126.5t161.5 65.5q35 0 62 -5.5t47.5 -14t35 -19t24.5 -20.5v-105
h-38l-19 72q-15 16 -42.5 28.5t-80.5 12.5q-25 0 -49 -9t-44 -26.5t-34.5 -44t-20.5 -61.5h251l-23 -48h-232v-15v-18q0 -9 2 -18h207l-23 -47h-178z" />
    <glyph glyph-name="F.sc" horiz-adv-x="487" 
d="M39 -1l-4 33l72 10v425l-72 9l4 32l108 -2l312 2l8 -142h-25l-44 99l-212 2v-192l113 3l31 77h26l-8 -98l8 -101h-26l-31 77l-113 3v-194l94 -10l-3 -33l-130 2z" />
    <glyph glyph-name="G.sc" horiz-adv-x="609" 
d="M525 40q-10 -7 -32.5 -14t-51.5 -14t-61.5 -13.5t-62.5 -11.5q-54 0 -104 16.5t-87.5 48.5t-60 79t-22.5 108q0 66 21 114t59.5 82t93 54.5t120.5 31.5q31 0 60 -5t54 -12.5t44.5 -16.5t30.5 -17v-122h-38l-26 71q-14 23 -49.5 39.5t-86.5 16.5q-89 0 -143 -54.5
t-54 -155.5q0 -48 15.5 -90t43.5 -73.5t67.5 -49.5t88.5 -18q36 0 63 8.5t40 16.5v136l-71 10l4 35l106 -3l88 3l4 -35l-53 -10v-155z" />
    <glyph glyph-name="Gbreve.002" horiz-adv-x="742" 
d="M404 783q22 0 40 7.5t31.5 18t23.5 23t17 22.5l21 -16q-6 -7 -12.5 -20t-19 -28t-33 -31t-53.5 -29q-32 0 -55.5 11t-41 27.5t-30 35.5t-21.5 34l24 16l17 -22q9 -13 22 -23.5t30 -18t40 -7.5zM647 60l-50 -17l-68 -23q-36 -12 -73.5 -22.5t-67.5 -15.5q-69 0 -131.5 23
t-110 69t-76 113.5t-28.5 156.5q0 86 26 150.5t73.5 110t113.5 73.5t147 40q40 0 78.5 -8.5t71 -20.5t58 -26t39.5 -26v-124h-44l-32 88q-11 10 -28 22.5t-40.5 23t-52.5 17.5t-63 7q-56 0 -102 -20.5t-78.5 -60t-50.5 -96.5t-18 -129q0 -62 20 -122t56 -106.5t87.5 -75
t114.5 -28.5q24 0 46 6t40 15t31.5 19t22.5 19v192l-90 13l5 30l130 -3l108 3l4 -30l-68 -13v-224z" />
    <glyph glyph-name="Gbreve.sc" horiz-adv-x="609" 
d="M525 40q-10 -7 -32.5 -14t-51.5 -14t-61.5 -13.5t-62.5 -11.5q-54 0 -104 16.5t-87.5 48.5t-60 79t-22.5 108q0 66 21 114t59.5 82t93 54.5t120.5 31.5q31 0 60 -5t54 -12.5t44.5 -16.5t30.5 -17v-122h-38l-26 71q-14 23 -49.5 39.5t-86.5 16.5q-89 0 -143 -54.5
t-54 -155.5q0 -48 15.5 -90t43.5 -73.5t67.5 -49.5t88.5 -18q36 0 63 8.5t40 16.5v136l-71 10l4 35l106 -3l88 3l4 -35l-53 -10v-155zM330 605q36 0 57 16t32 29l19 -19q-4 -12 -9 -22t-15 -19.5t-27 -19t-45 -19.5q-25 0 -44 7.5t-33 19t-24.5 25.5t-17.5 28l21 19
q11 -13 31 -29t55 -16z" />
    <glyph glyph-name="Gcircumflex.002" horiz-adv-x="742" 
d="M265 752l104 98h79l104 -98h-50l-83 55l-11 10l-10 -10l-83 -55h-50zM647 60l-49 -17l-68 -23q-37 -12 -74.5 -22.5t-67.5 -15.5q-69 0 -131.5 23t-110 69t-76 113.5t-28.5 156.5q0 86 26 150.5t73.5 110t113.5 73.5t147 40q40 0 78.5 -8.5t71 -20.5t58 -26t39.5 -26
v-124h-44l-32 88q-11 10 -28 22.5t-40.5 23t-52.5 17.5t-63 7q-56 0 -102 -20.5t-78.5 -60t-50.5 -96.5t-18 -129q0 -62 20 -122t56 -106.5t87.5 -75t114.5 -28.5q24 0 46 6t40 15t31.5 19t22.5 19v192l-90 13l5 30l130 -3l108 3l4 -30l-68 -13v-224z" />
    <glyph glyph-name="Gcircumflex.sc" horiz-adv-x="609" 
d="M525 40q-10 -7 -32.5 -14t-51.5 -14t-61.5 -13.5t-62.5 -11.5q-54 0 -104 16.5t-87.5 48.5t-60 79t-22.5 108q0 66 21 114t59.5 82t93 54.5t120.5 31.5q31 0 60 -5t54 -12.5t44.5 -16.5t30.5 -17v-122h-38l-26 71q-14 23 -49.5 39.5t-86.5 16.5q-89 0 -143 -54.5
t-54 -155.5q0 -48 15.5 -90t43.5 -73.5t67.5 -49.5t88.5 -18q36 0 63 8.5t40 16.5v136l-71 10l4 35l106 -3l88 3l4 -35l-53 -10v-155zM219 558l84 98h64l84 -98h-44l-62 39l-11 16l-8 -16l-63 -39h-44z" />
    <glyph glyph-name="Gcommaaccent.001" horiz-adv-x="742" 
d="M379 -116l-40 23v47h92v-72l-60 -61l-28 13zM647 60l-49 -17l-68 -23q-37 -12 -74.5 -22.5t-67.5 -15.5q-69 0 -131.5 23t-110 69t-76 113.5t-28.5 156.5q0 86 26 150.5t73.5 110t113.5 73.5t147 40q40 0 78.5 -8.5t71 -20.5t58 -26t39.5 -26v-124h-44l-32 88
q-11 10 -28 22.5t-40.5 23t-52.5 17.5t-63 7q-56 0 -102 -20.5t-78.5 -60t-50.5 -96.5t-18 -129q0 -62 20 -122t56 -106.5t87.5 -75t114.5 -28.5q24 0 46 6t40 15t31.5 19t22.5 19v192l-90 13l5 30l130 -3l108 3l4 -30l-68 -13v-224z" />
    <glyph glyph-name="Gcommaaccent.sc" horiz-adv-x="609" 
d="M525 40q-10 -7 -32.5 -14t-51.5 -14t-61.5 -13.5t-62.5 -11.5q-54 0 -104 16.5t-87.5 48.5t-60 79t-22.5 108q0 66 21 114t59.5 82t93 54.5t120.5 31.5q31 0 60 -5t54 -12.5t44.5 -16.5t30.5 -17v-122h-38l-26 71q-14 23 -49.5 39.5t-86.5 16.5q-89 0 -143 -54.5
t-54 -155.5q0 -48 15.5 -90t43.5 -73.5t67.5 -49.5t88.5 -18q36 0 63 8.5t40 16.5v136l-71 10l4 35l106 -3l88 3l4 -35l-53 -10v-155zM296 -91l-18 25v30h76v-59l-48 -87l-28 7z" />
    <glyph glyph-name="Gdotaccent.002" horiz-adv-x="742" 
d="M373 850l67 5l21 -5l4 -49l-9 -43l-67 -5l-20 5l-5 50zM647 60l-49 -17l-68 -23q-37 -12 -74.5 -22.5t-67.5 -15.5q-69 0 -131.5 23t-110 69t-76 113.5t-28.5 156.5q0 86 26 150.5t73.5 110t113.5 73.5t147 40q40 0 78.5 -8.5t71 -20.5t58 -26t39.5 -26v-124h-44l-32 88
q-11 10 -28 22.5t-40.5 23t-52.5 17.5t-63 7q-56 0 -102 -20.5t-78.5 -60t-50.5 -96.5t-18 -129q0 -62 20 -122t56 -106.5t87.5 -75t114.5 -28.5q24 0 46 6t40 15t31.5 19t22.5 19v192l-90 13l5 30l130 -3l108 3l4 -30l-68 -13v-224z" />
    <glyph glyph-name="Gdotaccent.sc" horiz-adv-x="609" 
d="M525 40q-10 -7 -32.5 -14t-51.5 -14t-61.5 -13.5t-62.5 -11.5q-54 0 -104 16.5t-87.5 48.5t-60 79t-22.5 108q0 66 21 114t59.5 82t93 54.5t120.5 31.5q31 0 60 -5t54 -12.5t44.5 -16.5t30.5 -17v-122h-38l-26 71q-14 23 -49.5 39.5t-86.5 16.5q-89 0 -143 -54.5
t-54 -155.5q0 -48 15.5 -90t43.5 -73.5t67.5 -49.5t88.5 -18q36 0 63 8.5t40 16.5v136l-71 10l4 35l106 -3l88 3l4 -35l-53 -10v-155zM300 647l58 4l21 -5l3 -46l-8 -40l-56 -4l-20 4l-5 47z" />
    <glyph glyph-name="H.sc" horiz-adv-x="624" 
d="M35 476l4 32l108 -2l104 2l4 -32l-69 -9v-181h256v181l-72 9l4 32l108 -2l103 2l4 -32l-68 -9v-425l68 -10l-4 -33l-103 2l-108 -2l-4 33l72 10v199h-256v-199l69 -10l-4 -33l-104 2l-108 -2l-4 33l72 10v425z" />
    <glyph glyph-name="Hbar.sc" horiz-adv-x="624" 
d="M35 476l4 32l108 -2l104 2l4 -32l-69 -9v-93h256v93l-72 9l4 32l108 -2l103 2l4 -32l-68 -9v-425l68 -10l-4 -33l-103 2l-108 -2l-4 33l72 10v199h-256v-199l69 -10l-4 -33l-104 2l-108 -2l-4 33l72 10v425zM442 286v55h-256v-55h256z" />
    <glyph glyph-name="Hcircumflex.002" horiz-adv-x="756" 
d="M229 752l105 98h79l104 -98h-50l-83 55l-11 10l-11 -10l-83 -55h-50zM30 670l5 31l134 -3l129 3l5 -31l-90 -13v-271h336v271l-96 13l5 31l136 -3l127 3l5 -31l-88 -13v-614l88 -13l-5 -31l-127 3l-136 -3l-5 31l96 13v297h-336v-297l90 -13l-5 -31l-129 3l-134 -3l-5 31
l94 13v614z" />
    <glyph glyph-name="Hcircumflex.sc" horiz-adv-x="624" 
d="M197 558l84 98h64l84 -98h-44l-62 39l-11 16l-8 -16l-63 -39h-44zM35 476l4 32l108 -2l104 2l4 -32l-69 -9v-181h256v181l-72 9l4 32l108 -2l103 2l4 -32l-68 -9v-425l68 -10l-4 -33l-103 2l-108 -2l-4 33l72 10v199h-256v-199l69 -10l-4 -33l-104 2l-108 -2l-4 33l72 10
v425z" />
    <glyph glyph-name="I.sc" horiz-adv-x="294" 
d="M147 1l-108 -2l-4 33l73 10v425l-73 9l4 32l108 -2l108 2l4 -32l-72 -9v-425l72 -10l-4 -33z" />
    <glyph glyph-name="IJ.sc" horiz-adv-x="494" 
d="M396 98q0 -47 -5 -78.5t-26 -56.5l-79 -89h-70v90h81l7 15q9 20 11 42.5t2 52.5v393l-47 9l4 32l83 -1l103 1l4 -32l-68 -9v-369zM147 2l-108 -3l-4 33l73 10v425l-73 9l4 32l108 -2l79 2l4 -32l-43 -9v-425l69 -10l-4 -33z" />
    <glyph glyph-name="Iacute.002" horiz-adv-x="337" 
d="M137 752l73 98h100l-121 -98h-52zM169 2l-134 -3l-5 32l94 13v613l-94 13l5 31l134 -3l133 3l5 -31l-94 -13v-613l94 -13l-5 -32z" />
    <glyph glyph-name="Iacute.sc" horiz-adv-x="294" 
d="M124 558l54 98h85l-94 -98h-45zM147 1l-108 -2l-4 33l73 10v425l-73 9l4 32l108 -2l108 2l4 -32l-72 -9v-425l72 -10l-4 -33z" />
    <glyph glyph-name="Ibreve.002" horiz-adv-x="337" 
d="M165 783q22 0 40 7.5t31.5 18t23.5 23t17 22.5l21 -16q-6 -7 -12.5 -20t-19 -28t-33 -31t-53.5 -29q-32 0 -55.5 11t-41 27.5t-30 35.5t-21.5 34l24 16l17 -22q9 -13 22 -23.5t30 -18t40 -7.5zM169 2l-134 -3l-5 32l94 13v613l-94 13l5 31l134 -3l133 3l5 -31l-94 -13
v-613l94 -13l-5 -32z" />
    <glyph glyph-name="Ibreve.sc" horiz-adv-x="294" 
d="M145 604q35 0 56 17t32 29l18 -19q-5 -12 -10.5 -22t-15.5 -19.5t-26.5 -19t-42.5 -19.5q-25 0 -44 7.5t-33.5 19t-24.5 25.5t-17 28l20 19l13 -14q8 -8 18.5 -15t24.5 -12t32 -5zM147 1l-108 -2l-4 33l73 10v425l-73 9l4 32l108 -2l108 2l4 -32l-72 -9v-425l72 -10
l-4 -33z" />
    <glyph glyph-name="Icircumflex.002" horiz-adv-x="337" 
d="M24 752l104 98h79l105 -98h-50l-83 55l-12 10l-10 -10l-83 -55h-50zM169 2l-134 -3l-5 32l94 13v613l-94 13l5 31l134 -3l133 3l5 -31l-94 -13v-613l94 -13l-5 -32z" />
    <glyph glyph-name="Icircumflex.sc" horiz-adv-x="294" 
d="M31 558l84 98h65l83 -98h-44l-62 39l-10 16l-9 -16l-63 -39h-44zM148 1l-108 -2l-4 33l72 10v425l-72 9l4 32l108 -2l107 2l4 -32l-72 -9v-425l72 -10l-4 -33z" />
    <glyph glyph-name="Idieresis.002" horiz-adv-x="337" 
d="M19 846l57 5l24 -5l4 -45l-9 -39l-57 -5l-23 5l-5 46zM247 846l57 5l24 -5l4 -45l-9 -39l-56 -5l-24 5l-5 46zM169 2l-134 -3l-5 32l94 13v613l-94 13l5 31l134 -3l133 3l5 -31l-94 -13v-613l94 -13l-5 -32z" />
    <glyph glyph-name="Idieresis.sc" horiz-adv-x="294" 
d="M36 639l46 4l20 -4l4 -41l-8 -36l-46 -3l-19 3l-3 42zM194 639l46 4l19 -4l5 -41l-9 -36l-45 -3l-19 3l-3 42zM148 1l-108 -2l-4 33l72 10v425l-72 9l4 32l108 -2l107 2l4 -32l-72 -9v-425l72 -10l-4 -33z" />
    <glyph glyph-name="Idotaccent.002" horiz-adv-x="337" 
d="M123 850l67 5l21 -5l4 -49l-9 -43l-67 -5l-20 5l-5 50zM169 2l-134 -3l-5 32l94 13v613l-94 13l5 31l134 -3l133 3l5 -31l-94 -13v-613l94 -13l-5 -32z" />
    <glyph glyph-name="Idotaccent.sc" horiz-adv-x="294" 
d="M108 647l58 4l20 -5l4 -46l-8 -40l-57 -4l-20 4l-4 47zM147 1l-108 -2l-4 33l73 10v425l-73 9l4 32l108 -2l108 2l4 -32l-72 -9v-425l72 -10l-4 -33z" />
    <glyph glyph-name="Igrave.002" horiz-adv-x="337" 
d="M158 752l-121 98h100l73 -98h-52zM169 2l-134 -3l-5 32l94 13v613l-94 13l5 31l134 -3l133 3l5 -31l-94 -13v-613l94 -13l-5 -32z" />
    <glyph glyph-name="Igrave.sc" horiz-adv-x="294" 
d="M136 558l-95 98h85l54 -98h-44zM147 1l-108 -2l-4 33l73 10v425l-73 9l4 32l108 -2l108 2l4 -32l-72 -9v-425l72 -10l-4 -33z" />
    <glyph glyph-name="Imacron.002" horiz-adv-x="337" 
d="M30 827h276v-50h-276v50zM169 2l-134 -3l-5 32l94 13v613l-94 13l5 31l134 -3l133 3l5 -31l-94 -13v-613l94 -13l-5 -32z" />
    <glyph glyph-name="Imacron.sc" horiz-adv-x="294" 
d="M36 626h221v-50h-221v50zM147 1l-108 -2l-4 33l73 10v425l-73 9l4 32l108 -2l108 2l4 -32l-72 -9v-425l72 -10l-4 -33z" />
    <glyph glyph-name="Iogonek.001" horiz-adv-x="337" 
d="M226 -180q-93 0 -130 25.5t-37 75.5v11l103 69l-127 -2l-5 32l94 13v613l-94 13l5 31l134 -3l127 3l5 -31l-88 -13v-613l88 -13l-5 -32l-112 2l-49 -82q0 -20 7.5 -34t20.5 -23t29.5 -13.5t33.5 -4.5v-24z" />
    <glyph glyph-name="Iogonek.sc" horiz-adv-x="294" 
d="M160 1l-36 -80v-20q0 -20 20.5 -34.5t52.5 -14.5v-30q-76 0 -108.5 18t-32.5 55v41l76 65l-93 -2l-4 33l73 10v425l-73 9l4 33l108 -2l103 2l4 -33l-67 -9v-425l67 -10l-4 -33z" />
    <glyph glyph-name="Itilde.002" horiz-adv-x="337" 
d="M42 827l75 18l148 -40l38 44h22l-23 -73l-75 -19l-148 40l-38 -44h-22zM171 2l-134 -3l-5 32l94 13v613l-94 13l5 31l134 -3l133 3l5 -31l-94 -13v-613l94 -13l-5 -32z" />
    <glyph glyph-name="Itilde.sc" horiz-adv-x="294" 
d="M44 636l59 16l121 -36l29 37h19l-19 -80l-59 -14l-121 37l-28 -37h-19zM148 1l-109 -2l-4 33l73 10v425l-73 9l4 32l109 -2l107 2l4 -32l-72 -9v-425l72 -10l-4 -33z" />
    <glyph glyph-name="J.sc" horiz-adv-x="293" 
d="M196 98q0 -47 -5.5 -78.5t-25.5 -56.5l-80 -89h-70v84h81l7 15q9 20 11.5 42.5t2.5 52.5v399l-87 9l4 32l123 -1l102 1l4 -32l-67 -9v-369z" />
    <glyph glyph-name="Jcircumflex.002" horiz-adv-x="330" 
d="M18 752l104 98h79l104 -98h-50l-83 55l-11 10l-10 -10l-83 -55h-50zM216 87q0 -29 1 -50t-0.5 -37.5t-7 -29.5t-17.5 -27l-106 -118h-87v80h102l9 21q6 13 9.5 27t5 32.5t2 45t0.5 64.5v562l-110 13l5 31l150 -3l128 3l5 -31l-89 -13v-570z" />
    <glyph glyph-name="Jcircumflex.sc" horiz-adv-x="293" 
d="M196 98q0 -47 -5.5 -78.5t-25.5 -56.5l-80 -89h-70v84h81l7 15q9 20 11.5 42.5t2.5 52.5v399l-87 9l4 32l123 -1l102 1l4 -32l-67 -9v-369zM33 558l83 98h64l85 -98h-44l-63 39l-11 16l-9 -16l-63 -39h-42z" />
    <glyph glyph-name="K.sc" horiz-adv-x="577" 
d="M208 284l219 183l-57 9l4 32l82 -2l78 2l4 -32l-62 -11l-221 -188l18 -14l242 -222l42 -9l-4 -33l-67 2l-58 -2l-230 230l-12 28v-215l60 -10l-4 -33l-95 2l-108 -2l-4 33l72 10v425l-72 9l4 32l108 -2l95 2l4 -32l-60 -9v-194z" />
    <glyph glyph-name="Kcommaaccent.001" horiz-adv-x="692" 
d="M319 -92l-34 23v47h92v-72l-60 -79l-28 13zM240 387l281 270l-73 13l5 31l104 -3l94 3l5 -31l-78 -16l-281 -277l19 -13l312 -325l53 -9l-5 -31l-85 3l-66 -3l-298 329l-14 26v-311l77 -13l-5 -31l-116 3l-134 -3l-5 31l94 13v614l-94 13l5 31l134 -3l116 3l5 -31
l-77 -13v-285z" />
    <glyph glyph-name="Kcommaaccent.sc" horiz-adv-x="577" 
d="M259 -91l-19 25v30h77v-59l-48 -87l-29 7zM208 284l219 183l-57 9l4 32l82 -2l78 2l4 -32l-62 -11l-221 -188l18 -14l242 -222l42 -9l-4 -33l-67 2l-58 -2l-230 230l-12 28v-215l60 -10l-4 -33l-95 2l-108 -2l-4 33l72 10v425l-72 9l4 32l108 -2l95 2l4 -32l-60 -9v-194z
" />
    <glyph glyph-name="L.sc" horiz-adv-x="482" 
d="M147 2l-108 -3l-4 33l72 10v425l-72 9l4 32l108 -2l107 2l3 -32l-71 -9v-426l199 2l52 102h30l-28 -146z" />
    <glyph glyph-name="Lacute.002" horiz-adv-x="584" 
d="M131 752l73 98h100l-121 -98h-52zM173 2l-138 -3l-5 31l94 13v614l-94 13l5 31l138 -3l129 3l5 -31l-94 -13v-615l259 3l63 133h35l-34 -179z" />
    <glyph glyph-name="Lacute.sc" horiz-adv-x="482" 
d="M128 558l54 98h85l-94 -98h-45zM147 2l-108 -3l-4 33l72 10v425l-72 9l4 32l108 -2l107 2l3 -32l-71 -9v-426l199 2l52 102h30l-28 -146z" />
    <glyph glyph-name="Lcaron.sc" horiz-adv-x="487" 
d="M386 421l-3 48l3 41l59 5l23 -5l4 -48l-4 -41l-51 -116l-29 14l10 23q5 14 9.5 28.5t7.5 27t3 19.5zM147 2l-108 -3l-4 33l72 10v425l-72 9l4 32l108 -2l107 2l3 -32l-71 -9v-426l199 2l52 102h30l-28 -146z" />
    <glyph glyph-name="Lcommaaccent.001" horiz-adv-x="584" 
d="M296 -98l-34 23v47h92v-72l-61 -79l-27 13zM173 2l-138 -3l-5 31l94 13v614l-94 13l5 31l138 -3l129 3l5 -31l-94 -13v-615l259 3l63 133h35l-34 -179z" />
    <glyph glyph-name="Lcommaaccent.sc" horiz-adv-x="482" 
d="M239 -91l-19 25v30h77v-59l-48 -87l-29 7zM147 2l-108 -3l-4 33l72 10v425l-72 9l4 32l108 -2l107 2l3 -32l-71 -9v-426l199 2l52 102h30l-28 -146z" />
    <glyph glyph-name="Ldot.sc" horiz-adv-x="482" 
d="M260 337l56 5l21 -5l4 -48l-9 -41l-54 -5l-22 5l-3 48zM147 2l-108 -3l-4 33l72 10v425l-72 9l4 32l108 -2l107 2l3 -32l-71 -9v-426l199 2l52 102h30l-28 -146z" />
    <glyph glyph-name="Lslash.sc" horiz-adv-x="482" 
d="M147 2l-108 -3l-4 33l72 10v192l-71 -35v48l71 35v185l-72 9l4 32l108 -2l107 2l3 -32l-71 -9v-146l71 36v-47l-71 -36v-233l199 2l52 102h30l-28 -146z" />
    <glyph glyph-name="M.sc" horiz-adv-x="762" 
d="M566 508l86 -2l71 2l4 -32l-68 -9v-425l64 -10l-4 -33l-93 2l-115 -2l-4 33l73 10v341l10 86l-202 -470h-46l-160 377l-29 88v-422l70 -10l-6 -33l-84 2l-90 -2l-4 33l64 10v423l-68 11l4 32l81 -2l84 2l167 -363l7 -59z" />
    <glyph glyph-name="N.sc" horiz-adv-x="619" 
d="M157 42l69 -10l-5 -33l-84 2l-98 -2l-4 33l72 10v422l-68 12l4 32l74 -2l56 2l278 -331l16 -59v349l-67 9l3 32l86 -2l97 2l3 -32l-71 -9v-469h-49l-299 388l-13 65v-409z" />
    <glyph glyph-name="Nacute.002" horiz-adv-x="744" 
d="M337 752l73 98h100l-121 -98h-52zM185 43l89 -13l-6 -31l-106 3l-127 -3l-5 31l94 13v605l-89 22l5 31l96 -3l65 3l359 -523l19 -50v529l-88 13l5 31l107 -3l126 3l5 -31l-94 -13v-659h-59l-381 563l-15 61v-579z" />
    <glyph glyph-name="Nacute.sc" horiz-adv-x="619" 
d="M157 42l69 -10l-5 -33l-84 2l-98 -2l-4 33l72 10v422l-68 12l4 32l74 -2l56 2l278 -331l16 -59v349l-67 9l3 32l86 -2l97 2l3 -32l-71 -9v-469h-49l-299 388l-13 65v-409zM280 558l54 98h84l-94 -98h-44z" />
    </font>
</defs>
</svg>
