<svg xmlns="http://www.w3.org/2000/svg" width="450.041" height="24.569" viewBox="0 0 450.041 24.569"><g fill="#fff"><path d="M21.518 2.122c-.069-1.181-.227-1.419-.934-1.419-.316 0-1.869.012-3.641.026-2.357.018-5.103.04-5.849.04-1.595 0-7.813-.033-9.626-.066-.41 0-.833 0-1.066.303-.225.405-.402 3.278-.402 3.748 0 .432 0 1.235.496 1.235.512 0 .762-.953.824-1.239.447-1.812.663-2.113 5.649-2.113.984 0 1.951.079 2.072.13.13.243.281 2.101.281 4.135v11.669c0 3.748-.198 4.207-1.939 4.474-.431.065-.878.134-.878.659 0 .18.071.598.731.598.142 0 .399-.021.719-.048.367-.031.818-.068 1.27-.087.416-.017.84-.041 1.199-.063.36-.02.654-.038.803-.038.651 0 1.215.033 1.71.102.093.001.862.084 1.231.124l.446.045c.516 0 .7-.31.7-.6 0-.55-.417-.704-1.041-.764-1.372-.146-1.945-.584-1.945-2.924v-12.727c-.007-3.816.272-4.507.347-4.593.031-.013.379-.126 2.878-.126 2.144 0 3.679.182 4.111.491.414.284.723.857.828 1.532.031.205.126.826.695.826.374 0 .564-.268.564-.798 0-.22-.068-.908-.161-1.787l-.072-.745M189.438 22.905c-2.829 0-5.06-1.011-5.381-1.331-.131-.152-.326-1.211-.326-2.364v-7.742l.2-7.748c.029-1.449.292-1.788 2.824-1.788 3.254 0 5.763.41 8.216 2.456 3.522 2.919 3.797 7.745 3.797 9.154.001 5.687-3.662 9.363-9.33 9.363m-1.174-22.436c-.908 0-2.133.032-3.336.063l-.125.004c-1.241.032-2.483.066-3.446.1h-2.684c-.935 0-1.503.047-1.503.698 0 .656.91.729 1.345.764 1.102.098 2.178.37 2.178 2.489v15.629c0 1.233-.239 1.611-.546 1.98-.2.17-.534.455-1.461.681-.323.071-1.078.237-1.078.859 0 .332.287.563.696.563.16 0 1.25-.104 1.459-.135 1.039-.066 2.139-.101 3.27-.101.399 0 1.674.063 3.038.168.501.024 1.007.056 1.466.084.766.046 1.37.083 1.667.083 7.3 0 12.805-5.245 12.805-12.199-.001-7.235-5.267-11.73-13.745-11.73M50.673 22.84c-1.507-.235-1.878-.324-2.29-1.242-.165-.301-.171-.546-.171-3.095l-.034-10.495c0-2.492.188-4.41.35-5.101.178-.444.318-.795 1.509-.979.52-.082 1.025-.208 1.025-.762 0-.303-.167-.663-.966-.663-.334 0-1.35 0-2.398.065-1.034.07-2.023.102-2.396.102-.166 0-.729-.034-1.291-.068-.542-.034-1.122-.067-1.358-.067-.448 0-.899.206-.899.665 0 .569.608.638.834.663 2.033.247 2.653 1.094 2.653 3.628v4.428c0 .815-.202.89-.368.952-.542.129-1.972.129-7.99.129-1.274 0-3.644 0-4.169-.187-.239-.087-.265-.491-.265-.66v-5.734c0-2.237.672-2.366 1.165-2.46.984-.196 1.317-.261 1.317-.793 0-.303-.14-.663-.799-.663-.283 0-1.075.039-1.913.08-.864.043-1.757.087-2.078.087-.209 0-.844-.016-1.502-.032-.714-.018-1.455-.036-1.717-.036-.425 0-1.066 0-1.066.699 0 .561.487.602.85.63 2.147.12 2.703.976 2.703 4.165v7.714c0 1.672-.132 6.7-.558 8.106-.188.618-.654.727-1.203.856-.987.171-1.357.236-1.357.796 0 .699.98.699 1.303.699.272 0 1.021-.049 1.813-.1.784-.05 1.594-.104 1.874-.104.272 0 1.069.035 1.858.101l.138.012c.771.063 1.5.123 1.794.123.272 0 1.102 0 1.102-.699 0-.69-.857-.697-1.186-.697h-.009c-2.309-.056-2.523-1.536-2.563-3.464l-.065-4.629c-.016-1.031.064-1.559.269-1.765.171-.174.518-.184 1.068-.184l9.569-.031c1.918 0 1.918.197 1.918.677v5.431c0 2.563-.071 3.391-1.54 3.737-1.087.245-1.379.311-1.379.792 0 .231.164.521.397.578.063.024.123.05 1.05.05.621 0 1.432-.012 2.066-.021l.906-.011c.3 0 1.067 0 1.867.034.775.034 1.586.067 1.855.067.812 0 .934-.416.934-.664.001-.327-.208-.546-.657-.66"/><path d="M142.486 23.114l-.068-.039c-.162-.094-.544-.176-1.155-.3-.282-.057-.601-.121-.686-.153-.874-.362-1.281-1.87-1.281-2.775v-15.831c0-.296.093-1.783 1.939-2.019.313-.026 1.046-.089 1.046-.731 0-.282-.153-.731-.564-.731-.111 0-.538.057-.713.102-.668.032-1.831.065-2.708.065-1.378 0-2.392-.054-3.019-.1l-.56-.049-.614-.05c-.438 0-.698.235-.698.63 0 .517.271.582 1.404.856.779.203 1.479.522 1.479 2.162v14.488c0 3.475-.792 3.933-1.603 4.104-.983.204-1.314.272-1.314.827 0 .419.303.631.9.631l1.02-.034.933-.033c.971-.034 2.005-.068 2.338-.068.232 0 .885.033 1.579.069.672.032 1.374.066 1.608.066.54 0 .933-.267.933-.631 0-.188-.096-.308-.161-.386l-.035-.07zM172.266.636l-2.982.034c-.261 0-1.006-.024-1.775-.048-.822-.027-1.668-.054-1.979-.054-.695 0-.8.354-.8.566 0 .434.497.661.968.73 2.617.621 3.09.734 3.09 5.173l.001 9.606c-.018.235-.033.911-.05 1.592l-.037 1.334-.874-.934-.493-.534c-3.882-4.227-6.021-6.555-12.708-14.19-1.577-1.809-2.578-2.853-2.99-3.11-.408-.222-.557-.238-1.497-.199l-2.15-.034c-.482 0-.697.368-.697.733 0 .321.209.561.56.628.708.1 1.047.163 1.665.627 2.157 1.513 2.133 3.406 2.068 8.463l-.103 3.92-.005.149c-.066 1.824-.178 4.877-.812 6.403-.251.625-.734 1.047-1.396 1.219l-.185.045c-.814.194-1.089.261-1.089.779 0 .148.051.632.696.632.243 0 .899-.041 1.595-.084.654-.041 1.333-.084 1.56-.084.275 0 1.054.031 1.855.064.856.034 1.738.07 2.068.07.541 0 .865-.211.865-.564 0-.271-.239-.633-.554-.693-2.766-.463-3.265-.546-3.169-4.231l.134-6.66c.015-.199.05-1.179.088-2.216.041-1.153.092-2.589.1-2.684l.011-.033c.314.216.966.954 1.198 1.218l.178.198c.155.208 2.636 2.933 6.702 7.397 2.958 3.247 6.016 6.605 7.03 7.746l.158.173c.59.65.713.785 1.075.785.224 0 .463-.16.463-.396.052-.479.102-2.659.102-2.678l.268-13.917c.071-4.705.424-5.218 1.419-5.487l.175-.05c.935-.262 1.155-.323 1.155-.807-.002-.14-.066-.597-.902-.597M127.196.503l-.558.031-.599.034c-.565.034-1.16.068-1.359.068l-.593-.038c-.269-.022-.586-.046-.888-.061-.608-.067-1.186-.101-1.337-.101-.584 0-.935.21-.935.563 0 .209.164.481.651.626l.101.019c1.908.361 2.268.456 2.268 1.299 0 .576-.152 1.194-1.018 3.149l-4.596 10.502c-.427 1.037-1.126 2.54-1.52 3.134l-.688-1.237-3.906-7.881.592-1.523 2.278-5.097c.92-2.025 1.384-2.106 2.082-2.228.638-.097.96-.343.96-.731 0-.189-.066-.63-.697-.63l-.366.049-.39.053c-.479.032-1.352.065-1.927.065-.158 0-.641-.03-1.144-.061-.566-.035-1.159-.071-1.372-.071-.372 0-.866.062-.866.595 0 .681.604.751.993.798.621.096 1.255.289 1.255.981 0 .207-.107.514-.17.697l-.047.146-1.242 3.188c-.314.829-.576 1.512-.729 1.829-.213-.392-.583-1.171-.732-1.508l-1.444-3.162c-.08-.159-.341-.73-.341-1.426 0-.605.387-.724.899-.815.365-.08.743-.162.743-.593 0-.436-.266-.729-.684-.729h-.001l-.932.08c-.631.065-1.494.153-2.804.153-.205 0-.826-.041-1.426-.081-.675-.044-1.312-.086-1.56-.086-.31 0-1.033 0-1.033.663 0 .665.471.665 1.067.665 1.316 0 2.01.522 2.747 2.063l3.809 8.143-2.44 5.736c-.22.571-.64 1.484-.866 1.822-.181-.252-.499-.867-.95-1.836l-4.506-9.718-1.509-3.6c-.243-.575-.65-1.538-.65-2 0-.269.345-.482.985-.612.237-.037.792-.122.792-.596 0-.463-.336-.698-1-.698-.172 0-.752.022-1.378.045-.722.027-1.505.056-1.774.056-.273 0-1.079-.036-1.833-.101l-.455-.019c-.597-.026-1.111-.047-1.302-.047-.536 0-.897.267-.897.665 0 .578.703.66 1.01.696.977.086 1.937.328 2.941 2.303l1.271 2.576 8.151 17.759h.775l4.289-9.735.088-.188.173-.366c.103.18.271.497.544 1.054l4.5 9.167h.802l9.026-20.179c.293-.684.838-1.957 1.598-2.275.584-.226.905-.351.905-.812.001-.148-.059-.631-.831-.631M74.645 19.048c-.315 0-.517.242-.844.672-1.713 2.215-6.301 2.546-8.883 2.546-2.612 0-2.823-.237-2.823-3.159v-4.392c0-.958.021-1.374.123-1.464.147-.075 1.203-.221 4.144-.221 3.264 0 3.425.38 3.729 2.396.091.573.31.759.898.759.496 0 .496-.365.496-.631 0-.192-.035-.732-.07-1.258-.032-.487-.063-.964-.063-1.124 0-.734.032-1.214.085-2.008l.082-1.298.035-.585c0-.443-.237-.766-.564-.766-.587 0-.704.398-.795.924-.152.939-.538 1.382-1.297 1.524l-4.393.201-.641.014c-1.13 0-1.564-.128-1.629-.188-.07-.117-.173-.762-.173-1.775v-3.588c0-1.658.135-2.647.394-2.933.218-.219.626-.259 2.731-.259 3.912 0 5.395.197 6.057.76.373.53.455.842.455 1.761 0 .491.052.933.699.933.176 0 .264-.047.42-.13l.076-.039.038-.076c.121-.239.172-.907.329-3.183l.122-1.651-5.917-.107h-2.515c-3.176 0-5.791-.034-6.697-.064-.227-.038-.271-.052-.379-.037-1.121 0-1.424.044-1.56.114-.199.069-.313.269-.313.551 0 .657.655.76 1.105.83 1.416.164 2.049.712 2.049 3.53v5.802c0 .549-.019 2.075-.036 3.562-.016 1.42-.032 2.805-.032 3.28 0 3.315-.08 4.288-1.868 4.638-.446.09-.848.212-.848.728 0 .596.65.596 1.403.596.211 0 .595-.018 1.062-.04.428-.019.928-.043 1.436-.059 1.033-.034 2.064-.068 2.398-.068.537 0 2.133.064 3.772.167 1.702.11 3.138.202 3.471.202 1.806 0 2.615-.426 3.768-1.985.603-.822 1.493-2.283 1.493-2.804.001-.354-.218-.598-.53-.598M242.595 1.595c4.941 0 10.232 4.625 10.232 11.51 0 6.499-4.44 9.899-8.826 9.899-4.32 0-10.402-3.591-10.402-11.576 0-5.972 3.53-9.833 8.996-9.833m.737-1.463c-7.313 0-13.042 5.551-13.042 12.636 0 5.619 3.935 11.665 12.571 11.665 7.489 0 13.141-5.417 13.141-12.602 0-5.635-3.966-11.699-12.67-11.699M368.036 10.209c-4.128-1.399-5.592-2.616-5.592-4.651 0-2.431 2.569-4.063 4.972-4.063 2.887 0 5.374 1.823 6.048 4.432.162.632.424.967.758.967.313 0 .531-.245.531-.595 0-.43-.334-2.699-.338-2.717-.068-.549-.306-2.361-.431-2.57-.039-.076-.142-.275-.398-.275-.312 0-.441.254-.495.362l-.053.147-.779-.25-.778-.248c-1.31-.436-2.498-.648-3.631-.648-4.316 0-7.574 2.808-7.574 6.532 0 3.609 2.636 5.234 7.186 6.821 4.283 1.51 5.727 2.749 5.727 4.916 0 1.864-1.527 4.637-5.738 4.637-3.914 0-5.953-2.497-6.56-4.846-.167-.556-.398-1.125-.853-1.125-.159 0-.531.062-.531.632 0 .204.753 4.52 1.067 5.113.412.821 3.765 1.723 6.405 1.723 6.586 0 8.345-4.508 8.345-7.17-.001-4.252-3.601-5.851-7.288-7.124M216.721 10.209c-4.128-1.4-5.591-2.617-5.591-4.651 0-2.431 2.569-4.063 4.971-4.063 2.885 0 5.373 1.823 6.05 4.429.109.442.328.97.757.97.313 0 .53-.245.53-.595 0-.39-.271-2.276-.337-2.716-.03-.239-.293-2.344-.429-2.568-.039-.076-.14-.278-.401-.278-.315 0-.447.266-.492.36l-.056.149-.764-.245-.795-.254c-1.307-.435-2.493-.647-3.628-.647-4.316 0-7.574 2.808-7.574 6.532 0 3.609 2.635 5.234 7.186 6.821 4.282 1.509 5.728 2.749 5.728 4.916 0 1.864-1.529 4.637-5.743 4.637-3.911 0-5.949-2.497-6.555-4.846-.169-.556-.403-1.125-.855-1.125-.159 0-.529.062-.529.632 0 .205.753 4.522 1.067 5.113.407.821 3.76 1.723 6.404 1.723 6.586 0 8.343-4.508 8.343-7.17-.001-4.254-3.601-5.851-7.287-7.124M387.637 23.838l.005.01-.036.02.031-.03zm14.681-21.715c-.067-1.181-.225-1.42-.933-1.42-.315 0-1.867.012-3.64.026-2.356.018-5.104.04-5.851.04-1.597 0-7.813-.033-9.625-.066-.408 0-.829 0-1.066.303-.227.404-.405 3.278-.405 3.748 0 .432 0 1.235.499 1.235.513 0 .762-.953.824-1.239.446-1.812.661-2.113 5.649-2.113.984 0 1.952.079 2.073.13.129.243.278 2.102.278 4.135v11.669c0 3.748-.196 4.208-1.936 4.473-.435.066-.881.135-.881.66 0 .18.071.598.73.598.144 0 .401-.022.72-.049.367-.03.82-.067 1.271-.087.413-.016.837-.041 1.195-.062.361-.021.656-.039.809-.039.651 0 1.214.033 1.707.101.094.002.868.084 1.24.125l.438.044c.517 0 .7-.309.7-.598 0-.551-.418-.705-1.043-.765-1.37-.146-1.942-.584-1.942-2.925v-12.728c-.009-3.814.271-4.504.346-4.59.031-.013.378-.126 2.881-.126 2.142 0 3.677.182 4.108.491.413.285.725.858.828 1.534.032.203.129.824.696.824.374 0 .562-.268.562-.798 0-.217-.067-.896-.157-1.759l-.075-.772M449.511 19.048c-.312 0-.504.23-.847.672-1.712 2.215-6.297 2.546-8.878 2.546-2.612 0-2.822-.237-2.822-3.159v-4.392c0-.959.019-1.375.122-1.464.147-.076 1.203-.221 4.142-.221 3.265 0 3.426.38 3.732 2.394.085.575.304.762.894.762.499 0 .499-.365.499-.631 0-.192-.036-.732-.07-1.258-.031-.487-.062-.964-.062-1.124 0-.756.032-1.251.087-2.074l.078-1.232.036-.584c0-.443-.239-.766-.567-.766-.582 0-.699.398-.795.924-.15.939-.536 1.382-1.294 1.524l-4.395.201-.642.014c-1.126 0-1.56-.128-1.628-.191-.07-.115-.173-.758-.173-1.772v-3.59c0-1.657.135-2.646.393-2.932.221-.22.628-.26 2.733-.26 3.914 0 5.396.197 6.057.76.373.53.454.842.454 1.761 0 .491.055.933.7.933.175 0 .262-.046.419-.129l.079-.04.039-.078c.115-.232.168-.849.326-3.182l.121-1.65-5.914-.107h-2.518c-3.178 0-5.791-.034-6.695-.064l-.378-.037c-1.123 0-1.428.044-1.563.115-.196.068-.311.268-.311.55 0 .658.656.76 1.104.83 1.416.164 2.046.712 2.046 3.53v5.802c0 .549-.017 2.075-.032 3.562-.017 1.419-.031 2.805-.031 3.279 0 3.315-.079 4.288-1.87 4.638-.447.089-.849.212-.849.728 0 .596.65.596 1.403.596.21 0 .594-.018 1.058-.039.432-.02.932-.044 1.434-.06 1.036-.034 2.072-.068 2.405-.068.535 0 2.132.064 3.771.167 1.702.11 3.138.202 3.472.202 1.806 0 2.614-.427 3.767-1.985.603-.822 1.494-2.282 1.494-2.804 0-.353-.22-.597-.531-.597M425.868 19.083c-.311 0-.411.126-.748.546l-.104.132c-.479.67-1.285 1.275-2.163 1.619-2.1.833-5.604.922-7.015.922-1.77 0-2.62-.081-2.62-1.919v-7.646c0-9.254.339-9.712.828-10.377.329-.332.346-.334 1.109-.479l.094-.018c.313-.058.786-.145.786-.762 0-.17-.062-.564-.632-.564-.241 0-.884.048-1.565.099-.676.05-1.374.103-1.62.103-.33 0-1.463-.06-2.373-.108-.637-.033-1.173-.061-1.283-.061-1.104 0-1.335.361-1.335.665 0 .567.664.612.943.631 1.707.145 2.074.89 2.074 4.198v14.32c0 .778-.222 2.142-1.712 2.53-.578.145-.804.366-.804.792 0 .563.649.563 1 .563.159 0 .46-.018.83-.04.345-.021.753-.046 1.171-.062.856-.069 1.675-.101 1.958-.101.504 0 1.912.056 3.403.113l.538.022c1.749.104 3.428.167 4.038.167 1.889 0 3.03-.372 3.939-1.281.788-.756 1.79-2.527 1.79-3.442.002-.327-.221-.562-.527-.562M275.564 7.369c0 1.458-.533 2.643-1.583 3.523-.508.413-1.207.979-4.293.979-2.016 0-2.016-.32-2.016-.577v-5.97c0-2.953.199-3.258 2.152-3.258 2.783 0 5.74 1.859 5.74 5.303m7.975 15.535c-1.037 0-1.929-.441-2.646-1.31l-.961-1.194-2.748-3.955c-.499-.731-1.584-2.44-2.513-4.056 2.222-1.407 4.17-2.953 4.17-5.925 0-1.783-.759-5.929-7.777-5.929-.345 0-1.321.024-2.321.049-1.045.025-2.113.052-2.508.052l-.415-.01c-.324-.011-.77-.024-1.203-.024h-.014c-.709-.034-1.451-.034-1.721-.034-.71 0-1.102 0-1.102.733 0 .455.412.542.862.595 1.322.197 2.122.591 2.122 4.403v11.367c0 4.759-.386 4.839-1.565 5.084l-.099.028c-.362.103-1.118.314-1.118.892 0 .53.752.53 1 .53.261 0 1.026-.032 1.779-.064l.078-.003c.799-.034 1.598-.068 1.897-.068.273 0 1.115.062 1.928.122l.165.013c.948.07 1.825.135 2.168.135.588 0 .967-.234.967-.599 0-.588-.675-.657-1.046-.695-2.834-.232-3.215-1.625-3.215-2.959v-5.635c0-1.077.191-1.112 1.214-1.112 2.18 0 2.78.077 3.234.788l4.461 6.739c1.68 2.57 3.171 3.571 5.317 3.571 1 0 2.678-.116 2.678-.897.002-.632-.334-.632-1.068-.632M323.549 17.271c-.275 0-.541.298-1.296 1.451l-.217.323c-2.048 2.553-4.836 3.96-7.846 3.96-5.362 0-9.562-4.938-9.562-11.24 0-7.117 4.652-10.303 9.263-10.303 5.175 0 7.536 4.089 8.313 5.848.456 1.03.761 1.161.976 1.161.258 0 .533-.157.533-.598 0-.348-.166-1.607-.319-2.76l-.091-.809c-.149-1.6-.174-1.847-.268-2.038-.037-.079-.139-.288-.392-.288-.176 0-.351.129-.525.393-.153.245-.221.245-.273.245-.177-.021-.932-.479-1.294-.698l-.532-.312c-1.887-1.014-3.813-1.506-5.893-1.506-8.407 0-12.806 6.493-12.806 12.906 0 6.768 5.031 11.496 12.235 11.496 4.29 0 9.06-2.229 9.334-2.561.278-.391 1.123-3.759 1.123-4.108.001-.465-.251-.562-.463-.562M344.125 13.159c-.125.155-1.078.323-2.399.323-.903 0-4.549-.115-5.039-.273l-.038-.024-.013-.009c.028-.114.111-.327.245-.637l.053-.124 3.254-6.846.357-.763c.164.198.464.847.567 1.073l.104.219 2.312 5.465c.379.895.583 1.514.597 1.596m9.375 10.001l-.104-.021c-1.76-.219-2.511-1.198-3.281-2.929l-.935-2.135-2.617-6.747-2.279-5.497-1.578-4.023c-.264-.685-.368-.977-.43-1.145-.071-.201-.082-.232-.213-.512l-.07-.151h-.618l-.229.374c-.138.222-.283.453-.462.814l-8.786 18.242c-.303.622-1.223 2.518-2.556 3.382l-.073.049c-.649.421-.784.508-.784.845 0 .396.294.663.731.663.083 0 .312-.022 1.393-.207.476-.095.891-.095 1.224-.095.465 0 .911.034 1.69.095.162.033 1.56.207 1.662.207.456 0 .799-.272.799-.631 0-.144-.031-.266-.188-.465l-.052-.049c-.13-.096-.549-.213-1.22-.34-.506-.16-1.356-.533-1.356-1.226 0-1.109 1.113-3.747 1.815-5.149.435-.871.582-1.008.857-1.029l.054-.006c.265-.015 1.812-.025 4.017-.025.249 0 .974-.017 1.707-.033.75-.018 1.512-.035 1.782-.035 1.484 0 1.603.015 1.834.634l1.404 3.81.114.342c.165.489.444 1.308.444 1.827 0 .187 0 .757-1.156.95-.327.054-.823.136-.823.594 0 .304.266.765.665.765.14 0 1.027-.146 1.139-.169.553-.065 1.051-.065 1.579-.065 1.002 0 1.673.079 2.601.191l.736.092c.54.071.895.118 1.323.118.686 0 1.035-.212 1.035-.63.002-.526-.479-.619-.795-.68"/></g></svg>