<?xml version="1.0" encoding="utf-8"?>
<!-- Generator: Adobe Illustrator 21.0.0, SVG Export Plug-In . SVG Version: 6.00 Build 0)  -->
<svg version="1.1" id="Layer_1" xmlns="http://www.w3.org/2000/svg" xmlns:xlink="http://www.w3.org/1999/xlink" x="0px" y="0px"
	 viewBox="0 0 262.1 26.2" style="enable-background:new 0 0 262.1 26.2;" xml:space="preserve">
<g>
	<path d="M0,24.5L3.2,24V2.2L0,1.7l0.2-1.3l5,0.1l14.3-0.1l0.4,6.5h-1.2l-2-4.7L7,2.2v10.1l5-0.1l1.4-3.8h1.3l-0.4,4.5l0.4,4.9h-1.3
		l-1.4-3.8l-5-0.1V24l4.3,0.5l-0.2,1.3l-6-0.1l-5,0.1L0,24.5z"/>
	<path d="M29.7,8.4h2.9V12h-2.7c-0.2,0-0.5,0.1-0.8,0.3c-0.3,0.2-0.6,0.4-0.9,0.6c-0.3,0.2-0.6,0.5-0.9,0.8
		c-0.3,0.3-0.6,0.6-0.8,0.9l-0.7,0.9V24l3.8,0.4l-0.2,1.4l-5.2-0.1l-4,0.1L20,24.5l2.5-0.4V11L20,11.2l-0.2-1.3l4.3-1.1l1.4-0.1
		l0.1,4.8L29.7,8.4z"/>
	<path d="M37.9,19.3c0.3,0.9,0.7,1.6,1.2,2.2c0.5,0.6,1.1,1.1,1.9,1.5c0.7,0.3,1.6,0.5,2.5,0.5c0.7,0,1.5-0.1,2.3-0.5
		c0.8-0.3,1.5-0.7,2.2-1.1l0.6,1.4c-0.9,0.6-1.8,1.1-2.9,1.6s-2.2,0.9-3.4,1.2c-1.1,0-2.1-0.2-3.1-0.6c-1-0.4-1.9-0.9-2.6-1.7
		s-1.4-1.6-1.8-2.7S34,18.9,34,17.5c0-1.3,0.2-2.5,0.6-3.5c0.4-1,0.9-1.9,1.6-2.7s1.6-1.4,2.6-1.9s2.1-0.9,3.3-1.2
		c1.2,0,2.2,0.2,3,0.5c0.8,0.3,1.5,0.8,2,1.4s0.9,1.3,1.1,2.2c0.2,0.8,0.3,1.7,0.3,2.6v1.5h-11C37.5,17.6,37.6,18.5,37.9,19.3z
		 M44.6,12.8c-0.1-0.6-0.2-1.1-0.5-1.5c-0.2-0.4-0.6-0.7-1-1c-0.4-0.2-1-0.3-1.7-0.3c-1.1,0-2,0.5-2.7,1.4c-0.7,0.9-1.1,2.1-1.2,3.7
		l7.2-0.4C44.7,14,44.7,13.4,44.6,12.8z"/>
	<path d="M66.4,22.7c0.1,0.4,0.3,0.7,0.5,1h2L69,25l-4.8,0.9L63,23.1l-4.6,3.1c-1.2,0-2.2-0.2-3.1-0.6c-0.9-0.4-1.7-1-2.4-1.7
		s-1.1-1.6-1.5-2.6c-0.3-1-0.5-2.2-0.5-3.4c0-1.5,0.2-2.8,0.6-3.9c0.4-1.1,1-2.1,1.8-2.9s1.7-1.4,2.8-1.9c1.1-0.5,2.3-0.8,3.6-1
		c0.2,0,0.4,0,0.6,0.1c0.3,0.1,0.5,0.1,0.8,0.2c0.3,0.1,0.6,0.2,0.8,0.3c0.3,0.1,0.5,0.2,0.7,0.3V2.4l-2.5,0.1l-0.2-1.2l4.3-1.1
		L66.2,0v21C66.2,21.7,66.3,22.3,66.4,22.7z M59.9,23c0.6-0.2,1.2-0.6,1.8-1.1l1.1-0.9v-9.5c-0.4-0.5-0.9-0.8-1.5-1.1
		C60.7,10.2,60,10,59.2,10c-1.4,0-2.6,0.6-3.4,1.8s-1.3,2.9-1.3,5c0,2,0.4,3.6,1.1,4.7c0.7,1.1,1.6,1.7,2.7,1.7
		C58.7,23.4,59.3,23.2,59.9,23z"/>
	<path d="M74.2,19.3c0.3,0.9,0.7,1.6,1.2,2.2c0.5,0.6,1.1,1.1,1.9,1.5c0.7,0.3,1.6,0.5,2.5,0.5c0.7,0,1.5-0.1,2.3-0.5
		c0.8-0.3,1.5-0.7,2.2-1.1l0.6,1.4C83.9,24,83,24.5,81.9,25s-2.2,0.9-3.4,1.2c-1.1,0-2.1-0.2-3.1-0.6c-1-0.4-1.9-0.9-2.6-1.7
		s-1.4-1.6-1.8-2.7s-0.7-2.3-0.7-3.8c0-1.3,0.2-2.5,0.6-3.5c0.4-1,0.9-1.9,1.6-2.7S74,9.9,75,9.4s2.1-0.9,3.3-1.2
		c1.2,0,2.2,0.2,3,0.5c0.8,0.3,1.5,0.8,2,1.4s0.9,1.3,1.1,2.2c0.2,0.8,0.3,1.7,0.3,2.6v1.5h-11C73.8,17.6,73.9,18.5,74.2,19.3z
		 M80.9,12.8c-0.1-0.6-0.2-1.1-0.5-1.5c-0.2-0.4-0.6-0.7-1-1c-0.4-0.2-1-0.3-1.7-0.3c-1.1,0-2,0.5-2.7,1.4c-0.7,0.9-1.1,2.1-1.2,3.7
		l7.2-0.4C81,14,81,13.4,80.9,12.8z"/>
	<path d="M96.5,8.4h2.9V12h-2.7c-0.2,0-0.5,0.1-0.8,0.3c-0.3,0.2-0.6,0.4-0.9,0.6c-0.3,0.2-0.6,0.5-0.9,0.8
		c-0.3,0.3-0.6,0.6-0.8,0.9l-0.7,0.9V24l3.8,0.4l-0.2,1.4L91,25.6l-4,0.1l-0.2-1.3l2.5-0.4V11l-2.5,0.2l-0.2-1.3l4.3-1.1l1.4-0.1
		l0.1,4.8L96.5,8.4z"/>
	<path d="M101.4,25.7l-0.2-1.3l2.5-0.4V11l-2.5,0.2l-0.2-1.3l4.3-1.1l1.8-0.1v15.4l2.7,0.4l-0.2,1.3l-4.1-0.1L101.4,25.7z
		 M106.3,0.7l1,0.2l0.2,2l-0.4,1.7l-2.6,0.2l-1-0.2l-0.2-2l0.4-1.7L106.3,0.7z"/>
	<path d="M120.6,10.3c-0.3-0.1-0.7-0.1-1.2-0.1c-0.6,0-1.2,0.2-1.7,0.5c-0.5,0.3-1,0.8-1.4,1.4s-0.7,1.3-0.9,2.1s-0.3,1.7-0.3,2.7
		c0,1,0.1,1.9,0.4,2.7c0.3,0.8,0.6,1.5,1.1,2.1c0.5,0.6,1.1,1.1,1.8,1.4s1.5,0.5,2.4,0.5c0.7,0,1.4-0.1,2.1-0.5
		c0.7-0.3,1.4-0.7,2-1.1l0.6,1.4c-0.8,0.6-1.7,1.1-2.7,1.6c-0.9,0.5-2,0.9-3.2,1.3c-1.2,0-2.2-0.2-3.2-0.6s-1.8-0.9-2.5-1.6
		s-1.3-1.6-1.7-2.7c-0.4-1.1-0.6-2.3-0.6-3.7c0-1.4,0.2-2.7,0.7-3.7c0.5-1.1,1.1-2,1.9-2.7s1.7-1.4,2.7-1.9c1-0.5,2.1-0.9,3.2-1.1
		c0.4,0,0.8,0,1.3,0.1c0.5,0.1,0.9,0.2,1.4,0.4c0.5,0.2,0.9,0.4,1.3,0.6c0.4,0.2,0.7,0.4,1,0.7v3.6h-2.7l-0.8-2.9
		C121.2,10.5,120.9,10.4,120.6,10.3z"/>
	<path d="M140.2,25.7l-6.7-8.3l-0.4-0.9v7.6l2,0.4l-0.2,1.3l-3.4-0.1l-4.1,0.1l-0.2-1.3l2.5-0.4V2.4l-2.5,0.1L127,1.3l4.3-1.1
		l1.8-0.1v15.9l1-0.4l5.8-5.1l-1-0.4V8.7l3,0.1l2.7-0.1l0.2,1.3l-1.9,0.4l-6.8,5.5l0.8,0.5l6.9,7.8l1.6,0.4l-0.2,1.3l-2.9-0.1
		L140.2,25.7z"/>
	<path d="M155.5,0.5l4.9,0.1l7-0.1c1.1,0,2.2,0.1,3.1,0.4s1.8,0.7,2.5,1.2c0.7,0.5,1.3,1.2,1.7,2c0.4,0.8,0.6,1.7,0.6,2.8
		c0,1.2-0.3,2.2-0.8,3.1c-0.5,0.9-1.2,1.7-2.1,2.3c-0.9,0.6-1.8,1.2-2.9,1.6c-1.1,0.4-2.2,0.7-3.3,1h-4V24l4.3,0.5l-0.2,1.3l-6-0.1
		l-5,0.1l-0.2-1.3l3.2-0.5V2.2l-3.2-0.5L155.5,0.5z M165.4,13.1c0.8,0,1.6-0.1,2.3-0.4c0.7-0.3,1.3-0.7,1.8-1.2
		c0.5-0.5,0.9-1.1,1.2-1.8c0.3-0.7,0.4-1.5,0.4-2.4c0-1.6-0.4-2.8-1.3-3.8c-0.9-1-2.2-1.5-4.1-1.5l-3.4,0.2v10.9H165.4z"/>
	<path d="M185.9,8.5c0.7,0.2,1.3,0.5,1.7,0.9c0.4,0.4,0.7,1,0.9,1.7s0.3,1.7,0.3,2.8V21c0,0.8,0.1,1.3,0.2,1.7
		c0.1,0.4,0.3,0.7,0.5,1h1.8l0.1,1.3l-4.6,0.9l-1.1-2.8l-4.3,3.1c-1.6,0-2.8-0.4-3.8-1.2s-1.5-1.9-1.5-3.4c0-0.6,0.1-1.2,0.3-1.7
		s0.5-1,0.9-1.6l8.1-2.7v-1.8c0-0.5,0-1-0.1-1.4s-0.1-0.8-0.3-1.1c-0.1-0.3-0.4-0.5-0.6-0.7s-0.7-0.2-1.2-0.2s-1,0.1-1.5,0.2
		c-0.5,0.1-1,0.3-1.4,0.5l-0.6,2.8h-3.1v-2.7l6.5-2.9C184.2,8.2,185.2,8.3,185.9,8.5z M180.1,19.2c-0.3,0.3-0.4,0.6-0.6,0.9
		c-0.1,0.3-0.2,0.7-0.2,1.1c0,0.9,0.2,1.6,0.6,1.9c0.4,0.4,0.9,0.6,1.4,0.6c0.5,0,1-0.1,1.4-0.3c0.4-0.2,0.7-0.4,1-0.6l1.5-1v-4.7
		L180.1,19.2z"/>
	<path d="M198.6,25.7l-2.8-0.1l-3.7,0.1l-0.2-1.3l2.5-0.4l5.3-6.6l-5.2-7.2l-2.2-0.4l0.2-1.3l4.1,0.1l3.4-0.1l0.2,1.3l-1.4,0.4
		l2.7,4l0.3,0.9l3.4-4.9l-1.8-0.4l0.2-1.3l2.8,0.1l3.7-0.1l0.2,1.3l-2.6,0.4l-4.8,5.8l5.7,8l2.2,0.4l-0.2,1.3l-4.1-0.1l-3.4,0.1
		l-0.2-1.3l1.5-0.4l-3.2-4.6l-0.3-0.8l-3.8,5.5l1.7,0.4L198.6,25.7z"/>
	<path d="M211.2,10.2l1.3-1.3h2.3V6.6l2.3-2.3h0.9v4.9h5.4v1.6h-5.4v10.5c0,0.3,0,0.5,0.1,0.8s0.2,0.5,0.3,0.7
		c0.1,0.2,0.3,0.4,0.6,0.5c0.2,0.1,0.6,0.2,0.9,0.2c0.5,0,1-0.1,1.4-0.2c0.4-0.2,0.9-0.4,1.4-0.6l0.6,1.2l-4.2,2.3
		c-1,0-1.8-0.1-2.4-0.3c-0.6-0.2-1.1-0.5-1.4-0.8c-0.3-0.4-0.5-0.9-0.6-1.5c-0.1-0.6-0.1-1.3-0.1-2.1V10.8h-3.5V10.2z"/>
	<path d="M236.1,8.9c1,0.4,1.8,1,2.5,1.8c0.7,0.8,1.3,1.7,1.6,2.7c0.4,1.1,0.6,2.2,0.6,3.4c0,2.7-0.8,4.8-2.3,6.4s-3.7,2.5-6.5,3
		c-1.2,0-2.3-0.2-3.3-0.6c-1-0.4-1.8-1-2.5-1.8s-1.3-1.7-1.6-2.7c-0.4-1-0.6-2.2-0.6-3.4c0-2.7,0.8-4.8,2.3-6.4
		c1.5-1.5,3.7-2.5,6.5-3C234,8.2,235.1,8.5,236.1,8.9z M228,19.8c0.3,0.9,0.6,1.7,1.1,2.4c0.5,0.7,1,1.2,1.7,1.7
		c0.7,0.4,1.4,0.6,2.2,0.6c0.7,0,1.4-0.2,1.9-0.5c0.5-0.3,1-0.8,1.4-1.4s0.6-1.3,0.8-2.2c0.2-0.8,0.3-1.7,0.3-2.7
		c0-1.2-0.1-2.2-0.4-3.1c-0.3-0.9-0.6-1.7-1.1-2.4c-0.5-0.7-1-1.2-1.7-1.5s-1.4-0.6-2.2-0.6c-0.7,0-1.4,0.2-1.9,0.5
		c-0.6,0.3-1,0.8-1.4,1.4c-0.4,0.6-0.6,1.3-0.8,2.2s-0.3,1.8-0.3,2.7C227.6,17.9,227.7,18.9,228,19.8z"/>
	<path d="M243,25.7l-0.2-1.3l2.5-0.4V11l-2.5,0.2l-0.2-1.3l4.3-1.1l1.5-0.1l0.2,3l5.3-3.5c1.2,0,2.1,0.1,2.8,0.3s1.2,0.5,1.6,1
		s0.6,1.1,0.8,1.8c0.1,0.7,0.2,1.7,0.2,2.7v10l2.7,0.4l-0.2,1.3l-4.1-0.1l-3.5,0.1l-0.2-1.3l1.8-0.4V13.8c0-0.9-0.2-1.6-0.6-2.1
		c-0.4-0.4-1-0.6-1.8-0.6c-0.6,0-1.2,0.2-1.9,0.5c-0.6,0.3-1.2,0.7-1.9,1.1l-1.1,0.7v10.7l2,0.4l-0.2,1.3l-3.4-0.1L243,25.7z"/>
</g>
</svg>
