<svg aria-hidden="true" style="position: absolute; width: 0; height: 0; overflow: hidden;" version="1.1" xmlns="http://www.w3.org/2000/svg" xmlns:xlink="http://www.w3.org/1999/xlink">
<defs>
<symbol id="icon-bafta" viewBox="0 0 32 32">
<path d="M3.751 10.976c0.199-0.025 0.4-0.064 0.601-0.036-0.135 0.037-0.279 0.028-0.411 0.082-0.176 0.062-0.299 0.229-0.489 0.261-0.144 0.030-0.29 0-0.43-0.036-0.231-0.055-0.491-0.037-0.697 0.087-0.139 0.092-0.249 0.251-0.242 0.423 0.002 0.076 0.046 0.14 0.078 0.206-0.034 0.158-0.011 0.32 0.050 0.469 0.037-0.183 0.105-0.372 0.26-0.489 0.13-0.103 0.297-0.158 0.462-0.151 0.178-0.005 0.34 0.101 0.519 0.082 0.199 0.004 0.388-0.116 0.476-0.293-0.13 0.094-0.292 0.155-0.453 0.123-0.299-0.057-0.597-0.222-0.907-0.139-0.158 0.036-0.272 0.162-0.354 0.295 0.005-0.155 0.080-0.311 0.224-0.38 0.217-0.101 0.468-0.091 0.697-0.044 0.176 0.052 0.366 0.073 0.546 0.025 0.16-0.057 0.27-0.196 0.359-0.332 0.021-0.039 0.066-0.011 0.069 0.023 0.062 0.169 0.050 0.35 0.025 0.524 0.139-0.162 0.219-0.361 0.299-0.555 0.032-0.080 0.115-0.096 0.194-0.091 0.011 0.069 0.016 0.14-0.002 0.21-0.084 0.363-0.308 0.713-0.654 0.869-0.183 0.089-0.388 0.098-0.587 0.082-0.167-0.012-0.123-0.012-0.181-0.018 0.201 0.062 0.398 0.151 0.612 0.153 0.274 0.020 0.549-0.1 0.725-0.311 0.231-0.281 0.334-0.649 0.35-1.008 0.308 0.057 0.619 0.087 0.926 0.135 0.233 0.034 0.469 0.025 0.704 0.053-0.201 0.069-0.412 0.119-0.628 0.11-0.132 0.005-0.26-0.036-0.389-0.044-0.007 0.009-0.023 0.025-0.030 0.032 0.151 0.203 0.437 0.276 0.677 0.211-0.053 0.057-0.105 0.121-0.18 0.151-0.133 0.060-0.279 0.009-0.418 0.025 0.023 0.076 0.062 0.158 0.139 0.196 0.149 0.082 0.324 0.068 0.487 0.068-0.105 0.107-0.233 0.206-0.388 0.217-0.13 0.002-0.26-0.027-0.38-0.073-0.115-0.046-0.196-0.146-0.286-0.228 0.007 0.011 0.019 0.030 0.027 0.041 0.069 0.178 0.176 0.363 0.359 0.443 0.176 0.071 0.377 0.023 0.539-0.066 0.105-0.052 0.199-0.128 0.313-0.162 0.084-0.028 0.173-0.021 0.256 0.018 0.094 0.098 0.133 0.258 0.060 0.38-0.075 0.116-0.197 0.183-0.293 0.279 0.039-0.123 0.151-0.284 0.066-0.377-0.144-0.052-0.265 0.018-0.404 0.052-0.235 0.069-0.484 0.148-0.727 0.087-0.252-0.052-0.42-0.331-0.695-0.292-0.38 0.066-0.727 0.259-1.029 0.494-0.178 0.137-0.35 0.306-0.409 0.53-0.064 0.244-0.091 0.494-0.178 0.731-0.012 0.057-0.059 0.124-0.011 0.174 0.064 0.087 0.18 0.021 0.265 0.011 0.386-0.076 0.779-0.188 1.175-0.128 0.13 0.028 0.29 0.057 0.356 0.19 0.080 0.156 0.089 0.336 0.098 0.507-0.059-0.091-0.101-0.197-0.192-0.259-0.064-0.048-0.146 0.016-0.162 0.082-0.052 0.187-0.030 0.414-0.188 0.555-0.224 0.196-0.388 0.524-0.269 0.82 0.114 0.217 0.215 0.457 0.185 0.708-0.012 0.148-0.144 0.247-0.171 0.389-0.023 0.096 0.004 0.228 0.112 0.256 0.132 0.044 0.26-0.036 0.389-0.043 0.125-0.016 0.244 0.032 0.364 0.046 0.027-0.132-0.019-0.261-0.021-0.393-0.037-0.398 0.023-0.798 0.012-1.198 0.005-0.201-0.027-0.436-0.019-0.636 0.149 0.567 0.153 1.193 0.244 1.771 0.025 0.116 0.039 0.24 0.1 0.343 0.080 0.137 0.286 0.185 0.414 0.087 0.071-0.052 0.103-0.137 0.144-0.212 0.060 0.076 0.085 0.172 0.050 0.265-0.064 0.158-0.267 0.221-0.316 0.388-0.050 0.151-0.105 0.332-0.265 0.4-0.199 0.066-0.444 0.005-0.569-0.171-0.073-0.101-0.174-0.187-0.295-0.224-0.133-0.046-0.274-0.016-0.411-0.020-0.13 0-0.251-0.114-0.252-0.245-0.005-0.142 0.064-0.277 0.041-0.42-0.027-0.261-0.226-0.469-0.443-0.597-0.124-0.078-0.276-0.023-0.413-0.037-0.19-0.005-0.375-0.13-0.567-0.060-0.144 0.044-0.206 0.201-0.226 0.338-0.016 0.148-0.012 0.302 0.039 0.444 0.14 0.398 0.345 0.777 0.428 1.193 0.016 0.244 0.007 0.501 0.115 0.727 0.030 0.069 0.089 0.117 0.142 0.167 0.080 0.007 0.176 0.037 0.24-0.027 0.092-0.091 0.050-0.235 0.029-0.347-0.044-0.176-0.048-0.38 0.073-0.528 0.087-0.103 0.204-0.213 0.35-0.196 0.053 0 0.096 0.039 0.14 0.064 0.002 0.039 0.004 0.080 0.005 0.119 0.156 0.050 0.324 0.014 0.476-0.034 0.201-0.071 0.411-0.128 0.624-0.117 0.155 0.005 0.284 0.128 0.443 0.11 0.107 0 0.181-0.094 0.283-0.11 0.171 0.016 0.292 0.187 0.471 0.163 0.107 0.005 0.176-0.089 0.224-0.172 0.011 0 0.030 0.002 0.039 0.002 0.018 0.021 0.030 0.032 0.036 0.060 0.016 0.178 0.019 0.379-0.103 0.523-0.032 0.041-0.094 0.084-0.14 0.039-0.067-0.067-0.11-0.156-0.187-0.217-0.115-0.094-0.272-0.123-0.416-0.105-0.188 0.023-0.379 0.030-0.569 0.012-0.082-0.004-0.178-0.021-0.245 0.039-0.105 0.094-0.167 0.284-0.057 0.396 0.096 0.082 0.233 0.060 0.35 0.059 0.217-0.023 0.436-0.041 0.652-0.027 0.055 0.004 0.139 0.027 0.139 0.096-0.023 0.119-0.126 0.21-0.238 0.249-0.26 0.098-0.542 0.089-0.816 0.084-0.327-0.014-0.629-0.187-0.96-0.176-0.091 0.007-0.217 0.073-0.185 0.183 0.059 0.132 0.187 0.235 0.196 0.388 0.014 0.244 0.034 0.514 0.201 0.704 0.146 0.148 0.356 0.251 0.567 0.217 0.19-0.034 0.379-0.084 0.572-0.080 0.173-0.009 0.348 0.025 0.516-0.030 0.188-0.057 0.348-0.188 0.455-0.352 0.151-0.221 0.224-0.48 0.306-0.732 0.11-0.363 0.199-0.732 0.279-1.104 0.091-0.398 0.279-0.763 0.412-1.147 0.171-0.535 0.261-1.115 0.135-1.671-0.025-0.002-0.034-0.016-0.059-0.018-0.046 0.071-0.133 0.128-0.212 0.16 0.025-0.096 0.096-0.178 0.071-0.281-0.085 0.11-0.178 0.215-0.318 0.22-0.178 0.028-0.331-0.084-0.494-0.128-0.064-0.016-0.027 0.064-0.002 0.084 0.092 0.107 0.231 0.149 0.35 0.219-0.077 0.121-0.238 0.080-0.354 0.048-0.155-0.041-0.279-0.178-0.45-0.16-0.027 0.181 0.021 0.363 0.027 0.544 0.002 0.126 0.011 0.254-0.018 0.377-0.11-0.494-0.183-0.996-0.269-1.495-0.041-0.226-0.098-0.45-0.105-0.679-0.004-0.105 0.036-0.215 0.121-0.279 0.075-0.053 0.163-0.085 0.254-0.098 0.368-0.034 0.74 0.025 1.088 0.148 0.173 0.046 0.359 0.137 0.535 0.057 0.012-0.272 0.039-0.544 0.019-0.814-0.016-0.228-0.101-0.453-0.258-0.619-0.117 0.082-0.224 0.183-0.361 0.233-0.11 0.044-0.231 0.034-0.347 0.057-0.075 0.014-0.139 0.059-0.206 0.092 0.027-0.158 0.151-0.304 0.313-0.334 0.13-0.032 0.267-0.046 0.384-0.116 0.18-0.1 0.288-0.293 0.338-0.487 0.052-0.21 0.004-0.428-0.087-0.62 0.167 0.14 0.29 0.334 0.334 0.549 0.050 0.224 0.019 0.466 0.132 0.672-0.149-0.048-0.206-0.204-0.251-0.34-0.032 0.11-0.036 0.231-0.002 0.341 0.046 0.132 0.217 0.158 0.26 0.292 0.027 0.071 0.027 0.149 0.039 0.224 0.027-0.066 0.048-0.133 0.046-0.204-0.011-0.254 0.025-0.514-0.034-0.764-0.021-0.076-0.050-0.153-0.071-0.229 0.181 0.107 0.252 0.325 0.244 0.526 0.002 0.167-0.066 0.325-0.064 0.492-0.004 0.324 0.012 0.665-0.126 0.965-0.032 0.087-0.142 0.132-0.139 0.233-0.007 0.196-0.119 0.363-0.173 0.546-0.055 0.265-0.039 0.537-0.032 0.807 0.025 0.407 0.043 0.82-0.036 1.221-0.1 0.496-0.238 0.983-0.405 1.459-0.201 0.597-0.311 1.227-0.583 1.796-0.156 0.34-0.487 0.571-0.845 0.654-0.425 0.096-0.86 0.153-1.298 0.148-0.347-0.002-0.693 0.005-1.038-0.007-0.267-0.021-0.53-0.064-0.793-0.112-0.194-0.043-0.4-0.087-0.56-0.213-0.13-0.094-0.229-0.222-0.317-0.355-0.204-0.327-0.336-0.692-0.459-1.054-0.178-0.546-0.318-1.104-0.432-1.668-0.046-0.217-0.069-0.441-0.132-0.654-0.046-0.181-0.149-0.34-0.208-0.516-0.091-0.277-0.165-0.564-0.16-0.857-0.011-0.348 0.080-0.693 0.046-1.042-0.032-0.355-0.078-0.708-0.1-1.065-0.004-0.45 0.091-0.907 0.315-1.3 0.146-0.272 0.359-0.505 0.594-0.702 0.203-0.156 0.425-0.297 0.674-0.361-0.27 0.172-0.532 0.402-0.619 0.724-0.069 0.233-0.023 0.492 0.107 0.695 0.071 0.108 0.173 0.203 0.3 0.231-0.073-0.089-0.153-0.172-0.199-0.279-0.077-0.172-0.066-0.363-0.027-0.544 0.021 0.203 0.059 0.403 0.18 0.572 0.112 0.165 0.293 0.324 0.505 0.297 0.050-0.009 0.085 0.034 0.121 0.060 0.112 0.094 0.236 0.183 0.38 0.213 0.094 0.023 0.188-0.027 0.256-0.089-0.069-0.059-0.153-0.094-0.224-0.148-0.309-0.22-0.539-0.558-0.612-0.931-0.020-0.178-0.034-0.38 0.080-0.532 0.107-0.142 0.276-0.21 0.428-0.286-0.238 0.032-0.489 0.117-0.643 0.311-0.139 0.18-0.151 0.421-0.112 0.636 0.044 0.215 0.123 0.427 0.251 0.606-0.14-0.044-0.24-0.164-0.313-0.284-0.14-0.235-0.183-0.532-0.096-0.793 0.082-0.242 0.286-0.425 0.523-0.512 0.274-0.1 0.567-0.105 0.855-0.114 0.343-0.004 0.688 0.044 1.027-0.023v0zM0.435 12.378c-0.139 0.267-0.199 0.574-0.178 0.875 0.094-0.226 0.174-0.468 0.347-0.649 0.052-0.062 0.13-0.11 0.151-0.192 0.011-0.105-0.014-0.208-0.027-0.311-0.137 0.036-0.226 0.162-0.293 0.277v0zM2.401 12.347c-0.060 0.135-0.029 0.292 0.057 0.409 0.021-0.132 0.016-0.284 0.119-0.386 0.11-0.133 0.293-0.142 0.451-0.162-0.101-0.027-0.199-0.071-0.304-0.073-0.137 0-0.277 0.080-0.324 0.211v0zM0.595 12.981c-0.135 0.149-0.188 0.355-0.204 0.551-0.036 0.315 0.126 0.603 0.158 0.91 0.009 0.171-0.103 0.315-0.16 0.469-0.156 0.418-0.162 0.91 0.052 1.31-0.020-0.217-0.039-0.439 0.020-0.652 0.044-0.162 0.105-0.325 0.213-0.455 0.123-0.151 0.251-0.313 0.293-0.507 0.036-0.187-0.012-0.373-0.034-0.558-0.025-0.146-0.025-0.295-0.021-0.443-0.007-0.172 0.144-0.307 0.11-0.484-0.069 0.018-0.144 0.036-0.196 0.091-0.080 0.085-0.108 0.203-0.132 0.313-0.055 0.343 0.117 0.674 0.082 1.015-0.034 0.288-0.27 0.491-0.357 0.759-0.011-0.336 0.295-0.601 0.244-0.944-0.041-0.302-0.16-0.599-0.119-0.908 0.034-0.233 0.187-0.423 0.35-0.58 0-0.016 0.002-0.052 0.002-0.068-0.132-0.011-0.221 0.092-0.3 0.18v0zM2.072 13.392c-0.108 0.055-0.14 0.181-0.197 0.279-0.082 0.162-0.254 0.249-0.338 0.409-0.057 0.094-0.1 0.226-0.023 0.322 0.071 0.092 0.199 0.092 0.304 0.082 0.238-0.028 0.475-0.075 0.708-0.137 0.071-0.149 0.078-0.32 0.069-0.484-0.009-0.151-0.041-0.311-0.14-0.428-0.096-0.107-0.263-0.101-0.382-0.043v0zM2.46 14.903c0.108-0.007 0.213-0.043 0.317-0.076 0.242-0.076 0.508-0.137 0.756-0.055 0.156 0.048 0.268 0.172 0.391 0.272-0.046-0.135-0.112-0.267-0.212-0.372-0.107-0.108-0.272-0.139-0.418-0.13-0.304 0.037-0.587 0.181-0.834 0.361v0zM6.508 14.642c0 0.020 0 0.059 0 0.078-0.221 0.044-0.393 0.187-0.524 0.306 0.011 0.007 0.018 0.011 0.029 0.020 0.16-0.142 0.544-0.235 0.743-0.201-0.089 0.076-0.226 0.059-0.302 0.153-0.025 0.101 0.082 0.172 0.078 0.27 0.011 0.087-0.018 0.19 0.059 0.254 0.082 0.082 0.226 0.034 0.27-0.062 0.062-0.124 0.135-0.252 0.14-0.395 0.011-0.105-0.101-0.144-0.162-0.208 0.14-0.023 0.249 0.075 0.331 0.174 0.023-0.094 0.004-0.201-0.071-0.267-0.163-0.133-0.389-0.156-0.59-0.123v0zM3.038 14.883c-0.226 0.043-0.441 0.13-0.638 0.244-0.084 0.034-0.103 0.162-0.029 0.215 0.119 0.107 0.268 0.174 0.418 0.233 0.217 0.085 0.464 0.062 0.677-0.027 0.146-0.059 0.329-0.114 0.389-0.276-0.002-0.105-0.089-0.18-0.167-0.238-0.19-0.128-0.427-0.194-0.651-0.151v0zM2.188 15.337c0 0.245 0.174 0.448 0.375 0.567 0.204 0.117 0.475 0.084 0.663-0.050 0.002-0.012 0.004-0.036 0.004-0.046-0.204-0.012-0.421-0.011-0.604-0.112-0.176-0.082-0.309-0.22-0.437-0.359v0zM0.641 16.13c-0.028 0.434 0.050 0.878 0.242 1.269 0.247 0.587 0.491 1.184 0.601 1.815 0.048 0.327 0.084 0.684 0.311 0.942 0.105 0.146 0.277 0.272 0.466 0.24-0.044-0.121-0.135-0.217-0.194-0.332-0.137-0.254-0.187-0.544-0.222-0.828-0.062-0.441-0.087-0.887-0.132-1.332-0.077-0.48-0.187-0.987-0.517-1.362-0.197-0.21-0.295-0.496-0.304-0.78-0.002-0.089-0.007-0.18-0.028-0.265-0.153 0.176-0.206 0.409-0.222 0.633v0zM3.856 18.519c-0.048 0.011-0.089 0.046-0.11 0.091-0.011 0.060 0.053 0.096 0.1 0.119 0.108 0.050 0.267 0.078 0.343-0.041 0.039-0.053 0.144-0.153 0.052-0.197-0.13-0.004-0.258 0.014-0.384 0.029v0zM6.295 11.479c0.144-0.126 0.366-0.117 0.523-0.020 0.181 0.119 0.308 0.34 0.277 0.56-0.032 0.148-0.092 0.309-0.228 0.393 0.044-0.178 0.032-0.395-0.123-0.516-0.119-0.101-0.281-0.075-0.423-0.062 0.050-0.046 0.103-0.107 0.174-0.116 0.078-0.012 0.171 0.012 0.222-0.053-0.098-0.14-0.265-0.176-0.423-0.187v0z"></path>
<path d="M15.582 15.225c0.044 0 0.091 0 0.135 0 0.373 1.054 0.754 2.108 1.127 3.163 0.204 0.565 0.398 1.134 0.612 1.696 0.087 0.238 0.304 0.393 0.537 0.469-0.002 0.046 0.004 0.094-0.004 0.142-0.215 0.002-0.428-0.030-0.643-0.029-0.247-0.007-0.492 0.027-0.738 0.030-0.002-0.039-0.004-0.080-0.005-0.119-0.007 0-0.021-0.002-0.029-0.002 0.091-0.057 0.181-0.117 0.258-0.194 0.071-0.067 0.037-0.174 0.016-0.258-0.114-0.324-0.238-0.645-0.357-0.967-0.72 0-1.44-0.002-2.16 0-0.082 0.229-0.167 0.455-0.249 0.684-0.044 0.139-0.055 0.286-0.050 0.432 0.030 0.158 0.197 0.228 0.331 0.283 0 0.046 0 0.092 0 0.14-0.204-0.004-0.405-0.034-0.61-0.030-0.206-0.002-0.409 0.030-0.615 0.030 0-0.048-0.002-0.094-0.002-0.142 0.124-0.041 0.251-0.096 0.341-0.196 0.101-0.108 0.153-0.251 0.21-0.386 0.635-1.584 1.264-3.166 1.895-4.748v0zM14.46 18.832c0.643 0.002 1.287 0.002 1.931 0-0.304-0.834-0.603-1.669-0.907-2.501-0.345 0.834-0.683 1.668-1.024 2.501v0z"></path>
<path d="M29.596 15.225c0.044 0 0.089 0 0.135 0 0.562 1.573 1.125 3.149 1.687 4.722 0.067 0.183 0.156 0.373 0.331 0.478 0.078 0.050 0.163 0.089 0.251 0.125 0 0.048 0 0.096 0 0.146-0.251-0.007-0.501-0.037-0.754-0.030-0.206 0.002-0.413 0.025-0.619 0.030-0.002-0.048-0.004-0.094-0.004-0.142 0.092-0.071 0.208-0.125 0.265-0.231 0.016-0.085-0.014-0.172-0.041-0.252-0.112-0.304-0.229-0.608-0.338-0.914-0.722-0.002-1.442-0.002-2.164 0-0.085 0.251-0.188 0.496-0.267 0.75-0.029 0.133-0.043 0.274-0.021 0.409 0.055 0.13 0.196 0.19 0.318 0.24 0 0.048 0 0.094-0.002 0.142-0.251-0.011-0.5-0.043-0.75-0.027-0.158 0.007-0.317 0.025-0.475 0.027 0-0.048 0-0.094 0-0.14 0.139-0.048 0.279-0.112 0.372-0.231 0.105-0.135 0.156-0.302 0.224-0.459 0.619-1.548 1.237-3.093 1.851-4.642v0zM29.498 16.331c-0.343 0.834-0.683 1.669-1.024 2.503 0.643 0 1.287-0.002 1.931 0-0.3-0.834-0.603-1.669-0.907-2.503v0z"></path>
<path d="M22.752 15.234c0.389 0.135 0.805 0.060 1.207 0.092 0.59 0.014 1.18 0.028 1.771 0.012 0.416-0.004 0.832-0.025 1.25-0.023 0.183 0.007 0.363-0.028 0.537-0.082-0.004 0.318-0.012 0.638-0.023 0.956-0.048-0.004-0.092-0.007-0.139-0.011-0.062-0.201-0.183-0.414-0.402-0.471-0.27-0.073-0.555-0.043-0.832-0.050-0.219 0.004-0.437-0.011-0.656 0.009-0.004 1.412-0.014 2.825-0.018 4.236-0.004 0.149-0.030 0.322 0.069 0.448 0.112 0.125 0.288 0.156 0.443 0.197 0 0.048 0 0.096 0 0.144-0.334-0.007-0.668-0.041-1.004-0.029-0.221 0.004-0.441 0.029-0.661 0.027 0-0.046 0-0.094 0-0.14 0.149-0.039 0.311-0.069 0.436-0.169 0.091-0.080 0.1-0.21 0.098-0.322-0.009-1.467-0.018-2.935-0.023-4.402-0.42 0.005-0.841-0.011-1.259 0.011-0.18 0.007-0.373 0.064-0.484 0.215-0.075 0.087-0.1 0.204-0.158 0.3-0.043 0-0.084-0.002-0.126-0.002-0.005-0.315-0.021-0.633-0.025-0.949v0z"></path>
<path d="M9.084 15.314c0.229 0 0.459 0.027 0.688 0.030 0.373 0.009 0.748-0.062 1.122-0.012 0.361 0.041 0.734 0.164 0.989 0.436 0.229 0.242 0.322 0.585 0.309 0.912 0.004 0.35-0.162 0.697-0.437 0.914-0.19 0.16-0.425 0.254-0.66 0.327 0.414 0.094 0.82 0.317 1.038 0.693 0.21 0.345 0.211 0.777 0.11 1.157-0.084 0.306-0.293 0.576-0.58 0.715-0.455 0.226-0.981 0.226-1.477 0.188-0.37-0.025-0.739 0-1.109 0.020 0-0.048-0.002-0.094 0-0.14 0.082-0.005 0.165-0.020 0.231-0.071 0.116-0.084 0.156-0.233 0.162-0.37-0.002-1.328-0.012-2.656-0.018-3.984-0.004-0.165-0.002-0.332-0.053-0.492-0.023-0.073-0.073-0.142-0.149-0.165-0.055-0.014-0.112-0.018-0.167-0.023 0.004-0.043 0.002-0.087 0.002-0.133v0zM10.19 15.506c-0.076 0.062-0.082 0.169-0.085 0.261-0.002 0.679-0.004 1.358-0.007 2.039 0.18 0 0.359 0.005 0.537-0.020 0.259-0.029 0.532-0.116 0.709-0.317 0.188-0.215 0.236-0.514 0.231-0.791-0.007-0.318-0.091-0.652-0.316-0.889-0.196-0.215-0.485-0.324-0.77-0.332-0.1-0.002-0.21-0.009-0.299 0.048v0zM10.090 20.115c0.002 0.087-0.002 0.181 0.046 0.259 0.037 0.059 0.108 0.085 0.174 0.092 0.322 0.021 0.667-0.018 0.933-0.21 0.252-0.172 0.389-0.473 0.428-0.77 0.044-0.343 0.016-0.716-0.183-1.010-0.162-0.244-0.439-0.393-0.724-0.437-0.222-0.039-0.446-0.016-0.67-0.023 0 0.701-0.002 1.399-0.005 2.098v0z"></path>
<path d="M20.912 15.346c0.317 0 0.631-0.027 0.948-0.030 0 0.292 0 0.583 0 0.875-0.048-0.004-0.094-0.007-0.142-0.011-0.012-0.132-0.053-0.268-0.148-0.366-0.098-0.098-0.236-0.144-0.372-0.144-0.439-0.004-0.876 0.002-1.314-0.002 0 0.713 0 1.426 0 2.14 0.361-0.002 0.722 0 1.081-0.002 0.151-0.007 0.315-0.018 0.437-0.116 0.096-0.076 0.132-0.199 0.172-0.309 0.044-0.004 0.089-0.004 0.135-0.005-0.005 0.14-0.012 0.281-0.021 0.421-0.011 0.229 0.011 0.459 0.039 0.686-0.048 0-0.094-0.002-0.142-0.002-0.041-0.133-0.108-0.27-0.236-0.338-0.174-0.091-0.377-0.075-0.567-0.078-0.299 0-0.599 0-0.898 0 0 0.683 0 1.365 0 2.048 0 0.144 0.043 0.304 0.167 0.389 0.055 0.044 0.128 0.050 0.196 0.064-0.002 0.044-0.002 0.091-0.002 0.135-0.204-0.004-0.407-0.030-0.612-0.032-0.245-0.007-0.487 0.029-0.732 0.032 0-0.044-0.002-0.091-0.002-0.135 0.082-0.012 0.171-0.030 0.233-0.089 0.094-0.094 0.133-0.233 0.13-0.364 0-0.729 0-1.456 0-2.185 0.002-0.729-0.002-1.461-0.11-2.183-0.018-0.073-0.011-0.174-0.091-0.21-0.094-0.041-0.197-0.041-0.297-0.048 0-0.048 0-0.096 0-0.142 0.716 0 1.433-0.002 2.148 0v0z"></path>
</symbol>
<symbol id="icon-academy" viewBox="0 0 32 32">
<path d="M15.615 0l9.102 20.661h-5.77l-0.752-1.769h-0.917c-0.18-0.264-0.161-0.317-0.469-0.352-0.687-0.036-0.778-0.123-0.778-0.633 0-0.458 0.203-1.32 0.221-1.653 0.019-0.424-0.035-0.58-0.035-0.88s0.199-0.634 0.234-1.337c0.037-0.703-0.131-1.211-0.131-1.211 0.147-0.020 0.326-0.124 0.381-0.248 0.072-0.175 0.307-1.126 0.307-1.512 0-0.159-0.018-0.299-0.053-0.404-0.166-0.39-0.647-0.322-0.864-0.571-0.068-0.078-0.111-0.073-0.115-0.354 0.113-0.155 0.147-0.387 0.147-0.723 0-0.28-0.218-0.496-0.508-0.496-0.29 0-0.508 0.216-0.508 0.496 0 0.336 0.034 0.568 0.148 0.723-0.005 0.281-0.048 0.276-0.116 0.354-0.216 0.249-0.697 0.182-0.864 0.571-0.035 0.106-0.052 0.246-0.052 0.404 0 0.386 0.235 1.337 0.306 1.512 0.055 0.124 0.235 0.228 0.381 0.248 0 0-0.168 0.508-0.131 1.211 0.036 0.704 0.235 1.038 0.235 1.337s-0.055 0.456-0.036 0.88c0.017 0.332 0.221 1.194 0.221 1.653 0 0.51-0.091 0.597-0.778 0.633-0.307 0.035-0.289 0.087-0.468 0.352h-0.917l-0.752 1.769h-5.77l9.103-20.661z"></path>
<path d="M25.376 19.926c-0.258 0-0.469 0.209-0.469 0.466 0 0.258 0.211 0.468 0.469 0.468 0.257 0 0.466-0.21 0.466-0.468s-0.209-0.466-0.466-0.466zM25.376 20.795c-0.226 0-0.403-0.177-0.403-0.402 0-0.221 0.181-0.4 0.403-0.4 0.221 0 0.4 0.18 0.4 0.4 0 0.226-0.176 0.402-0.4 0.402z"></path>
<path d="M25.468 20.404c0.044-0.026 0.067-0.070 0.067-0.127 0-0.054-0.021-0.096-0.059-0.123-0.039-0.029-0.084-0.029-0.124-0.029h-0.134v0.534h0.073v-0.232c0.012 0 0.040 0 0.055 0l0.143 0.231 0.002 0.002h0.079l-0.14-0.24c0.013-0.003 0.026-0.008 0.038-0.016zM25.363 20.356h-0.071v-0.159h0.066c0.023 0 0.046 0 0.065 0.010 0.029 0.013 0.040 0.044 0.040 0.069s-0.010 0.047-0.028 0.062c-0.019 0.017-0.044 0.018-0.072 0.018z"></path>
<path d="M7.262 30.835l0.212 0.559h-0.425l0.213-0.559zM6.724 31.931h0.121l0.161-0.425h0.509l0.161 0.425h0.121l-0.536-1.402-0.538 1.402z"></path>
<path d="M8.284 30.715h-0.113v0.492h0.124c0.082 0 0.155-0.004 0.223-0.055 0.050-0.038 0.080-0.109 0.080-0.192 0-0.078-0.033-0.176-0.127-0.218-0.052-0.024-0.118-0.027-0.187-0.027zM8.682 31.93l-0.386-0.61h-0.125v0.61h-0.117v-1.328h0.215c0.099 0 0.211 0 0.305 0.068 0.090 0.063 0.137 0.164 0.137 0.292 0 0.122-0.053 0.23-0.141 0.29-0.042 0.028-0.091 0.047-0.148 0.058l0.392 0.62h-0.133z"></path>
<path d="M8.968 30.602l-0.043 0.112h0.342v1.217h0.117v-1.217h0.342v-0.112h-0.759z"></path>
<path d="M14.329 30.714h0.217c0.182 0 0.3 0.040 0.407 0.136 0.117 0.107 0.182 0.255 0.182 0.417 0 0.15-0.059 0.292-0.167 0.4-0.108 0.106-0.233 0.151-0.422 0.151h-0.217v-1.105zM15.039 30.77c-0.15-0.139-0.305-0.167-0.492-0.167h-0.336v1.328h0.336c0.164 0 0.338-0.022 0.499-0.176 0.132-0.127 0.204-0.299 0.204-0.486 0-0.193-0.075-0.37-0.211-0.498z"></path>
<path d="M11.868 30.833l0.211 0.559h-0.424l0.213-0.559zM11.33 31.929h0.122l0.161-0.424h0.509l0.161 0.424h0.121l-0.536-1.402-0.538 1.402z"></path>
<path d="M12.634 31.93h0.117v-1.085l1.086 1.154v-1.398h-0.117v1.103l-1.085-1.146v1.371z"></path>
<path d="M19.852 31.93h0.117v-1.085l1.086 1.154v-1.398h-0.117v1.103l-1.085-1.146v1.371z"></path>
<path d="M18.347 31.93h0.117v-1.328h-0.117v1.328z"></path>
<path d="M18.866 30.603v1.328h0.585l0.043-0.112h-0.511v-0.543h0.482v-0.112h-0.482v-0.449h0.599l-0.043-0.112h-0.674z"></path>
<path d="M22.729 30.603v1.328h0.585l0.043-0.112h-0.511v-0.543h0.482v-0.112h-0.482v-0.449h0.599l-0.043-0.112h-0.674z"></path>
<path d="M17.972 31.849c-0.060 0.038-0.187 0.102-0.368 0.102-0.183 0-0.355-0.071-0.485-0.201-0.267-0.267-0.267-0.702 0-0.97 0.13-0.129 0.301-0.201 0.485-0.201 0.258 0 0.406 0.131 0.406 0.131l0.055 0.15c0 0-0.189-0.167-0.461-0.167-0.152 0-0.297 0.059-0.405 0.168-0.108 0.108-0.167 0.252-0.167 0.405s0.059 0.297 0.167 0.405v0c0.109 0.108 0.253 0.168 0.405 0.168 0.201 0 0.358-0.092 0.425-0.14l-0.057 0.15z"></path>
<path d="M16.314 31.952c-0.161 0-0.304-0.081-0.384-0.217l-0.009-0.015 0.051-0.131 0.037 0.060c0.082 0.13 0.177 0.188 0.309 0.188 0.172 0 0.301-0.115 0.301-0.268 0-0.144-0.159-0.225-0.265-0.279-0.010-0.005-0.020-0.010-0.029-0.015s-0.020-0.010-0.032-0.015c-0.097-0.047-0.301-0.144-0.301-0.349 0-0.192 0.147-0.33 0.348-0.33 0.15 0 0.25 0.078 0.25 0.078l0.052 0.133c0 0-0.158-0.097-0.307-0.097-0.131 0-0.226 0.091-0.226 0.215 0 0.127 0.132 0.193 0.249 0.252l0.022 0.011c0.009 0.005 0.018 0.009 0.028 0.014 0.116 0.056 0.331 0.161 0.331 0.388 0 0.211-0.187 0.376-0.425 0.376z"></path>
<path d="M22.374 31.849c-0.060 0.038-0.187 0.102-0.368 0.102-0.183 0-0.355-0.071-0.484-0.201-0.267-0.267-0.267-0.702 0-0.97 0.13-0.129 0.301-0.201 0.484-0.201 0.258 0 0.407 0.131 0.407 0.131l0.055 0.15c0 0-0.189-0.167-0.462-0.167-0.152 0-0.296 0.059-0.405 0.168s-0.168 0.252-0.168 0.405 0.060 0.297 0.168 0.405v0c0.108 0.108 0.253 0.168 0.405 0.168 0.202 0 0.358-0.092 0.426-0.14l-0.058 0.15z"></path>
<path d="M24.015 31.952c-0.161 0-0.305-0.081-0.384-0.217l-0.009-0.015 0.051-0.131 0.037 0.060c0.081 0.13 0.176 0.188 0.308 0.188 0.172 0 0.301-0.115 0.301-0.268 0-0.144-0.159-0.225-0.265-0.279-0.010-0.005-0.020-0.010-0.029-0.015s-0.019-0.010-0.032-0.015c-0.097-0.047-0.301-0.144-0.301-0.349 0-0.192 0.147-0.33 0.348-0.33 0.15 0 0.25 0.078 0.25 0.078l0.051 0.133c0 0-0.157-0.097-0.307-0.097-0.131 0-0.226 0.091-0.226 0.215 0 0.127 0.132 0.193 0.249 0.252l0.022 0.011c0.008 0.005 0.017 0.009 0.028 0.014 0.116 0.056 0.331 0.161 0.331 0.388 0 0.211-0.187 0.376-0.425 0.376z"></path>
<path d="M10.26 31.952c-0.161 0-0.304-0.081-0.384-0.217l-0.008-0.015 0.051-0.131 0.038 0.060c0.081 0.13 0.176 0.188 0.308 0.188 0.172 0 0.301-0.115 0.301-0.268 0-0.144-0.159-0.225-0.265-0.279-0.010-0.005-0.020-0.010-0.029-0.015s-0.020-0.010-0.032-0.015c-0.098-0.047-0.301-0.144-0.301-0.349 0-0.192 0.147-0.33 0.348-0.33 0.15 0 0.251 0.078 0.251 0.078l0.051 0.133c0 0-0.158-0.097-0.307-0.097-0.131 0-0.226 0.091-0.226 0.215 0 0.127 0.132 0.193 0.249 0.252l0.022 0.011c0.008 0.005 0.018 0.009 0.028 0.014 0.116 0.056 0.332 0.161 0.332 0.388 0 0.211-0.187 0.376-0.425 0.376z"></path>
<path d="M16.956 29.104l-1.085-1.146v1.371h0.116v-1.085l1.086 1.155v-1.398h-0.117v1.102z"></path>
<path d="M13.692 29.329h0.117v-1.328h-0.117v1.328z"></path>
<path d="M22.762 28.804c0 0.115 0 0.235-0.063 0.316s-0.188 0.119-0.277 0.119-0.214-0.037-0.277-0.119c-0.063-0.082-0.063-0.201-0.063-0.316v-0.802h-0.117v0.826c0 0.135 0 0.252 0.092 0.366 0.087 0.099 0.223 0.157 0.366 0.157s0.279-0.059 0.366-0.158c0.092-0.113 0.092-0.23 0.092-0.365v-0.826h-0.117v0.802z"></path>
<path d="M6.844 29.238c-0.316 0-0.573-0.257-0.573-0.573s0.256-0.573 0.573-0.573c0.316 0 0.573 0.256 0.573 0.573s-0.257 0.573-0.573 0.573zM6.844 27.98c-0.379 0-0.685 0.307-0.685 0.685s0.307 0.685 0.685 0.685 0.685-0.307 0.685-0.685c0-0.378-0.307-0.685-0.685-0.685z"></path>
<path d="M11.763 29.238c-0.316 0-0.573-0.257-0.573-0.573s0.256-0.573 0.573-0.573 0.572 0.256 0.572 0.573c0 0.316-0.256 0.573-0.572 0.573zM11.763 27.98c-0.379 0-0.685 0.307-0.685 0.685s0.307 0.685 0.685 0.685 0.685-0.307 0.685-0.685c0-0.378-0.306-0.685-0.685-0.685z"></path>
<path d="M7.974 28.661h0.373v-0.112h-0.373v-0.435h0.499l-0.043-0.112h-0.573v1.328h0.117v-0.669z"></path>
<path d="M10.831 29.329h0.121l-0.536-1.402-0.428 1.116-0.427-1.116-0.538 1.402h0.121l0.417-1.095 0.426 1.127 0.429-1.127 0.415 1.095z"></path>
<path d="M12.915 29.329h0.117v-1.216h0.342v-0.112h-0.759l-0.043 0.112h0.342v1.216z"></path>
<path d="M14.861 29.238c-0.316 0-0.573-0.257-0.573-0.573s0.257-0.573 0.573-0.573c0.316 0 0.573 0.256 0.573 0.573s-0.257 0.573-0.573 0.573zM14.861 27.98c-0.378 0-0.685 0.307-0.685 0.685s0.307 0.685 0.685 0.685c0.379 0 0.685-0.307 0.685-0.685s-0.307-0.685-0.685-0.685z"></path>
<path d="M23.513 28.114h-0.113v0.492h0.124c0.082 0 0.155-0.004 0.223-0.055 0.050-0.038 0.080-0.11 0.080-0.192 0-0.078-0.033-0.176-0.127-0.218-0.052-0.025-0.118-0.027-0.187-0.027zM23.911 29.329l-0.386-0.61h-0.125v0.61h-0.117v-1.328h0.214c0.099 0 0.211 0 0.305 0.068 0.090 0.063 0.137 0.164 0.137 0.292 0 0.122-0.052 0.23-0.141 0.289-0.043 0.028-0.091 0.048-0.148 0.058l0.393 0.62h-0.133z"></path>
<path d="M18.354 28.114h-0.113v0.492h0.124c0.082 0 0.155-0.004 0.223-0.055 0.050-0.037 0.080-0.109 0.080-0.192 0-0.078-0.033-0.177-0.127-0.218-0.052-0.025-0.118-0.027-0.187-0.027zM18.367 28.72h-0.125v0.61h-0.117v-1.328h0.215c0.099 0 0.211 0 0.305 0.069 0.090 0.063 0.138 0.164 0.138 0.292 0 0.122-0.054 0.228-0.141 0.289-0.093 0.066-0.182 0.068-0.276 0.068z"></path>
<path d="M19.112 29.329h0.117v-1.328h-0.117v1.328z"></path>
<path d="M21.222 29.329h0.117v-1.216h0.342v-0.112h-0.758l-0.043 0.112h0.342v1.216z"></path>
<path d="M24.33 28.002v1.328h0.585l0.043-0.112h-0.511v-0.543h0.482v-0.112h-0.482v-0.449h0.599l-0.043-0.112h-0.674z"></path>
<path d="M20.614 29.248c-0.060 0.038-0.187 0.103-0.368 0.103-0.183 0-0.355-0.072-0.485-0.201-0.267-0.267-0.267-0.702 0-0.969 0.13-0.129 0.302-0.201 0.485-0.201 0.258 0 0.407 0.13 0.407 0.13l0.055 0.149c0 0-0.189-0.167-0.461-0.167-0.152 0-0.297 0.059-0.405 0.168s-0.168 0.252-0.168 0.405c0 0.153 0.060 0.297 0.168 0.405v0c0.108 0.108 0.253 0.168 0.405 0.168 0.202 0 0.358-0.092 0.425-0.139l-0.058 0.15z"></path>
<path d="M15.071 25.615h0.173c0.162 0 0.267 0.034 0.361 0.119 0.103 0.095 0.16 0.226 0.16 0.368 0 0.132-0.052 0.258-0.147 0.352-0.095 0.093-0.207 0.132-0.374 0.132h-0.173v-0.972zM15.736 25.604c-0.151-0.14-0.306-0.168-0.491-0.168h-0.354v1.331h0.354c0.163 0 0.336-0.021 0.498-0.177 0.132-0.127 0.204-0.3 0.204-0.487 0-0.193-0.075-0.37-0.212-0.498z"></path>
<path d="M19.872 25.436l-0.349 0.591-0.349-0.592h-0.202l0.462 0.8v0.531h0.179v-0.531l0.462-0.8h-0.202z"></path>
<path d="M17.027 25.61l-0.067-0.174h-0.715v1.33h0.628l0.066-0.174h-0.516v-0.45h0.473v-0.174h-0.473v-0.358h0.603z"></path>
<path d="M13.393 25.727c0 0-0.189-0.133-0.459-0.133-0.134 0-0.262 0.053-0.358 0.148s-0.148 0.223-0.148 0.358 0.052 0.262 0.148 0.358l0.011 0.011c0.095 0.089 0.218 0.137 0.347 0.137 0.244 0 0.445-0.148 0.445-0.148l-0.084 0.222c-0.064 0.039-0.191 0.106-0.361 0.106-0.183 0-0.356-0.071-0.486-0.201s-0.201-0.302-0.201-0.485 0.071-0.356 0.201-0.486c0.13-0.13 0.303-0.201 0.486-0.201 0.197 0 0.33 0.075 0.383 0.113l0.075 0.2z"></path>
<path d="M11.463 26.255l0.172-0.423 0.171 0.423h-0.343zM12.014 26.765h0.188l-0.566-1.393-0.566 1.393h0.188l0.137-0.336h0.484l0.136 0.336z"></path>
<path d="M13.919 26.255l0.172-0.423 0.172 0.423h-0.343zM14.469 26.765h0.188l-0.566-1.393-0.566 1.393h0.188l0.136-0.336h0.485l0.136 0.336z"></path>
<path d="M18.477 25.372v0l-0.402 0.988-0.402-0.988-0.566 1.392h0.188l0.379-0.932 0.402 0.99 0.402-0.99 0.379 0.932h0.188l-0.566-1.392z"></path>
</symbol>
<symbol id="icon-twitter" viewBox="0 0 26 28">
<path d="M25.312 6.375c-0.688 1-1.547 1.891-2.531 2.609 0.016 0.219 0.016 0.438 0.016 0.656 0 6.672-5.078 14.359-14.359 14.359-2.859 0-5.516-0.828-7.75-2.266 0.406 0.047 0.797 0.063 1.219 0.063 2.359 0 4.531-0.797 6.266-2.156-2.219-0.047-4.078-1.5-4.719-3.5 0.313 0.047 0.625 0.078 0.953 0.078 0.453 0 0.906-0.063 1.328-0.172-2.312-0.469-4.047-2.5-4.047-4.953v-0.063c0.672 0.375 1.453 0.609 2.281 0.641-1.359-0.906-2.25-2.453-2.25-4.203 0-0.938 0.25-1.797 0.688-2.547 2.484 3.062 6.219 5.063 10.406 5.281-0.078-0.375-0.125-0.766-0.125-1.156 0-2.781 2.25-5.047 5.047-5.047 1.453 0 2.766 0.609 3.687 1.594 1.141-0.219 2.234-0.641 3.203-1.219-0.375 1.172-1.172 2.156-2.219 2.781 1.016-0.109 2-0.391 2.906-0.781z"></path>
</symbol>
<symbol id="icon-facebook" viewBox="0 0 16 28">
<path d="M14.984 0.187v4.125h-2.453c-1.922 0-2.281 0.922-2.281 2.25v2.953h4.578l-0.609 4.625h-3.969v11.859h-4.781v-11.859h-3.984v-4.625h3.984v-3.406c0-3.953 2.422-6.109 5.953-6.109 1.687 0 3.141 0.125 3.563 0.187z"></path>
</symbol>
<symbol id="icon-instagram" viewBox="0 0 24 28">
<path d="M16 14c0-2.203-1.797-4-4-4s-4 1.797-4 4 1.797 4 4 4 4-1.797 4-4zM18.156 14c0 3.406-2.75 6.156-6.156 6.156s-6.156-2.75-6.156-6.156 2.75-6.156 6.156-6.156 6.156 2.75 6.156 6.156zM19.844 7.594c0 0.797-0.641 1.437-1.437 1.437s-1.437-0.641-1.437-1.437 0.641-1.437 1.437-1.437 1.437 0.641 1.437 1.437zM12 4.156c-1.75 0-5.5-0.141-7.078 0.484-0.547 0.219-0.953 0.484-1.375 0.906s-0.688 0.828-0.906 1.375c-0.625 1.578-0.484 5.328-0.484 7.078s-0.141 5.5 0.484 7.078c0.219 0.547 0.484 0.953 0.906 1.375s0.828 0.688 1.375 0.906c1.578 0.625 5.328 0.484 7.078 0.484s5.5 0.141 7.078-0.484c0.547-0.219 0.953-0.484 1.375-0.906s0.688-0.828 0.906-1.375c0.625-1.578 0.484-5.328 0.484-7.078s0.141-5.5-0.484-7.078c-0.219-0.547-0.484-0.953-0.906-1.375s-0.828-0.688-1.375-0.906c-1.578-0.625-5.328-0.484-7.078-0.484zM24 14c0 1.656 0.016 3.297-0.078 4.953-0.094 1.922-0.531 3.625-1.937 5.031s-3.109 1.844-5.031 1.937c-1.656 0.094-3.297 0.078-4.953 0.078s-3.297 0.016-4.953-0.078c-1.922-0.094-3.625-0.531-5.031-1.937s-1.844-3.109-1.937-5.031c-0.094-1.656-0.078-3.297-0.078-4.953s-0.016-3.297 0.078-4.953c0.094-1.922 0.531-3.625 1.937-5.031s3.109-1.844 5.031-1.937c1.656-0.094 3.297-0.078 4.953-0.078s3.297-0.016 4.953 0.078c1.922 0.094 3.625 0.531 5.031 1.937s1.844 3.109 1.937 5.031c0.094 1.656 0.078 3.297 0.078 4.953z"></path>
</symbol>
<symbol id="icon-play_arrow" viewBox="0 0 24 24">
<path d="M8.016 5.016l10.969 6.984-10.969 6.984v-13.969z"></path>
</symbol>
<symbol id="icon-add" viewBox="0 0 24 24">
<path d="M18.984 12.984h-6v6h-1.969v-6h-6v-1.969h6v-6h1.969v6h6v1.969z"></path>
</symbol>
<symbol id="icon-arrow_forward" viewBox="0 0 24 24">
<path d="M12 3.984l8.016 8.016-8.016 8.016-1.406-1.406 5.578-5.625h-12.188v-1.969h12.188l-5.578-5.625z"></path>
</symbol>
</defs>
</svg>
